<svg xmlns="http://www.w3.org/2000/svg" width="55" height="55" viewBox="0 0 55 55" fill="none"><path d="M55 5.4615C55.0033 4.71456 54.7061 3.99767 54.1749 3.47235L51.5277 0.825035C51.0048 0.29646 50.2921 -0.000632448 49.5486 1.01092e-06H49.5394C48.8005 0.000453481 48.0927 0.297726 47.575 0.825035L35.5667 12.8332H11.9167V2.75003C11.9167 1.23117 10.6854 1.01092e-06 9.16666 1.01092e-06H7.33333C3.28514 0.00452571 0.00452474 3.28512 0 7.33328V47.8964C0.229404 51.9137 3.57554 55.0414 7.5992 54.9996H52.25C53.7688 54.9996 55 53.7684 55 52.2497V15.5833C55 14.0645 53.7688 12.8332 52.25 12.8332H48.7667L54.175 7.42495C54.7013 6.90696 54.9983 6.19993 55 5.4615ZM32.7984 22.9165C32.6043 22.943 32.4093 22.8747 32.274 22.7332C32.1376 22.5976 32.0702 22.4074 32.0907 22.2162L32.4381 19.0996C32.4527 19.0344 32.471 18.9701 32.4931 18.9071L36.1039 22.5178C36.0443 22.5307 35.9902 22.56 35.9279 22.5673L32.7984 22.9165ZM37.6007 21.4196L33.5894 17.4074L43.5811 7.41581L47.5905 11.4243L37.6007 21.4196ZM44.8736 6.11867L46.233 4.76017L50.2407 8.7687L48.8822 10.1281L44.8736 6.11867ZM1.83333 7.33328C1.83641 4.29702 4.29705 1.83631 7.33333 1.83332H9.16666C9.67289 1.83332 10.0834 2.24371 10.0834 2.74993V39.4163C10.0834 39.9225 9.67298 40.3329 9.16666 40.3329H7.33333C5.22743 40.3323 3.22333 41.2388 1.83333 42.8207V7.33328ZM52.25 14.6666C52.7562 14.6666 53.1667 15.0769 53.1667 15.5833V52.2497C53.1667 52.7559 52.7563 53.1664 52.25 53.1664H7.5992C4.57306 53.2172 2.03794 50.8876 1.83333 47.868V47.6663C1.83641 44.6301 4.29705 42.1694 7.33333 42.1663H9.16666C10.6854 42.1663 11.9166 40.9352 11.9166 39.4164V14.6666H33.7333L31.6515 16.7483C31.0704 17.3209 30.7048 18.0766 30.6166 18.8877L30.2692 22.0108C30.2406 22.3154 30.2696 22.6225 30.3545 22.9164H14.6667C14.1604 22.9164 13.7499 23.3268 13.7499 23.8332C13.7499 24.3394 14.1603 24.7498 14.6667 24.7498H17.4167V49.4996C17.4167 50.0058 17.8271 50.4163 18.3334 50.4163C18.8397 50.4163 19.2501 50.0059 19.2501 49.4996V36.6664H29.3334V43.9997H22.9167C22.4105 43.9997 22.0001 44.4101 22.0001 44.9163C22.0001 45.4225 22.4105 45.833 22.9167 45.833H41.25C42.2626 45.833 43.0834 45.0122 43.0834 43.9997V30.2498C43.0834 29.7436 42.673 29.3331 42.1667 29.3331C41.6605 29.3331 41.25 29.7435 41.25 30.2498V34.8331H19.25V24.7499H32.7324C32.8218 24.75 32.9112 24.7452 33.0001 24.7352L36.1323 24.3787C36.9273 24.2884 37.6693 23.9351 38.2406 23.3749L46.938 14.6666L52.25 14.6666ZM41.25 36.6664V43.9997H31.1667V36.6664H41.25ZM52.8825 6.12509L51.5368 7.47164L47.5292 3.46402L48.8757 2.11747C49.0519 1.93666 49.2934 1.83423 49.5459 1.83332C49.8029 1.83395 50.0488 1.93766 50.2287 2.12118L52.8798 4.76669C53.0641 4.94822 53.1675 5.19635 53.1667 5.45507C53.1659 5.70755 53.0635 5.94908 52.8825 6.12509Z" fill="white"></path></svg>