<svg xmlns="http://www.w3.org/2000/svg" xmlns:xlink="http://www.w3.org/1999/xlink" id="Layer_1" x="0px" y="0px" viewBox="0 0 55 55" style="enable-background:new 0 0 55 55;" xml:space="preserve"><style type="text/css">	.st0{display:none;fill:#FFFFFF;}</style><path class="st0" d="M-30.3,5.5c0-0.7-0.3-1.5-0.8-2l-2.6-2.6C-34.3,0.3-35,0-35.8,0h0c-0.7,0-1.4,0.3-2,0.8l-12,12h-23.7V2.8 c0-1.5-1.2-2.8-2.8-2.8H-78c-4,0-7.3,3.3-7.3,7.3v40.6c0.2,4,3.6,7.1,7.6,7.1h44.7c1.5,0,2.7-1.2,2.7-2.7V15.6 c0-1.5-1.2-2.8-2.7-2.8h-3.5l5.4-5.4C-30.6,6.9-30.3,6.2-30.3,5.5z M-52.5,22.9c-0.2,0-0.4,0-0.5-0.2c-0.1-0.1-0.2-0.3-0.2-0.5 l0.3-3.1c0-0.1,0-0.1,0.1-0.2l3.6,3.6c-0.1,0-0.1,0-0.2,0L-52.5,22.9z M-47.7,21.4l-4-4l10-10l4,4L-47.7,21.4z M-40.5,6.1l1.4-1.4 l4,4l-1.4,1.4L-40.5,6.1z M-83.5,7.3c0-3,2.5-5.5,5.5-5.5h1.8c0.5,0,0.9,0.4,0.9,0.9v36.7c0,0.5-0.4,0.9-0.9,0.9H-78 c-2.1,0-4.1,0.9-5.5,2.5V7.3z M-33.1,14.7c0.5,0,0.9,0.4,0.9,0.9v36.7c0,0.5-0.4,0.9-0.9,0.9h-44.7c-3,0.1-5.6-2.3-5.8-5.3v-0.2 c0-3,2.5-5.5,5.5-5.5h1.8c1.5,0,2.7-1.2,2.7-2.7V14.7h21.8l-2.1,2.1c-0.6,0.6-0.9,1.3-1,2.1l-0.3,3.1c0,0.3,0,0.6,0.1,0.9h-15.7 c-0.5,0-0.9,0.4-0.9,0.9c0,0.5,0.4,0.9,0.9,0.9h2.8v24.7c0,0.5,0.4,0.9,0.9,0.9s0.9-0.4,0.9-0.9V36.7H-56V44h-6.4 c-0.5,0-0.9,0.4-0.9,0.9c0,0.5,0.4,0.9,0.9,0.9h18.3c1,0,1.8-0.8,1.8-1.8V30.2c0-0.5-0.4-0.9-0.9-0.9c-0.5,0-0.9,0.4-0.9,0.9v4.6 h-22V24.7h13.5c0.1,0,0.2,0,0.3,0l3.1-0.4c0.8-0.1,1.5-0.4,2.1-1l8.7-8.7H-33.1z M-44.1,36.7V44h-10.1v-7.3H-44.1z M-32.5,6.1 l-1.3,1.3l-4-4l1.3-1.3c0.2-0.2,0.4-0.3,0.7-0.3c0.3,0,0.5,0.1,0.7,0.3l2.7,2.6c0.2,0.2,0.3,0.4,0.3,0.7 C-32.2,5.7-32.3,5.9-32.5,6.1z"></path><image style="overflow:visible;" width="107" height="107" transform="matrix(0.514 0 0 0.514 0 0)"></image></svg>