<svg width="18" height="18" viewBox="0 0 18 18" fill="none" xmlns="http://www.w3.org/2000/svg">
<path d="M17.8352 0.16475C17.7267 0.0561874 17.5787 -0.0029456 17.4249 0.000113008L7.65116 0.218786C7.42598 0.223848 7.22555 0.362681 7.14167 0.57172C7.05782 0.780725 7.10673 1.01965 7.26598 1.17891L9.45499 3.36792L0.164769 12.6581C-0.0549229 12.8778 -0.0549229 13.234 0.164769 13.4536L4.54637 17.8352C4.65623 17.9451 4.80016 18 4.94412 18C5.08809 18 5.23202 17.9451 5.34185 17.8352L14.6321 8.54501L16.8211 10.734C16.9803 10.8932 17.2192 10.9422 17.4283 10.8583C17.6373 10.7745 17.7762 10.574 17.7812 10.3488L17.9999 0.57506C18.0033 0.421568 17.9438 0.273313 17.8352 0.16475ZM16.6859 9.00784L15.0298 7.35177C14.8102 7.13211 14.454 7.13211 14.2343 7.35177L4.94412 16.642L1.35801 13.0559L10.6482 3.76568C10.8679 3.54598 10.8679 3.18985 10.6482 2.97019L8.99216 1.31412L16.862 1.13805L16.6859 9.00784Z" fill="white"/>
</svg>
