<svg width="17" height="12" viewBox="0 0 17 12" fill="none" xmlns="http://www.w3.org/2000/svg">
<path d="M3.13918 7.75282C2.77091 8.68212 2.1888 9.6021 1.40928 10.4876C1.16121 10.7693 1.12972 11.1716 1.33097 11.4884C1.48594 11.732 1.7466 11.8709 2.0226 11.8709C2.10036 11.8709 2.17949 11.8599 2.25753 11.8372C3.90967 11.3545 7.76349 9.63989 7.86699 4.15939C7.90697 2.04315 6.35914 0.225081 4.34366 0.0202708C3.23282 -0.0908987 2.12145 0.26998 1.29784 1.01446C0.473136 1.75976 0 2.82377 0 3.93405C0 5.78634 1.31481 7.40618 3.13918 7.75282ZM2.04971 1.84655C2.5735 1.37314 3.23282 1.12096 3.93185 1.12096C4.0307 1.12096 4.13036 1.12589 4.2303 1.1363C5.6697 1.28223 6.77451 2.60088 6.74548 4.13803C6.67402 7.93024 4.62075 9.63742 2.92041 10.4011C3.45844 9.67329 3.8812 8.92471 4.18184 8.16599C4.29902 7.87055 4.27959 7.54034 4.12872 7.25997C3.97073 6.9659 3.68898 6.75726 3.35631 6.68744C2.06121 6.41664 1.12151 5.25844 1.12151 3.93404C1.12151 3.14056 1.45993 2.37966 2.04971 1.84655Z" fill="#163300"/>
<path d="M10.2863 11.4884C10.4413 11.7321 10.702 11.8709 10.9779 11.8709C11.0557 11.8709 11.1346 11.86 11.2129 11.8372C12.865 11.3545 16.7186 9.63994 16.8221 4.15945C16.8615 2.0432 15.3139 0.225129 13.2982 0.020325C12.186 -0.0927567 11.0765 0.26976 10.2529 1.01451C9.42821 1.75981 8.95508 2.82382 8.95508 3.9341C8.95508 5.7864 10.2699 7.40623 12.094 7.75287C11.7254 8.68299 11.1433 9.60298 10.3641 10.4879C10.116 10.7699 10.0848 11.1719 10.2863 11.4884ZM13.1366 8.16659C13.2538 7.87115 13.2346 7.54095 13.0841 7.26057C12.9258 6.96623 12.6443 6.75759 12.3114 6.6875C11.0163 6.4167 10.0766 5.2585 10.0766 3.9341C10.0766 3.14034 10.415 2.37971 11.0048 1.84661C11.5283 1.3732 12.1876 1.12102 12.8869 1.12102C12.9855 1.12102 13.0852 1.12595 13.1854 1.13635C14.6245 1.28229 15.7296 2.60094 15.7005 4.13808C15.6294 7.93057 13.5758 9.63747 11.8755 10.4011C12.4132 9.67389 12.8354 8.92531 13.1366 8.16659Z" fill="#163300"/>
</svg>
