<svg width="13" height="16" viewBox="0 0 13 16" fill="none" xmlns="http://www.w3.org/2000/svg">
<path d="M10.0271 0.378246C8.82714 -0.386202 7.86201 0.0364089 7.39989 1.39004L6.4416 4.48481C6.34887 4.78027 6.4863 5.01986 6.74872 5.01986H9.39249C10.2179 5.01986 10.8508 6.01866 10.1938 6.83014L5.80648 12.0705C5.60375 12.321 5.29612 12.2218 5.38619 11.935L6.39768 7.96091C6.49055 7.66538 6.35297 7.42586 6.09063 7.42586H4.25468C3.21302 7.42586 2.94384 6.66457 3.16011 5.876L4.36893 1.34165C4.57778 0.558319 3.80243 -0.177912 3.10813 0.243335C1.24461 1.37389 0 3.4183 0 5.75272C0 10.6475 4.02524 11.563 3.24844 16C6.70876 14.5915 12.9231 10.7884 12.9231 5.75272C12.9229 3.50827 11.7916 1.50234 10.0271 0.378246Z" fill="#89EA5F"/>
</svg>
