<svg width="28" height="28" viewBox="0 0 28 28" fill="none" xmlns="http://www.w3.org/2000/svg">
<path d="M15.0748 19.3565L10.7896 23.6419C10.7896 23.6419 10.7896 23.642 10.7895 23.642C10.7895 23.642 10.7895 23.6421 10.7894 23.6421C9.01731 25.4142 6.13376 25.4143 4.36149 23.6421C3.50293 22.7835 3.03021 21.642 3.03021 20.428C3.03021 19.2141 3.50293 18.0728 4.36119 17.2143C4.36129 17.2142 4.36139 17.2141 4.36149 17.214L8.64672 12.9286C9.23832 12.3369 9.23831 11.3776 8.64662 10.786C8.05502 10.1944 7.09565 10.1944 6.50395 10.786L2.21872 15.0713C2.21842 15.0716 2.21812 15.072 2.21781 15.0723C0.787654 16.503 0 18.4051 0 20.428C0 22.4515 0.787957 24.3539 2.21882 25.7847C3.69575 27.2616 5.63559 28 7.57554 28C9.51548 28 11.4554 27.2616 12.9321 25.7847C12.9322 25.7847 12.9322 25.7845 12.9322 25.7845L17.2175 21.4992C17.8091 20.9076 17.8091 19.9482 17.2174 19.3565C16.6259 18.7649 15.6666 18.7649 15.0748 19.3565Z" fill="white"/>
<path d="M28.0073 7.57191C28.0073 5.54844 27.2192 3.64607 25.7883 2.2152C22.8346 -0.738451 18.0286 -0.738349 15.075 2.2152C15.0749 2.2154 15.0747 2.2155 15.0746 2.21571L10.7895 6.50073C10.1978 7.09233 10.1978 8.0518 10.7895 8.6434C11.0854 8.93935 11.4731 9.08722 11.8609 9.08722C12.2485 9.08722 12.6364 8.93925 12.9321 8.6434L17.2173 4.35837C17.2174 4.35817 17.2176 4.35807 17.2178 4.35787C18.9898 2.5858 21.8734 2.58569 23.6457 4.35787C24.5041 5.21643 24.977 6.35791 24.977 7.57191C24.977 8.78582 24.5043 9.9271 23.646 10.7857L23.6457 10.786L19.3604 15.0713C18.7688 15.6629 18.7688 16.6223 19.3605 17.214C19.6564 17.5098 20.0442 17.6578 20.4318 17.6578C20.8196 17.6578 21.2074 17.5098 21.5032 17.214L25.7884 12.9286C25.7887 12.9283 25.789 12.9279 25.7893 12.9276C27.2195 11.4969 28.0073 9.59488 28.0073 7.57191Z" fill="white"/>
<path d="M8.6469 19.3565C8.94275 19.6523 9.33052 19.8003 9.71818 19.8003C10.1059 19.8003 10.4937 19.6523 10.7896 19.3565L19.3602 10.7858C19.9519 10.1942 19.9519 9.23486 19.3602 8.64316C18.7686 8.05156 17.8093 8.05156 17.2176 8.64316L8.6469 17.2137C8.0552 17.8055 8.0552 18.7649 8.6469 19.3565Z" fill="white"/>
</svg>
