<svg width="12" height="15" viewBox="0 0 12 15" fill="none" xmlns="http://www.w3.org/2000/svg">
<path d="M9.31089 0.354606C8.19663 -0.362064 7.30043 0.0341333 6.87132 1.30317L5.98148 4.20451C5.89538 4.4815 6.023 4.70612 6.26666 4.70612H8.7216C9.48804 4.70612 10.0757 5.6425 9.46564 6.40326L5.39173 11.3161C5.20348 11.5509 4.91783 11.458 5.00146 11.1891L5.9407 7.46335C6.02694 7.1863 5.89919 6.96174 5.65559 6.96174H3.95078C2.98352 6.96174 2.73357 6.24803 2.93439 5.50875L4.05687 1.2578C4.2508 0.523424 3.53082 -0.166792 2.88612 0.228127C1.15571 1.28802 0 3.20466 0 5.39317C0 9.98203 3.73772 10.8403 3.01641 15C6.22956 13.6795 12 10.1141 12 5.39317C11.9999 3.289 10.9493 1.40844 9.31089 0.354606Z" fill="#89EA5F"/>
</svg>
