<svg width="215" height="33" viewBox="0 0 215 33" fill="none" xmlns="http://www.w3.org/2000/svg">
<path opacity="0.5" d="M214.177 3.14128C214.706 3.29801 215.009 3.85437 214.852 4.38395L212.298 13.014C212.141 13.5435 211.585 13.8458 211.055 13.6891C210.526 13.5323 210.223 12.976 210.38 12.4464L212.65 4.77528L204.979 2.50504C204.45 2.34831 204.147 1.79195 204.304 1.26237C204.461 0.732787 205.017 0.430531 205.547 0.587258L214.177 3.14128ZM2.04935 1.2062C2.81435 1.73241 3.61217 2.26436 4.44214 2.8007L3.35663 4.48048C2.51111 3.93409 1.69728 3.39149 0.915895 2.85401L2.04935 1.2062ZM9.40087 5.82963C11.0094 6.76047 12.7065 7.69661 14.4888 8.6316L13.5596 10.4027C11.7536 9.45523 10.0322 8.50577 8.39911 7.56067L9.40087 5.82963ZM19.7034 11.2434C21.4108 12.06 23.1816 12.871 25.0136 13.672L24.2124 15.5045C22.3599 14.6946 20.5684 13.8741 18.8404 13.0476L19.7034 11.2434ZM30.3899 15.9204C32.1553 16.6262 33.9691 17.3203 35.8295 17.9994L35.1438 19.8781C33.2643 19.1921 31.4316 18.4908 29.6474 17.7775L30.3899 15.9204ZM41.3333 19.9167C43.1481 20.5194 45.0019 21.1063 46.8933 21.6748L46.3176 23.5901C44.4078 23.0161 42.5358 22.4234 40.703 21.8148L41.3333 19.9167ZM52.5036 23.2752C54.3563 23.7758 56.2412 24.2576 58.1572 24.7186L57.6894 26.6631C55.7553 26.1978 53.8524 25.7113 51.982 25.206L52.5036 23.2752ZM63.8375 26.0029C65.7157 26.4005 67.6208 26.7773 69.552 27.1313L69.1913 29.0985C67.2421 28.7412 65.3191 28.3609 63.4232 27.9595L63.8375 26.0029ZM75.2973 28.1039C77.1988 28.3992 79.1234 28.6719 81.07 28.9202L80.817 30.9041C78.8522 30.6535 76.9097 30.3783 74.9904 30.0802L75.2973 28.1039ZM86.8668 29.5794C88.7865 29.7712 90.7259 29.9389 92.6842 30.0808L92.5397 32.0755C90.563 31.9323 88.6055 31.7631 86.6679 31.5695L86.8668 29.5794ZM98.5102 30.423C100.433 30.5096 102.372 30.5709 104.328 30.6055L104.292 32.6052C102.318 32.5702 100.361 32.5084 98.4202 32.421L98.5102 30.423ZM110.155 30.6291C112.085 30.6105 114.03 30.5655 115.988 30.4928L116.062 32.4914C114.085 32.5648 112.122 32.6102 110.174 32.629L110.155 30.6291ZM121.825 30.1958C123.746 30.0715 125.68 29.9201 127.626 29.7406L127.81 31.7321C125.846 31.9133 123.894 32.0661 121.954 32.1916L121.825 30.1958ZM133.419 29.1259C135.337 28.8958 137.265 28.6378 139.204 28.351L139.497 30.3295C137.54 30.619 135.593 30.8793 133.657 31.1117L133.419 29.1259ZM144.969 27.4173C146.865 27.0836 148.77 26.7219 150.683 26.3312L151.084 28.2907C149.152 28.6851 147.23 29.0502 145.316 29.3871L144.969 27.4173ZM156.381 25.087C158.267 24.6483 160.16 24.1811 162.061 23.6844L162.567 25.6194C160.649 26.1207 158.737 26.5922 156.834 27.0349L156.381 25.087ZM167.664 22.1402C169.517 21.6027 171.376 21.0369 173.242 20.4419L173.849 22.3473C171.967 22.9477 170.091 23.5187 168.221 24.061L167.664 22.1402ZM178.794 18.5894C180.61 17.9571 182.43 17.2968 184.255 16.6077L184.961 18.4787C183.12 19.1739 181.284 19.8401 179.452 20.4781L178.794 18.5894ZM189.687 14.476C191.478 13.7468 193.273 12.9894 195.071 12.2032L195.872 14.0358C194.058 14.8287 192.248 15.5927 190.442 16.3283L189.687 14.476ZM200.37 9.80786C202.124 8.98867 203.881 8.14165 205.641 7.26618L206.532 9.05688C204.757 9.93965 202.985 10.7938 201.216 11.6199L200.37 9.80786ZM210.82 4.61139C211.685 4.15508 212.55 3.69179 213.416 3.22147L214.37 4.97887C213.498 5.45301 212.626 5.92007 211.754 6.38013L210.82 4.61139Z" fill="#89EA5F"/>
</svg>
