<svg width="215" height="33" viewBox="0 0 215 33" fill="none" xmlns="http://www.w3.org/2000/svg">
<path opacity="0.5" d="M214.177 29.8587C214.706 29.702 215.009 29.1456 214.852 28.616L212.298 19.986C212.141 19.4565 211.585 19.1542 211.055 19.3109C210.526 19.4677 210.223 20.024 210.38 20.5536L212.65 28.2247L204.979 30.495C204.45 30.6517 204.147 31.2081 204.304 31.7376C204.461 32.2672 205.017 32.5695 205.547 32.4127L214.177 29.8587ZM2.04935 31.7938C2.81435 31.2676 3.61217 30.7356 4.44214 30.1993L3.35663 28.5195C2.51111 29.0659 1.69728 29.6085 0.915895 30.146L2.04935 31.7938ZM9.40087 27.1704C11.0094 26.2395 12.7065 25.3034 14.4888 24.3684L13.5596 22.5973C11.7536 23.5448 10.0322 24.4942 8.39911 25.4393L9.40087 27.1704ZM19.7034 21.7566C21.4108 20.94 23.1816 20.129 25.0136 19.328L24.2124 17.4955C22.3599 18.3054 20.5684 19.1259 18.8404 19.9524L19.7034 21.7566ZM30.3899 17.0796C32.1553 16.3738 33.9691 15.6797 35.8295 15.0006L35.1438 13.1219C33.2643 13.8079 31.4316 14.5092 29.6474 15.2225L30.3899 17.0796ZM41.3333 13.0833C43.1481 12.4806 45.0019 11.8937 46.8933 11.3252L46.3176 9.40985C44.4078 9.98389 42.5358 10.5766 40.703 11.1852L41.3333 13.0833ZM52.5036 9.72476C54.3563 9.22422 56.2412 8.74237 58.1572 8.28141L57.6894 6.3369C55.7553 6.80222 53.8524 7.28866 51.982 7.79398L52.5036 9.72476ZM63.8375 6.99715C65.7157 6.59951 67.6208 6.22271 69.552 5.86867L69.1913 3.90145C67.2421 4.25881 65.3191 4.63914 63.4232 5.04052L63.8375 6.99715ZM75.2973 4.89609C77.1988 4.60076 79.1234 4.32812 81.07 4.07985L80.817 2.09592C78.8522 2.34651 76.9097 2.6217 74.9904 2.91978L75.2973 4.89609ZM86.8668 3.42062C88.7865 3.22876 90.7259 3.06112 92.6842 2.91923L92.5397 0.924463C90.563 1.06768 88.6055 1.23688 86.6679 1.43053L86.8668 3.42062ZM98.5102 2.57702C100.433 2.49042 102.372 2.42912 104.328 2.39446L104.292 0.394771C102.318 0.429756 100.361 0.491635 98.4202 0.579043L98.5102 2.57702ZM110.155 2.37091C112.085 2.38952 114.03 2.43455 115.988 2.50722L116.062 0.508598C114.085 0.435239 112.122 0.389791 110.174 0.370998L110.155 2.37091ZM121.825 2.80423C123.746 2.92854 125.68 3.0799 127.626 3.25943L127.81 1.26789C125.846 1.08667 123.894 0.933886 121.954 0.808405L121.825 2.80423ZM133.419 3.87409C135.337 4.10424 137.265 4.36218 139.204 4.64897L139.497 2.6705C137.54 2.38102 135.593 2.12065 133.657 1.88834L133.419 3.87409ZM144.969 5.58266C146.865 5.9164 148.77 6.27815 150.683 6.66884L151.084 4.70928C149.152 4.31494 147.23 3.94981 145.316 3.61294L144.969 5.58266ZM156.381 7.91305C158.267 8.35172 160.16 8.81894 162.061 9.3156L162.567 7.38057C160.649 6.87934 158.737 6.40779 156.834 5.96505L156.381 7.91305ZM167.664 10.8598C169.517 11.3973 171.376 11.9631 173.242 12.5581L173.849 10.6527C171.967 10.0523 170.091 9.48133 168.221 8.93899L167.664 10.8598ZM178.794 14.4106C180.61 15.0429 182.43 15.7032 184.255 16.3923L184.961 14.5213C183.12 13.8261 181.284 13.1599 179.452 12.5219L178.794 14.4106ZM189.687 18.524C191.478 19.2532 193.273 20.0106 195.071 20.7968L195.872 18.9642C194.058 18.1713 192.248 17.4073 190.442 16.6717L189.687 18.524ZM200.37 23.1921C202.124 24.0113 203.881 24.8583 205.641 25.7338L206.532 23.9431C204.757 23.0603 202.985 22.2062 201.216 21.3801L200.37 23.1921ZM210.82 28.3886C211.685 28.8449 212.55 29.3082 213.416 29.7785L214.37 28.0211C213.498 27.547 212.626 27.0799 211.754 26.6199L210.82 28.3886Z" fill="#89EA5F"/>
</svg>
