<svg width="772" height="537" viewBox="0 0 772 537" fill="none" xmlns="http://www.w3.org/2000/svg">
<path d="M580.11 479.306H129.346V482.869H580.11V479.306Z" fill="#163300"/>
<path d="M772 479.306H746.559V482.869H772V479.306Z" fill="#163300"/>
<path d="M158.391 424.532L162.263 481.088H223.788L219.645 420.337L158.391 424.532Z" fill="#163300"/>
<path d="M225.696 482.87H160.598L156.49 422.875L221.3 418.436L225.696 482.87ZM163.926 479.306H221.881L217.987 422.237L160.289 426.189L163.926 479.306Z" fill="#163300"/>
<path d="M107.475 481.088L178.552 308.071L121.736 291.055L43.25 481.088H107.475Z" fill="#163300"/>
<path d="M108.671 482.87H40.5879L120.706 288.885L180.95 306.927L108.671 482.87ZM45.9159 479.306H106.281L176.155 309.213L122.768 293.224L45.9159 479.306Z" fill="#163300"/>
<path d="M252.514 481.088H319.439C319.184 478.386 318.954 475.628 318.755 472.791C316.545 439.969 319.295 415.458 326.902 399.333C334.596 383.219 346.143 374.645 361.541 373.609C376.598 372.522 388.901 379.479 398.361 394.467C407.907 409.467 413.706 433.324 416.001 466.157C416.35 471.346 416.573 476.314 416.682 481.088H484.49C484.508 474.717 484.316 468.215 483.851 461.541C482.416 439.985 478.818 420.113 473.113 402.108C467.408 384.103 459.4 368.72 449.076 356.045C438.666 343.355 425.975 333.727 411.001 327.161C395.931 320.666 378.55 318.012 358.749 319.358C338.595 320.737 321.483 325.701 307.329 334.241C293.26 342.79 281.847 353.999 273.334 367.989C264.737 381.965 258.76 398.245 255.223 416.889C251.771 435.546 250.713 455.688 252.218 477.342C252.306 478.6 252.414 479.84 252.514 481.088Z" fill="white"/>
<path d="M486.265 482.869H414.939L414.898 481.129C414.786 476.283 414.559 471.287 414.221 466.276C411.952 433.8 406.108 409.961 396.856 395.422C387.802 381.076 375.953 374.352 361.669 375.384C346.817 376.384 335.972 384.468 328.509 400.098C321.041 415.929 318.355 440.347 320.531 472.67C320.729 475.487 320.957 478.231 321.212 480.92L321.395 482.869H250.866L250.652 480.205C250.577 479.291 250.504 478.381 250.442 477.458C248.948 455.992 249.968 435.503 253.471 416.563C257.056 397.669 263.227 381.015 271.816 367.052C280.348 353.033 291.986 341.477 306.404 332.717C320.756 324.06 338.326 318.967 358.628 317.579C378.491 316.23 396.343 318.903 411.707 325.525C426.88 332.179 439.911 342.065 450.453 354.913C460.855 367.686 469.048 383.383 474.811 401.572C480.552 419.692 484.191 439.828 485.627 461.424C486.073 467.833 486.288 474.453 486.269 481.095L486.265 482.869ZM418.417 479.306H482.707C482.685 473.347 482.473 467.42 482.072 461.664C480.656 440.349 477.069 420.494 471.416 402.646C465.791 384.887 457.809 369.587 447.695 357.169C437.516 344.763 424.93 335.215 410.288 328.791C395.459 322.401 378.158 319.823 358.872 321.134C339.14 322.483 322.108 327.407 308.252 335.764C294.333 344.225 283.094 355.378 274.858 368.912C266.492 382.514 260.478 398.763 256.974 417.219C253.526 435.856 252.525 456.044 253.999 477.215C254.045 477.919 254.1 478.612 254.155 479.306H317.486C317.301 477.214 317.129 475.088 316.976 472.914C314.759 439.974 317.557 414.963 325.289 398.571C333.249 381.901 345.406 372.907 361.422 371.829C362.473 371.754 363.523 371.715 364.556 371.715C378.856 371.715 390.737 379.048 399.866 393.512C409.572 408.765 415.431 432.487 417.778 466.03C418.081 470.503 418.294 474.958 418.417 479.306Z" fill="#163300"/>
<path d="M733.641 481.088L729.11 453.011L697.165 455.176L692.321 384.155L631.067 388.352L635.924 459.286L572.462 463.68L651.313 271.901L594.412 254.873L500.982 481.088H733.641Z" fill="#163300"/>
<path d="M735.737 482.87H498.32L593.384 252.704L653.712 270.757L575.203 461.704L634.025 457.632L629.167 386.694L693.979 382.255L698.824 453.277L730.61 451.121L735.737 482.87ZM503.648 479.306H731.551L727.611 454.898L695.511 457.076L690.666 386.058L632.968 390.01L637.826 460.945L569.725 465.656L648.918 273.045L595.446 257.045L503.648 479.306Z" fill="#163300"/>
<path d="M387.624 336.398C388.237 343.995 372.744 351.442 353.022 353.029C333.299 354.619 316.814 349.749 316.203 342.152C315.59 334.556 331.082 327.109 350.805 325.52C370.528 323.932 387.011 328.802 387.624 336.398Z" fill="#89EA5F"/>
<path d="M422.35 340.65C421.252 343.715 414.586 344.129 407.461 341.575C400.337 339.022 395.453 334.467 396.551 331.402C397.648 328.337 404.314 327.924 411.439 330.477C418.563 333.031 423.447 337.587 422.35 340.65Z" fill="#89EA5F"/>
<path d="M21.3834 479.306H0V482.87H21.3834V479.306Z" fill="#163300"/>
<path d="M110.899 508.369H89.9883V511.933H110.899V508.369Z" fill="#163300"/>
<path d="M178.551 508.369H140.775V511.933H178.551V508.369Z" fill="#163300"/>
<path d="M596.952 508.369H580.107V511.933H596.952V508.369Z" fill="#163300"/>
<path d="M690.507 508.369H617.318V511.933H690.507V508.369Z" fill="#163300"/>
<path d="M77.5153 533.081H59.0703V536.645H77.5153V533.081Z" fill="#163300"/>
<path d="M718.127 533.081H699.682V536.645H718.127V533.081Z" fill="#163300"/>
<path d="M332.619 338.401C332.615 338.401 332.612 338.401 332.608 338.401C330.148 338.396 328.159 336.397 328.164 333.936C328.257 295.041 316.66 269.522 313.684 264.776C313.085 264.19 312.645 263.429 312.453 262.549C312.087 260.881 312.709 259.087 314.051 258.03C315.395 256.975 317.243 256.781 318.777 257.527C322.963 259.568 329.23 279.283 329.292 279.483C332.874 290.935 337.133 309.682 337.074 333.957C337.067 336.414 335.073 338.401 332.619 338.401Z" fill="#163300"/>
<path d="M438.564 288.296C437.456 288.296 436.348 287.887 435.485 287.062C433.709 285.36 433.646 282.541 435.346 280.762C438.344 277.612 446.136 267.248 442.69 261.234C439.085 254.945 424.539 249.279 416.217 247.187C413.831 246.586 412.384 244.166 412.983 241.782C413.582 239.396 416.001 237.953 418.384 238.544C420.962 239.191 443.766 245.189 450.42 256.806C457.893 269.85 442.446 286.233 441.784 286.924C440.908 287.835 439.737 288.296 438.564 288.296Z" fill="#163300"/>
<path d="M407.21 125.328C406.51 125.328 405.799 125.162 405.137 124.813C402.96 123.666 402.126 120.973 403.272 118.796L432.9 62.5501C434.044 60.3743 436.742 59.5368 438.918 60.6844C441.095 61.8302 441.929 64.5245 440.784 66.702L411.155 122.948C410.359 124.464 408.81 125.328 407.21 125.328Z" fill="#163300"/>
<path d="M291.721 164.634C291.566 164.634 291.409 164.627 291.252 164.609L219.677 157.115C217.23 156.86 215.454 154.666 215.71 152.22C215.967 149.773 218.159 148.005 220.605 148.253L292.181 155.746C294.627 156.003 296.404 158.194 296.147 160.641C295.907 162.933 293.973 164.634 291.721 164.634Z" fill="#163300"/>
<path d="M442.211 249.11L323.772 285.738C321.384 286.475 318.85 285.139 318.112 282.751L274.825 142.779C274.472 141.64 274.585 140.407 275.135 139.349L290.4 110.08C290.957 109.009 291.921 108.206 293.074 107.849L389.321 78.0852C391.709 77.3475 394.243 78.6839 394.98 81.0718L445.196 243.45C445.935 245.836 444.599 248.37 442.211 249.11Z" fill="white"/>
<path d="M322.434 287.723C319.654 287.723 317.234 285.937 316.411 283.279L273.122 143.306C272.628 141.708 272.781 140.01 273.557 138.527L288.821 109.259C289.594 107.776 290.954 106.644 292.55 106.149L388.797 76.3834C389.405 76.1963 390.032 76.1018 390.663 76.1018C393.444 76.1018 395.864 77.8873 396.686 80.546L446.903 242.925C447.4 244.534 447.242 246.241 446.456 247.73C445.67 249.22 444.349 250.316 442.74 250.813L324.301 287.439C323.694 287.627 323.065 287.723 322.434 287.723ZM390.663 79.6639C390.39 79.6639 390.116 79.7049 389.85 79.7869L293.604 109.553C292.909 109.766 292.317 110.26 291.982 110.905L276.718 140.174C276.381 140.819 276.313 141.556 276.529 142.253L319.816 282.224C320.256 283.642 321.806 284.483 323.246 284.036L441.687 247.408C442.389 247.192 442.961 246.716 443.303 246.068C443.644 245.419 443.713 244.676 443.498 243.978L393.281 81.5991C392.922 80.4409 391.873 79.6639 390.663 79.6639Z" fill="#163300"/>
<path d="M364.09 163.617C366.173 172.61 362.167 182.429 355.143 185.551C348.118 188.673 340.737 183.912 338.654 174.92C336.571 165.926 340.579 156.108 347.601 152.986C354.624 149.864 362.007 154.623 364.09 163.617Z" fill="#89EA5F"/>
<path d="M347.601 152.986C344.418 154.399 341.866 157.195 340.209 160.659C343.497 163.968 348.016 165.1 352.401 163.15C355.587 161.735 358.132 158.929 359.787 155.457C356.5 152.159 351.981 151.038 347.601 152.986Z" fill="#FFFCF3"/>
<path d="M291.397 108.815C291.345 108.861 291.302 108.913 291.253 108.961L274.853 140.043C274.764 140.316 274.704 140.594 274.668 140.877L294.763 134.662C297.096 133.94 298.4 131.465 297.68 129.134L291.397 108.815Z" fill="#FFFCF3"/>
<path d="M272.555 143.395L272.9 140.653C272.95 140.259 273.036 139.872 273.159 139.491L273.278 139.21L290.004 107.689C290.077 107.61 290.146 107.541 290.219 107.477L292.286 105.655L299.384 128.607C299.872 130.189 299.717 131.868 298.944 133.333C298.17 134.797 296.873 135.874 295.291 136.364L272.555 143.395ZM290.941 113.371L277.947 137.998L294.237 132.96C294.909 132.752 295.463 132.294 295.791 131.672C296.119 131.048 296.187 130.334 295.978 129.662L290.941 113.371Z" fill="#163300"/>
<path d="M368.689 133.213C368.94 135.271 367.475 137.144 365.417 137.396C363.359 137.647 361.486 136.184 361.235 134.124C360.984 132.066 362.449 130.193 364.507 129.942C366.565 129.692 368.438 131.155 368.689 133.213Z" fill="#89EA5F"/>
<path d="M331.863 147.143C332.114 149.201 330.651 151.074 328.591 151.325C326.533 151.576 324.66 150.112 324.409 148.053C324.158 145.995 325.621 144.122 327.681 143.871C329.737 143.62 331.61 145.085 331.863 147.143Z" fill="#89EA5F"/>
<path d="M168.05 126.357H102.697C100.944 126.357 99.2455 125.629 98.0391 124.355C96.8221 123.072 96.2055 121.397 96.2982 119.638C96.3463 118.706 96.4942 117.765 96.7348 116.842C98.0819 111.656 102.341 107.699 107.581 106.763C110.44 106.252 113.337 106.626 115.891 107.811C118.065 97.7483 126.966 90.4244 137.493 90.4244C147.891 90.4244 156.672 97.4863 158.993 107.453C160.215 107.228 161.452 107.177 162.717 107.312C169.112 107.991 174.155 113.342 174.446 119.759C174.508 121.569 173.891 123.161 172.712 124.381C171.498 125.638 169.798 126.357 168.05 126.357ZM110.103 109.727C109.456 109.727 108.795 109.785 108.143 109.903C104.185 110.61 100.84 113.72 99.8211 117.644C99.6358 118.36 99.5217 119.087 99.4825 119.805C99.4362 120.682 99.7445 121.518 100.352 122.159C100.969 122.808 101.801 123.166 102.697 123.166H168.05C168.939 123.166 169.802 122.801 170.418 122.163C170.992 121.569 171.292 120.805 171.265 120.01C171.044 115.124 167.143 110.986 162.382 110.482C160.965 110.332 159.584 110.486 158.242 110.926L156.453 111.512L156.168 109.652C154.744 100.357 146.89 93.6124 137.49 93.6124C127.792 93.6124 119.706 100.876 118.681 110.507L118.396 113.192L116.183 111.644C114.389 110.389 112.286 109.727 110.103 109.727Z" fill="#89EA5F"/>
<path d="M614.461 125.769H560.616C558.475 125.769 556.383 124.903 554.876 123.392C553.436 121.947 552.645 120.056 552.648 118.064C552.652 117.116 552.741 116.163 552.914 115.229C553.99 109.409 558.393 104.643 564.135 103.089C566.71 102.392 569.356 102.36 571.911 102.994C575.473 95.6669 582.845 91.0089 591.076 91.0089C600.592 91.0089 609.013 97.4524 611.586 106.51C617.631 106.911 622.424 111.956 622.424 118.1C622.394 122.366 618.823 125.769 614.461 125.769ZM568.212 105.73C567.132 105.73 566.043 105.877 564.969 106.168C560.405 107.403 556.904 111.188 556.05 115.81C555.911 116.559 555.84 117.321 555.836 118.075C555.833 119.212 556.294 120.301 557.132 121.14C558.044 122.056 559.313 122.58 560.614 122.58H614.459C617.03 122.58 619.215 120.555 619.233 118.159C619.233 113.454 615.453 109.675 610.808 109.675C610.662 109.7 610.54 109.714 610.417 109.719L609.074 109.78L608.787 108.465C606.991 100.198 599.54 94.1986 591.074 94.1986C583.662 94.1986 577.066 98.6428 574.274 105.521L573.702 106.925L572.271 106.426C570.944 105.965 569.579 105.73 568.212 105.73Z" fill="#89EA5F"/>
<path d="M501.062 28.8855H500.918C500.918 24.9973 497.765 21.845 493.879 21.845V21.7006C497.767 21.7006 500.918 18.5484 500.918 14.6619H501.062C501.062 18.5501 504.214 21.7006 508.101 21.7006V21.845C504.214 21.845 501.062 24.9973 501.062 28.8855Z" fill="white"/>
<path d="M223.859 59.3533H223.713C223.713 55.4651 220.56 52.3146 216.674 52.3146V52.1685C220.562 52.1685 223.713 49.0162 223.713 45.1298H223.859C223.859 49.018 227.011 52.1685 230.899 52.1685V52.3128C227.011 52.3128 223.859 55.4651 223.859 59.3533Z" fill="white"/>
<path d="M381.327 29.322H381.028C381.028 21.3086 374.531 14.8098 366.518 14.8098V14.5104C374.531 14.5104 381.028 8.01343 381.028 0H381.327C381.327 8.01343 387.824 14.5104 395.838 14.5104V14.8098C387.823 14.8098 381.327 21.3068 381.327 29.322Z" fill="#89EA5F"/>
<path d="M540.97 99.2332H540.753C540.753 93.3973 536.021 88.6662 530.186 88.6662V88.4488C536.021 88.4488 540.753 83.7177 540.753 77.8818H540.97C540.97 83.7177 545.701 88.4488 551.537 88.4488V88.6662C545.701 88.6662 540.97 93.3973 540.97 99.2332Z" fill="white"/>
<path d="M129.454 131.549H129.237C129.237 125.713 124.506 120.982 118.67 120.982V120.764C124.506 120.764 129.237 116.033 129.237 110.198H129.454C129.454 116.033 134.185 120.764 140.021 120.764V120.982C134.184 120.982 129.454 125.713 129.454 131.549Z" fill="white"/>
</svg>
