<svg width="26" height="32" viewBox="0 0 26 32" fill="none" xmlns="http://www.w3.org/2000/svg">
<path d="M20.0012 0.756492C17.6076 -0.772404 15.6824 0.0728177 14.7606 2.78009L12.8491 8.96962C12.6641 9.56053 12.9383 10.0397 13.4617 10.0397H18.7353C20.3817 10.0397 21.6441 12.0373 20.3336 13.6603L11.5822 24.141C11.1778 24.642 10.5642 24.4437 10.7439 23.87L12.7615 15.9218C12.9468 15.3308 12.6723 14.8517 12.149 14.8517H8.48685C6.40905 14.8517 5.87211 13.3291 6.3035 11.752L8.71475 2.6833C9.13135 1.11664 7.58473 -0.355823 6.19982 0.486671C2.48263 2.74778 0 6.83661 0 11.5054C0 21.295 8.02919 23.126 6.4797 32C13.382 29.183 25.7778 21.5767 25.7778 11.5054C25.7775 7.01654 23.5208 3.00468 20.0012 0.756492Z" fill="white"/>
</svg>
