<svg xmlns="http://www.w3.org/2000/svg" width="158" height="69" viewBox="0 0 158 69" fill="none"><path d="M42.7102 2.29472C37.5989 -0.961422 33.488 0.838676 31.5196 6.60444L27.4378 19.7865C27.0428 21.045 27.6282 22.0655 28.746 22.0655H40.007C43.5228 22.0655 46.2185 26.3199 43.4201 29.7764L24.7325 52.0975C23.869 53.1645 22.5587 52.7422 22.9423 51.5204L27.2507 34.5928C27.6463 33.3341 27.0603 32.3138 25.9429 32.3138H18.1227C13.6858 32.3138 12.5392 29.0711 13.4604 25.7122L18.6093 6.39831C19.4989 3.06174 16.1963 -0.074216 13.239 1.72007C5.30136 6.53563 0 15.2438 0 25.1871C0 46.0363 17.1454 49.9359 13.8366 68.8351C28.5758 62.8357 55.0455 46.6363 55.0455 25.1871C55.0448 15.627 50.2258 7.08276 42.7102 2.29472Z" fill="#89EA5F"></path><path d="M72.0049 41.1236V40.3236C72.0049 39.7636 72.2849 39.4836 72.8449 39.4836H76.2449C76.8049 39.4836 77.0849 39.7636 77.0849 40.3236V40.6436C77.0849 41.6569 77.2849 42.3503 77.6849 42.7236C78.0849 43.0969 78.8183 43.2836 79.8849 43.2836H81.7649C82.8049 43.2836 83.5249 43.0836 83.9249 42.6836C84.3516 42.2836 84.5649 41.5369 84.5649 40.4436V39.9636C84.5649 39.1903 84.2449 38.6036 83.6049 38.2036C82.9916 37.7769 82.2183 37.5236 81.2849 37.4436C80.3516 37.3636 79.3383 37.2169 78.2449 37.0036C77.1783 36.7636 76.1783 36.4703 75.2449 36.1236C74.3116 35.7503 73.5249 35.0436 72.8849 34.0036C72.2716 32.9369 71.9649 31.5769 71.9649 29.9236V28.5236C71.9649 26.4436 72.5516 24.8303 73.7249 23.6836C74.8983 22.5369 76.5249 21.9636 78.6049 21.9636H82.6049C84.7116 21.9636 86.3516 22.5369 87.5249 23.6836C88.6983 24.8303 89.2849 26.4436 89.2849 28.5236V29.2836C89.2849 29.8436 89.0049 30.1236 88.4449 30.1236H85.0449C84.4849 30.1236 84.2049 29.8436 84.2049 29.2836V29.0436C84.2049 28.0036 84.0049 27.2969 83.6049 26.9236C83.2049 26.5503 82.4716 26.3636 81.4049 26.3636H79.8449C78.7516 26.3636 78.0049 26.5769 77.6049 27.0036C77.2316 27.4036 77.0449 28.2036 77.0449 29.4036V30.1636C77.0449 31.4169 78.1383 32.1369 80.3249 32.3236C82.5916 32.5103 84.6049 32.9636 86.3649 33.6836C87.2983 34.0836 88.0716 34.8036 88.6849 35.8436C89.3249 36.8569 89.6449 38.1636 89.6449 39.7636V41.1236C89.6449 43.2036 89.0583 44.8169 87.8849 45.9636C86.7116 47.1103 85.0849 47.6836 83.0049 47.6836H78.6449C76.5649 47.6836 74.9383 47.1103 73.7649 45.9636C72.5916 44.8169 72.0049 43.2036 72.0049 41.1236ZM103.567 47.6836H100.007C97.9008 47.6836 96.2741 47.1236 95.1274 46.0036C93.9808 44.8836 93.4074 43.2703 93.4074 41.1636V33.8036C93.4074 31.6969 93.9808 30.0836 95.1274 28.9636C96.2741 27.8436 97.9008 27.2836 100.007 27.2836H103.567C105.647 27.2836 107.261 27.8569 108.407 29.0036C109.581 30.1236 110.167 31.7236 110.167 33.8036V41.1636C110.167 43.2436 109.581 44.8569 108.407 46.0036C107.261 47.1236 105.647 47.6836 103.567 47.6836ZM100.767 43.3236H102.807C103.661 43.3236 104.261 43.1503 104.607 42.8036C104.981 42.4569 105.167 41.8569 105.167 41.0036V33.9636C105.167 33.1103 104.981 32.5103 104.607 32.1636C104.261 31.8169 103.661 31.6436 102.807 31.6436H100.767C99.9141 31.6436 99.3141 31.8169 98.9674 32.1636C98.6208 32.5103 98.4474 33.1103 98.4474 33.9636V41.0036C98.4474 41.8569 98.6208 42.4569 98.9674 42.8036C99.3141 43.1503 99.9141 43.3236 100.767 43.3236ZM118.599 47.6836H115.199C114.639 47.6836 114.359 47.4036 114.359 46.8436V20.4036C114.359 19.8436 114.639 19.5636 115.199 19.5636H118.599C119.159 19.5636 119.439 19.8436 119.439 20.4036V46.8436C119.439 47.4036 119.159 47.6836 118.599 47.6836ZM133.802 47.6836H130.242C128.135 47.6836 126.508 47.1236 125.362 46.0036C124.215 44.8836 123.642 43.2703 123.642 41.1636V33.8036C123.642 31.6969 124.215 30.0836 125.362 28.9636C126.508 27.8436 128.135 27.2836 130.242 27.2836H133.802C135.882 27.2836 137.495 27.8569 138.642 29.0036C139.815 30.1236 140.402 31.7236 140.402 33.8036V41.1636C140.402 43.2436 139.815 44.8569 138.642 46.0036C137.495 47.1236 135.882 47.6836 133.802 47.6836ZM131.002 43.3236H133.042C133.895 43.3236 134.495 43.1503 134.842 42.8036C135.215 42.4569 135.402 41.8569 135.402 41.0036V33.9636C135.402 33.1103 135.215 32.5103 134.842 32.1636C134.495 31.8169 133.895 31.6436 133.042 31.6436H131.002C130.148 31.6436 129.548 31.8169 129.202 32.1636C128.855 32.5103 128.682 33.1103 128.682 33.9636V41.0036C128.682 41.8569 128.855 42.4569 129.202 42.8036C129.548 43.1503 130.148 43.3236 131.002 43.3236ZM148.633 47.6836H145.233C144.673 47.6836 144.393 47.4036 144.393 46.8436V28.1236C144.393 27.5636 144.673 27.2836 145.233 27.2836H148.633C149.193 27.2836 149.473 27.5636 149.473 28.1236V29.4836H149.633C149.927 28.7636 150.447 28.2169 151.193 27.8436C151.94 27.4703 152.727 27.2836 153.553 27.2836H154.993C155.527 27.2836 155.793 27.5636 155.793 28.1236V30.8836C155.793 31.2036 155.727 31.4303 155.593 31.5636C155.487 31.6703 155.287 31.7103 154.993 31.6836H152.233C150.393 31.6836 149.473 32.7236 149.473 34.8036V46.8436C149.473 47.4036 149.193 47.6836 148.633 47.6836Z" fill="white"></path></svg>