<svg xmlns="http://www.w3.org/2000/svg" width="25" height="28" viewBox="0 0 25 28" fill="none"><path d="M19.7873 18.8341C18.4457 18.8341 17.237 19.4134 16.3981 20.335L8.85275 15.6618C9.0542 15.1461 9.16592 14.586 9.16592 14C9.16592 13.4138 9.0542 12.8537 8.85275 12.3382L16.3981 7.66479C17.237 8.58636 18.4457 9.16592 19.7873 9.16592C22.3144 9.16592 24.3703 7.11002 24.3703 4.58286C24.3703 2.05569 22.3144 0 19.7873 0C17.2601 0 15.2042 2.05591 15.2042 4.58307C15.2042 5.16904 15.3161 5.72916 15.5174 6.24484L7.9722 10.9181C7.1333 9.99649 5.92462 9.41693 4.58307 9.41693C2.05591 9.41693 0 11.4731 0 14C0 16.5272 2.05591 18.5831 4.58307 18.5831C5.92462 18.5831 7.1333 18.0037 7.9722 17.0819L15.5174 21.7552C15.3161 22.2708 15.2042 22.831 15.2042 23.4171C15.2042 25.9441 17.2601 28 19.7873 28C22.3144 28 24.3703 25.9441 24.3703 23.4171C24.3703 20.89 22.3144 18.8341 19.7873 18.8341ZM16.8754 4.58307C16.8754 2.97748 18.1817 1.67117 19.7873 1.67117C21.3929 1.67117 22.6992 2.97748 22.6992 4.58307C22.6992 6.18866 21.3929 7.49496 19.7873 7.49496C18.1817 7.49496 16.8754 6.18866 16.8754 4.58307ZM4.58307 16.9119C2.97726 16.9119 1.67096 15.6056 1.67096 14C1.67096 12.3944 2.97726 11.0881 4.58307 11.0881C6.18866 11.0881 7.49475 12.3944 7.49475 14C7.49475 15.6056 6.18866 16.9119 4.58307 16.9119ZM16.8754 23.4169C16.8754 21.8113 18.1817 20.505 19.7873 20.505C21.3929 20.505 22.6992 21.8113 22.6992 23.4169C22.6992 25.0225 21.3929 26.3288 19.7873 26.3288C18.1817 26.3288 16.8754 25.0225 16.8754 23.4169Z" fill="white"></path></svg>