<svg xmlns="http://www.w3.org/2000/svg" width="27" height="40" viewBox="0 0 27 40" fill="none"><path d="M13.3578 3.12551C12.9258 3.12238 12.5735 3.47004 12.5703 3.90129C12.5672 4.33254 12.9141 4.68489 13.3461 4.68801C13.7774 4.69114 14.1297 4.34426 14.1328 3.91301C14.136 3.48176 13.7891 3.12942 13.3578 3.12551Z" fill="white"></path><path d="M13.3224 7.81264C10.3059 7.79123 7.83547 10.2248 7.81266 13.2403C7.78992 16.2557 10.2248 18.7273 13.2403 18.75C13.2543 18.7501 13.2682 18.7502 13.2822 18.7502C16.2785 18.7502 18.7274 16.3239 18.75 13.3223C18.7728 10.3071 16.338 7.83537 13.3224 7.81264ZM13.282 17.1877C13.2722 17.1877 13.2619 17.1877 13.252 17.1876C11.0981 17.1713 9.35883 15.4059 9.37508 13.252C9.39125 11.1079 11.1403 9.37491 13.2806 9.37491C13.2905 9.37491 13.3008 9.37499 13.3106 9.37507C15.4646 9.39132 17.2038 11.1568 17.1876 13.3106C17.1713 15.4548 15.4224 17.1877 13.282 17.1877Z" fill="white"></path><path d="M16.69 3.71798C16.2836 3.57376 15.8368 3.78665 15.6926 4.19337C15.5484 4.60009 15.7613 5.04658 16.1679 5.1908C19.6091 6.41041 21.9025 9.68784 21.875 13.3462C21.8718 13.7776 22.2189 14.13 22.6504 14.1333C22.6523 14.1333 22.6544 14.1333 22.6564 14.1333C23.085 14.1333 23.4342 13.7874 23.4375 13.3579C23.47 9.03393 20.7583 5.15994 16.69 3.71798Z" fill="white"></path><path d="M18.0751 29.4096C23.2714 22.7209 26.5189 19.233 26.5627 13.3811C26.6177 6.01837 20.6425 0 13.2803 0C6.00405 0 0.0557598 5.89282 0.000447185 13.1819C-0.0442404 19.1925 3.2635 22.6756 8.4957 29.4085C3.29061 30.1863 0.000447185 32.1408 0.000447185 34.5313C0.000447185 36.1327 1.48061 37.5696 4.16835 38.5774C6.61468 39.4948 9.85117 40 13.2816 40C16.712 40 19.9485 39.4948 22.3948 38.5774C25.0825 37.5695 26.5627 36.1326 26.5627 34.5312C26.5627 32.142 23.2756 30.188 18.0751 29.4096ZM1.56287 13.1937C1.61162 6.76173 6.85968 1.5625 13.2805 1.5625C19.7773 1.5625 25.0487 6.87408 25.0003 13.3695C24.9587 18.9268 21.5148 22.3516 16.0166 29.519C15.0359 30.7969 14.1352 32.005 13.2827 33.1868C12.4327 32.0043 11.5501 30.8178 10.5547 29.5186C4.82921 22.0511 1.52053 18.8851 1.56287 13.1937ZM13.2816 38.4376C6.57444 38.4376 1.56287 36.3753 1.56287 34.5313C1.56287 33.1638 4.55882 31.4363 9.59617 30.8381C10.7097 32.2991 11.6859 33.6265 12.6434 34.9821C12.7897 35.1891 13.0273 35.3124 13.2809 35.3126C13.2811 35.3126 13.2813 35.3126 13.2816 35.3126C13.5348 35.3126 13.7724 35.1898 13.9189 34.9831C14.8674 33.6451 15.8703 32.2851 16.9743 30.839C22.007 31.4378 25.0003 33.1648 25.0003 34.5314C25.0002 36.3753 19.9887 38.4376 13.2816 38.4376Z" fill="white"></path></svg>