<svg xmlns="http://www.w3.org/2000/svg" width="34" height="32" viewBox="0 0 34 32" fill="none"><path d="M0.401132 14.0176C-0.136422 14.0362 -0.128173 14.8343 0.408693 14.8425C0.95862 14.8363 1.26864 14.5834 1.43224 14.252C1.93268 14.736 2.72182 15.1752 3.75431 15.5361L2.92736 26.5195C2.58572 26.5298 2.0681 26.4185 2.02135 26.9072L1.93886 28.2848C1.9203 28.5151 2.11965 28.7268 2.35062 28.722H4.16676C4.39772 28.7268 4.59707 28.5151 4.57851 28.2848L4.49602 26.9072C4.44997 26.4879 4.08014 26.5085 3.755 26.5195L3.78662 26.1002L6.54381 23.917L9.29963 26.0995L9.33125 26.5195C9.0068 26.5092 8.63491 26.4872 8.58954 26.9072L8.50705 28.2848C8.48849 28.5151 8.68784 28.7268 8.91881 28.722H10.7343C10.9652 28.7268 11.1646 28.5151 11.146 28.2848L11.0635 26.9072C11.0161 26.4192 10.5019 26.5292 10.1589 26.5195L9.39106 16.3177C11.1563 16.2318 12.7099 15.8255 13.9197 15.134C15.4966 15.6825 17.6565 16.0372 19.8156 16.1046C19.8218 16.2606 18.79 29.2864 18.8306 29.4335H18.1562C17.9383 29.4335 17.7582 29.6026 17.7444 29.8198C17.5774 32.6533 17.244 31.8655 20.4192 31.9831C20.6501 31.9879 20.8502 31.7755 20.8309 31.5445L20.723 29.8198C20.7092 29.6026 20.5291 29.4335 20.3112 29.4335H19.6348C19.6389 29.4142 19.6431 29.395 19.6451 29.375L19.7366 28.1556L23.5207 25.1585L27.3042 28.1549L27.3963 29.3743C27.3977 29.3943 27.4018 29.4135 27.4067 29.4328H26.7302C26.5123 29.4328 26.3322 29.6019 26.3185 29.8191C26.1515 32.6533 25.8181 31.8648 28.9932 31.9824C29.2242 31.9872 29.4242 31.7748 29.405 31.5445L29.2977 29.8198C29.284 29.6026 29.1039 29.4328 28.886 29.4328H28.2109C28.2529 29.3008 27.1331 15.1092 27.1406 14.9738C28.9898 14.1799 30.1948 13.0016 30.7 11.5113C31.1304 12.0613 31.8095 12.5514 32.7355 12.9783C33.2283 13.1969 33.5713 12.4662 33.0805 12.229C31.5889 11.5244 30.9152 10.7958 30.9709 9.78938C31.6054 9.88562 31.7408 9.02224 31.1077 8.96449H30.0099C29.3768 9.02292 29.5115 9.88562 30.1474 9.78938C30.1501 11.699 29.1197 13.1474 27.0753 14.1001L26.6051 7.85295H31.4644C32.0659 7.86189 32.2941 7.03288 31.7717 6.7311L26.2772 3.48997L26.0765 0.825578H27.8576C27.9497 0.825578 28.0253 0.901192 28.0253 0.993305C28.0336 1.5343 28.8433 1.53361 28.8502 0.991243C28.8488 0.444753 28.4041 0 27.8576 0H19.1859C18.6395 0 18.1947 0.444753 18.1933 0.991243C18.2036 1.5343 19.0065 1.53498 19.0182 0.993305C19.0182 0.900505 19.0938 0.825578 19.1859 0.825578H20.967L20.7656 3.50716C19.4891 4.25506 16.5738 5.96739 15.2718 6.7311C14.9859 6.90021 14.8903 7.27072 15.0567 7.55187C15.1646 7.74022 15.3674 7.8557 15.5853 7.85295H20.4391L19.8802 15.2811C18.051 15.2268 16.2267 14.9608 14.7879 14.5435C15.7338 13.7736 16.3717 12.7721 16.681 11.5787C17.1251 12.0908 17.9122 12.7274 18.834 13.0161C19.2636 13.0243 19.4073 12.4057 19.0065 12.229C17.5142 11.5244 16.8426 10.7958 16.8962 9.78938C17.5314 9.88631 17.6668 9.02292 17.0337 8.96449H15.9359C15.3035 9.02224 15.4375 9.88562 16.0727 9.78938C16.0747 11.7471 15.3234 13.2422 13.8331 14.2218C12.6343 13.7447 12.2101 13.2917 12.2129 12.9796C12.8302 13.0676 12.9505 12.2022 12.329 12.1548H11.2313C10.6016 12.2132 10.7205 13.0793 11.3873 12.9796C11.379 13.753 11.2821 13.876 10.9845 13.8815C10.7569 13.8857 10.5755 14.0733 10.5796 14.3015C10.5837 14.5291 10.7728 14.7105 10.9996 14.7064C11.5378 14.6968 11.8375 14.4576 12.0039 14.1379C12.2404 14.3421 12.5449 14.5359 12.9168 14.7195C11.9125 15.167 10.6937 15.4309 9.33057 15.4949L8.97999 10.8377H12.5346C13.09 10.8466 13.2997 10.0767 12.8178 9.80313L8.72015 7.3862L8.58129 5.53845H9.81519C9.82894 5.53845 9.83994 5.54945 9.83994 5.56251C9.8475 6.10419 10.6566 6.10488 10.6648 5.56251C10.6648 5.09438 10.284 4.71356 9.81519 4.71356H3.27312C2.80431 4.71356 2.42349 5.09438 2.42349 5.56251C2.43449 6.10556 3.23807 6.10488 3.24838 5.56251C3.24838 5.54945 3.25938 5.53845 3.27312 5.53845H4.50702L4.36679 7.39789L0.270524 9.80244C-0.214099 10.074 -0.00306443 10.8487 0.550987 10.8384C0.557173 10.8411 4.10076 10.8363 4.10764 10.8384L3.81824 14.6837C2.30113 14.1125 1.62609 13.4519 1.62884 12.9803C2.26401 13.0773 2.39943 12.2139 1.76632 12.1554H0.668534C0.036118 12.2132 0.170163 13.0766 0.805328 12.9803C0.806703 13.8472 0.716652 14.0224 0.401132 14.0183V14.0176ZM2.78781 27.8971L2.82081 27.3444H3.69519L3.72819 27.8971H2.78781ZM10.2957 27.8971H9.356L9.389 27.3444H10.2627L10.2957 27.8971ZM19.9785 31.1582H18.4855L18.5418 30.2583H19.9222L19.9785 31.1582ZM28.5519 31.1582H27.0588L27.1152 30.2583H28.4955L28.5512 31.1582H28.5519ZM26.2697 14.4308C24.9801 14.8968 23.3888 15.1835 21.6407 15.266L20.7608 14.5215L20.8103 13.8602L23.5187 11.4763L26.2264 13.8602L26.2697 14.4315V14.4308ZM24.9176 15.6736L23.5207 16.8559L22.5467 16.0317C23.3826 15.9589 24.1779 15.8386 24.9176 15.6736ZM22.8821 17.3962L20.3855 19.5087L20.6405 16.1163C20.8777 16.1156 21.1155 16.1108 21.3527 16.1032L22.8821 17.3969V17.3962ZM20.2989 20.658C20.3332 20.6408 23.4891 17.9592 23.5207 17.9366C23.5833 17.9826 26.6718 20.6147 26.7378 20.6511L26.8024 21.5063L23.5194 24.1067L20.2356 21.5063L20.2995 20.658H20.2989ZM24.1593 17.3962L26.3535 15.5402L26.6519 19.5052L24.1593 17.3969V17.3962ZM24.1428 10.9264L25.8902 9.38794L26.1384 12.6827L24.1428 10.9257V10.9264ZM24.9224 7.02875H22.0964L23.496 5.95708L24.9224 7.02875ZM24.1758 5.43671L25.5156 4.4111L25.6778 6.56475L24.1758 5.43671ZM21.3602 6.55375L21.5169 4.47091L22.8106 5.4429L21.3602 6.55375ZM25.7748 7.85433L25.8126 8.3582L23.5187 10.3778L21.2248 8.3582L21.2626 7.85433H25.7748ZM23.4912 4.92253L22.39 4.09558H24.5711L23.4912 4.92253ZM20.5415 6.44514L19.4554 5.23118L20.6866 4.50871L20.5408 6.44514H20.5415ZM21.1471 9.38863L22.8945 10.927L20.899 12.6834L21.1471 9.38863ZM19.819 27.0378L20.1607 22.5003L22.8546 24.634L19.819 27.0378ZM24.1834 24.634L26.8774 22.5003L27.219 27.0372L24.1841 24.6333L24.1834 24.634ZM27.0526 7.02944L28.2563 5.61888L30.6478 7.02944H27.052H27.0526ZM27.5352 5.19337L26.4938 6.41352L26.3494 4.49428L27.5352 5.19337ZM25.2468 0.826952L25.4304 3.27069H21.6077L21.7912 0.826952H25.2461H25.2468ZM18.7309 5.65737L19.9579 7.02944H16.3923L18.7302 5.65737H18.7309ZM8.50224 15.5086C7.28965 15.4949 6.04957 15.3292 4.92153 15.0309L6.54313 13.6031L8.4878 15.3148L8.50224 15.5086ZM7.82239 16.3115L6.5445 17.3928L4.68781 15.8221C5.67974 16.086 6.7521 16.2531 7.82239 16.3115ZM4.49121 16.7363L5.9059 17.9331L4.29874 19.2928L4.49121 16.7363ZM4.21144 20.447L6.5445 18.4734C6.5445 18.4734 8.87207 20.4428 8.87344 20.4435L8.91469 20.9873L6.54313 22.8653L4.17088 20.9866L4.21144 20.447ZM7.18242 17.9331L8.59435 16.7384L8.78614 19.2894L7.18242 17.9324V17.9331ZM7.16661 13.0539L8.24515 12.1046L8.39844 14.1386L7.16661 13.0546V13.0539ZM8.16816 11.0735L6.54244 12.5046L4.91672 11.0742L4.93459 10.8384H8.15029L8.16816 11.0742V11.0735ZM5.03289 9.53779L5.12019 8.37676L5.84128 8.91844L5.03289 9.53779ZM6.52663 9.43331L7.2979 10.0128H5.76979L6.52663 9.43331ZM7.20648 8.91225L7.96194 8.33345L8.05336 9.54879L7.20648 8.91225ZM6.52182 8.39738L5.99595 8.00212H7.03737L6.52182 8.39738ZM4.21419 9.42781L3.63745 8.78233L4.29186 8.39807L4.21419 9.42712V9.42781ZM4.83973 12.1039L5.91827 13.0532L4.68644 14.1379L4.83973 12.1039ZM3.86979 24.9811L4.09595 21.9792L5.8784 23.3904L3.86979 24.9811ZM7.20716 23.3904L8.98893 21.9799L9.2144 24.9804L7.20716 23.3911V23.3904ZM9.42749 10.0121L10.1376 9.18034L11.5475 10.0121H9.42818H9.42749ZM9.41581 8.75484L8.86932 9.3955L8.7937 8.38776L9.41649 8.75484H9.41581ZM7.75159 5.53776L7.87464 7.17723H5.21024L5.33397 5.53776H7.75159ZM2.91086 9.20852L3.62989 10.0121H1.54154L2.91155 9.20852H2.91086Z" fill="white"></path></svg>