<svg xmlns="http://www.w3.org/2000/svg" width="86" height="60" viewBox="0 0 86 60" fill="none"><path fill-rule="evenodd" clip-rule="evenodd" d="M14.6717 52.0219C13.7123 52.0219 13.2943 50.7946 14.0628 50.2119L16.6186 48.2751C15.2498 47.8012 13.8458 47.5942 13.7048 46.7028C13.6464 46.3362 13.7949 45.966 14.0915 45.7424L18.1496 42.6674C19.2031 41.8702 20.4188 43.4752 19.3663 44.2729L16.8105 46.2098C18.1788 46.6837 19.5833 46.8907 19.7244 47.782C19.7823 48.1487 19.6342 48.5183 19.3376 48.7424C18.3958 49.4545 15.3284 52.0219 14.6717 52.0219Z" fill="#163300"></path><path fill-rule="evenodd" clip-rule="evenodd" d="M5.60193 34.0809C5.04596 34.0809 4.59473 33.6291 4.59473 33.0737V20.3138C4.59473 19.7579 5.04596 19.3066 5.60193 19.3066H27.7253C29.0513 19.3066 29.0513 21.3211 27.7253 21.3211H6.60914V33.0737C6.60914 33.6286 6.15791 34.0809 5.60193 34.0809Z" fill="#163300"></path><path fill-rule="evenodd" clip-rule="evenodd" d="M27.558 34.0801C27.002 34.0801 26.5508 33.6284 26.5508 33.0729V25.9545C26.5508 25.3985 27.002 24.9473 27.558 24.9473H33.3676C34.6936 24.9473 34.6936 26.9617 33.3676 26.9617H28.5652V33.0729C28.5652 33.6279 28.114 34.0801 27.558 34.0801Z" fill="#163300"></path><path fill-rule="evenodd" clip-rule="evenodd" d="M30.1007 56.2531C29.5447 56.2531 29.0935 55.8013 29.0935 55.2459V40.0773C29.0935 38.7513 31.1079 38.7518 31.1079 40.0773V55.2459C31.1079 55.8013 30.6566 56.2531 30.1007 56.2531ZM3.32654 56.2531C2.77057 56.2531 2.31934 55.8013 2.31934 55.2459V40.0773C2.31934 38.7513 4.33375 38.7518 4.33375 40.0773V55.2459C4.33375 55.8013 3.88252 56.2531 3.32654 56.2531Z" fill="#163300"></path><path fill-rule="evenodd" clip-rule="evenodd" d="M31.7578 60.0005H1.6685C-0.379659 60.0005 0.0343036 57.5349 0.0343036 55.873C0.0343036 54.972 0.767551 54.2383 1.6685 54.2383H31.7578C33.806 54.2383 33.392 56.7039 33.392 58.3658C33.392 59.2673 32.6588 60.0005 31.7578 60.0005ZM2.04872 57.9861H31.3776V56.2537H2.04872V57.9861Z" fill="#163300"></path><path fill-rule="evenodd" clip-rule="evenodd" d="M31.7579 41.0845H1.66859C-0.380073 41.0845 0.0343929 38.6198 0.0343929 36.9569C0.0343929 36.056 0.76764 35.3232 1.66859 35.3232H31.7579C33.8066 35.3232 33.3921 37.7879 33.3921 39.4508C33.3921 40.3527 32.6589 41.0845 31.7579 41.0845ZM2.04881 39.0701H31.3777V37.3382H2.04881V39.0701Z" fill="#163300"></path><path fill-rule="evenodd" clip-rule="evenodd" d="M30.049 37.3392C28.7104 37.3392 29.0417 35.5569 29.0417 34.0814H26.6083C26.6083 35.558 26.9397 37.3392 25.6011 37.3392C24.1734 37.3392 24.5939 35.15 24.5939 33.0742C24.5939 32.5182 25.0451 32.067 25.6011 32.067C31.9047 32.067 31.0516 31.2642 31.0552 36.332C31.0562 36.8875 30.6049 37.3392 30.049 37.3392Z" fill="#163300"></path><path fill-rule="evenodd" clip-rule="evenodd" d="M72.0497 21.0741C68.104 21.0741 64.8945 17.8641 64.8945 13.9189C64.8945 9.97314 68.105 6.76367 72.0497 6.76367C75.9945 6.76367 79.2049 9.97365 79.2049 13.9189C79.2049 17.8641 75.995 21.0741 72.0497 21.0741ZM72.0497 8.77758C69.2149 8.77758 66.9089 11.0836 66.9089 13.9184C66.9089 16.7532 69.2149 19.0592 72.0497 19.0592C74.885 19.0592 77.1905 16.7532 77.1905 13.9184C77.1905 11.0836 74.884 8.77758 72.0497 8.77758Z" fill="#163300"></path><path fill-rule="evenodd" clip-rule="evenodd" d="M72.0494 5.08338C70.6368 5.08338 71.0422 2.97076 71.0422 0.994114C71.0422 -0.331371 73.0566 -0.331371 73.0566 0.994114C73.0566 2.97328 73.4625 5.08338 72.0494 5.08338Z" fill="#163300"></path><path fill-rule="evenodd" clip-rule="evenodd" d="M76.9707 6.40237C76.2068 6.40237 75.7082 5.56941 76.0995 4.89156C77.0891 3.17829 77.7921 1.14827 79.0159 1.85382C80.2386 2.55936 78.8331 4.18651 77.8435 5.89876C77.6566 6.22208 77.3182 6.40237 76.9707 6.40237Z" fill="#163300"></path><path fill-rule="evenodd" clip-rule="evenodd" d="M80.5749 10.0053C79.5521 10.0053 79.1799 8.64002 80.0703 8.12584C81.78 7.13827 83.4082 5.72969 84.1142 6.95345C84.8193 8.17519 82.7908 8.88326 81.0775 9.86982C80.9184 9.96097 80.7461 10.0053 80.5749 10.0053Z" fill="#163300"></path><path fill-rule="evenodd" clip-rule="evenodd" d="M84.975 14.9259C82.9989 14.9259 80.8857 15.3313 80.8857 13.9187C80.8857 12.5056 82.9994 12.9115 84.975 12.9115C86.301 12.9115 86.301 14.9259 84.975 14.9259Z" fill="#163300"></path><path fill-rule="evenodd" clip-rule="evenodd" d="M83.2416 21.3887C82.7405 21.3887 80.7432 20.101 80.0704 19.7127C78.9207 19.0489 79.9304 17.307 81.0776 17.9687C82.7934 18.9578 84.8194 19.6623 84.1143 20.8851C83.928 21.2084 83.5896 21.3887 83.2416 21.3887Z" fill="#163300"></path><path fill-rule="evenodd" clip-rule="evenodd" d="M78.5136 26.1199C77.5854 26.1199 76.9262 24.38 76.0998 22.9472C75.4371 21.798 77.1816 20.7923 77.8438 21.94C78.8288 23.6457 80.2409 25.2814 79.0162 25.985C78.8575 26.0761 78.6848 26.1205 78.5136 26.1205V26.1199Z" fill="#163300"></path><path fill-rule="evenodd" clip-rule="evenodd" d="M72.0494 27.8508C70.6368 27.8508 71.0422 25.7387 71.0422 23.7621C71.0422 22.4361 73.0566 22.4361 73.0566 23.7621C73.0566 25.7417 73.4625 27.8508 72.0494 27.8508Z" fill="#163300"></path><path fill-rule="evenodd" clip-rule="evenodd" d="M65.5869 26.1201C64.823 26.1201 64.3244 25.2871 64.7157 24.6093C65.7043 22.897 66.4083 20.866 67.6321 21.5715C68.8563 22.2776 67.4472 23.9037 66.4597 25.6165C66.2733 25.9393 65.9344 26.1201 65.5869 26.1201Z" fill="#163300"></path><path fill-rule="evenodd" clip-rule="evenodd" d="M60.858 21.3885C59.8357 21.3885 59.463 20.0227 60.3534 19.5085C62.0646 18.5204 63.6923 17.1129 64.3983 18.3361C65.1059 19.5624 63.0718 20.2604 61.3606 21.2525C61.2019 21.3452 61.0282 21.3885 60.858 21.3885Z" fill="#163300"></path><path fill-rule="evenodd" clip-rule="evenodd" d="M62.2069 14.9259C60.2308 14.9259 58.1182 15.3313 58.1182 13.9187C58.1182 12.5056 60.2313 12.9115 62.2069 12.9115C63.5324 12.9115 63.5329 14.9259 62.2069 14.9259Z" fill="#163300"></path><path fill-rule="evenodd" clip-rule="evenodd" d="M63.5251 10.0052C63.0235 10.0052 61.0282 8.71796 60.3534 8.32918C59.2042 7.66644 60.2134 5.92246 61.3606 6.5852C63.0739 7.57529 65.1054 8.27781 64.3983 9.50207C64.2115 9.82539 63.8731 10.0057 63.5256 10.0057L63.5251 10.0052Z" fill="#163300"></path><path fill-rule="evenodd" clip-rule="evenodd" d="M67.1296 6.40229C66.2015 6.40229 65.5423 4.66234 64.7159 3.22959C64.0536 2.08087 65.7976 1.07416 66.4603 2.22238C67.4469 3.93161 68.8565 5.56228 67.6327 6.26733C67.4751 6.35848 67.3014 6.40229 67.1301 6.40229H67.1296Z" fill="#163300"></path><path fill-rule="evenodd" clip-rule="evenodd" d="M44.6288 49.6103C44.0728 49.6103 43.6216 49.1586 43.6216 48.6031V37.2176C43.6216 35.8916 45.636 35.8921 45.636 37.2176V48.6026C45.637 49.1586 45.1848 49.6108 44.6288 49.6108V49.6103ZM37.8246 49.6103C37.2686 49.6103 36.8174 49.1586 36.8174 48.6031V30.4134C36.8174 29.0874 38.8318 29.0874 38.8318 30.4134V48.6031C38.8318 49.1581 38.3806 49.6103 37.8246 49.6103Z" fill="#163300"></path><path fill-rule="evenodd" clip-rule="evenodd" d="M49.6543 49.6101H32.7992C31.4732 49.6101 31.4732 47.5957 32.7992 47.5957H49.6543C50.9798 47.5957 50.9803 49.6101 49.6543 49.6101Z" fill="#163300"></path><path fill-rule="evenodd" clip-rule="evenodd" d="M77.8329 48.5854H54.9894C54.722 48.5854 54.4661 48.4792 54.2768 48.2898L24.0847 18.0967C23.4522 17.4642 23.9019 16.3779 24.7968 16.3779H47.668C47.9354 16.3779 48.1922 16.4842 48.3806 16.673L78.4397 46.7735C79.2777 47.5027 78.686 48.5854 77.8334 48.5854H77.8329ZM55.4069 46.5705H75.3904L47.25 18.3923H27.2277L55.4069 46.5705Z" fill="#163300"></path><path fill-rule="evenodd" clip-rule="evenodd" d="M73.5651 44.324H50.7287C49.4027 44.324 49.4032 42.3096 50.7287 42.3096H73.5646C74.8906 42.3096 74.8901 44.324 73.5651 44.324Z" fill="#163300"></path><path fill-rule="evenodd" clip-rule="evenodd" d="M51.9226 22.6511H29.058C27.732 22.6511 27.732 20.6367 29.058 20.6367H51.9226C53.2481 20.6367 53.2486 22.6511 51.9226 22.6511Z" fill="#163300"></path><path fill-rule="evenodd" clip-rule="evenodd" d="M57.3325 28.0711H34.475C33.149 28.0711 33.149 26.0566 34.475 26.0566H57.3336C58.6595 26.0566 58.6595 28.0711 57.3325 28.0711Z" fill="#163300"></path><path fill-rule="evenodd" clip-rule="evenodd" d="M62.744 33.488H39.8929C38.5669 33.488 38.5669 31.4736 39.8929 31.4736H62.744C64.0695 31.4736 64.0695 33.488 62.744 33.488Z" fill="#163300"></path><path fill-rule="evenodd" clip-rule="evenodd" d="M68.1537 38.906H45.3107C43.9847 38.906 43.9852 36.8916 45.3107 36.8916H68.1537C69.4792 36.8916 69.4797 38.906 68.1537 38.906Z" fill="#163300"></path><path fill-rule="evenodd" clip-rule="evenodd" d="M66.3841 48.5855C66.1258 48.5855 65.8684 48.4858 65.6715 48.2899L35.5202 18.0968C34.583 17.1581 36.0087 15.7339 36.9459 16.6726L67.0967 46.8652C67.7353 47.5043 67.269 48.585 66.3841 48.585V48.5855Z" fill="#163300"></path><path fill-rule="evenodd" clip-rule="evenodd" d="M7.82533 37.3392C6.48675 37.3392 6.81812 35.5569 6.81812 34.0814H4.3847C4.3847 35.558 4.71607 37.3392 3.37749 37.3392C1.94978 37.3392 2.37029 35.15 2.37029 33.0742C2.37029 32.5182 2.82151 32.067 3.37749 32.067C9.68111 32.067 8.828 31.2642 8.83153 36.332C8.83253 36.8875 8.3813 37.3392 7.82533 37.3392Z" fill="#163300"></path><path fill-rule="evenodd" clip-rule="evenodd" d="M7.92675 47.0125C6.52421 47.0125 6.91954 44.9497 6.91954 43.0451C6.91954 41.7191 8.93396 41.7196 8.93396 43.0451C8.93396 44.9517 9.32929 47.0125 7.92675 47.0125Z" fill="#163300"></path><path fill-rule="evenodd" clip-rule="evenodd" d="M9.40685 45.5316C7.50222 45.5316 5.43945 45.9269 5.43945 44.5244C5.43945 43.1219 7.50222 43.5172 9.40685 43.5172C10.7323 43.5172 10.7328 45.5316 9.40685 45.5316Z" fill="#163300"></path><path fill-rule="evenodd" clip-rule="evenodd" d="M26.9801 45.5316C25.0755 45.5316 23.0127 45.9269 23.0127 44.5244C23.0127 43.1219 25.0755 43.5172 26.9801 43.5172C28.3056 43.5172 28.3061 45.5316 26.9801 45.5316Z" fill="#163300"></path></svg>