<svg xmlns="http://www.w3.org/2000/svg" width="50" height="50" viewBox="0 0 50 50" fill="none"><path d="M10.7982 1.11132C10.7982 1.11132 11.3094 2.52695 12.8494 3.35619C13.7692 3.8514 14.75 3.74815 15.4849 3.58858C15.4725 4.27085 15.5423 5.11658 16.0676 5.87059C16.5676 6.5884 17.2876 6.8991 17.917 7.08898C17.5483 7.61557 17.1731 8.269 17.1795 9.09985C17.1729 9.93097 17.5497 10.5839 17.9186 11.1107C17.2888 11.3006 16.568 11.6108 16.0676 12.3293C15.5423 13.0833 15.4737 13.9289 15.4849 14.6113C14.75 14.4517 13.7693 14.3486 12.8494 14.8437C12.2382 15.1726 11.8974 15.5927 11.5777 15.9814C11.2581 15.5928 10.9171 15.1727 10.3059 14.8437C9.38673 14.3487 8.4069 14.452 7.67206 14.6113C7.68453 13.929 7.61494 13.0833 7.08942 12.3293C6.58938 11.6114 5.86782 11.3006 5.23838 11.1107C5.60728 10.584 5.98234 9.93097 5.9759 9.09985C5.98247 8.269 5.60714 7.6157 5.23838 7.08898C5.86782 6.8991 6.58938 6.5884 7.08942 5.87059C7.62701 5.09888 7.69084 4.22687 7.67528 3.53695C8.17331 3.64718 8.71572 3.76612 9.33912 3.67091C10.4657 3.53346 10.207 1.83382 9.09065 2.03764C8.28353 2.16074 7.07172 1.66647 7.07172 1.66647C6.44322 1.37132 5.75317 1.936 5.91784 2.61063C5.91784 2.61063 6.01197 3.00165 6.02753 3.51925C6.04308 4.03685 5.94546 4.6203 5.73225 4.92657C5.53084 5.21568 5.04958 5.4608 4.57032 5.58497C4.09107 5.70928 3.69884 5.72054 3.69884 5.72054C2.95435 5.73932 2.61147 6.65464 3.16139 7.15696C3.16139 7.15696 3.46753 7.43803 3.77622 7.85412C4.08504 8.27008 4.32788 8.8015 4.32493 9.09194V9.11072C4.32828 9.40023 4.08665 9.93097 3.77783 10.3469C3.46901 10.7629 3.16126 11.0441 3.16126 11.0441C2.61134 11.5463 2.95422 12.4625 3.69871 12.4805C3.69871 12.4805 4.09094 12.493 4.57019 12.6161C5.04944 12.7404 5.53071 12.9854 5.73212 13.2746C5.94546 13.581 6.04308 14.1643 6.02739 14.6819C6.01184 15.1995 5.91771 15.5906 5.91771 15.5906C5.75304 16.2651 6.44309 16.8296 7.07159 16.5347C7.07159 16.5347 7.47253 16.3477 8.01414 16.2297C8.55575 16.1115 9.16802 16.1103 9.52149 16.3006C10.5339 16.8457 10.7981 17.6385 10.7981 17.6385C11.0571 18.3744 12.098 18.3744 12.3571 17.6385C12.3571 17.6385 12.6212 16.8457 13.6336 16.3006C13.9871 16.1103 14.5994 16.1117 15.141 16.2297C15.6826 16.3478 16.0835 16.5347 16.0835 16.5347C16.712 16.8299 17.4021 16.2652 17.2374 15.5906C17.2374 15.5906 17.1433 15.1997 17.1277 14.6819C17.1122 14.1643 17.2098 13.5809 17.423 13.2746C17.6244 12.9855 18.1057 12.7404 18.5849 12.6161C19.0642 12.4918 19.4564 12.4805 19.4564 12.4805C20.2009 12.4617 20.5438 11.5464 19.9939 11.0441C19.9939 11.0441 19.6879 10.763 19.379 10.3469C19.0702 9.93084 18.8274 9.39956 18.8303 9.10911C18.8303 9.1028 18.8303 9.09664 18.8303 9.09033C18.827 8.80056 19.0702 8.27008 19.379 7.85412C19.6879 7.43816 19.9939 7.15696 19.9939 7.15696C20.5438 6.65478 20.2009 5.73851 19.4564 5.72054C19.4564 5.72054 19.0642 5.70807 18.5849 5.58497C18.1057 5.46067 17.6244 5.21581 17.423 4.92657C17.2097 4.62016 17.112 4.03685 17.1277 3.51925C17.1433 3.00165 17.2374 2.61063 17.2374 2.61063C17.4021 1.93613 16.712 1.37159 16.0835 1.66647C16.0835 1.66647 15.6826 1.85353 15.141 1.97153C14.5994 2.08967 13.9871 2.09087 13.6336 1.90059C12.6212 1.3555 12.3571 0.562736 12.3571 0.562736C12.2388 0.211275 11.901 -0.0182974 11.5308 0.00114633C10.9751 0.0291721 10.6062 0.589019 10.7982 1.11132ZM11.5793 4.9668C9.30734 4.9668 7.44303 6.8295 7.44303 9.10147C7.44303 11.3734 9.30734 13.2313 11.5793 13.2313C13.8513 13.2313 15.7091 11.3734 15.7091 9.10147C15.7091 6.8295 13.8514 4.9668 11.5793 4.9668ZM11.5793 6.61938C12.9582 6.61938 14.055 7.72271 14.055 9.10147C14.055 10.4802 12.9582 11.5787 11.5793 11.5787C10.2004 11.5787 9.09561 10.4804 9.09561 9.10147C9.09561 7.72271 10.2004 6.61938 11.5793 6.61938ZM37.1494 14.8839C36.9557 14.8933 36.7718 14.9717 36.6298 15.1035L25.0648 25.8453C24.2557 26.5941 25.379 27.8078 26.188 27.059L37.1912 16.8368L45.4557 24.5108V38.0204C39.9326 38.0079 34.4533 38.0204 28.933 38.0204V28.1017C28.933 26.9989 27.2788 26.9989 27.2788 28.1017V38.8435C27.2772 39.3005 27.6465 39.672 28.1035 39.673H36.368V45.8702C36.368 47.2578 35.2718 48.3474 33.8843 48.3474H14.8845C13.4969 48.3474 12.4024 47.2578 12.4024 45.8702V42.1502C12.4266 41.0245 10.7255 41.0245 10.7498 42.1502V45.8702C10.7498 48.1448 12.61 50 14.8845 50H33.8844C36.1589 50 38.0207 48.1447 38.0207 45.8702V39.673H46.2788C46.7377 39.6746 47.11 39.3023 47.1083 38.8435V26.044L48.2009 27.0591C49.0114 27.8507 50.1754 26.5911 49.3226 25.8454L47.1084 23.7894V15.7104C47.1084 15.2541 46.7385 14.8843 46.2821 14.8842H42.1507C41.6944 14.8843 41.3244 15.2541 41.3244 15.7104V16.5367C41.3084 17.6541 42.9928 17.6541 42.977 16.5367H45.4559V22.2547L37.7529 15.1037C37.5895 14.952 37.3718 14.8726 37.1494 14.8839ZM8.27254 39.6728H14.8845C16.0109 39.6978 16.0109 37.9953 14.8845 38.0203H12.4024V34.7135H22.3082C23.4346 34.7384 23.4346 33.036 22.3082 33.0609H18.13L17.8363 28.9327H20.7638L21.0157 30.7015C21.1363 31.8395 22.8557 31.5957 22.6554 30.4691L21.4724 22.2045C21.4138 21.7983 21.0661 21.4966 20.6558 21.4959L2.48851 21.4943C1.34146 21.4942 1.37459 23.1501 2.47885 23.1501H5.73225L5.43698 27.2784H2.59981L2.81932 25.7419C2.90112 25.2185 2.47631 24.7544 1.94784 24.7897C1.55414 24.8179 1.23446 25.1181 1.18444 25.5095L0.00789527 33.7742C-0.0604929 34.2699 0.32409 34.7122 0.82453 34.7134H10.7498V38.0201H8.27254C7.15057 38.0201 7.19335 39.6727 8.27254 39.6728ZM38.0627 22.7708C37.7906 22.7802 37.5401 22.921 37.3929 23.15L33.965 28.2919C33.6049 28.8407 33.9976 29.5703 34.6541 29.5716H38.2531L35.679 33.4336C35.0895 34.3481 36.4431 35.2468 37.0573 34.3486L40.4787 29.2068C40.8474 28.659 40.4565 27.9212 39.796 27.9189H36.1972L38.7648 24.0635C39.1451 23.5075 38.7361 22.7546 38.0628 22.7706L38.0627 22.7708ZM7.38818 23.15H10.7498V27.2782H7.09438L7.38818 23.15ZM12.4024 23.15H15.764L16.0609 27.2782H12.4024V23.15ZM17.4248 23.15H19.9408L20.5282 27.2782H17.7185L17.4248 23.15ZM2.3642 28.9326H5.31763L5.02236 33.0608H1.77673L2.3642 28.9326ZM6.97665 28.9326H10.7498V33.0608H6.68285L6.97665 28.9326ZM12.4024 28.9326H16.1787L16.4756 33.0608H12.4024V28.9326Z" fill="white"></path></svg>