<svg xmlns="http://www.w3.org/2000/svg" width="22" height="22" viewBox="0 0 22 22" fill="none"><path d="M7.39585 9.37221H2.0441C1.50223 9.37171 0.982697 9.15627 0.599481 8.77318C0.216265 8.39008 0.000670392 7.87061 0 7.32874V2.04346C0.000670392 1.5016 0.216265 0.982131 0.599481 0.599034C0.982697 0.215937 1.50223 0.000502554 2.0441 0H7.39585C7.9376 0.000670075 8.45698 0.216178 8.84005 0.599257C9.22313 0.982336 9.43864 1.50171 9.43931 2.04346V7.32874C9.43864 7.8705 9.22313 8.38987 8.84005 8.77295C8.45698 9.15603 7.9376 9.37154 7.39585 9.37221ZM2.0441 1.58261C1.92186 1.58278 1.80468 1.63136 1.71818 1.71774C1.63169 1.80411 1.58294 1.92123 1.58261 2.04346V7.32874C1.58294 7.45098 1.63169 7.5681 1.71818 7.65447C1.80468 7.74085 1.92186 7.78943 2.0441 7.7896H7.39585C7.51802 7.78943 7.63514 7.74082 7.72154 7.65443C7.80793 7.56804 7.85653 7.45092 7.8567 7.32874V2.04346C7.85653 1.92129 7.80793 1.80417 7.72154 1.71778C7.63514 1.63138 7.51802 1.58278 7.39585 1.58261H2.0441Z" fill="white"></path><path d="M7.42124 21.84H2.06949C1.52757 21.8393 1.00803 21.6237 0.624833 21.2405C0.241636 20.8573 0.0260607 20.3378 0.0253906 19.7959V14.5112C0.026061 13.9694 0.241656 13.4499 0.624872 13.0668C1.00809 12.6837 1.52762 12.4683 2.06949 12.4678H7.42124C7.96277 12.4688 8.48182 12.6844 8.86463 13.0675C9.24743 13.4505 9.46277 13.9697 9.46344 14.5112V19.7959C9.46293 20.3375 9.24767 20.8569 8.86485 21.2401C8.48203 21.6232 7.96288 21.839 7.42124 21.84ZM2.06949 14.0504C1.94725 14.0505 1.83007 14.0991 1.74357 14.1855C1.65708 14.2719 1.60833 14.389 1.608 14.5112V19.7959C1.60817 19.9182 1.65684 20.0355 1.74335 20.122C1.82986 20.2085 1.94715 20.2572 2.06949 20.2574H7.42124C7.54347 20.257 7.66059 20.2083 7.74697 20.1218C7.83334 20.0353 7.88193 19.9181 7.88209 19.7959V14.5112C7.88193 14.3891 7.83332 14.2719 7.74693 14.1855C7.66054 14.0992 7.54341 14.0505 7.42124 14.0504H2.06949Z" fill="white"></path><path d="M19.7962 21.84H14.4445C13.9026 21.8393 13.383 21.6237 12.9998 21.2405C12.6166 20.8573 12.4011 20.3378 12.4004 19.7959V14.5112C12.4011 13.9694 12.6167 13.4499 12.9999 13.0668C13.3831 12.6837 13.9026 12.4683 14.4445 12.4678H19.7962C20.338 12.4684 20.8574 12.684 21.2404 13.067C21.6235 13.4501 21.839 13.9695 21.8397 14.5112V19.7959C21.8392 20.3377 21.6238 20.8573 21.2407 21.2405C20.8576 21.6237 20.3381 21.8393 19.7962 21.84ZM14.4445 14.0535C14.3223 14.0537 14.2051 14.1023 14.1186 14.1887C14.0321 14.275 13.9833 14.3922 13.983 14.5144V19.7991C13.9832 19.9214 14.0318 20.0387 14.1184 20.1252C14.2049 20.2117 14.3221 20.2604 14.4445 20.2605H19.7962C19.9185 20.2602 20.0356 20.2115 20.122 20.125C20.2083 20.0385 20.2569 19.9213 20.2571 19.7991V14.5112C20.2569 14.3891 20.2083 14.2719 20.1219 14.1855C20.0355 14.0992 19.9184 14.0505 19.7962 14.0504L14.4445 14.0535Z" fill="white"></path><path d="M17.1243 9.37221C16.1993 9.36534 15.2971 9.08476 14.5313 8.56586C13.7655 8.04696 13.1705 7.31295 12.8213 6.45639C12.4721 5.59982 12.3842 4.65903 12.5689 3.75263C12.7536 2.84623 13.2025 2.01479 13.859 1.36312C14.5155 0.711458 15.3502 0.268745 16.258 0.090796C17.1657 -0.0871533 18.1058 0.0076267 18.9598 0.363187C19.8137 0.718748 20.5433 1.31917 21.0565 2.08876C21.5697 2.85836 21.8436 3.76267 21.8437 4.68769C21.8375 5.93423 21.3371 7.12743 20.4524 8.0056C19.5677 8.88378 18.3709 9.37525 17.1243 9.37221ZM17.1243 1.58578C16.5123 1.59265 15.9161 1.78039 15.4106 2.12539C14.9051 2.47038 14.5129 2.9572 14.2835 3.52457C14.054 4.09194 13.9975 4.7145 14.1211 5.3139C14.2447 5.91331 14.5429 6.46275 14.978 6.89309C15.4132 7.32342 15.9659 7.61541 16.5667 7.7323C17.1674 7.8492 17.7893 7.78577 18.3541 7.55C18.9189 7.31424 19.4013 6.91667 19.7406 6.40735C20.0799 5.89802 20.261 5.2997 20.261 4.68769C20.256 3.86023 19.9229 3.06857 19.3349 2.48643C18.7468 1.90429 17.9518 1.57924 17.1243 1.58261V1.58578Z" fill="white"></path></svg>