<svg xmlns="http://www.w3.org/2000/svg" width="60" height="60" viewBox="0 0 60 60" fill="none"><path d="M60 5.958C60.0036 5.14316 59.6793 4.36109 59.0999 3.78802L56.212 0.900039C55.6416 0.32341 54.8641 -0.000689943 54.053 1.10282e-06H54.043C53.2369 0.000494707 52.4648 0.324793 51.9 0.900039L38.8 13.9999H13V3.00003C13 1.3431 11.6568 1.10282e-06 10 1.10282e-06H8C3.58379 0.00493714 0.00493608 3.58376 0 7.99994V52.2507C0.250259 56.6332 3.90059 60.0452 8.29004 59.9995H57C58.6569 59.9995 60 58.6565 60 56.9996V16.9999C60 15.3431 58.6569 13.9999 57 13.9999H53.2L59.1 8.09995C59.6741 7.53487 59.9982 6.76356 60 5.958ZM35.78 24.9999C35.5684 25.0287 35.3556 24.9543 35.208 24.7999C35.0592 24.652 34.9856 24.4445 35.008 24.2359L35.387 20.8359C35.4029 20.7648 35.423 20.6946 35.447 20.6259L39.386 24.5649C39.3211 24.5789 39.262 24.6109 39.194 24.6189L35.78 24.9999ZM41.019 23.3668L36.643 18.9898L47.543 8.08997L51.917 12.4629L41.019 23.3668ZM48.953 6.67491L50.436 5.19291L54.808 9.56585L53.326 11.0488L48.953 6.67491ZM2 7.99994C2.00336 4.68766 4.68769 2.00324 8 1.99999H10C10.5522 1.99999 11 2.44769 11 2.99993V42.9996C11 43.5519 10.5523 43.9996 10 43.9996H8C5.70265 43.9989 3.51636 44.9878 2 46.7135V7.99994ZM57 15.9999C57.5523 15.9999 58.0001 16.4476 58.0001 16.9999V56.9996C58.0001 57.5519 57.5524 57.9997 57 57.9997H8.29004C4.98879 58.0551 2.22321 55.5138 2 52.2197V51.9996C2.00336 48.6873 4.68769 46.003 8 45.9997H10C11.6568 45.9997 12.9999 44.6566 12.9999 42.9997V15.9999H36.7999L34.5289 18.2709C33.8949 18.8956 33.4961 19.72 33.4 20.6048L33.021 24.0118C32.9898 24.3441 33.0214 24.6791 33.114 24.9998H16C15.4477 24.9998 14.9999 25.4475 14.9999 25.9998C14.9999 26.552 15.4476 26.9997 16 26.9997H19V53.9996C19 54.5518 19.4477 54.9996 20.0001 54.9996C20.5524 54.9996 21.0001 54.5519 21.0001 53.9996V39.9997H32.0001V47.9996H25C24.4478 47.9996 24.0001 48.4473 24.0001 48.9996C24.0001 49.5518 24.4478 49.9996 25 49.9996H45C46.1046 49.9996 47 49.1042 47 47.9996V32.9998C47 32.4476 46.5523 31.9998 46.0001 31.9998C45.4478 31.9998 45 32.4475 45 32.9998V37.9997H21V26.9998H35.7081C35.8056 27 35.9031 26.9947 36.0001 26.9839L39.417 26.5949C40.2843 26.4965 41.0938 26.1111 41.717 25.4999L51.2051 16L57 15.9999ZM45 39.9997V47.9996H34V39.9997H45ZM57.69 6.68192L56.222 8.15088L51.85 3.77893L53.319 2.30997C53.5112 2.11273 53.7746 2.00097 54.05 1.99999C54.3304 2.00068 54.5987 2.11381 54.795 2.31402L57.687 5.20002C57.8881 5.39806 58.001 5.66875 58.0001 5.95099C57.9992 6.22642 57.8874 6.48991 57.69 6.68192Z" fill="#163300"></path></svg>