<svg xmlns="http://www.w3.org/2000/svg" width="50" height="50" viewBox="0 0 50 50" fill="none"><path d="M48.5352 17.2591H43.6669C42.9172 7.6167 34.8314 0 25 0C15.1686 0 7.08281 7.6167 6.33311 17.2591H1.46484C0.655859 17.2591 0 17.9149 0 18.7239V34.4141C0 35.223 0.655859 35.8789 1.46484 35.8789H7.74092C8.5499 35.8789 9.20576 35.223 9.20576 34.4141V18.7239C9.20576 10.0149 16.291 2.92969 25 2.92969C33.709 2.92969 40.7942 10.0149 40.7942 18.7239V34.4141C40.7942 39.6624 36.5243 43.9323 31.276 43.9323H29.3625C28.7491 42.1105 27.0259 40.7943 25 40.7943C22.462 40.7943 20.3971 42.8592 20.3971 45.3972C20.3971 47.9352 22.462 50 25 50C27.0259 50 28.7491 48.6838 29.3625 46.862H31.276C37.6441 46.862 42.91 42.0549 43.6373 35.8789H48.5352C49.3441 35.8789 50 35.223 50 34.4141V18.7239C50 17.9149 49.3441 17.2591 48.5352 17.2591ZM6.27607 32.9492H2.92969V20.1888H6.27607V32.9492ZM25 47.0703C24.0774 47.0703 23.3268 46.3197 23.3268 45.3972C23.3268 44.4746 24.0774 43.724 25 43.724C25.9226 43.724 26.6732 44.4746 26.6732 45.3972C26.6732 46.3197 25.9226 47.0703 25 47.0703ZM47.0703 32.9492H43.7239V20.1888H47.0703V32.9492Z" fill="white"></path><path d="M35.7593 17.3704C35.2121 17.1436 34.582 17.2688 34.163 17.6878C34.1629 17.6878 29.5895 22.2597 27.4211 24.4265C26.4472 25.4057 25.8887 26.7585 25.8887 28.1378C25.8887 28.9468 26.5445 29.6026 27.3535 29.6026H33.7338V32.8448C33.7338 33.6538 34.3896 34.3096 35.1986 34.3096C36.0076 34.3096 36.6635 33.6538 36.6635 32.8448V29.6026H36.7676C37.5766 29.6026 38.2324 28.9468 38.2324 28.1378C38.2324 27.3288 37.5766 26.6729 36.7676 26.6729H36.6635V18.7237C36.6635 18.1313 36.3065 17.5972 35.7593 17.3704ZM33.7338 26.6729H29.3365C29.3863 26.6112 29.4393 26.552 29.4952 26.4957C30.5924 25.3993 32.3083 23.6843 33.7338 22.2593V26.6729Z" fill="white"></path><path d="M23.3269 32.8447C23.3269 32.0357 22.671 31.3799 21.862 31.3799H16C16.0497 31.3182 16.1026 31.2589 16.1586 31.2026C18.3239 29.0389 22.8977 24.4666 22.8977 24.4666C23.1725 24.1919 23.327 23.8192 23.327 23.4307V22.6462C23.327 19.6756 20.9103 17.2588 17.9396 17.2588C14.9396 17.2588 12.5522 19.6896 12.5522 22.6445V22.6461C12.5522 23.4551 13.2081 24.1102 14.0171 24.1102C14.8261 24.1102 15.4819 23.4535 15.4819 22.6445C15.4819 21.3018 16.5631 20.1885 17.9396 20.1885C19.2948 20.1885 20.3973 21.291 20.3973 22.6462V22.8237C19.2095 24.0111 15.85 27.3693 14.0846 29.1336C13.1106 30.1128 12.5522 31.4655 12.5522 32.8447C12.5522 33.6537 13.2081 34.3096 14.0171 34.3096H21.8621C22.671 34.3096 23.3269 33.6538 23.3269 32.8447Z" fill="white"></path></svg>