<svg xmlns="http://www.w3.org/2000/svg" width="30" height="40" viewBox="0 0 30 40" fill="none"><path d="M28.4229 12.3469C28.1587 11.9788 27.9476 11.5753 27.7959 11.1484C27.7081 10.6839 27.6864 10.2094 27.7315 9.73884C27.8415 8.91824 27.7159 8.0833 27.3695 7.33133C26.8869 6.64928 26.2197 6.119 25.4463 5.80268C25.0228 5.6109 24.6287 5.3599 24.2758 5.05722C23.9734 4.70414 23.7224 4.31004 23.5304 3.88663C23.2141 3.11304 22.6838 2.44567 22.0017 1.96278C21.25 1.61718 20.4156 1.49189 19.5955 1.60145C19.1248 1.64657 18.65 1.62489 18.1854 1.53705C17.7581 1.38561 17.3544 1.17464 16.9862 0.910391C16.3161 0.390968 15.511 0.0749711 14.6665 0C13.822 0.0748312 13.0167 0.390738 12.3465 0.910124C11.9784 1.17423 11.575 1.38518 11.148 1.53678C10.6835 1.62392 10.209 1.6456 9.7385 1.60118C8.91791 1.49147 8.08303 1.617 7.33099 1.96318C6.64903 2.44597 6.11887 3.1132 5.80268 3.88663C5.6109 4.31015 5.3599 4.70426 5.05722 5.05715C4.70415 5.35964 4.31004 5.61064 3.88663 5.80268C3.11304 6.11893 2.44567 6.64921 1.96278 7.33133C1.61722 8.08308 1.49193 8.91741 1.60145 9.7375C1.64659 10.2082 1.62491 10.683 1.53705 11.1477C1.3855 11.5749 1.17442 11.9786 0.910058 12.3469C0.390754 13.0169 0.0748743 13.8221 0 14.6665C0.0748312 15.5111 0.390738 16.3163 0.910124 16.9865C1.17434 17.3546 1.38541 17.7581 1.53712 18.185C1.62494 18.6495 1.64662 19.124 1.60152 19.5945C1.49156 20.4151 1.61711 21.2501 1.96351 22.002C2.44619 22.6841 3.11333 23.2144 3.88669 23.5307C4.31022 23.7225 4.70433 23.9735 5.05722 24.2762C5.35966 24.6291 5.61063 25.0231 5.80268 25.4464C5.99075 25.827 6.20723 26.1928 6.45027 26.5408L2.70697 36.8252C2.66407 36.9432 2.65538 37.071 2.68188 37.1937C2.70839 37.3164 2.76902 37.4292 2.85679 37.519C2.94456 37.6088 3.05591 37.672 3.17801 37.7013C3.30012 37.7305 3.42801 37.7248 3.54696 37.6846L7.08533 36.4893L9.02804 39.68C9.08757 39.7777 9.17124 39.8585 9.27101 39.9145C9.37077 39.9706 9.48328 40 9.5977 40C9.61917 40 9.6413 39.9987 9.66344 39.9967C9.78843 39.9844 9.90738 39.9369 10.0066 39.8599C10.1057 39.7828 10.1811 39.6793 10.224 39.5612L13.9817 29.2386C14.4296 29.3651 14.9037 29.3651 15.3516 29.2386L19.1093 39.5612C19.1522 39.6793 19.2276 39.7828 19.3267 39.8599C19.4259 39.9369 19.5449 39.9844 19.6699 39.9967C19.692 39.9987 19.7141 40 19.7356 40C19.85 40 19.9625 39.9706 20.0623 39.9145C20.1621 39.8585 20.2457 39.7777 20.3053 39.68L22.248 36.4893L25.7864 37.6845C25.9054 37.7247 26.0333 37.7305 26.1554 37.7012C26.2775 37.6719 26.3888 37.6087 26.4766 37.5189C26.5644 37.4291 26.625 37.3164 26.6515 37.1936C26.678 37.0709 26.6693 36.9432 26.6264 36.8252L22.8828 26.5403C23.1257 26.1923 23.3421 25.8266 23.5304 25.4463C23.7221 25.0228 23.9731 24.6287 24.2758 24.2758C24.6289 23.9734 25.023 23.7224 25.4464 23.5304C26.22 23.2141 26.8874 22.6838 27.3703 22.0017C27.7158 21.25 27.8411 20.4156 27.7316 19.5955C27.6865 19.1248 27.7081 18.65 27.796 18.1854C27.9475 17.7581 28.1586 17.3544 28.423 16.9862C28.9423 16.3161 29.2582 15.511 29.333 14.6665C29.2581 13.8221 28.9422 13.0169 28.4229 12.3469ZM9.44584 37.8017L7.94719 35.3401C7.86837 35.2108 7.74786 35.1122 7.60551 35.0604C7.46315 35.0087 7.30744 35.007 7.16399 35.0556L4.43422 35.9775L7.53113 27.4685C8.23599 27.7275 8.99177 27.8176 9.73777 27.7315C10.2085 27.6868 10.6832 27.7084 11.148 27.7959C11.5752 27.9475 11.9789 28.1585 12.3471 28.4229C12.4824 28.509 12.6224 28.5969 12.7653 28.6829L9.44584 37.8017ZM22.169 35.0556C22.0256 35.007 21.8699 35.0087 21.7275 35.0604C21.5852 35.1122 21.4647 35.2108 21.3859 35.3401L19.8872 37.8017L16.568 28.6832C16.7109 28.5966 16.8509 28.509 16.9862 28.4229C17.3543 28.1587 17.7577 27.9476 18.1847 27.7959C18.6492 27.7084 19.1237 27.6867 19.5942 27.7315C20.3406 27.818 21.0969 27.7277 21.8019 27.4679L24.8988 35.9775L22.169 35.0556ZM27.2979 16.27C26.9566 16.7506 26.6903 17.2803 26.5082 17.841C26.381 18.4347 26.3441 19.0442 26.3988 19.6489C26.483 20.2171 26.4201 20.7975 26.2159 21.3345C25.8491 21.7864 25.3716 22.1358 24.8298 22.3487C24.2838 22.5989 23.7791 22.9309 23.3331 23.3331C22.9304 23.7789 22.5983 24.2836 22.3481 24.8298C22.1352 25.3716 21.7858 25.8491 21.3338 26.2159C20.7967 26.4196 20.2165 26.4825 19.6483 26.3988C19.0435 26.3444 18.4341 26.3813 17.8403 26.5082C17.2799 26.6904 16.7505 26.9567 16.27 27.2979C15.8063 27.6684 15.2533 27.9104 14.6665 27.9997C14.0797 27.9104 13.5268 27.6684 13.063 27.2979C12.5824 26.9566 12.0527 26.6903 11.4921 26.5082C11.118 26.4162 10.7334 26.3736 10.3482 26.3815C10.1256 26.3815 9.90357 26.3906 9.68417 26.3991C9.1159 26.483 8.53562 26.42 7.99859 26.2161C7.54662 25.8493 7.19722 25.3718 6.98433 24.8301C6.73414 24.284 6.4022 23.7792 5.99994 23.3331C5.55413 22.9304 5.04939 22.5983 4.50322 22.3481C3.96146 22.1352 3.48397 21.7858 3.11717 21.3338C2.91303 20.7968 2.85004 20.2165 2.93424 19.6483C2.98894 19.0435 2.95205 18.434 2.82484 17.8403C2.6426 17.2799 2.37633 16.7505 2.03511 16.27C1.66467 15.8063 1.42265 15.2533 1.33332 14.6665C1.42265 14.0797 1.66467 13.5268 2.03511 13.063C2.37646 12.5824 2.64275 12.0527 2.82484 11.4921C2.95207 10.8984 2.98895 10.2889 2.93424 9.68417C2.84999 9.11591 2.91298 8.53554 3.11717 7.99859C3.48398 7.54662 3.96146 7.19722 4.50322 6.98433C5.04922 6.73411 5.55392 6.40218 5.99994 5.99994C6.4026 5.55413 6.73477 5.04939 6.98493 4.50322C7.19784 3.96146 7.54727 3.48397 7.99925 3.11717C8.53623 2.91315 9.11653 2.85016 9.68477 2.93424C10.2895 2.98858 10.899 2.9517 11.4928 2.82484C12.0531 2.6426 12.5826 2.37633 13.063 2.03511C13.5268 1.66467 14.0797 1.42265 14.6665 1.33332C15.2533 1.42265 15.8063 1.66467 16.27 2.03511C16.7506 2.37646 17.2803 2.64275 17.841 2.82484C18.4347 2.9517 19.0442 2.98858 19.6489 2.93424C20.2171 2.85003 20.7975 2.91301 21.3345 3.11717C21.7864 3.48398 22.1358 3.96146 22.3487 4.50322C22.5989 5.04922 22.9309 5.55392 23.3331 5.99994C23.7789 6.4026 24.2836 6.73477 24.8298 6.98493C25.3716 7.19784 25.8491 7.54726 26.2159 7.99925C26.42 8.5362 26.483 9.11653 26.3988 9.68477C26.3441 10.2895 26.381 10.899 26.5082 11.4928C26.6904 12.0531 26.9567 12.5826 27.2979 13.063C27.6684 13.5268 27.9104 14.0797 27.9997 14.6665C27.9104 15.2533 27.6684 15.8063 27.2979 16.27Z" fill="white"></path><path d="M14.6666 4C12.5569 4 10.4946 4.62558 8.74054 5.79764C6.98643 6.9697 5.61927 8.63559 4.81195 10.5846C4.00462 12.5337 3.79339 14.6784 4.20496 16.7475C4.61653 18.8166 5.63242 20.7172 7.12417 22.209C8.61591 23.7007 10.5165 24.7166 12.5856 25.1282C14.6547 25.5397 16.7994 25.3285 18.7485 24.5212C20.6975 23.7139 22.3634 22.3467 23.5355 20.5926C24.7075 18.8385 25.3331 16.7762 25.3331 14.6666C25.3299 11.8386 24.2051 9.1274 22.2054 7.12773C20.2057 5.12806 17.4945 4.00323 14.6666 4ZM14.6666 23.9998C12.8206 23.9998 11.0161 23.4524 9.48129 22.4269C7.94645 21.4013 6.75019 19.9437 6.04378 18.2382C5.33736 16.5328 5.15254 14.6562 5.51266 12.8457C5.87279 11.0353 6.76169 9.37224 8.06697 8.06696C9.37224 6.76169 11.0353 5.87278 12.8457 5.51266C14.6562 5.15253 16.5328 5.33736 18.2382 6.04377C19.9437 6.75018 21.4013 7.94645 22.4269 9.48129C23.4524 11.0161 23.9998 12.8206 23.9998 14.6666C23.997 17.141 23.0128 19.5134 21.2631 21.2631C19.5134 23.0128 17.141 23.997 14.6666 23.9998Z" fill="white"></path><path d="M17.0582 11.3405L15.264 7.70518C15.2028 7.60107 15.1154 7.51476 15.0106 7.45479C14.9058 7.39483 14.7871 7.36328 14.6663 7.36328C14.5456 7.36328 14.4269 7.39483 14.3221 7.45479C14.2172 7.51476 14.1299 7.60107 14.0687 7.70518L12.2744 11.3405L8.26213 11.9239C8.13908 11.9418 8.02349 11.9937 7.92842 12.0738C7.83334 12.154 7.76258 12.2591 7.72411 12.3774C7.68564 12.4956 7.68101 12.6222 7.71074 12.743C7.74047 12.8637 7.80337 12.9737 7.89233 13.0606L10.7959 15.8906L10.1104 19.8874C10.0894 20.01 10.1031 20.136 10.15 20.2512C10.1969 20.3664 10.2751 20.4662 10.3758 20.5393C10.4764 20.6124 10.5955 20.6558 10.7196 20.6648C10.8437 20.6737 10.9678 20.6478 11.0778 20.5898L14.6663 18.7031L18.2548 20.5898C18.3649 20.6477 18.489 20.6736 18.6131 20.6647C18.7371 20.6558 18.8562 20.6123 18.9569 20.5392C19.0575 20.4661 19.1357 20.3664 19.1826 20.2512C19.2295 20.136 19.2433 20.0099 19.2223 19.8873L18.5368 15.8906L21.4403 13.0605C21.5293 12.9737 21.5922 12.8636 21.6219 12.7429C21.6517 12.6222 21.647 12.4955 21.6086 12.3773C21.5701 12.259 21.4993 12.1539 21.4043 12.0738C21.3092 11.9936 21.1936 11.9417 21.0705 11.9238L17.0582 11.3405ZM17.3551 15.181C17.2778 15.2565 17.22 15.3496 17.1867 15.4523C17.1533 15.5551 17.1454 15.6644 17.1637 15.7708L17.68 18.7813L14.9769 17.36C14.8811 17.3096 14.7745 17.2832 14.6663 17.2832C14.5581 17.2832 14.4515 17.3096 14.3558 17.36L11.653 18.7813L12.1693 15.7708C12.1876 15.6644 12.1797 15.5551 12.1463 15.4523C12.113 15.3496 12.0552 15.2565 11.9779 15.181L9.79038 13.0489L12.8132 12.6095C12.9201 12.594 13.0218 12.5527 13.1092 12.4892C13.1967 12.4257 13.2674 12.3418 13.3151 12.2449L14.6663 9.50676L16.0179 12.245C16.0656 12.342 16.1363 12.4258 16.2238 12.4894C16.3112 12.5529 16.4129 12.5941 16.5198 12.6096L19.5426 13.049L17.3551 15.181Z" fill="white"></path></svg>