<svg xmlns="http://www.w3.org/2000/svg" width="60" height="55" viewBox="0 0 60 55" fill="none"><path d="M30.0007 55.0032C29.6332 55.0032 29.2832 54.8407 29.0432 54.5582L0.293627 20.4111C-0.038868 20.0161 -0.0938672 19.4561 0.153629 19.0061L10.2335 0.653897C10.4535 0.253903 10.8735 0.00390625 11.3285 0.00390625H48.673C49.1305 0.00390625 49.5504 0.253903 49.7679 0.653897L59.8453 19.0061C60.0953 19.4586 60.0378 20.0161 59.7053 20.4111L30.9557 54.5582C30.7182 54.8407 30.3682 55.0032 30.0007 55.0032ZM2.76109 19.4561L30.0007 51.8132L57.2403 19.4561L47.933 2.50387H12.0685L2.76109 19.4561Z" fill="white"></path><path d="M58.1252 21.2529H1.87596C1.18597 21.2529 0.625977 20.6929 0.625977 20.0029C0.625977 19.3129 1.18597 18.7529 1.87596 18.7529H58.1252C58.8152 18.7529 59.3752 19.3129 59.3752 20.0029C59.3752 20.6929 58.8152 21.2529 58.1252 21.2529Z" fill="white"></path><path d="M42.6558 20.5511C42.2633 20.5511 41.8758 20.3661 41.6333 20.0186L30.0059 3.43636L18.5261 19.9311C18.1361 20.4986 17.3536 20.6361 16.7886 20.2436C16.2186 19.8486 16.0811 19.0711 16.4761 18.5036L28.9759 0.538899C29.2084 0.203903 29.5909 0.00390625 29.9984 0.00390625H30.0009C30.4084 0.00390625 30.7884 0.201404 31.0234 0.536399L43.6782 18.5837C44.0757 19.1511 43.9382 19.9286 43.3732 20.3236C43.1582 20.4761 42.9058 20.5511 42.6558 20.5511Z" fill="white"></path><path d="M30.0008 55.0029C29.4708 55.0029 29.0008 54.6704 28.8233 54.1729L10.151 1.67364C9.92103 1.02115 10.261 0.306157 10.9085 0.0761603C11.5635 -0.163836 12.276 0.183659 12.506 0.83365L30.0008 50.023L47.4955 0.83365C47.7255 0.186159 48.438 -0.158836 49.093 0.0761603C49.743 0.306157 50.083 1.02115 49.8505 1.67364L31.1782 54.1729C31.0007 54.6704 30.5307 55.0029 30.0008 55.0029Z" fill="white"></path></svg>