<svg xmlns="http://www.w3.org/2000/svg" width="58" height="60" viewBox="0 0 58 60" fill="none"><path fill-rule="evenodd" clip-rule="evenodd" d="M28.6529 18.4421C34.3904 18.4421 39.5854 20.7678 43.3452 24.5288C47.1049 28.2885 49.4319 33.4836 49.4319 39.2222C49.4319 44.9609 47.1062 50.1547 43.3452 53.9145C39.5842 57.6743 34.3904 60 28.6529 60C22.9154 60 17.7204 57.6743 13.9594 53.9145C10.1996 50.1547 7.87393 44.9597 7.87393 39.2222C7.87393 33.4848 10.1996 28.2897 13.9594 24.5288C17.7204 20.7678 22.9154 18.4421 28.6529 18.4421ZM8.85918 7.06674C8.77997 6.81593 8.58557 6.60592 8.31555 6.51952C7.87513 6.37791 7.40351 6.62032 7.2619 7.06074L5.75343 11.7362L0.90041 11.7266C0.620797 11.7062 0.336383 11.8274 0.159975 12.071C-0.112437 12.4466 -0.0284335 12.971 0.347184 13.2422L4.32777 16.1224L2.8001 20.793L2.8025 20.7942C2.72329 21.0402 2.7581 21.3198 2.9213 21.5454C3.19372 21.9186 3.71574 22.0014 4.08896 21.729L8.05994 18.8321L11.9793 21.6906C12.1941 21.873 12.4953 21.9426 12.7822 21.849C13.2226 21.7062 13.4638 21.2322 13.3198 20.793L11.7921 16.1224L15.7727 13.2422L15.7715 13.241C15.9815 13.0886 16.1171 12.8426 16.1171 12.563C16.1171 12.101 15.7427 11.7266 15.2807 11.7266L10.3664 11.7362L8.85918 7.06674ZM8.95878 12.8294L8.05874 10.0429L7.1587 12.8294C7.05069 13.1666 6.73508 13.4102 6.36186 13.4102L3.43133 13.4042L5.80504 15.1215C6.09185 15.3291 6.22506 15.7047 6.10985 16.06L5.19901 18.8465L7.55352 17.1292C7.84033 16.912 8.24595 16.8964 8.55196 17.1196L10.9197 18.8465L10.0184 16.0912C9.89123 15.7467 10.0016 15.3471 10.3136 15.1215L12.6874 13.4042L9.79642 13.4102C9.4268 13.4282 9.07759 13.1978 8.95878 12.8294ZM50.0451 7.06674C49.9659 6.81593 49.7715 6.60592 49.5015 6.51952C49.061 6.37791 48.5894 6.62032 48.4478 7.06074L46.9393 11.7362L42.0863 11.7266C41.8067 11.7062 41.5223 11.8274 41.3459 12.071C41.0735 12.4466 41.1575 12.971 41.5331 13.2422L45.5137 16.1224L43.986 20.793L43.9884 20.7942C43.9092 21.0402 43.944 21.3198 44.1072 21.5454C44.3796 21.9186 44.9016 22.0014 45.2749 21.729L49.2458 18.8321L53.1652 21.6906C53.38 21.873 53.6813 21.9426 53.9681 21.849C54.4085 21.7062 54.6497 21.2322 54.5057 20.793L52.978 16.1224L56.9586 13.2422L56.9574 13.241C57.1674 13.0886 57.303 12.8426 57.303 12.563C57.303 12.101 56.9286 11.7266 56.4666 11.7266L51.5524 11.7362L50.0451 7.06674ZM50.1459 12.8294L49.2458 10.0429L48.3458 12.8294C48.2378 13.1666 47.9222 13.4102 47.549 13.4102L44.6184 13.4042L46.9921 15.1215C47.279 15.3291 47.4122 15.7047 47.297 16.06L46.3861 18.8465L48.7406 17.1292C49.0274 16.912 49.4331 16.8964 49.7391 17.1196L52.1068 18.8465L51.2055 16.0912C51.0783 15.7467 51.1887 15.3471 51.5008 15.1215L53.8745 13.4042L50.9835 13.4102C50.6127 13.4282 50.2635 13.1978 50.1459 12.8294ZM29.4521 0.58764L30.9594 5.25706L35.8736 5.24746C36.3357 5.24746 36.7101 5.62187 36.7101 6.0839C36.7101 6.36231 36.5733 6.60952 36.3645 6.76193L36.3657 6.76313L32.3851 9.64326L33.9127 14.3139C34.0555 14.7543 33.8155 15.2271 33.3751 15.3699C33.0883 15.4635 32.7871 15.3927 32.5723 15.2115L28.6529 12.353L24.6819 15.2499C24.3087 15.5223 23.7855 15.4395 23.5143 15.0663C23.3499 14.8407 23.315 14.5611 23.3955 14.3151L23.3931 14.3139L24.9207 9.64326L20.9401 6.76313C20.5645 6.49071 20.4817 5.96629 20.7529 5.59187C20.9293 5.34826 21.2138 5.22706 21.4934 5.24746L26.3464 5.25706L27.8561 0.58164C27.9977 0.141219 28.4693 -0.101192 28.9097 0.0404148C29.1785 0.126819 29.3729 0.336829 29.4521 0.58764ZM29.5529 6.35031L28.6529 3.56378L27.7529 6.35031C27.6448 6.68752 27.3292 6.93113 26.956 6.93113L24.0267 6.92513L26.4004 8.64241C26.6872 8.85002 26.8204 9.22564 26.7052 9.58086L25.7944 12.3674L28.1489 10.6501C28.4357 10.4329 28.8413 10.4173 29.1473 10.6405L31.515 12.3674L30.6138 9.61206C30.4866 9.26764 30.597 8.86802 30.909 8.64241L33.2827 6.92513L30.3918 6.93113C30.0198 6.94794 29.6705 6.71872 29.5529 6.35031ZM24.0543 35.7937L24.0711 46.6722H34.9976C35.3624 46.6722 35.696 46.5498 35.9528 46.3398C36.2108 46.1286 36.3981 45.8285 36.4713 45.4733L38.0949 37.5662C38.1429 37.3333 38.1405 37.1101 38.0889 36.9025C38.0373 36.6949 37.9365 36.4957 37.7853 36.3109C37.6365 36.1273 37.4625 35.9893 37.2705 35.8981C37.0797 35.8069 36.8613 35.7613 36.6201 35.7613H30.8814C30.417 35.7613 30.0414 35.3857 30.0414 34.9212C30.0414 34.8 30.0666 34.686 30.1134 34.5816L30.2958 34.0632C31.2054 31.4735 31.6878 30.0994 30.423 28.9246C30.2958 28.8057 30.1566 28.7265 30.0126 28.6869C29.8686 28.6473 29.7065 28.6449 29.5349 28.6821C29.3633 28.7193 29.2169 28.7877 29.1029 28.8826C28.9877 28.9786 28.8941 29.1082 28.8281 29.269L26.5732 34.6668C26.1196 35.7517 25.0287 35.8285 24.0543 35.7937ZM22.3982 47.397L22.379 34.9992C22.2146 34.116 20.7265 33.912 20.7265 35.4685V47.0478C20.7265 48.4531 22.0226 48.6775 22.3982 47.397ZM34.9976 48.3523C35.756 48.3523 36.4569 48.0894 37.0101 47.6394C37.5609 47.1894 37.9593 46.5546 38.1129 45.8093L39.7366 37.9022C39.835 37.4222 39.8278 36.9517 39.7174 36.5029C39.607 36.0553 39.3958 35.6353 39.0862 35.2549C38.7754 34.8732 38.4057 34.5816 37.9869 34.3824C37.5681 34.1832 37.1085 34.0812 36.6213 34.0812H32.0647C33.0835 31.1555 33.5179 29.5102 31.5654 27.6969C31.2402 27.3945 30.8622 27.1845 30.453 27.0717C30.0438 26.9589 29.6129 26.9469 29.1809 27.0405C28.7477 27.1341 28.3613 27.3237 28.0337 27.5961C27.7073 27.8673 27.4504 28.2153 27.2788 28.6257L25.0239 34.0236C24.9687 34.1568 24.3651 34.134 23.8467 34.1076C22.7954 31.7507 19.0452 32.2559 19.0452 35.4697V47.049C19.0452 50.1559 22.613 50.9684 23.8239 48.3523H34.9976ZM28.6529 21.9486C23.8839 21.9486 19.5649 23.8819 16.4399 27.0081C13.3138 30.1342 11.3805 34.452 11.3805 39.221C11.3805 43.9901 13.3138 48.3091 16.4399 51.434C19.5661 54.5601 23.8839 56.4934 28.6529 56.4934C33.4219 56.4934 37.7409 54.5601 40.8659 51.434C43.992 48.3079 45.9253 43.9901 45.9253 39.221C45.9253 34.452 43.992 30.133 40.8659 27.0081C37.7409 23.8819 33.4219 21.9486 28.6529 21.9486ZM39.6778 28.1961C36.8565 25.3748 32.9587 23.6287 28.6529 23.6287C24.3471 23.6287 20.4493 25.3736 17.6268 28.1961C14.8055 31.0175 13.0594 34.9152 13.0594 39.221C13.0594 43.5268 14.8043 47.4246 17.6268 50.2471C20.4481 53.0685 24.3471 54.8146 28.6529 54.8146C32.9587 54.8146 36.8565 53.0697 39.6778 50.2471C42.4991 47.4258 44.2452 43.5268 44.2452 39.221C44.2452 34.9152 42.5003 31.0175 39.6778 28.1961ZM42.1583 25.7156C38.7022 22.2594 33.9271 20.1221 28.6529 20.1221C23.3787 20.1221 18.6036 22.2594 15.1475 25.7156C11.6913 29.1718 9.55401 33.9468 9.55401 39.221C9.55401 44.4953 11.6913 49.2703 15.1475 52.7265C18.6036 56.1826 23.3787 58.3199 28.6529 58.3199C33.9271 58.3199 38.7022 56.1826 42.1583 52.7265C45.6145 49.2703 47.7518 44.4953 47.7518 39.221C47.7518 33.9468 45.6145 29.1718 42.1583 25.7156Z" fill="#89EA5F"></path></svg>