<svg xmlns="http://www.w3.org/2000/svg" width="36" height="32" viewBox="0 0 36 32" fill="none"><path d="M6.2759 21.9029C6.85763 21.9029 7.33093 21.4297 7.33093 20.8479V20.4663C7.33093 20.1785 7.09765 19.9453 6.80991 19.9453C6.52217 19.9453 6.28889 20.1785 6.28889 20.4663V20.8479C6.28889 20.8551 6.28306 20.8609 6.2759 20.8609C5.98816 20.8609 5.75488 21.0941 5.75488 21.3819C5.75488 21.6697 5.98816 21.9029 6.2759 21.9029Z" fill="white"></path><path d="M18.3187 19.9453C18.031 19.9453 17.7977 20.1785 17.7977 20.4663V20.8479C17.7977 20.8551 17.7919 20.8609 17.7847 20.8609C17.4969 20.8609 17.2637 21.0941 17.2637 21.3819C17.2637 21.6697 17.4969 21.9029 17.7847 21.9029C18.3664 21.9029 18.8397 21.4297 18.8397 20.8479V20.4663C18.8397 20.1785 18.6064 19.9453 18.3187 19.9453Z" fill="white"></path><path d="M29.8275 19.9453C29.5397 19.9453 29.3065 20.1785 29.3065 20.4663V20.8479C29.3065 20.8551 29.3006 20.8609 29.2935 20.8609C29.0057 20.8609 28.7725 21.0941 28.7725 21.3819C28.7725 21.6697 29.0057 21.9029 29.2935 21.9029C29.8752 21.9029 30.3485 21.4297 30.3485 20.8479V20.4663C30.3485 20.1785 30.1152 19.9453 29.8275 19.9453Z" fill="white"></path><path d="M17.7847 28.5264C18.0724 28.5264 18.3057 28.2931 18.3057 28.0054C18.3057 27.7176 18.0724 27.4844 17.7847 27.4844C17.4969 27.4844 17.2637 27.7176 17.2637 28.0054C17.2637 28.2931 17.4969 28.5264 17.7847 28.5264Z" fill="white"></path><path d="M17.7847 30.2637C18.0724 30.2637 18.3057 30.0304 18.3057 29.7427C18.3057 29.4549 18.0724 29.2217 17.7847 29.2217C17.4969 29.2217 17.2637 29.4549 17.2637 29.7427C17.2637 30.0304 17.4969 30.2637 17.7847 30.2637Z" fill="white"></path><path d="M32.8111 24.5107H31.5428C31.461 24.5107 31.3944 24.4441 31.3944 24.3623V23.9529C32.0732 23.4263 32.6297 22.678 32.6967 21.7683C32.7674 20.8091 32.8374 19.8574 32.9078 18.9028C32.9706 18.0501 32.7271 17.2027 32.232 16.5156C32.2711 16.2212 32.3013 15.9245 32.3225 15.6266C32.3236 15.6162 32.3244 15.6058 32.3248 15.5953C32.3483 15.256 32.3601 14.9156 32.3601 14.5759C32.3601 9.83438 30.0844 5.61449 26.5679 2.95091C26.5301 2.91179 26.4858 2.87817 26.4357 2.85191C24.0142 1.06038 21.0206 0 17.7841 0C15.2551 0 12.7636 0.657941 10.5789 1.90262C8.46056 3.10943 6.66257 4.84394 5.37933 6.91849C5.22796 7.16316 5.30361 7.48431 5.54835 7.63562C5.79302 7.78706 6.11411 7.71141 6.26555 7.4666C8.52211 3.81857 12.2733 1.50366 16.4756 1.10393L14.8128 3.04587C14.376 3.55605 14.1355 4.20684 14.1355 4.87839V6.3353C14.1355 6.86778 13.8997 7.36733 13.4887 7.70592C12.5852 8.44986 12.2377 9.64904 12.6032 10.761L12.8134 11.4001C13.2953 12.8659 14.203 14.129 15.4386 15.0531L16.0017 15.4743C15.6772 15.6576 15.3802 15.8928 15.1204 16.176C14.6459 16.6931 14.3384 17.3202 14.2183 17.9978C14.0327 18.2008 13.8578 18.4153 13.6972 18.6372L11.5824 21.5597C11.4256 21.7765 11.1296 21.8445 10.8939 21.7183C10.4392 21.4747 10.0492 21.1259 9.75776 20.7035C9.86898 19.1932 9.80215 20.1012 9.89037 18.9028C9.93546 18.2902 9.82243 17.6804 9.57172 17.1307C9.74629 16.5222 9.63292 15.8562 9.26439 15.3399L8.47932 14.2397C8.01603 13.5904 7.86695 12.7759 8.07035 12.0047L8.39068 10.7899C8.4887 10.4183 8.35559 10.0261 8.05153 9.79089C7.74746 9.5556 7.33447 9.52538 6.99921 9.71357L6.60984 9.93233C6.07159 10.2347 5.47979 10.4293 4.87117 10.5105C4.96759 10.2043 5.07513 9.90107 5.19378 9.60104C5.29958 9.33337 5.16849 9.03069 4.9009 8.92489C4.63338 8.81923 4.33063 8.95018 4.22483 9.21777C3.55035 10.9233 3.20829 12.726 3.20829 14.5759C3.20829 15.2239 3.25129 15.8749 3.33618 16.5142C2.83538 17.2093 2.598 18.0544 2.66303 18.9364C2.67094 19.044 2.82781 21.174 2.87157 21.7684C2.93861 22.6781 3.49513 23.4263 4.17384 23.953V24.3624C4.17384 24.4442 4.10729 24.5108 4.02545 24.5108H2.75709C1.23683 24.5107 0 25.7474 0 27.2678V28.1474C0 28.4352 0.233277 28.6684 0.521018 28.6684C0.808758 28.6684 1.04204 28.4352 1.04204 28.1474V27.2678C1.04204 26.3221 1.8114 25.5527 2.75709 25.5527H3.29596C3.86963 26.5704 5.02351 27.2332 6.27534 27.2332C7.52718 27.2332 8.68106 26.5704 9.25473 25.5527H9.7936C10.7384 25.5527 11.5072 26.3206 11.5087 27.2651V30.958H10.5187V28.8408C10.5187 28.5529 10.2854 28.3197 9.9977 28.3197C9.70996 28.3197 9.47669 28.5529 9.47669 28.8408V30.958H3.074V28.8408C3.074 28.5529 2.84073 28.3197 2.55299 28.3197C2.26525 28.3197 2.03197 28.5529 2.03197 28.8408V30.958H1.04204V30.5789C1.04204 30.2911 0.808758 30.0579 0.521018 30.0579C0.233277 30.0579 0 30.2911 0 30.5789V31.2975C0 31.6849 0.315181 32 0.70254 32H11.8482C11.9109 32 11.9718 31.9917 12.0297 31.9762C12.0877 31.9917 12.1485 32 12.2113 32H23.3569C23.4197 32 23.4805 31.9917 23.5385 31.9762C23.5964 31.9917 23.6572 32 23.72 32H34.8657C35.253 32 35.5682 31.6849 35.5682 31.2975V27.2678C35.5681 25.7474 34.3313 24.5107 32.8111 24.5107ZM30.5649 25.0404L29.6067 25.6556C29.419 25.7761 29.1666 25.7761 28.9789 25.6556L28.0207 25.0404C28.1199 24.8976 28.1888 24.7322 28.2178 24.5536C28.6146 24.7203 28.9942 24.8088 29.2928 24.8088C29.5914 24.8088 29.9709 24.7202 30.3678 24.5536C30.3967 24.7322 30.4656 24.8976 30.5649 25.0404ZM22.0274 29.9154H23.0174V30.958H22.0274V29.9154ZM23.5384 25.6566C23.1804 25.1611 22.662 24.7888 22.06 24.6166C22.1961 24.4539 22.3569 24.3117 22.5389 24.194C23.4391 23.6121 23.5642 22.343 22.792 21.5969L22.0411 20.8716C21.4179 20.2696 21.2975 19.3323 21.7483 18.5922L22.3946 17.5313C22.5663 17.2493 22.923 17.139 23.2239 17.2744L23.821 17.5431C24.458 17.8298 25.1784 17.8451 25.8234 17.5907C25.6957 18.018 25.6461 18.4721 25.6803 18.9364C25.6873 19.0319 25.8835 21.6955 25.8888 21.7684C25.9558 22.6781 26.5124 23.4263 27.1911 23.953V24.3624C27.1911 24.4442 27.1245 24.5108 27.0426 24.5108H25.7745C24.8553 24.5107 24.0397 24.9629 23.5384 25.6566ZM19.9418 26.4979L19.25 26.1543L19.7387 25.8405L19.9418 26.4979ZM17.9545 25.7477H17.6137L16.512 25.0404C16.6113 24.8976 16.6801 24.7322 16.7092 24.5536C17.106 24.7203 17.4856 24.8088 17.7841 24.8088C18.0827 24.8088 18.4624 24.7202 18.8591 24.5536C18.8881 24.7322 18.9569 24.8976 19.0562 25.0404L17.9545 25.7477ZM16.3181 26.1543L15.6264 26.4979L15.8294 25.8405L16.3181 26.1543ZM17.7841 23.7668C17.1243 23.7668 15.5076 22.8906 15.4194 21.6918L15.2958 20.0132L16.7945 18.5145C17.5903 19.1932 18.5906 19.5632 19.648 19.5632H20.3055L20.1487 21.6919C20.0605 22.8905 18.4438 23.7668 17.7841 23.7668ZM20.038 24.5107C20.0366 24.5107 20.0351 24.5107 20.0338 24.5107C19.9521 24.5105 19.8857 24.444 19.8857 24.3623V23.9529C20.5644 23.4263 21.121 22.678 21.188 21.7683L21.2071 21.5089C21.2426 21.547 21.2793 21.5844 21.3172 21.6211L22.0681 22.3463C22.3567 22.6252 22.3109 23.1005 21.9733 23.3188C21.5088 23.6191 21.1373 24.0268 20.8843 24.5106L20.038 24.5107ZM29.2601 16.0541C30.7728 16.0405 31.9299 17.286 31.8737 18.7331L31.8753 18.7332L31.6574 21.6918C31.5677 22.9109 29.8972 23.7964 29.2601 23.766C28.6228 23.7963 26.9525 22.9108 26.8628 21.6918L26.6449 18.7332L26.6465 18.7331C26.5902 17.286 27.7473 16.0405 29.2601 16.0541ZM31.3179 14.5759V14.5911L30.7194 14.1676C29.3598 13.2053 27.7636 12.6236 26.1035 12.4853L25.2851 12.4171C25.1429 12.4052 25.0669 12.3166 25.0342 12.2648C25.0016 12.2129 24.9543 12.1061 25.005 11.9726C25.5908 10.4301 25.2562 8.72156 24.1318 7.51384L24.0377 7.41276C23.9872 7.35858 23.9858 7.29744 23.9894 7.2659C23.993 7.2343 24.0083 7.17518 24.0698 7.13391C25.1426 6.41317 25.9541 5.3942 26.4164 4.18711L26.4243 4.16661C29.4124 6.6511 31.3179 10.3951 31.3179 14.5759ZM16.63 14.643L16.0626 14.2187C14.9992 13.4234 14.2179 12.3362 13.8031 11.0747L13.593 10.4355C13.3626 9.73483 13.5817 8.97915 14.151 8.5103C14.8033 7.9731 15.1774 7.18032 15.1774 6.3353V4.87839C15.1774 4.45519 15.329 4.04511 15.6043 3.72361L17.8999 1.04252C20.748 1.06656 23.3891 1.97473 25.5615 3.50555L25.4433 3.81427C25.0582 4.81976 24.3824 5.66846 23.4887 6.26881C23.1902 6.46937 22.9954 6.78921 22.9542 7.14642C22.913 7.5037 23.03 7.85952 23.275 8.1228L23.3692 8.22388C24.2212 9.13907 24.4747 10.4338 24.0308 11.6026C23.8765 12.0089 23.9209 12.4527 24.1526 12.8202C24.3843 13.1879 24.7654 13.4193 25.1985 13.4555L26.0169 13.5236C27.4917 13.6466 28.9096 14.1633 30.1174 15.0182L30.3199 15.1615C29.9748 15.0593 29.6134 15.0079 29.2473 15.0122C28.1952 15.025 27.231 15.4719 26.5472 16.2682C26.2255 16.3096 25.9142 16.4009 25.6187 16.5409L25.5355 16.5802C25.1284 16.7731 24.6593 16.7776 24.2486 16.5929L23.6516 16.3242C22.8723 15.9733 21.9493 16.2594 21.5046 16.9892L21.2138 17.4666C21.0485 16.982 20.7812 16.5326 20.4243 16.1531C19.5766 15.2519 18.3039 14.8304 17.0459 15.0855C16.9363 14.9168 16.7964 14.7676 16.63 14.643ZM17.7514 16.0541C19.2067 16.041 20.3096 17.1865 20.3648 18.5211H19.648C18.7497 18.5211 17.9052 18.1714 17.2701 17.5362C17.1404 17.4064 16.968 17.335 16.7846 17.335C16.6012 17.335 16.4287 17.4064 16.2992 17.5361L15.2034 18.6319C15.2146 17.2241 16.3149 16.0717 17.7514 16.0541ZM6.24269 16.0541C7.61964 16.0417 8.66334 17.0633 8.83299 18.2666L8.60471 18.0383C7.94413 17.3778 6.86896 17.3777 6.20824 18.0383L6.19525 18.0514L6.1453 18.0014C5.82525 17.6813 5.39969 17.505 4.94703 17.505C4.51035 17.505 4.09888 17.6691 3.783 17.9681C4.06783 16.8939 5.02747 16.0689 6.24269 16.0541ZM7.12023 10.8408L7.33079 10.7225L7.06278 11.7389C6.78011 12.8107 6.98726 13.9428 7.6311 14.845L8.10433 15.5082C7.54093 15.1795 6.89251 15.0044 6.22998 15.0122C5.52376 15.0208 4.85714 15.225 4.28853 15.5991C4.18787 14.2522 4.28568 12.8953 4.581 11.5862C5.4702 11.5343 6.34085 11.2786 7.12023 10.8408ZM3.74758 19.4763L4.48568 18.7382C4.74029 18.4836 5.15293 18.4827 5.40844 18.7382C5.40844 18.7382 5.40851 18.7382 5.40851 18.7382L5.56072 18.8904C5.73015 19.0599 5.95558 19.1532 6.19532 19.1532C6.43505 19.1532 6.66041 19.0599 6.82985 18.8904L6.9451 18.7752C7.19956 18.5209 7.61346 18.5207 7.86792 18.7752L8.78721 19.6944C8.64375 21.6419 8.8698 18.5735 8.64007 21.6918C8.55177 22.8905 6.93516 23.7667 6.27541 23.7667C5.61567 23.7667 3.99898 22.8905 3.91069 21.6918L3.74758 19.4763ZM6.27534 26.1912C5.58455 26.1912 4.9398 25.9101 4.50618 25.4512C4.86769 25.291 5.13515 24.9558 5.20038 24.5537C5.59719 24.7203 5.97677 24.8088 6.27534 24.8088C6.57392 24.8088 6.9535 24.7203 7.35031 24.5537C7.41554 24.9558 7.683 25.291 8.04451 25.4512C7.61089 25.9101 6.96615 26.1912 6.27534 26.1912ZM9.79367 24.5107H8.52545C8.44361 24.5107 8.37706 24.4441 8.37706 24.3623V23.9529C8.96935 23.4934 9.46863 22.865 9.6307 22.1079C9.86675 22.311 10.1253 22.4887 10.4019 22.6369C11.0952 23.0082 11.9656 22.8077 12.4267 22.1706L14.2267 19.6829C14.5261 23.7492 14.2564 20.0856 14.3803 21.7683C14.4473 22.678 15.0038 23.4263 15.6826 23.9529V24.3623C15.6826 24.4441 15.616 24.5107 15.5342 24.5107H14.2659C13.3467 24.5107 12.5311 24.9629 12.0299 25.6566C11.5285 24.9629 10.7129 24.5107 9.79367 24.5107ZM13.5407 30.9579H12.5508V29.9154H13.5407V30.9579ZM14.5827 28.8408C14.5827 28.5529 14.3495 28.3197 14.0617 28.3197C13.774 28.3197 13.5407 28.5529 13.5407 28.8408V28.8734H12.5508C12.5508 27.0132 12.5508 27.2996 12.5508 27.2651C12.5522 26.3206 13.321 25.5527 14.2658 25.5527H14.8277L14.4425 26.7998C14.3516 27.0938 14.4444 27.4127 14.6789 27.6121C14.9116 27.8099 15.2409 27.8528 15.5185 27.7148L17.4094 26.7758C17.4606 26.785 17.5127 26.7897 17.5652 26.7897H18.0029C18.0555 26.7897 18.1077 26.785 18.1588 26.7758L20.0495 27.7148C20.3225 27.8505 20.6527 27.8132 20.8892 27.6121C21.1237 27.4127 21.2165 27.0938 21.1257 26.7998L20.7404 25.5527H21.2076C21.2163 25.5529 21.223 25.5529 21.2308 25.5527H21.3023C22.248 25.5527 23.0174 26.3221 23.0174 27.2678V28.8733H22.0274V28.8407C22.0274 28.5529 21.7942 28.3197 21.5064 28.3197C21.2187 28.3197 20.9854 28.5529 20.9854 28.8407V30.9579H14.5827V28.8408H14.5827ZM24.0594 27.2678C24.0594 26.3221 24.8288 25.5527 25.7745 25.5527H26.6727L27.1372 26.8839C27.232 27.1556 27.529 27.2991 27.8008 27.2041C28.0725 27.1094 28.2159 26.8122 28.1211 26.5406L28.0323 26.2862L28.4159 26.5325C28.9501 26.8755 29.6351 26.8757 30.1697 26.5325L30.5532 26.2862L29.2928 29.8977L28.9589 28.941C28.8642 28.6694 28.5671 28.526 28.2954 28.6208C28.0237 28.7156 27.8803 29.0128 27.9751 29.2845L28.5591 30.958H26.0915V28.8408C26.0915 28.5529 25.8582 28.3197 25.5704 28.3197C25.2827 28.3197 25.0494 28.5529 25.0494 28.8408V30.958H24.0595V27.2678H24.0594ZM34.5261 30.9579H33.5362V28.8407C33.5362 28.5529 33.3029 28.3197 33.0152 28.3197C32.7274 28.3197 32.4941 28.5529 32.4941 28.8407V30.9579H30.0265L31.9128 25.5527H32.8111C33.7567 25.5527 34.5261 26.322 34.5261 27.2677V30.9579Z" fill="white"></path></svg>