<svg xmlns="http://www.w3.org/2000/svg" width="60" height="60" viewBox="0 0 60 60" fill="none"><path d="M55.9999 27.1V26C55.9999 19.1044 53.2607 12.4912 48.3847 7.61522C43.5088 2.73928 36.8956 0 30 0C23.1043 0 16.4912 2.73928 11.6152 7.61522C6.73927 12.4912 4 19.1044 4 26V27.1C2.87141 27.3321 1.85734 27.9462 1.12872 28.8387C0.40009 29.7313 0.00145452 30.8478 0 32L0 40C0.00158786 41.3256 0.528881 42.5964 1.46622 43.5337C2.40356 44.4711 3.6744 44.9984 5 45H8.99999C9.70008 44.9988 10.3777 44.7529 10.9156 44.3047C11.4534 43.8565 11.8176 43.2344 11.945 42.546C13.2037 45.1928 15.0274 47.5316 17.2876 49.3975C19.5478 51.2635 22.1896 52.6112 25.027 53.346C24.5086 53.9187 24.1681 54.6298 24.0468 55.3926C23.9254 56.1555 24.0286 56.9371 24.3437 57.6424C24.6588 58.3476 25.1723 58.946 25.8214 59.3646C26.4706 59.7832 27.2275 60.0039 28 59.9999H33C33.4195 59.9986 33.834 59.9089 34.2166 59.7366C34.5991 59.5643 34.941 59.3133 35.22 58.9999H41C44.8187 58.9937 48.4914 57.5318 51.2698 54.912C54.0483 52.2922 55.7234 48.7117 55.9539 44.9C57.0913 44.6777 58.1163 44.0678 58.8541 43.1742C59.5919 42.2807 59.9969 41.1588 59.9999 40V32C59.9985 30.8478 59.5999 29.7313 58.8712 28.8387C58.1426 27.9462 57.1285 27.3321 55.9999 27.1ZM30 2C36.3629 2.00741 42.4631 4.53835 46.9623 9.03761C51.4616 13.5369 53.9925 19.6371 53.9999 26V27H52V26C52 20.1652 49.6821 14.5694 45.5563 10.4436C41.4305 6.31785 35.8347 4 30 4C24.1652 4 18.5694 6.31785 14.4436 10.4436C10.3178 14.5694 7.99999 20.1652 7.99999 26V27H5.99999V26C6.0074 19.6371 8.53835 13.5369 13.0376 9.03761C17.5369 4.53835 23.6371 2.00741 30 2ZM49.959 44.8C49.7576 47.038 48.727 49.1199 47.0694 50.6371C45.4118 52.1542 43.247 52.997 41 53H36.212C38.7903 52.1488 41.1692 50.7835 43.2048 48.9867C45.2404 47.1898 46.8904 44.9987 48.055 42.546C48.1512 43.0539 48.3771 43.5283 48.7107 43.9232C49.0443 44.3181 49.4743 44.6201 49.959 44.8ZM30 14C25.7856 14.0058 21.6805 15.341 18.2692 17.8155C14.8578 20.2901 12.314 23.7777 11 27.782C10.7092 27.5183 10.3694 27.3145 9.99999 27.182V26C9.99999 20.6957 12.1071 15.6086 15.8578 11.8579C19.6086 8.10713 24.6956 5.99999 30 5.99999C35.3043 5.99999 40.3914 8.10713 44.1421 11.8579C47.8928 15.6086 50 20.6957 50 26V27.184C49.6305 27.3165 49.2907 27.5203 49 27.784C47.6863 23.7793 45.1427 20.2912 41.7313 17.8164C38.3198 15.3415 34.2146 14.006 30 14ZM9.99999 42C9.99999 42.2652 9.89463 42.5195 9.7071 42.7071C9.51956 42.8946 9.26521 43 8.99999 43H5C4.20435 43 3.44129 42.6839 2.87868 42.1213C2.31607 41.5587 2 40.7956 2 40V32C2 31.2043 2.31607 30.4413 2.87868 29.8787C3.44129 29.316 4.20435 29 5 29H8.99999C9.26521 29 9.51956 29.1053 9.7071 29.2929C9.89463 29.4804 9.99999 29.7348 9.99999 30V42ZM12 34C12 30.4399 13.0557 26.9598 15.0335 23.9997C17.0114 21.0396 19.8226 18.7325 23.1117 17.3702C26.4007 16.0078 30.0199 15.6513 33.5116 16.3458C37.0033 17.0404 40.2105 18.7547 42.7279 21.2721C45.2452 23.7894 46.9596 26.9967 47.6541 30.4883C48.3486 33.98 47.9922 37.5992 46.6298 40.8883C45.2674 44.1773 42.9603 46.9885 40.0002 48.9664C37.0401 50.9443 33.56 52 30 52C25.2278 51.9944 20.6526 50.0962 17.2782 46.7217C13.9038 43.3473 12.0055 38.7722 12 34ZM34 57C34 57.2652 33.8946 57.5195 33.7071 57.7071C33.5195 57.8946 33.2652 57.9999 33 57.9999H28C27.4695 57.9999 26.9608 57.7892 26.5858 57.4142C26.2107 57.0391 26 56.5304 26 56C26 55.4695 26.2107 54.9608 26.5858 54.5857C26.9608 54.2107 27.4695 54 28 54H33C33.2652 54 33.5195 54.1053 33.7071 54.2928C33.8946 54.4804 34 54.7347 34 55V57ZM41 57H36V55H41C43.7426 54.9963 46.3852 53.9692 48.4103 52.1195C50.4355 50.2699 51.6974 47.7311 51.949 45H53.949C53.6952 48.262 52.2215 51.3087 49.8216 53.5327C47.4217 55.7567 44.2719 56.9947 41 57ZM57.9999 40C57.9999 40.7956 57.6839 41.5587 57.1213 42.1213C56.5587 42.6839 55.7956 43 54.9999 43H51C50.7347 43 50.4804 42.8946 50.2928 42.7071C50.1053 42.5195 50 42.2652 50 42V30C50 29.7348 50.1053 29.4804 50.2928 29.2929C50.4804 29.1053 50.7347 29 51 29H54.9999C55.7956 29 56.5587 29.316 57.1213 29.8787C57.6839 30.4413 57.9999 31.2043 57.9999 32V40Z" fill="#89EA5F"></path><path d="M18.588 35.9C19.663 35.118 21 34.146 21 32.182C21.0221 31.3628 20.7189 30.5681 20.1567 29.9718C19.5945 29.3756 18.8191 29.0261 18 29C17.3745 29.0385 16.7718 29.249 16.2584 29.6085C15.7451 29.968 15.3411 30.4623 15.091 31.037C14.9826 31.2771 14.9733 31.5502 15.0651 31.7971C15.157 32.044 15.3425 32.2446 15.5814 32.3555C15.8203 32.4664 16.0933 32.4786 16.3412 32.3894C16.589 32.3001 16.7916 32.1167 16.905 31.879C16.905 31.87 17.346 31 18 31C18.2888 31.0255 18.5559 31.1639 18.7432 31.3853C18.9304 31.6066 19.0227 31.893 19 32.182C19 33.082 18.426 33.544 17.412 34.282C16.337 35.063 15 36.036 15 38C15 38.2652 15.1054 38.5196 15.2929 38.7071C15.4804 38.8946 15.7348 39 16 39H20C20.2652 39 20.5196 38.8946 20.7071 38.7071C20.8946 38.5196 21 38.2652 21 38C21 37.7348 20.8946 37.4804 20.7071 37.2929C20.5196 37.1053 20.2652 37 20 37H17.325C17.6912 36.5748 18.1166 36.2044 18.588 35.9Z" fill="#89EA5F"></path><path d="M29 35H28V34C28 33.7348 27.8946 33.4804 27.7071 33.2929C27.5196 33.1054 27.2652 33 27 33C26.7348 33 26.4804 33.1054 26.2929 33.2929C26.1054 33.4804 26 33.7348 26 34V35H25V30C25 29.7348 24.8946 29.4804 24.7071 29.2929C24.5196 29.1054 24.2652 29 24 29C23.7348 29 23.4804 29.1054 23.2929 29.2929C23.1054 29.4804 23 29.7348 23 30V36C23 36.2652 23.1054 36.5196 23.2929 36.7071C23.4804 36.8946 23.7348 37 24 37H26V38C26 38.2652 26.1054 38.5196 26.2929 38.7071C26.4804 38.8946 26.7348 39 27 39C27.2652 39 27.5196 38.8946 27.7071 38.7071C27.8946 38.5196 28 38.2652 28 38V37H29C29.2652 37 29.5196 36.8946 29.7071 36.7071C29.8946 36.5196 30 36.2652 30 36C30 35.7348 29.8946 35.4804 29.7071 35.2929C29.5196 35.1054 29.2652 35 29 35Z" fill="#89EA5F"></path><path d="M31.7997 39.9803C31.8654 39.9941 31.9325 40.0008 31.9997 40.0003C32.23 40.0002 32.4533 39.9204 32.6316 39.7747C32.81 39.6289 32.9326 39.426 32.9787 39.2003L34.9787 29.2003C35.0207 28.9445 34.9618 28.6824 34.8143 28.4692C34.6668 28.2559 34.4423 28.1084 34.188 28.0575C33.9338 28.0067 33.6698 28.0565 33.4516 28.1966C33.2335 28.3367 33.0782 28.556 33.0187 28.8083L31.0187 38.8083C30.9679 39.0672 31.0216 39.3356 31.1678 39.5551C31.3141 39.7747 31.5412 39.9275 31.7997 39.9803Z" fill="#89EA5F"></path><path d="M38 31H41.2L37.157 37.47C37.0164 37.6955 36.9712 37.9675 37.0312 38.2263C37.0912 38.4851 37.2516 38.7095 37.477 38.85C37.7024 38.9906 37.9745 39.0359 38.2333 38.9758C38.4921 38.9158 38.7164 38.7555 38.857 38.53L43.857 30.53C43.952 30.378 44.0044 30.2032 44.0087 30.024C44.013 29.8448 43.9691 29.6677 43.8815 29.5113C43.7939 29.3549 43.6658 29.2249 43.5107 29.135C43.3557 29.045 43.1793 28.9984 43 29H38C37.7348 29 37.4804 29.1054 37.2929 29.2929C37.1054 29.4805 37 29.7348 37 30C37 30.2653 37.1054 30.5196 37.2929 30.7071C37.4804 30.8947 37.7348 31 38 31Z" fill="#89EA5F"></path></svg>