<svg xmlns="http://www.w3.org/2000/svg" width="57" height="51" viewBox="0 0 57 51" fill="none"><path d="M7.41598 32.8284H6.26284C6.14204 32.8284 6.0734 32.7708 6.05693 32.6555L5.1756 27.7052C5.15912 27.5899 5.21678 27.5322 5.34857 27.5322H6.20519C6.33148 27.5322 6.39738 27.5899 6.40287 27.7052L6.8806 31.7659H6.93825L7.72898 27.6805C7.74545 27.5816 7.80311 27.5322 7.90195 27.5322H8.82446C8.92879 27.5322 8.9892 27.5789 9.00567 27.6723L9.81287 31.7659H9.87876L10.3483 27.7134C10.3537 27.5926 10.4196 27.5322 10.5459 27.5322H11.4026C11.5343 27.5322 11.592 27.5926 11.5755 27.7134L10.686 32.6555C10.6695 32.7708 10.6063 32.8284 10.4965 32.8284H9.33514C9.21982 32.8284 9.15393 32.7708 9.13746 32.6555L8.39615 28.7924H8.36321L7.61366 32.6555C7.5917 32.7708 7.52581 32.8284 7.41598 32.8284Z" fill="white"></path><path d="M15.6827 32.8284H15.485C15.0512 32.8284 14.7162 32.7131 14.4801 32.4825C14.244 32.2519 14.1259 31.9196 14.1259 31.4858V29.9703C14.1259 29.5365 14.244 29.2043 14.4801 28.9737C14.7162 28.743 15.0512 28.6277 15.485 28.6277H17.3877C17.5085 28.6277 17.5689 28.6854 17.5689 28.8007V32.6555C17.5689 32.7708 17.5085 32.8284 17.3877 32.8284H16.6958C16.5805 32.8284 16.5228 32.7708 16.5228 32.6555V32.3837H16.4899C16.4295 32.5319 16.3224 32.6445 16.1686 32.7214C16.0149 32.7927 15.8529 32.8284 15.6827 32.8284ZM16.5228 31.2964V29.6244C16.5228 29.5639 16.4899 29.5337 16.424 29.5337H15.6497C15.474 29.5337 15.3505 29.5722 15.2791 29.6491C15.2077 29.7204 15.172 29.844 15.172 30.0197V31.4364C15.172 31.6121 15.2077 31.7384 15.2791 31.8153C15.3505 31.8867 15.474 31.9224 15.6497 31.9224H15.9545C16.3334 31.9224 16.5228 31.7137 16.5228 31.2964Z" fill="white"></path><path d="M21.4037 32.8284H20.7036C20.5883 32.8284 20.5306 32.7708 20.5306 32.6555V28.8007C20.5306 28.6854 20.5883 28.6277 20.7036 28.6277H21.4037C21.519 28.6277 21.5767 28.6854 21.5767 28.8007V29.0807H21.6096C21.67 28.9325 21.7771 28.8199 21.9309 28.743C22.0846 28.6661 22.2466 28.6277 22.4168 28.6277H22.7134C22.8232 28.6277 22.8781 28.6854 22.8781 28.8007V29.369C22.8781 29.4349 22.8644 29.4816 22.8369 29.509C22.8149 29.531 22.7738 29.5392 22.7134 29.5337H22.145C21.7661 29.5337 21.5767 29.7479 21.5767 30.1762V32.6555C21.5767 32.7708 21.519 32.8284 21.4037 32.8284Z" fill="white"></path><path d="M26.3345 32.8284H25.6344C25.5191 32.8284 25.4614 32.7708 25.4614 32.6555V28.8007C25.4614 28.6854 25.5191 28.6277 25.6344 28.6277H26.3345C26.4498 28.6277 26.5075 28.6854 26.5075 28.8007V29.0807H26.5404C26.6008 28.9325 26.7079 28.8199 26.8616 28.743C27.0154 28.6661 27.1774 28.6277 27.3476 28.6277H27.6441C27.754 28.6277 27.8089 28.6854 27.8089 28.8007V29.369C27.8089 29.4349 27.7951 29.4816 27.7677 29.509C27.7457 29.531 27.7045 29.5392 27.6441 29.5337H27.0758C26.6969 29.5337 26.5075 29.7479 26.5075 30.1762V32.6555C26.5075 32.7708 26.4498 32.8284 26.3345 32.8284Z" fill="white"></path><path d="M33.4892 32.8284H31.6689C31.2351 32.8284 30.9001 32.7131 30.664 32.4825C30.4279 32.2519 30.3098 31.9196 30.3098 31.4858V29.9703C30.3098 29.5365 30.4279 29.2043 30.664 28.9737C30.9001 28.743 31.2351 28.6277 31.6689 28.6277H32.3196C32.7534 28.6277 33.0883 28.743 33.3244 28.9737C33.5606 29.2043 33.6786 29.5365 33.6786 29.9703V31.0164C33.6786 31.1317 33.621 31.1893 33.5056 31.1893H31.4382C31.3723 31.1893 31.3394 31.2195 31.3394 31.2799V31.4611C31.3394 31.6314 31.3751 31.7549 31.4465 31.8318C31.5233 31.9032 31.6496 31.9389 31.8254 31.9389H33.4892C33.6045 31.9389 33.6621 31.9993 33.6621 32.1201V32.6637C33.6621 32.7241 33.6484 32.768 33.621 32.7955C33.599 32.8175 33.5551 32.8284 33.4892 32.8284ZM31.4382 30.4892H32.5584C32.6188 30.4892 32.649 30.459 32.649 30.3986V30.0032C32.649 29.8275 32.6133 29.704 32.542 29.6326C32.4706 29.5612 32.347 29.5255 32.1713 29.5255H31.8254C31.6496 29.5255 31.5261 29.5612 31.4547 29.6326C31.3833 29.704 31.3476 29.8275 31.3476 30.0032V30.3986C31.3476 30.459 31.3778 30.4892 31.4382 30.4892Z" fill="white"></path><path d="M37.3945 32.8284H36.6944C36.5791 32.8284 36.5214 32.7708 36.5214 32.6555V28.8007C36.5214 28.6854 36.5791 28.6277 36.6944 28.6277H37.3945C37.5098 28.6277 37.5675 28.6854 37.5675 28.8007V29.0725H37.6004C37.7213 28.776 37.9903 28.6277 38.4076 28.6277H38.6712C39.5333 28.6277 39.9644 29.0752 39.9644 29.9703V32.6555C39.9644 32.7708 39.904 32.8284 39.7832 32.8284H39.0913C38.976 32.8284 38.9183 32.7708 38.9183 32.6555V30.0197C38.9183 29.844 38.8799 29.7204 38.803 29.6491C38.7316 29.5722 38.6081 29.5337 38.4324 29.5337H38.1358C37.7569 29.5337 37.5675 29.7424 37.5675 30.1597V32.6555C37.5675 32.7708 37.5098 32.8284 37.3945 32.8284Z" fill="white"></path><path d="M42.9826 29.5337H42.6532C42.5873 29.5337 42.5406 29.5228 42.5131 29.5008C42.4912 29.4788 42.4802 29.4349 42.4802 29.369V28.8007C42.4802 28.6854 42.5378 28.6277 42.6532 28.6277H42.9826C43.043 28.6277 43.0732 28.5975 43.0732 28.5371V27.7546C43.0732 27.6393 43.1336 27.5816 43.2544 27.5816H43.9463C44.0616 27.5816 44.1193 27.6393 44.1193 27.7546V28.5371C44.1193 28.5975 44.1522 28.6277 44.2181 28.6277H44.8606C44.9759 28.6277 45.0336 28.6854 45.0336 28.8007V29.369C45.0336 29.4294 45.0198 29.4733 44.9924 29.5008C44.9704 29.5228 44.9265 29.5337 44.8606 29.5337H44.2181C44.1522 29.5337 44.1193 29.5639 44.1193 29.6244V31.4447C44.1193 31.6149 44.1577 31.7384 44.2346 31.8153C44.3115 31.8867 44.4378 31.9224 44.6135 31.9224H44.943C45.0583 31.9224 45.1159 31.9801 45.1159 32.0954V32.6637C45.1159 32.7241 45.1022 32.768 45.0748 32.7955C45.0528 32.8175 45.0089 32.8284 44.943 32.8284H44.4405C44.0067 32.8284 43.669 32.7131 43.4274 32.4825C43.1913 32.2519 43.0732 31.9224 43.0732 31.4941V29.6244C43.0732 29.5639 43.043 29.5337 42.9826 29.5337Z" fill="white"></path><path d="M48.5386 34.2204H48.0115C47.9016 34.2204 47.8467 34.16 47.8467 34.0392V33.4874C47.8467 33.3666 47.9016 33.3062 48.0115 33.3062H48.1844C48.5304 33.3062 48.7637 33.2567 48.8846 33.1579C49.0108 33.0646 49.1069 32.8806 49.1728 32.606H48.7363C48.632 32.606 48.5633 32.5484 48.5304 32.4331L47.5667 28.8007C47.5337 28.6854 47.5749 28.6277 47.6902 28.6277H48.4233C48.5331 28.6277 48.6018 28.6854 48.6292 28.8007L49.3376 31.84H49.3705L50.0706 28.8007C50.0926 28.6854 50.1612 28.6277 50.2766 28.6277H50.9684C51.1057 28.6277 51.1606 28.6881 51.1332 28.8089L50.1283 32.8284C50.0075 33.2842 49.8208 33.6301 49.5682 33.8663C49.3156 34.1024 48.9724 34.2204 48.5386 34.2204Z" fill="white"></path><path d="M18.7646 18.3776V17.6481C18.7646 17.5473 18.8091 17.4702 18.8981 17.4169L19.7076 16.9098C19.844 16.8268 19.9596 16.7853 20.0545 16.7853H20.7662C20.8907 16.7853 20.953 16.8475 20.953 16.9721V22.3184C20.953 22.3895 20.9382 22.4399 20.9085 22.4696C20.8848 22.4933 20.8403 22.5052 20.7751 22.5052H20.01C19.8855 22.5052 19.8232 22.4429 19.8232 22.3184V17.9862L18.9515 18.4843C18.8269 18.5377 18.7646 18.5021 18.7646 18.3776Z" fill="white"></path><path d="M23.6571 21.5266H24.182C24.3717 21.5266 24.5052 21.4881 24.5823 21.411C24.6594 21.328 24.6979 21.1916 24.6979 21.0018V18.2886C24.6979 18.0989 24.6594 17.9654 24.5823 17.8883C24.5052 17.8053 24.3717 17.7638 24.182 17.7638H23.6571C23.4673 17.7638 23.3339 17.8053 23.2568 17.8883C23.1797 17.9654 23.1412 18.0989 23.1412 18.2886V21.0018C23.1412 21.1916 23.1797 21.328 23.2568 21.411C23.3339 21.4881 23.4673 21.5266 23.6571 21.5266ZM24.3599 22.5052H23.4703C23.0018 22.5052 22.64 22.3806 22.385 22.1315C22.13 21.8825 22.0025 21.5237 22.0025 21.0552V18.2353C22.0025 17.7667 22.13 17.408 22.385 17.1589C22.64 16.9098 23.0018 16.7853 23.4703 16.7853H24.3599C24.8224 16.7853 25.1812 16.9128 25.4362 17.1678C25.6913 17.4169 25.8188 17.7727 25.8188 18.2353V21.0552C25.8188 21.5177 25.6913 21.8765 25.4362 22.1315C25.1812 22.3806 24.8224 22.5052 24.3599 22.5052Z" fill="white"></path><path d="M28.4264 21.5266H28.9512C29.141 21.5266 29.2744 21.4881 29.3515 21.411C29.4286 21.328 29.4672 21.1916 29.4672 21.0018V18.2886C29.4672 18.0989 29.4286 17.9654 29.3515 17.8883C29.2744 17.8053 29.141 17.7638 28.9512 17.7638H28.4264C28.2366 17.7638 28.1032 17.8053 28.0261 17.8883C27.949 17.9654 27.9104 18.0989 27.9104 18.2886V21.0018C27.9104 21.1916 27.949 21.328 28.0261 21.411C28.1032 21.4881 28.2366 21.5266 28.4264 21.5266ZM29.1291 22.5052H28.2396C27.7711 22.5052 27.4093 22.3806 27.1543 22.1315C26.8993 21.8825 26.7718 21.5237 26.7718 21.0552V18.2353C26.7718 17.7667 26.8993 17.408 27.1543 17.1589C27.4093 16.9098 27.7711 16.7853 28.2396 16.7853H29.1291C29.5917 16.7853 29.9505 16.9128 30.2055 17.1678C30.4605 17.4169 30.588 17.7727 30.588 18.2353V21.0552C30.588 21.5177 30.4605 21.8765 30.2055 22.1315C29.9505 22.3806 29.5917 22.5052 29.1291 22.5052Z" fill="white"></path><path d="M36.1134 20.4147H35.9088C35.7783 20.4147 35.6894 20.4414 35.6419 20.4947C35.5945 20.5422 35.5708 20.6282 35.5708 20.7527V21.5266C35.5708 21.6571 35.5945 21.749 35.6419 21.8024C35.6894 21.8499 35.7783 21.8736 35.9088 21.8736H36.1134C36.2379 21.8736 36.3239 21.8469 36.3714 21.7935C36.4247 21.7401 36.4514 21.6512 36.4514 21.5266V20.7527C36.4514 20.6282 36.4277 20.5422 36.3803 20.4947C36.3328 20.4414 36.2439 20.4147 36.1134 20.4147ZM35.7398 19.7831H36.2646C36.573 19.7831 36.8073 19.8632 36.9674 20.0233C37.1275 20.1834 37.2076 20.4147 37.2076 20.7171V21.5711C37.2076 21.8736 37.1275 22.1049 36.9674 22.265C36.8073 22.4251 36.573 22.5052 36.2646 22.5052H35.7398C35.4373 22.5052 35.2031 22.4251 35.037 22.265C34.8769 22.1049 34.7968 21.8736 34.7968 21.5711V20.7171C34.7968 20.4147 34.8769 20.1834 35.037 20.0233C35.2031 19.8632 35.4373 19.7831 35.7398 19.7831ZM32.822 17.408H32.6174C32.4869 17.408 32.398 17.4346 32.3505 17.488C32.3031 17.5355 32.2794 17.6244 32.2794 17.7549V18.5288C32.2794 18.6533 32.3031 18.7423 32.3505 18.7957C32.398 18.8431 32.4869 18.8668 32.6174 18.8668H32.822C32.9525 18.8668 33.0414 18.8431 33.0889 18.7957C33.1363 18.7423 33.16 18.6533 33.16 18.5288V17.7549C33.16 17.6303 33.1333 17.5414 33.08 17.488C33.0325 17.4346 32.9465 17.408 32.822 17.408ZM32.4573 16.7764H32.9821C33.2905 16.7764 33.5248 16.8564 33.6849 17.0165C33.845 17.1767 33.9251 17.408 33.9251 17.7104V18.5644C33.9251 18.8668 33.845 19.0981 33.6849 19.2583C33.5248 19.4184 33.2905 19.4984 32.9821 19.4984H32.4573C32.1548 19.4984 31.9206 19.4184 31.7545 19.2583C31.5944 19.0981 31.5143 18.8668 31.5143 18.5644V17.7104C31.5143 17.408 31.5944 17.1767 31.7545 17.0165C31.9206 16.8564 32.1548 16.7764 32.4573 16.7764ZM33.4803 22.5052H33.0177C32.8813 22.5052 32.8368 22.4429 32.8843 22.3184C33.074 21.8321 33.4269 20.9425 33.9429 19.6497C34.4588 18.3509 34.8117 17.4584 35.0014 16.9721C35.0548 16.8475 35.1319 16.7853 35.2327 16.7853H35.7042C35.8406 16.7853 35.8851 16.8475 35.8376 16.9721L33.7205 22.3184C33.673 22.4429 33.593 22.5052 33.4803 22.5052Z" fill="white"></path><path d="M0.823671 27.8316C1.27856 27.8316 1.64734 27.4629 1.64734 27.0079C1.64734 26.5537 2.01679 26.1843 2.47101 26.1843H53.7583C54.2125 26.1843 54.582 26.5537 54.582 27.0079C54.582 27.4629 54.9506 27.8316 55.4056 27.8316C55.8606 27.8316 56.2293 27.4629 56.2293 27.0079C56.2293 25.6455 55.1207 24.5369 53.7583 24.5369H52.9673C52.8332 24.1731 52.6116 23.8429 52.3161 23.5798L49.5304 21.1007L51.1553 17.7444C51.7775 16.4594 51.1362 14.9208 49.7925 14.4539L46.2701 13.2296L46.4869 9.5068C46.5699 8.0836 45.3908 6.90564 43.9686 6.98845L40.2458 7.20524L39.0215 3.683C38.5537 2.33668 37.014 1.69916 35.731 2.31999L32.3746 3.94493L29.8955 1.15927C28.9464 0.0930018 27.2812 0.0950884 26.334 1.15927L23.8549 3.94493L20.4984 2.31999C19.2183 1.70015 17.6768 2.33405 17.2079 3.68278L15.9836 7.20524L12.261 6.98845C10.8412 6.9052 9.65958 8.08141 9.74249 9.5068L9.95928 13.2296L6.43716 14.4539C5.09051 14.9217 4.45332 16.4618 5.07414 17.7444L6.69897 21.1007L3.91332 23.5798C3.61778 23.843 3.39616 24.1731 3.26207 24.5369H2.47101C1.10844 24.5369 0 25.6455 0 27.0079C0 27.4629 0.368785 27.8316 0.823671 27.8316ZM8.25912 21.9174C8.53433 21.6726 8.61341 21.2748 8.45296 20.9432L6.55675 17.0267C6.36456 16.6297 6.56038 16.1553 6.97781 16.01L11.088 14.5812C11.436 14.4602 11.6613 14.123 11.6399 13.7553L11.387 9.41103C11.3614 8.97207 11.7221 8.6079 12.1651 8.63294L16.5092 8.88586C16.8778 8.90727 17.2142 8.68192 17.3352 8.33411L18.764 4.22377C18.9083 3.80842 19.3819 3.60931 19.7806 3.80271L23.6974 5.69891C24.0287 5.85914 24.4267 5.78018 24.6716 5.50507L27.5644 2.25432C27.8578 1.92485 28.3711 1.92419 28.665 2.25432L31.5579 5.50507C31.8028 5.78018 32.2008 5.85925 32.5321 5.69891L36.4489 3.8026C36.8468 3.61019 37.3205 3.80699 37.4655 4.22377L38.8943 8.33411C39.0153 8.68192 39.3527 8.90738 39.7202 8.88586L44.0646 8.63294C44.5063 8.6079 44.8682 8.97075 44.8425 9.41103L44.5896 13.7553C44.5682 14.123 44.7934 14.4602 45.1414 14.5812L49.2518 16.01C49.6682 16.1548 49.8656 16.6287 49.6728 17.0266L47.7766 20.9432C47.6161 21.2749 47.6953 21.6726 47.9704 21.9174L50.9139 24.537H13.2865C13.7093 16.7917 20.1343 10.5094 28.1146 10.5094H28.1201C35.084 10.5094 41.1913 15.4526 42.6409 22.2627C42.7211 22.6404 43.0604 22.915 43.4459 22.915C43.5041 22.915 43.5612 22.9095 43.6183 22.8963C44.062 22.802 44.3465 22.3636 44.252 21.92C44.252 21.9189 44.252 21.9189 44.252 21.9177C42.6607 14.4475 36.0156 8.86192 28.1148 8.86192C19.3077 8.86192 12.0641 15.8056 11.6363 24.5369H5.31576L8.25912 21.9174Z" fill="white"></path><path d="M55.4056 32.7734C54.9506 32.7734 54.582 33.1421 54.582 33.5971C54.582 34.0513 54.2125 34.4208 53.7583 34.4208H2.47101C2.01679 34.4208 1.64734 34.0513 1.64734 33.5971C1.64734 33.1421 1.27856 32.7734 0.823671 32.7734C0.368785 32.7734 0 33.1421 0 33.5971C0 34.9596 1.10844 36.0681 2.47101 36.0681H8.80307L9.97389 37.2389L9.74249 41.2141C9.65991 42.6339 10.8347 43.8154 12.261 43.7325L15.9836 43.5158L17.2079 47.038C17.676 48.3846 19.2158 49.0221 20.4984 48.401L23.8548 46.7761L26.334 49.5617C27.2818 50.6267 28.9482 50.6259 29.8955 49.5617L32.3746 46.7761L35.7309 48.401C37.0137 49.0222 38.5536 48.3843 39.0214 47.0382L40.2457 43.5159L43.9683 43.7327C45.3988 43.8158 46.5691 42.6299 46.4868 41.2142L46.2554 37.2391L47.4263 36.0682H53.7583C55.1207 36.0682 56.2293 34.9597 56.2293 33.5972C56.2293 33.1421 55.8606 32.7734 55.4056 32.7734ZM44.5894 36.9657L44.8423 41.3099C44.868 41.7488 44.5072 42.1135 44.0642 42.0881L39.72 41.8351C39.3525 41.8135 39.0151 42.0391 38.8941 42.3869L37.4653 46.4973C37.3202 46.9142 36.8461 47.1109 36.4486 46.9183L32.5318 45.0221C32.2002 44.8616 31.8026 44.9408 31.5577 45.2159L28.6648 48.4667C28.3714 48.7962 27.8581 48.7967 27.5643 48.4667L24.6714 45.2159C24.4265 44.9408 24.0287 44.8619 23.6971 45.0221L19.7805 46.9184C19.3811 47.1116 18.9081 46.9124 18.7639 46.4972L17.3351 42.3869C17.2142 42.0391 16.8775 41.8127 16.5092 41.8351L12.1651 42.0881C11.7207 42.1124 11.3614 41.7484 11.387 41.3099L11.6399 36.9657C11.6536 36.731 11.5663 36.5016 11.4001 36.3354L11.1327 36.0681H38.3934C35.637 38.72 31.9801 40.2116 28.1145 40.2116C24.6914 40.2116 21.4725 39.074 18.806 36.9236C18.4565 36.6399 17.9384 36.6888 17.6473 37.0466C17.3629 37.4003 17.4178 37.9196 17.7714 38.2053C17.7725 38.2053 17.7725 38.2064 17.7725 38.2064C20.6521 40.5303 24.2671 41.8591 28.1123 41.8591L28.1145 41.8536L28.1167 41.8591C32.9763 41.8591 37.5221 39.7314 40.656 36.0682H45.0963L44.829 36.3355C44.663 36.5016 44.5758 36.731 44.5894 36.9657Z" fill="white"></path></svg>