<svg xmlns="http://www.w3.org/2000/svg" width="52" height="40" viewBox="0 0 52 40" fill="none"><path d="M32.2809 4.88275C32.183 4.57936 31.9912 4.31492 31.7332 4.12753C31.4753 3.94015 31.1645 3.83951 30.8457 3.84011H27.9044L26.9954 1.04264C26.8969 0.739574 26.705 0.475471 26.4472 0.288173C26.1894 0.100876 25.8789 0 25.5602 0C25.2415 0 24.931 0.100876 24.6732 0.288173C24.4154 0.475471 24.2235 0.739574 24.125 1.04264L23.216 3.84011H20.2747C19.956 3.84013 19.6455 3.94102 19.3877 4.12834C19.1299 4.31565 18.938 4.57978 18.8395 4.88285C18.741 5.18593 18.741 5.5124 18.8395 5.81549C18.9379 6.11858 19.1298 6.38271 19.3876 6.57005L21.7672 8.29887L20.8583 11.0963C20.7594 11.3995 20.7591 11.7262 20.8575 12.0295C20.9558 12.3328 21.1478 12.5972 21.4058 12.7846C21.6638 12.972 21.9745 13.0728 22.2934 13.0726C22.6122 13.0724 22.9228 12.9712 23.1806 12.7834L25.5602 11.0546L27.9398 12.7835C28.1977 12.9708 28.5082 13.0717 28.8268 13.0717C29.1455 13.0717 29.456 12.9708 29.7139 12.7835C29.9717 12.5962 30.1636 12.3321 30.2621 12.029C30.3606 11.7259 30.3606 11.3994 30.2621 11.0963L29.3532 8.29887L31.7328 6.56994C31.9911 6.38302 32.1833 6.1189 32.2818 5.81568C32.3803 5.51246 32.38 5.18578 32.2809 4.88275ZM27.8552 7.28712C27.71 7.39258 27.602 7.54128 27.5466 7.71191C27.4911 7.88254 27.4912 8.06634 27.5466 8.23696L28.4657 11.0655L26.0593 9.3174C25.9142 9.21207 25.7395 9.15534 25.5602 9.15534C25.3809 9.15534 25.2062 9.21207 25.0611 9.3174L22.6549 11.0655L23.574 8.23696C23.6294 8.06634 23.6295 7.88254 23.574 7.71191C23.5186 7.54128 23.4106 7.39258 23.2654 7.28712L20.8594 5.53909H23.8334C24.0128 5.5391 24.1876 5.48231 24.3328 5.37686C24.4779 5.27141 24.5859 5.12272 24.6414 4.95209L25.5602 2.12361L26.4792 4.9522C26.5347 5.12282 26.6427 5.27152 26.7879 5.37697C26.933 5.48242 27.1078 5.53921 27.2872 5.53919H30.2612L27.8552 7.28712Z" fill="white"></path><path d="M15.0196 16.9884C15.2361 16.9881 15.4495 16.9367 15.6424 16.8383C15.8352 16.7398 16.0021 16.5972 16.1293 16.422C16.2565 16.2468 16.3405 16.044 16.3744 15.8301C16.4083 15.6163 16.3912 15.3974 16.3244 15.1915L15.644 13.0975L17.4254 11.8033C17.6598 11.633 17.8342 11.3928 17.9237 11.1173C18.0133 10.8417 18.0133 10.5449 17.9237 10.2693C17.8342 9.99378 17.6597 9.75364 17.4253 9.58334C17.1909 9.41304 16.9086 9.32131 16.6189 9.3213H14.4171L13.7367 7.22731C13.6471 6.95176 13.4726 6.71162 13.2382 6.54132C13.0038 6.37102 12.7215 6.2793 12.4318 6.2793C12.1421 6.2793 11.8598 6.37102 11.6253 6.54132C11.3909 6.71162 11.2165 6.95176 11.1269 7.22731L10.4465 9.32141H8.24461C7.95483 9.3213 7.67245 9.41295 7.43796 9.58321C7.20347 9.75347 7.02891 9.99361 6.93931 10.2692C6.84971 10.5448 6.84966 10.8416 6.93917 11.1173C7.02868 11.3929 7.20316 11.6331 7.4376 11.8034L9.21898 13.0976L8.53875 15.1916C8.44922 15.4671 8.44922 15.764 8.53874 16.0395C8.62827 16.3151 8.80272 16.5552 9.0371 16.7255C9.27149 16.8958 9.55377 16.9876 9.84349 16.9876C10.1332 16.9876 10.4155 16.8959 10.6499 16.7257L12.4313 15.4314L14.2127 16.7257C14.4471 16.8964 14.7296 16.9884 15.0196 16.9884ZM11.9323 13.694L10.4659 14.76L11.0262 13.036C11.0816 12.8654 11.0816 12.6815 11.0262 12.5109C10.9707 12.3402 10.8627 12.1915 10.7175 12.0861L9.25104 11.0207H11.0637C11.2431 11.0207 11.4179 10.9639 11.563 10.8585C11.7081 10.7531 11.8162 10.6044 11.8716 10.4338L12.4317 8.70978L12.992 10.4338C13.0474 10.6044 13.1555 10.7531 13.3006 10.8585C13.4457 10.9639 13.6205 11.0207 13.7998 11.0207H15.6124L14.146 12.0862C14.0009 12.1916 13.8928 12.3403 13.8374 12.511C13.782 12.6816 13.782 12.8654 13.8374 13.036L14.3976 14.76L12.931 13.6945C12.7859 13.589 12.6112 13.5321 12.4318 13.532C12.2524 13.532 12.0776 13.5887 11.9325 13.694H11.9323Z" fill="white"></path><path d="M9.74627 20.3643H7.5444L6.86396 18.2704C6.77444 17.9948 6.59999 17.7546 6.36559 17.5843C6.13119 17.414 5.84888 17.3223 5.55914 17.3223C5.2694 17.3223 4.98709 17.414 4.75269 17.5843C4.5183 17.7546 4.34384 17.9948 4.25433 18.2704L3.57378 20.3645H1.37201C1.08227 20.3645 0.799972 20.4562 0.56557 20.6265C0.331167 20.7968 0.156695 21.0369 0.0671574 21.3125C-0.0223801 21.588 -0.0223859 21.8849 0.0671406 22.1604C0.156667 22.436 0.33113 22.6761 0.565526 22.8464L2.3469 24.1406L1.66646 26.2347C1.57691 26.5103 1.57689 26.8071 1.66641 27.0827C1.75594 27.3583 1.93041 27.5985 2.16481 27.7688C2.39922 27.9391 2.68153 28.0308 2.97128 28.0308C3.26103 28.0308 3.54335 27.9391 3.77776 27.7688L5.55914 26.4745L7.34052 27.7688C7.57494 27.9393 7.85733 28.0311 8.14719 28.0312C8.43705 28.0313 8.71948 27.9395 8.95397 27.7691C9.18846 27.5988 9.36297 27.3585 9.45247 27.0828C9.54196 26.8071 9.54185 26.5102 9.45214 26.2345L8.7718 24.1405L10.5532 22.8463C10.7876 22.676 10.9621 22.4358 11.0516 22.1602C11.1411 21.8846 11.1411 21.5877 11.0515 21.3121C10.9619 21.0365 10.7873 20.7964 10.5528 20.6261C10.3183 20.4559 10.0361 20.3642 9.74627 20.3643ZM7.27341 23.1287C7.12822 23.2341 7.02016 23.3828 6.9647 23.5535C6.90925 23.7242 6.90926 23.908 6.96473 24.0786L7.52496 25.8031L6.05843 24.7371C5.91334 24.6318 5.73864 24.575 5.55935 24.575C5.38006 24.575 5.20537 24.6318 5.06028 24.7371L3.59332 25.8031L4.15345 24.0786C4.2089 23.908 4.20892 23.7242 4.15348 23.5536C4.09805 23.3829 3.99002 23.2342 3.84487 23.1288L2.37844 22.0633H4.19104C4.37041 22.0633 4.54518 22.0065 4.69031 21.9011C4.83543 21.7957 4.94345 21.647 4.9989 21.4764L5.55914 19.7524L6.11927 21.4764C6.17472 21.647 6.28275 21.7957 6.42787 21.9011C6.57299 22.0065 6.74776 22.0633 6.92714 22.0633H8.73984L7.27341 23.1287Z" fill="white"></path><path d="M49.6726 20.3643H47.4707L46.7903 18.2704C46.7008 17.9948 46.5263 17.7546 46.2919 17.5843C46.0575 17.414 45.7752 17.3223 45.4855 17.3223C45.1957 17.3223 44.9134 17.414 44.679 17.5843C44.4446 17.7546 44.2701 17.9948 44.1806 18.2704L43.5001 20.3645H41.2983C41.0085 20.3643 40.7262 20.456 40.4917 20.6263C40.2572 20.7965 40.0826 21.0367 39.993 21.3122C39.9034 21.5878 39.9034 21.8847 39.9929 22.1603C40.0824 22.4359 40.2569 22.6761 40.4913 22.8464L42.2727 24.1406L41.5922 26.2347C41.5027 26.5103 41.5027 26.8071 41.5922 27.0827C41.6817 27.3583 41.8562 27.5985 42.0906 27.7688C42.325 27.9391 42.6073 28.0308 42.8971 28.0308C43.1868 28.0308 43.4691 27.9391 43.7035 27.7688L45.4849 26.4745L47.2663 27.7688C47.5007 27.9395 47.7832 28.0315 48.0732 28.0317C48.3631 28.0319 48.6457 27.9402 48.8803 27.7697C49.1149 27.5993 49.2895 27.359 49.379 27.0831C49.4685 26.8073 49.4683 26.5102 49.3784 26.2345L48.6981 24.1405L50.4795 22.8463C50.7139 22.676 50.8884 22.4358 50.9779 22.1602C51.0674 21.8846 51.0674 21.5877 50.9778 21.3121C50.8882 21.0365 50.7136 20.7964 50.4791 20.6261C50.2446 20.4559 49.9623 20.3642 49.6725 20.3643H49.6726ZM47.1997 23.1287C47.0545 23.2341 46.9465 23.3828 46.891 23.5535C46.8356 23.7242 46.8356 23.908 46.891 24.0786L47.4513 25.8031L45.9847 24.7371C45.8397 24.6318 45.665 24.575 45.4857 24.575C45.3064 24.575 45.1317 24.6318 44.9866 24.7371L43.5196 25.8031L44.0798 24.0786C44.1352 23.908 44.1352 23.7242 44.0798 23.5536C44.0244 23.3829 43.9163 23.2342 43.7712 23.1288L42.3048 22.0633H44.1174C44.2967 22.0633 44.4715 22.0065 44.6166 21.9011C44.7617 21.7957 44.8698 21.647 44.9252 21.4764L45.4855 19.7524L46.0456 21.4764C46.101 21.647 46.2091 21.7957 46.3542 21.9011C46.4993 22.0065 46.6741 22.0633 46.8534 22.0633H48.6662L47.1997 23.1287Z" fill="white"></path><path d="M41.2773 16.9884C41.4939 16.9883 41.7073 16.9369 41.9003 16.8385C42.0932 16.7401 42.2601 16.5975 42.3874 16.4223C42.5146 16.2471 42.5987 16.0442 42.6326 15.8303C42.6665 15.6164 42.6494 15.3976 42.5825 15.1916L41.9022 13.0976L43.6836 11.8034C43.918 11.633 44.0925 11.3928 44.182 11.1172C44.2715 10.8416 44.2715 10.5447 44.1819 10.2692C44.0923 9.99358 43.9177 9.75344 43.6832 9.58318C43.4487 9.41292 43.1664 9.32127 42.8766 9.32138H40.6748L39.9944 7.22739C39.9049 6.95182 39.7304 6.71166 39.496 6.54135C39.2616 6.37103 38.9793 6.2793 38.6896 6.2793C38.3998 6.2793 38.1175 6.37103 37.8831 6.54135C37.6487 6.71166 37.4743 6.95182 37.3847 7.22739L36.7042 9.32148H34.5024C34.2126 9.32138 33.9303 9.41302 33.6958 9.58329C33.4613 9.75355 33.2867 9.99368 33.1971 10.2693C33.1075 10.5448 33.1075 10.8417 33.197 11.1173C33.2865 11.3929 33.461 11.6331 33.6954 11.8035L35.4768 13.0977L34.7963 15.1918C34.7068 15.4673 34.7068 15.7642 34.7963 16.0397C34.8858 16.3153 35.0603 16.5555 35.2947 16.7258C35.5291 16.8961 35.8114 16.9879 36.1012 16.9879C36.3909 16.9879 36.6732 16.8961 36.9076 16.7258L38.689 15.4315L40.4704 16.7258C40.7048 16.8965 40.9873 16.9885 41.2773 16.9884ZM38.1902 13.6941L36.7237 14.7601L37.2839 13.0357C37.3393 12.865 37.3393 12.6812 37.2839 12.5106C37.2285 12.34 37.1204 12.1913 36.9753 12.0858L35.5089 11.0204H37.3215C37.5008 11.0204 37.6756 10.9636 37.8207 10.8581C37.9658 10.7527 38.0739 10.6041 38.1293 10.4335L38.6896 8.70943L39.2497 10.4335C39.3051 10.6041 39.4132 10.7527 39.5583 10.8581C39.7034 10.9636 39.8782 11.0204 40.0575 11.0204H41.8703L40.4038 12.0857C40.2586 12.1912 40.1506 12.3399 40.0951 12.5105C40.0397 12.6812 40.0397 12.865 40.0951 13.0357L40.6554 14.7601L39.1888 13.6941C39.0437 13.5887 38.8689 13.5319 38.6896 13.5319C38.5102 13.5319 38.3354 13.5887 38.1903 13.6941H38.1902Z" fill="white"></path><path d="M35.7546 24.7089H29.8081V20.4614C29.8071 19.5606 29.4488 18.6969 28.8118 18.0599C28.1747 17.4228 27.3111 17.0645 26.4102 17.0635H24.7112C24.5067 17.0635 24.3091 17.1372 24.1547 17.2712C24.0002 17.4052 23.8992 17.5904 23.8703 17.7928L23.558 19.9785C23.4157 20.971 23.0423 21.9161 22.4677 22.7377C21.8932 23.5594 21.1336 24.2346 20.2503 24.7089H13.6678C13.4425 24.7089 13.2265 24.7984 13.0672 24.9577C12.9079 25.117 12.8184 25.3331 12.8184 25.5584V37.4512C12.8184 37.6765 12.9079 37.8926 13.0672 38.0519C13.2265 38.2112 13.4425 38.3007 13.6678 38.3007H20.2066L20.7627 38.6715C22.0611 39.5389 23.588 40.0012 25.1495 39.9997H34.9051C35.3971 39.9999 35.8787 39.8576 36.2917 39.59C36.7046 39.3224 37.0312 38.9409 37.232 38.4917C37.4327 38.0424 37.499 37.5446 37.4229 37.0585C37.3468 36.5723 37.1315 36.1186 36.803 35.7522C37.2219 35.2854 37.4535 34.6804 37.4535 34.0533C37.4535 33.4261 37.2219 32.8211 36.803 32.3543C37.1584 31.9581 37.3807 31.4605 37.4385 30.9315C37.4963 30.4024 37.3867 29.8686 37.1252 29.4051C37.5897 29.1084 37.9454 28.6691 38.1392 28.1532C38.3329 27.6372 38.3542 27.0724 38.1998 26.5433C38.0453 26.0143 37.7236 25.5495 37.2827 25.2188C36.8419 24.888 36.3057 24.7091 35.7546 24.7089ZM14.5173 26.4079H19.6143V36.6017H14.5173V26.4079ZM35.7546 28.1068H34.9051C34.6798 28.1068 34.4637 28.1963 34.3044 28.3556C34.1451 28.515 34.0556 28.731 34.0556 28.9563C34.0556 29.1816 34.1451 29.3977 34.3044 29.557C34.4637 29.7163 34.6798 29.8058 34.9051 29.8058C35.1304 29.8058 35.3464 29.8953 35.5057 30.0546C35.6651 30.2139 35.7546 30.43 35.7546 30.6553C35.7546 30.8806 35.6651 31.0967 35.5057 31.256C35.3464 31.4153 35.1304 31.5048 34.9051 31.5048C34.6798 31.5048 34.4637 31.5943 34.3044 31.7536C34.1451 31.9129 34.0556 32.129 34.0556 32.3543C34.0556 32.5796 34.1451 32.7956 34.3044 32.955C34.4637 33.1143 34.6798 33.2038 34.9051 33.2038C35.1304 33.2038 35.3464 33.2933 35.5057 33.4526C35.6651 33.6119 35.7546 33.828 35.7546 34.0533C35.7546 34.2786 35.6651 34.4946 35.5057 34.6539C35.3464 34.8132 35.1304 34.9027 34.9051 34.9027C34.6798 34.9027 34.4637 34.9922 34.3044 35.1516C34.1451 35.3109 34.0556 35.5269 34.0556 35.7522C34.0556 35.9775 34.1451 36.1936 34.3044 36.3529C34.4637 36.5122 34.6798 36.6017 34.9051 36.6017C35.1304 36.6017 35.3464 36.6912 35.5057 36.8505C35.6651 37.0098 35.7546 37.2259 35.7546 37.4512C35.7546 37.6765 35.6651 37.8926 35.5057 38.0519C35.3464 38.2112 35.1304 38.3007 34.9051 38.3007H25.1495C23.9234 38.3018 22.7246 37.9389 21.7051 37.2578L21.3132 36.9966V26.0632C22.3654 25.4472 23.2649 24.6017 23.9448 23.5896C24.6247 22.5776 25.0674 21.4252 25.2399 20.2183L25.4479 18.7619H26.4102C26.8606 18.7625 27.2924 18.9416 27.611 19.2601C27.9295 19.5786 28.1086 20.0105 28.1092 20.4609V25.5578C28.1092 25.7831 28.1987 25.9992 28.358 26.1585C28.5173 26.3178 28.7333 26.4073 28.9586 26.4073H35.7546C35.9799 26.4073 36.1959 26.4968 36.3552 26.6561C36.5145 26.8154 36.604 27.0315 36.604 27.2568C36.604 27.4821 36.5145 27.6982 36.3552 27.8575C36.1959 28.0168 35.9799 28.1063 35.7546 28.1063V28.1068Z" fill="white"></path></svg>