<svg xmlns="http://www.w3.org/2000/svg" width="79" height="55" viewBox="0 0 79 55" fill="none"><path fill-rule="evenodd" clip-rule="evenodd" d="M13.449 47.6862C12.5696 47.6862 12.1865 46.5612 12.8909 46.0271L15.2337 44.2516C13.979 43.8172 12.692 43.6275 12.5627 42.8104C12.5092 42.4743 12.6453 42.135 12.9172 41.9301L16.6371 39.1113C17.6028 38.3806 18.7172 39.8518 17.7524 40.583L15.4096 42.3585C16.6639 42.7929 17.9514 42.9826 18.0806 43.7997C18.1337 44.1358 17.998 44.4746 17.7261 44.68C16.8628 45.3328 14.051 47.6862 13.449 47.6862Z" fill="white"></path><path fill-rule="evenodd" clip-rule="evenodd" d="M5.13518 31.2402C4.62554 31.2402 4.21191 30.8261 4.21191 30.317V18.6205C4.21191 18.1109 4.62554 17.6973 5.13518 17.6973H25.4148C26.6303 17.6973 26.6303 19.5438 25.4148 19.5438H6.05845V30.317C6.05845 30.8257 5.64483 31.2402 5.13518 31.2402Z" fill="white"></path><path fill-rule="evenodd" clip-rule="evenodd" d="M25.2612 31.2399C24.7515 31.2399 24.3379 30.8258 24.3379 30.3166V23.7914C24.3379 23.2818 24.7515 22.8682 25.2612 22.8682H30.5866C31.8021 22.8682 31.8021 24.7147 30.5866 24.7147H26.1844V30.3166C26.1844 30.8254 25.7708 31.2399 25.2612 31.2399Z" fill="white"></path><path fill-rule="evenodd" clip-rule="evenodd" d="M27.592 51.5655C27.0824 51.5655 26.6688 51.1515 26.6688 50.6423V36.7379C26.6688 35.5224 28.5153 35.5228 28.5153 36.7379V50.6423C28.5153 51.1515 28.1017 51.5655 27.592 51.5655ZM3.04924 51.5655C2.5396 51.5655 2.12598 51.1515 2.12598 50.6423V36.7379C2.12598 35.5224 3.97251 35.5228 3.97251 36.7379V50.6423C3.97251 51.1515 3.55889 51.5655 3.04924 51.5655Z" fill="white"></path><path fill-rule="evenodd" clip-rule="evenodd" d="M29.1112 55H1.52945C-0.348019 55 0.0314448 52.7399 0.0314448 51.2165C0.0314448 50.3906 0.703584 49.718 1.52945 49.718H29.1112C30.9886 49.718 30.6092 51.9782 30.6092 53.5016C30.6092 54.3279 29.937 55 29.1112 55ZM1.87798 53.1535H28.7626V51.5655H1.87798V53.1535Z" fill="white"></path><path fill-rule="evenodd" clip-rule="evenodd" d="M29.1113 37.661H1.52953C-0.348398 37.661 0.0315266 35.4017 0.0315266 33.8774C0.0315266 33.0516 0.703666 32.3799 1.52953 32.3799H29.1113C30.9892 32.3799 30.6093 34.6391 30.6093 36.1634C30.6093 36.9902 29.9371 37.661 29.1113 37.661ZM1.87806 35.8144H28.7627V34.2269H1.87806V35.8144Z" fill="white"></path><path fill-rule="evenodd" clip-rule="evenodd" d="M27.5446 34.227C26.3176 34.227 26.6213 32.5933 26.6213 31.2407H24.3907C24.3907 32.5942 24.6945 34.227 23.4674 34.227C22.1587 34.227 22.5442 32.2203 22.5442 30.3174C22.5442 29.8078 22.9578 29.3942 23.4674 29.3942C29.2457 29.3942 28.4637 28.6583 28.4669 33.3037C28.4679 33.8129 28.0542 34.227 27.5446 34.227Z" fill="white"></path><path fill-rule="evenodd" clip-rule="evenodd" d="M66.0452 19.318C62.4283 19.318 59.4863 16.3755 59.4863 12.7591C59.4863 9.14219 62.4292 6.2002 66.0452 6.2002C69.6612 6.2002 72.6041 9.14265 72.6041 12.7591C72.6041 16.3755 69.6617 19.318 66.0452 19.318ZM66.0452 8.04627C63.4467 8.04627 61.3329 10.1601 61.3329 12.7586C61.3329 15.3572 63.4467 17.471 66.0452 17.471C68.6442 17.471 70.7576 15.3572 70.7576 12.7586C70.7576 10.1601 68.6433 8.04627 66.0452 8.04627Z" fill="white"></path><path fill-rule="evenodd" clip-rule="evenodd" d="M66.045 4.65974C64.7501 4.65974 65.1217 2.72318 65.1217 0.911266C65.1217 -0.303755 66.9682 -0.303755 66.9682 0.911266C66.9682 2.72549 67.3403 4.65974 66.045 4.65974Z" fill="white"></path><path fill-rule="evenodd" clip-rule="evenodd" d="M70.5557 5.86873C69.8554 5.86873 69.3984 5.10519 69.7571 4.48383C70.6642 2.91335 71.3086 1.0525 72.4304 1.69925C73.5512 2.346 72.2628 3.83754 71.3557 5.4071C71.1844 5.70346 70.8742 5.86873 70.5557 5.86873Z" fill="white"></path><path fill-rule="evenodd" clip-rule="evenodd" d="M73.8602 9.17125C72.9226 9.17125 72.5814 7.91976 73.3976 7.44843C74.9649 6.54317 76.4573 5.25198 77.1045 6.37375C77.7508 7.49367 75.8914 8.14273 74.3209 9.04707C74.175 9.13063 74.0171 9.17125 73.8602 9.17125Z" fill="white"></path><path fill-rule="evenodd" clip-rule="evenodd" d="M77.893 13.6824C76.0816 13.6824 74.1445 14.0541 74.1445 12.7592C74.1445 11.4638 76.082 11.8359 77.893 11.8359C79.1085 11.8359 79.1085 13.6824 77.893 13.6824Z" fill="white"></path><path fill-rule="evenodd" clip-rule="evenodd" d="M76.3042 19.606C75.8449 19.606 74.014 18.4256 73.3973 18.0697C72.3434 17.4613 73.269 15.8645 74.3206 16.4711C75.8934 17.3777 77.7505 18.0236 77.1042 19.1444C76.9334 19.4408 76.6232 19.606 76.3042 19.606Z" fill="white"></path><path fill-rule="evenodd" clip-rule="evenodd" d="M71.97 23.943C71.1193 23.943 70.515 22.3481 69.7574 21.0347C69.1499 19.9813 70.749 19.0594 71.3561 20.1114C72.259 21.675 73.5534 23.1744 72.4308 23.8193C72.2853 23.9029 72.127 23.9435 71.97 23.9435V23.943Z" fill="white"></path><path fill-rule="evenodd" clip-rule="evenodd" d="M66.045 25.5297C64.7501 25.5297 65.1217 23.5936 65.1217 21.7817C65.1217 20.5662 66.9682 20.5662 66.9682 21.7817C66.9682 23.5964 67.3403 25.5297 66.045 25.5297Z" fill="white"></path><path fill-rule="evenodd" clip-rule="evenodd" d="M60.1211 23.9431C59.4208 23.9431 58.9638 23.1796 59.3225 22.5582C60.2287 20.9887 60.874 19.1269 61.9958 19.7737C63.118 20.4209 61.8264 21.9115 60.9211 23.4815C60.7503 23.7774 60.4396 23.9431 60.1211 23.9431Z" fill="white"></path><path fill-rule="evenodd" clip-rule="evenodd" d="M55.7858 19.6062C54.8487 19.6062 54.5071 18.3542 55.3233 17.8829C56.8919 16.9772 58.3839 15.6869 59.0311 16.8082C59.6797 17.9323 57.8152 18.5721 56.2465 19.4815C56.1011 19.5665 55.9419 19.6062 55.7858 19.6062Z" fill="white"></path><path fill-rule="evenodd" clip-rule="evenodd" d="M57.0224 13.6824C55.211 13.6824 53.2744 14.0541 53.2744 12.7592C53.2744 11.4638 55.2114 11.8359 57.0224 11.8359C58.2374 11.8359 58.2379 13.6824 57.0224 13.6824Z" fill="white"></path><path fill-rule="evenodd" clip-rule="evenodd" d="M58.2312 9.17172C57.7714 9.17172 55.9424 7.99178 55.3238 7.6354C54.2704 7.02789 55.1955 5.42925 56.2471 6.03676C57.8176 6.94433 59.6798 7.58831 59.0317 8.71054C58.8604 9.00691 58.5502 9.17218 58.2317 9.17218L58.2312 9.17172Z" fill="white"></path><path fill-rule="evenodd" clip-rule="evenodd" d="M61.5353 5.86915C60.6845 5.86915 60.0802 4.2742 59.3227 2.96085C58.7157 1.90787 60.3143 0.98506 60.9218 2.03759C61.8262 3.60437 63.1183 5.09914 61.9965 5.74543C61.852 5.82899 61.6927 5.86915 61.5358 5.86915H61.5353Z" fill="white"></path><path fill-rule="evenodd" clip-rule="evenodd" d="M40.9094 45.4757C40.3998 45.4757 39.9862 45.0616 39.9862 44.5524V34.1158C39.9862 32.9003 41.8327 32.9008 41.8327 34.1158V44.552C41.8336 45.0616 41.4191 45.4762 40.9094 45.4762V45.4757ZM34.6723 45.4757C34.1626 45.4757 33.749 45.0616 33.749 44.5524V27.8787C33.749 26.6632 35.5956 26.6632 35.5956 27.8787V44.5524C35.5956 45.0611 35.1819 45.4757 34.6723 45.4757Z" fill="white"></path><path fill-rule="evenodd" clip-rule="evenodd" d="M45.5163 45.4757H30.0659C28.8504 45.4757 28.8504 43.6292 30.0659 43.6292H45.5163C46.7314 43.6292 46.7318 45.4757 45.5163 45.4757Z" fill="white"></path><path fill-rule="evenodd" clip-rule="evenodd" d="M71.3465 44.5361H50.4068C50.1616 44.5361 49.9271 44.4386 49.7536 44.2651L22.0777 16.5883C21.4978 16.0084 21.9101 15.0127 22.7304 15.0127H43.6955C43.9407 15.0127 44.1761 15.1101 44.3487 15.2832L71.9028 42.8751C72.6709 43.5435 72.1285 44.5361 71.347 44.5361H71.3465ZM50.7895 42.6891H69.1076L43.3124 16.8592H24.9587L50.7895 42.6891Z" fill="white"></path><path fill-rule="evenodd" clip-rule="evenodd" d="M67.4345 40.6297H46.5013C45.2858 40.6297 45.2863 38.7832 46.5013 38.7832H67.4341C68.6496 38.7832 68.6491 40.6297 67.4345 40.6297Z" fill="white"></path><path fill-rule="evenodd" clip-rule="evenodd" d="M47.5953 20.7635H26.6362C25.4207 20.7635 25.4207 18.917 26.6362 18.917H47.5953C48.8104 18.917 48.8108 20.7635 47.5953 20.7635Z" fill="white"></path><path fill-rule="evenodd" clip-rule="evenodd" d="M52.5547 25.7313H31.602C30.3866 25.7313 30.3866 23.8848 31.602 23.8848H52.5556C53.7711 23.8848 53.7711 25.7313 52.5547 25.7313Z" fill="white"></path><path fill-rule="evenodd" clip-rule="evenodd" d="M57.5145 30.6974H36.5679C35.3524 30.6974 35.3524 28.8508 36.5679 28.8508H57.5145C58.7295 28.8508 58.7295 30.6974 57.5145 30.6974Z" fill="white"></path><path fill-rule="evenodd" clip-rule="evenodd" d="M62.4738 35.6639H41.5345C40.319 35.6639 40.3195 33.8174 41.5345 33.8174H62.4738C63.6888 33.8174 63.6892 35.6639 62.4738 35.6639Z" fill="white"></path><path fill-rule="evenodd" clip-rule="evenodd" d="M60.8519 44.536C60.615 44.536 60.3791 44.4446 60.1986 44.2651L32.5601 16.5882C31.701 15.7278 33.0079 14.4223 33.867 15.2827L61.5051 42.9591C62.0904 43.5449 61.6629 44.5356 60.8519 44.5356V44.536Z" fill="white"></path><path fill-rule="evenodd" clip-rule="evenodd" d="M7.17351 34.227C5.94649 34.227 6.25024 32.5933 6.25024 31.2407H4.01962C4.01962 32.5942 4.32338 34.227 3.09636 34.227C1.78762 34.227 2.17309 32.2203 2.17309 30.3174C2.17309 29.8078 2.58671 29.3942 3.09636 29.3942C8.87463 29.3942 8.09262 28.6583 8.09585 33.3037C8.09678 33.8129 7.68315 34.227 7.17351 34.227Z" fill="white"></path><path fill-rule="evenodd" clip-rule="evenodd" d="M7.26626 43.0941C5.98061 43.0941 6.343 41.2032 6.343 39.4573C6.343 38.2419 8.18953 38.2423 8.18953 39.4573C8.18953 41.2051 8.55191 43.0941 7.26626 43.0941Z" fill="white"></path><path fill-rule="evenodd" clip-rule="evenodd" d="M8.62308 41.7371C6.87718 41.7371 4.98633 42.0995 4.98633 40.8139C4.98633 39.5282 6.87718 39.8906 8.62308 39.8906C9.8381 39.8906 9.83857 41.7371 8.62308 41.7371Z" fill="white"></path><path fill-rule="evenodd" clip-rule="evenodd" d="M24.7315 41.7371C22.9856 41.7371 21.0947 42.0995 21.0947 40.8139C21.0947 39.5282 22.9856 39.8906 24.7315 39.8906C25.9465 39.8906 25.947 41.7371 24.7315 41.7371Z" fill="white"></path></svg>