<svg xmlns="http://www.w3.org/2000/svg" width="23" height="23" viewBox="0 0 23 23" fill="none"><path d="M11.9239 5.7775C11.4515 5.7775 10.9896 5.6374 10.5968 5.37492C10.204 5.11244 9.89779 4.73937 9.71699 4.30289C9.53619 3.8664 9.48889 3.3861 9.58106 2.92273C9.67323 2.45936 9.90073 2.03372 10.2348 1.69965C10.5689 1.36558 10.9945 1.13807 11.4579 1.0459C11.9213 0.95373 12.4016 1.00103 12.838 1.18183C13.2745 1.36263 13.6476 1.6688 13.9101 2.06163C14.1726 2.45446 14.3127 2.9163 14.3127 3.38875C14.3118 4.02203 14.0599 4.62913 13.6121 5.07693C13.1643 5.52473 12.5572 5.77667 11.9239 5.7775ZM11.9239 1.84C11.6176 1.84 11.3182 1.93083 11.0635 2.10101C10.8088 2.27119 10.6103 2.51307 10.493 2.79607C10.3758 3.07907 10.3452 3.39047 10.4049 3.6909C10.4647 3.99133 10.6122 4.26729 10.8288 4.48388C11.0454 4.70048 11.3213 4.84798 11.6218 4.90774C11.9222 4.9675 12.2336 4.93683 12.5166 4.81961C12.7996 4.70239 13.0415 4.50388 13.2116 4.24919C13.3818 3.9945 13.4727 3.69506 13.4727 3.38875C13.4721 2.97817 13.3088 2.58456 13.0184 2.29423C12.7281 2.00391 12.3345 1.84056 11.9239 1.84Z" fill="white" stroke="white" stroke-width="0.3"></path><path d="M16.2597 12.8141H7.58797C7.47658 12.8141 7.36975 12.7699 7.29098 12.6911C7.21222 12.6123 7.16797 12.5055 7.16797 12.3941V9.97097C7.16797 8.08464 8.70281 6.5498 10.5891 6.5498H13.258C15.1443 6.5498 16.6791 8.08464 16.6791 9.97097V12.3941C16.6791 12.5054 16.635 12.6122 16.5563 12.6909C16.4776 12.7697 16.371 12.814 16.2597 12.8141ZM8.00797 11.9741H15.8397V9.97097C15.8389 9.28654 15.5666 8.63038 15.0826 8.14647C14.5986 7.66256 13.9424 7.39043 13.258 7.3898H10.5883C9.90415 7.39078 9.24826 7.66306 8.76454 8.14693C8.28081 8.63081 8.00873 9.28677 8.00797 9.97097V11.9741Z" fill="white" stroke="white" stroke-width="0.3"></path><path d="M14.6505 12.8141C14.5391 12.8141 14.4322 12.7699 14.3535 12.6911C14.2747 12.6123 14.2305 12.5055 14.2305 12.3941V10.5527C14.2305 10.4413 14.2747 10.3345 14.3535 10.2557C14.4322 10.1769 14.5391 10.1327 14.6505 10.1327C14.7619 10.1327 14.8687 10.1769 14.9475 10.2557C15.0262 10.3345 15.0705 10.4413 15.0705 10.5527V12.3941C15.0705 12.5055 15.0262 12.6123 14.9475 12.6911C14.8687 12.7699 14.7619 12.8141 14.6505 12.8141Z" fill="white" stroke="white" stroke-width="0.3"></path><path d="M9.1993 12.8141C9.08791 12.8141 8.98108 12.7699 8.90231 12.6911C8.82355 12.6123 8.7793 12.5055 8.7793 12.3941V10.5527C8.7793 10.4413 8.82355 10.3345 8.90231 10.2557C8.98108 10.1769 9.08791 10.1327 9.1993 10.1327C9.31069 10.1327 9.41752 10.1769 9.49628 10.2557C9.57505 10.3345 9.6193 10.4413 9.6193 10.5527V12.3941C9.6193 12.5055 9.57505 12.6123 9.49628 12.6911C9.41752 12.7699 9.31069 12.8141 9.1993 12.8141Z" fill="white" stroke="white" stroke-width="0.3"></path><path d="M14.7757 19.3105H10.0638C9.95242 19.3105 9.84559 19.2662 9.76683 19.1874C9.68806 19.1087 9.64381 19.0018 9.64381 18.8905C9.64381 18.7791 9.68806 18.6722 9.76683 18.5935C9.84559 18.5147 9.95242 18.4705 10.0638 18.4705H14.7757C15.015 18.4664 15.2431 18.3685 15.4109 18.1978C15.5786 18.0272 15.6727 17.7975 15.6727 17.5581C15.6727 17.3188 15.5786 17.0891 15.4109 16.9184C15.2431 16.7478 15.015 16.6499 14.7757 16.6458H10.0523C10.0126 16.6458 9.06867 16.613 7.89005 16.1024L7.81602 16.0702C6.71982 15.5893 5.91447 15.3438 5.42255 15.3407C4.62927 15.3357 3.9494 15.4982 3.40392 15.8216C3.35651 15.8504 3.30384 15.8696 3.24897 15.878C3.1941 15.8863 3.13811 15.8837 3.08425 15.8703C3.03039 15.8569 2.97971 15.833 2.93516 15.7999C2.8906 15.7668 2.85305 15.7252 2.82467 15.6775C2.79629 15.6298 2.77765 15.5769 2.76982 15.522C2.76199 15.467 2.76514 15.4111 2.77907 15.3573C2.793 15.3036 2.81744 15.2532 2.85098 15.209C2.88452 15.1647 2.92649 15.1276 2.97447 15.0997C3.6533 14.696 4.47807 14.4936 5.42806 14.5007C6.24785 14.5062 7.37607 14.96 8.15334 15.3008L8.22421 15.3317C9.2057 15.757 10.0047 15.8027 10.0719 15.8058H14.7757C15.2367 15.8115 15.6769 15.9986 16.001 16.3266C16.325 16.6546 16.5067 17.0971 16.5067 17.5581C16.5067 18.0192 16.325 18.4617 16.001 18.7897C15.6769 19.1177 15.2367 19.3048 14.7757 19.3105Z" fill="white" stroke="white" stroke-width="0.3"></path><path d="M11.8848 22.84C11.6855 22.84 11.4851 22.8307 11.2837 22.8119C10.5844 22.7444 9.90049 22.5644 9.25853 22.2788L7.51501 21.5102C6.98421 21.2755 6.43987 21.0726 5.88488 20.9028C5.48956 20.7826 5.28113 20.7395 5.17613 20.7245C4.32484 20.6033 3.67227 20.6062 3.33863 20.7329C3.27496 20.7571 3.20637 20.7654 3.13876 20.7572C3.07116 20.749 3.00657 20.7244 2.95056 20.6857C2.89456 20.6469 2.84881 20.5951 2.81728 20.5348C2.78574 20.4744 2.76935 20.4073 2.76953 20.3392V15.4354C2.76953 15.324 2.81378 15.2172 2.89255 15.1384C2.97131 15.0597 3.07814 15.0154 3.18953 15.0154C3.30092 15.0154 3.40775 15.0597 3.48652 15.1384C3.56528 15.2172 3.60953 15.324 3.60953 15.4354V19.8213C4.05158 19.7725 4.61517 19.7966 5.29478 19.8935C5.4935 19.9216 5.76728 19.989 6.1298 20.0995C6.717 20.2791 7.29291 20.4936 7.85442 20.7421L9.59821 21.5105C10.1574 21.7598 10.7533 21.9171 11.3627 21.9761C11.8191 22.0198 12.2792 22.0055 12.7319 21.9336C13.3073 21.8407 14.1544 21.5546 14.4731 21.4469L14.5274 21.4286C17.7121 20.361 20.5964 17.4911 21.6887 16.3098C21.818 16.1723 21.9114 16.0049 21.9606 15.8226C22.0097 15.6403 22.0131 15.4487 21.9704 15.2648C21.9131 15.0262 21.7672 14.7036 21.165 14.6545C20.8919 14.6335 20.6203 14.7105 20.3988 14.8716L16.3518 17.7929C16.3072 17.8264 16.2563 17.8505 16.2022 17.8641C16.1481 17.8777 16.0919 17.8803 16.0368 17.8719C15.9816 17.8635 15.9287 17.8442 15.8812 17.8151C15.8336 17.786 15.7922 17.7478 15.7596 17.7026C15.727 17.6574 15.7036 17.6061 15.691 17.5518C15.6784 17.4975 15.6767 17.4412 15.6861 17.3862C15.6954 17.3312 15.7156 17.2787 15.7455 17.2316C15.7754 17.1845 15.8144 17.1439 15.8601 17.112L19.9074 14.1907C20.2905 13.912 20.7604 13.7791 21.2327 13.8158C22.0567 13.883 22.6085 14.3274 22.7862 15.0666C22.8614 15.3848 22.8568 15.7166 22.7728 16.0326C22.6889 16.3486 22.5282 16.6389 22.305 16.8779C21.1689 18.1093 18.1628 21.0949 14.7939 22.2245L14.7414 22.2423C14.4043 22.356 13.5092 22.6584 12.865 22.7613C12.5409 22.8136 12.2131 22.8399 11.8848 22.84Z" fill="white" stroke="white" stroke-width="0.3"></path><path d="M2.30961 22.0544C1.96243 22.054 1.62957 21.916 1.38405 21.6705C1.13854 21.425 1.00042 21.0922 1 20.745V14.8285C1 14.4813 1.13795 14.1482 1.3835 13.9027C1.62905 13.6571 1.96209 13.5192 2.30935 13.5192C2.65661 13.5192 2.98965 13.6571 3.2352 13.9027C3.48075 14.1482 3.6187 14.4813 3.6187 14.8285V20.745C3.61835 21.0921 3.48033 21.4249 3.23491 21.6704C2.98949 21.9158 2.65672 22.0539 2.30961 22.0544ZM2.30961 14.3594C2.18518 14.3595 2.06585 14.4089 1.97781 14.4969C1.88977 14.5848 1.84021 14.7041 1.84 14.8285V20.745C1.84 20.8695 1.88945 20.9889 1.97747 21.0769C2.06549 21.1649 2.18487 21.2144 2.30935 21.2144C2.43383 21.2144 2.55321 21.1649 2.64123 21.0769C2.72925 20.9889 2.7787 20.8695 2.7787 20.745V14.8285C2.77856 14.7041 2.72909 14.5849 2.64115 14.497C2.55321 14.409 2.43398 14.3596 2.30961 14.3594Z" fill="white" stroke="white" stroke-width="0.3"></path></svg>