<svg xmlns="http://www.w3.org/2000/svg" width="8" height="15" viewBox="0 0 8 15" fill="none"><path d="M0.736 14.344C0.650667 14.344 0.576 14.312 0.512 14.248C0.448 14.184 0.416 14.1093 0.416 14.024C0.416 13.9707 0.432 13.9067 0.464 13.832L5.936 0.712C5.968 0.647999 6.01067 0.583999 6.064 0.52C6.128 0.456 6.224 0.424 6.352 0.424H6.976C7.06133 0.424 7.136 0.456 7.2 0.52C7.264 0.583999 7.296 0.658666 7.296 0.743999C7.296 0.786666 7.28533 0.850666 7.264 0.936L1.776 14.056C1.75467 14.1093 1.712 14.168 1.648 14.232C1.584 14.3067 1.488 14.344 1.36 14.344H0.736Z" fill="white"></path></svg>