<svg xmlns="http://www.w3.org/2000/svg" width="56" height="60" viewBox="0 0 56 60" fill="none"><path d="M0.967746 21.2896C0.711084 21.2896 0.464934 21.3916 0.283446 21.573C0.101959 21.7545 0 22.0007 0 22.2573V26.1283C0 26.385 0.101959 26.6311 0.283446 26.8126C0.464934 26.9941 0.711084 27.0961 0.967746 27.0961H3.0778C3.38127 28.4113 3.88454 29.6722 4.57006 30.8348L2.21892 33.186C2.12905 33.2758 2.05776 33.3825 2.00913 33.5C1.96049 33.6174 1.93546 33.7432 1.93546 33.8703C1.93546 33.9974 1.96049 34.1232 2.00913 34.2407C2.05776 34.3581 2.12905 34.4648 2.21892 34.5546L5.12216 37.4579C5.21202 37.5477 5.31871 37.619 5.43613 37.6677C5.55354 37.7163 5.67939 37.7413 5.80648 37.7413C5.93357 37.7413 6.05941 37.7163 6.17683 37.6677C6.29424 37.619 6.40093 37.5477 6.49079 37.4579L8.84193 35.1067C10.0046 35.7922 11.2655 36.2955 12.5807 36.599V39.6768C12.5807 39.9334 12.6827 40.1796 12.8641 40.3611C13.0456 40.5426 13.2918 40.6445 13.5484 40.6445H16.9416C17.5614 43.0487 18.7506 45.2684 20.4086 47.1164C22.0667 48.9644 24.145 50.3863 26.4681 51.2622C28.7912 52.1381 31.291 52.4423 33.7564 52.149C36.2218 51.8557 38.5804 50.9736 40.6332 49.5772L50.2053 59.1492C50.4749 59.4188 50.795 59.6326 51.1472 59.7785C51.4995 59.9244 51.877 59.9995 52.2583 59.9995C52.6396 59.9995 53.0171 59.9244 53.3693 59.7785C53.7216 59.6326 54.0416 59.4188 54.3112 59.1492C54.5808 58.8796 54.7947 58.5595 54.9406 58.2073C55.0865 57.855 55.1616 57.4775 55.1616 57.0962C55.1616 56.7149 55.0865 56.3374 54.9406 55.9852C54.7947 55.6329 54.5808 55.3129 54.3112 55.0433L44.7392 45.4712C46.8613 42.3544 47.7709 38.5694 47.2969 34.8287C46.8228 31.0879 44.9978 27.6495 42.1653 25.1606H43.5486C43.8052 25.1606 44.0514 25.0586 44.2329 24.8771C44.4144 24.6957 44.5163 24.4495 44.5163 24.1928V20.4985C44.7071 19.9928 47.4196 12.7884 47.4196 12.5799C47.4196 10.4518 46.8194 8.77277 45.636 7.58922C44.4526 6.40567 42.7734 5.80566 40.6453 5.80566C38.5173 5.80566 36.8382 6.40579 35.6547 7.58922C34.4711 8.77265 33.8711 10.4518 33.8711 12.5799C33.8711 12.6959 36.7744 20.4973 36.7744 20.4973V22.0646C35.2131 21.5501 33.5795 21.2884 31.9356 21.2896H27.8901C27.5866 19.9744 27.0833 18.7135 26.3978 17.5508L28.749 15.1997C28.8388 15.1098 28.9101 15.0031 28.9588 14.8857C29.0074 14.7683 29.0324 14.6425 29.0324 14.5154C29.0324 14.3883 29.0074 14.2624 28.9588 14.145C28.9101 14.0276 28.8388 13.9209 28.749 13.8311L25.8457 10.9278C25.7559 10.838 25.6492 10.7667 25.5318 10.718C25.4143 10.6694 25.2885 10.6444 25.1614 10.6444C25.0343 10.6444 24.9085 10.6694 24.791 10.718C24.6736 10.7667 24.5669 10.838 24.4771 10.9278L22.1259 13.279C20.9633 12.5934 19.7024 12.0902 18.3872 11.7867V8.7089C18.3872 8.45224 18.2852 8.20609 18.1037 8.0246C17.9222 7.84312 17.6761 7.74116 17.4194 7.74116H13.5484C13.2918 7.74116 13.0456 7.84312 12.8641 8.0246C12.6827 8.20609 12.5807 8.45224 12.5807 8.7089V11.7867C11.2655 12.0902 10.0046 12.5934 8.84193 13.279L6.49079 10.9278C6.40093 10.838 6.29424 10.7667 6.17683 10.718C6.05941 10.6694 5.93357 10.6444 5.80648 10.6444C5.67939 10.6444 5.55354 10.6694 5.43613 10.718C5.31871 10.7667 5.21202 10.838 5.12216 10.9278L2.21892 13.8311C2.12905 13.9209 2.05776 14.0276 2.00913 14.145C1.96049 14.2624 1.93546 14.3883 1.93546 14.5154C1.93546 14.6425 1.96049 14.7683 2.00913 14.8857C2.05776 15.0031 2.12905 15.1098 2.21892 15.1997L4.57006 17.5508C3.88454 18.7135 3.38127 19.9744 3.0778 21.2896H0.967746ZM52.9426 56.412C53.0346 56.5014 53.108 56.6082 53.1583 56.7261C53.2087 56.8441 53.2351 56.9709 53.2361 57.0992C53.237 57.2275 53.2124 57.3546 53.1638 57.4733C53.1151 57.592 53.0433 57.6998 52.9526 57.7905C52.8619 57.8812 52.7541 57.953 52.6354 58.0017C52.5167 58.0503 52.3895 58.0749 52.2612 58.0739C52.133 58.073 52.0062 58.0466 51.8882 57.9962C51.7702 57.9458 51.6635 57.8724 51.5741 57.7804L42.1729 48.3795C42.6569 47.952 43.114 47.495 43.5414 47.011L52.9426 56.412ZM35.8082 12.4086C35.8655 9.3112 37.4923 7.74116 40.6453 7.74116C43.8026 7.74116 45.4292 9.31495 45.4826 12.4198C45.2106 13.1671 43.888 16.6811 42.8795 19.3541H38.4126L35.8082 12.4086ZM38.7098 21.2896H42.5808V23.2251H39.4245C39.19 23.0949 38.9518 22.9706 38.7098 22.8521V21.2896ZM45.4841 36.7735C45.4841 39.4528 44.6897 42.0719 43.2014 44.2997C41.7131 46.5275 39.5976 48.2641 37.1225 49.2898C34.6474 50.3155 31.9238 50.5844 29.2959 50.0623C26.668 49.5403 24.2539 48.2509 22.3587 46.357C20.4636 44.4632 19.1725 42.0499 18.6486 39.4224C18.1248 36.7949 18.3918 34.071 19.4158 31.5952C20.4398 29.1194 22.1749 27.0028 24.4017 25.5129C26.6285 24.0231 29.2471 23.2269 31.9263 23.2251H31.9356C35.5276 23.2292 38.9714 24.6579 41.5113 27.1978C44.0513 29.7378 45.48 33.1815 45.4841 36.7735ZM15.4839 29.0316C14.5269 29.0316 13.5914 28.7478 12.7957 28.2161C12 27.6844 11.3798 26.9287 11.0135 26.0445C10.6473 25.1604 10.5515 24.1875 10.7382 23.2488C10.9249 22.3102 11.3857 21.4481 12.0624 20.7713C12.7391 20.0946 13.6013 19.6338 14.5399 19.4471C15.4786 19.2604 16.4515 19.3562 17.3356 19.7224C18.2198 20.0887 18.9755 20.7089 19.5072 21.5046C20.0389 22.3003 20.3227 23.2358 20.3227 24.1928C20.3212 25.4757 19.811 26.7056 18.9038 27.6127C17.9967 28.5199 16.7668 29.0301 15.4839 29.0316ZM4.82555 22.4167C5.09147 20.8253 5.69657 19.3098 6.59979 17.9729C6.73002 17.7865 6.79049 17.5603 6.77058 17.3338C6.75067 17.1073 6.65166 16.8951 6.49092 16.7343L4.27175 14.5154L5.80648 12.9807L8.0254 15.1997C8.18618 15.3604 8.39842 15.4595 8.6249 15.4794C8.85138 15.4993 9.07764 15.4388 9.26399 15.3086C10.6009 14.4053 12.1164 13.8002 13.7078 13.5343C13.9337 13.4966 14.1389 13.38 14.2869 13.2053C14.4349 13.0305 14.5162 12.8089 14.5162 12.5799V9.67665H16.4517V12.5799C16.4517 12.8089 16.5329 13.0306 16.6809 13.2053C16.829 13.3801 17.0342 13.4967 17.2601 13.5344C18.8515 13.8004 20.367 14.4055 21.7039 15.3087C21.8902 15.4389 22.1165 15.4994 22.343 15.4795C22.5695 15.4596 22.7817 15.3606 22.9425 15.1998L25.1614 12.9807L26.6961 14.5154L24.4771 16.7343C24.3163 16.8951 24.2173 17.1073 24.1974 17.3338C24.1775 17.5603 24.238 17.7865 24.3682 17.9729C25.271 19.3092 25.876 20.824 26.1421 22.4146C24.7345 22.9852 23.4185 23.7596 22.2361 24.713C22.2493 24.5409 22.2582 24.3676 22.2582 24.1922C22.2588 22.7532 21.8013 21.3513 20.952 20.1895C20.1026 19.0278 18.9056 18.1666 17.5341 17.7307C16.1627 17.2947 14.6881 17.3066 13.3238 17.7647C11.9596 18.2228 10.7766 19.1032 9.94617 20.2785C9.11573 21.4538 8.68097 22.8629 8.70484 24.3018C8.72872 25.7406 9.20999 27.1346 10.079 28.2817C10.9479 29.4287 12.1595 30.2694 13.5382 30.682C14.9168 31.0946 16.391 31.0576 17.7473 30.5763C16.8907 32.53 16.4495 34.6404 16.4517 36.7735C16.4518 37.4206 16.4922 38.067 16.5727 38.709H14.5162V35.8058C14.5162 35.5767 14.435 35.3551 14.2869 35.1803C14.1389 35.0056 13.9337 34.8889 13.7078 34.8512C12.1164 34.5853 10.6009 33.9802 9.26399 33.077C9.07764 32.9468 8.85138 32.8863 8.6249 32.9062C8.39842 32.9261 8.18618 33.0251 8.0254 33.1859L5.80648 35.405L4.27175 33.8703L6.49079 31.6514C6.65154 31.4906 6.75055 31.2784 6.77046 31.0519C6.79037 30.8254 6.7299 30.5991 6.59967 30.4128C5.69645 29.0759 5.09135 27.5604 4.82542 25.969C4.78772 25.7431 4.67112 25.5379 4.49636 25.3899C4.3216 25.2419 4.10001 25.1606 3.87098 25.1606H1.93549V23.2251H3.87098C4.10003 23.2251 4.32165 23.1439 4.49644 22.9958C4.67122 22.8478 4.78784 22.6426 4.82555 22.4167Z" fill="#163300"></path><path d="M30.1022 5.37375C29.9874 5.6033 29.9685 5.86905 30.0496 6.11254C30.1308 6.35602 30.3053 6.5573 30.5349 6.6721L32.4704 7.63985C32.5842 7.69786 32.7083 7.73278 32.8357 7.74259C32.963 7.75239 33.091 7.73689 33.2123 7.69698C33.3337 7.65707 33.4459 7.59354 33.5426 7.51005C33.6392 7.42656 33.7184 7.32477 33.7755 7.21053C33.8326 7.0963 33.8666 6.97189 33.8754 6.84447C33.8842 6.71705 33.8677 6.58915 33.8269 6.46814C33.786 6.34713 33.7216 6.2354 33.6374 6.1394C33.5531 6.0434 33.4507 5.96503 33.336 5.90879L31.4005 4.94105C31.171 4.82626 30.9052 4.80737 30.6617 4.88851C30.4183 4.96966 30.217 5.1442 30.1022 5.37375Z" fill="#163300"></path><path d="M39.6777 0.967746V2.90324C39.6777 3.1599 39.7797 3.40605 39.9612 3.58754C40.1427 3.76903 40.3888 3.87098 40.6455 3.87098C40.9021 3.87098 41.1483 3.76903 41.3298 3.58754C41.5113 3.40605 41.6132 3.1599 41.6132 2.90324V0.967746C41.6132 0.711084 41.5113 0.464934 41.3298 0.283446C41.1483 0.101959 40.9021 0 40.6455 0C40.3888 0 40.1427 0.101959 39.9612 0.283446C39.7797 0.464934 39.6777 0.711084 39.6777 0.967746Z" fill="#163300"></path><path d="M34.407 1.06995C34.1774 1.18475 34.0029 1.38603 33.9217 1.62952C33.8406 1.873 33.8595 2.13875 33.9743 2.36831L34.942 4.3038C34.9982 4.41847 35.0766 4.52088 35.1726 4.60512C35.2686 4.68937 35.3803 4.75377 35.5013 4.79462C35.6224 4.83548 35.7503 4.85197 35.8777 4.84316C36.0051 4.83435 36.1295 4.8004 36.2437 4.74328C36.358 4.68615 36.4598 4.60698 36.5433 4.51032C36.6267 4.41367 36.6903 4.30144 36.7302 4.18012C36.7701 4.05879 36.7856 3.93077 36.7758 3.80342C36.766 3.67608 36.7311 3.55193 36.6731 3.43815L35.7053 1.50266C35.5905 1.27311 35.3892 1.09857 35.1457 1.01742C34.9023 0.936272 34.6365 0.955169 34.407 1.06995Z" fill="#163300"></path><path d="M45.587 1.50261L44.6193 3.4381C44.5612 3.55189 44.5263 3.67603 44.5165 3.80337C44.5067 3.93072 44.5222 4.05874 44.5621 4.18007C44.602 4.30139 44.6656 4.41362 44.7491 4.51028C44.8325 4.60693 44.9343 4.6861 45.0486 4.74323C45.1628 4.80035 45.2872 4.8343 45.4146 4.84311C45.5421 4.85193 45.67 4.83543 45.791 4.79458C45.912 4.75372 46.0237 4.68932 46.1197 4.60508C46.2157 4.52084 46.2941 4.41843 46.3503 4.30375L47.3181 2.36826C47.3761 2.25447 47.411 2.13033 47.4208 2.00298C47.4306 1.87564 47.4151 1.74761 47.3752 1.62629C47.3353 1.50496 47.2718 1.39274 47.1883 1.29608C47.1048 1.19943 47.003 1.12025 46.8888 1.06313C46.7745 1.006 46.6501 0.972057 46.5227 0.963244C46.3953 0.954431 46.2674 0.970928 46.1464 1.01178C46.0253 1.05264 45.9136 1.11704 45.8176 1.20128C45.7216 1.28552 45.6432 1.38793 45.587 1.50261Z" fill="#163300"></path><path d="M49.8902 4.94153L47.9548 5.90928C47.8401 5.96551 47.7377 6.04389 47.6534 6.13989C47.5692 6.23589 47.5048 6.34762 47.4639 6.46863C47.4231 6.58964 47.4066 6.71754 47.4154 6.84495C47.4242 6.97237 47.4582 7.09678 47.5153 7.21102C47.5724 7.32525 47.6516 7.42705 47.7482 7.51054C47.8449 7.59403 47.9571 7.65756 48.0784 7.69747C48.1998 7.73738 48.3278 7.75288 48.4551 7.74307C48.5825 7.73326 48.7066 7.69835 48.8204 7.64033L50.7559 6.67259C50.8706 6.61635 50.973 6.53798 51.0572 6.44198C51.1415 6.34598 51.2059 6.23425 51.2467 6.11324C51.2876 5.99223 51.3041 5.86433 51.2953 5.73691C51.2864 5.60949 51.2525 5.48508 51.1954 5.37085C51.1382 5.25661 51.0591 5.15482 50.9624 5.07133C50.8658 4.98784 50.7535 4.92431 50.6322 4.8844C50.5109 4.84449 50.3829 4.82899 50.2555 4.83879C50.1282 4.8486 50.004 4.88352 49.8902 4.94153Z" fill="#163300"></path><path d="M20.3223 36.7741C20.3223 39.0709 21.0034 41.3162 22.2794 43.2259C23.5554 45.1356 25.3691 46.6241 27.4911 47.5031C29.6131 48.382 31.9481 48.612 34.2008 48.1639C36.4535 47.7158 38.5227 46.6098 40.1468 44.9857C41.7709 43.3616 42.8769 41.2924 43.325 39.0397C43.7731 36.787 43.5431 34.452 42.6642 32.33C41.7852 30.208 40.2968 28.3943 38.387 27.1183C36.4773 25.8422 34.232 25.1611 31.9352 25.1611C28.8563 25.1646 25.9045 26.3892 23.7274 28.5663C21.5503 30.7434 20.3257 33.6952 20.3223 36.7741ZM41.6127 36.7741C41.6127 38.6881 41.0451 40.5591 39.9817 42.1506C38.9184 43.742 37.4069 44.9824 35.6386 45.7149C33.8703 46.4474 31.9245 46.639 30.0472 46.2656C28.17 45.8922 26.4456 44.9705 25.0922 43.6171C23.7388 42.2637 22.8171 40.5393 22.4437 38.6621C22.0703 36.7848 22.2619 34.839 22.9944 33.0707C23.7269 31.3024 24.9673 29.7909 26.5587 28.7276C28.1502 27.6642 30.0212 27.0966 31.9352 27.0966C34.5009 27.0995 36.9608 28.1201 38.775 29.9343C40.5892 31.7486 41.6098 34.2084 41.6127 36.7741Z" fill="#163300"></path><path d="M26.1298 36.7744C26.1298 36.5177 26.0279 36.2716 25.8464 36.0901C25.6649 35.9086 25.4187 35.8066 25.1621 35.8066C24.9054 35.8066 24.6593 35.9086 24.4778 36.0901C24.2963 36.2716 24.1943 36.5177 24.1943 36.7744C24.1966 38.827 25.0131 40.7948 26.4645 42.2462C27.9159 43.6976 29.8837 44.5141 31.9363 44.5164C32.193 44.5164 32.4391 44.4144 32.6206 44.2329C32.8021 44.0514 32.9041 43.8053 32.9041 43.5486C32.9041 43.2919 32.8021 43.0458 32.6206 42.8643C32.4391 42.6828 32.193 42.5809 31.9363 42.5809C30.3969 42.5792 28.9209 41.9669 27.8324 40.8783C26.7438 39.7898 26.1315 38.3138 26.1298 36.7744Z" fill="#163300"></path></svg>