<svg xmlns="http://www.w3.org/2000/svg" width="63" height="61" viewBox="0 0 63 61" fill="none"><path fill-rule="evenodd" clip-rule="evenodd" d="M0 33.1351C0 32.9837 0.0374686 32.838 0.106312 32.7087L8.8675 16.2474C8.95177 16.0891 9.08116 15.9584 9.24232 15.8726C9.37482 15.8021 9.5208 15.7661 9.66873 15.7661H36.5046C36.9624 10.9173 41.0499 7.11814 46.0176 7.11814C51.2915 7.11814 55.5733 11.3998 55.5733 16.6738C55.5733 20.9598 52.7451 24.5902 48.855 25.8001L52.629 32.6996C52.7005 32.8303 52.7402 32.9792 52.7402 33.1351V59.1225C52.7402 59.6237 52.3339 60.03 51.8327 60.03H0.907546C0.406321 60.03 0 59.6237 0 59.1225V33.1351ZM9.66873 18.6055L2.41861 32.2276H16.9187L9.66873 18.6055ZM42.2905 17.5814H11.1798L18.9748 32.2276H50.3019L42.2905 17.5814ZM47.9621 24.1678C51.2945 23.3046 53.7582 20.2744 53.7582 16.6738C53.7582 12.4016 50.2897 8.93323 46.0176 8.93323C42.0526 8.93323 38.7798 11.9211 38.3299 15.7663H42.8285C43.1602 15.7663 43.4655 15.9473 43.6247 16.2382L47.9621 24.1678ZM50.9251 58.2149V34.0427H19.3373V58.2149H50.9251ZM14.0513 58.2149H17.5222V34.0427H1.81509V58.2149H5.28607V43.0592C5.28607 42.5579 5.69239 42.1516 6.19361 42.1516H13.1437C13.645 42.1516 14.0513 42.5579 14.0513 43.0592V58.2149ZM7.10116 58.2149H12.2362C12.2362 54.9462 12.2362 43.9667 12.2362 43.9667H7.10116V58.2149ZM46.8833 31.1086H20.192C19.8566 31.1086 19.5485 30.9235 19.3909 30.6273L13.7529 20.0343C13.6033 19.753 13.612 19.4138 13.7762 19.1407C13.9402 18.8675 14.2355 18.7004 14.5542 18.7004H41.089C41.4208 18.7004 41.7261 18.8814 41.8852 19.1724L47.6796 29.7654C47.8334 30.0466 47.8274 30.3881 47.664 30.6638C47.5006 30.9395 47.2038 31.1086 46.8833 31.1086ZM20.559 20.5155C17.8972 20.5155 16.0652 20.5155 16.0652 20.5155L16.7957 21.8881H21.3638L20.559 20.5155ZM17.7617 23.7031L18.75 25.56H23.5167L22.428 23.7031H17.7617ZM19.716 27.3751L20.737 29.2935H25.7057L24.5809 27.3751H19.716ZM27.2074 20.5155C25.6331 20.5155 24.0833 20.5155 22.6631 20.5155L23.4678 21.8881H27.9802L27.2074 20.5155ZM33.6238 20.5155C32.2589 20.5155 30.7845 20.5155 29.2904 20.5155L30.0631 21.8881H34.41L33.6238 20.5155ZM40.7438 29.2935H45.3525L44.3031 27.3751H39.6448L40.7438 29.2935ZM43.3103 25.56L42.2946 23.7031H37.5415L38.6052 25.56H43.3103ZM41.3018 21.8881L40.551 20.5155C40.551 20.5155 38.561 20.5155 35.7156 20.5155L36.5018 21.8881H41.3018ZM34.2322 29.2935H38.652L37.5531 27.3751H33.1521L34.2322 29.2935ZM27.8098 29.2935H32.1492L31.0692 27.3751H26.685L27.8098 29.2935ZM24.5321 23.7031L25.6208 25.56H30.0474L29.0021 23.7031H24.5321ZM35.4496 23.7031H31.085L32.1304 25.56H36.5133L35.4496 23.7031ZM33.3129 49.1278H21.8397C21.3385 49.1278 20.9322 48.7215 20.9322 48.2202V37.8981C20.9322 37.3968 21.3385 36.9905 21.8397 36.9905H33.3129C33.8141 36.9905 34.2204 37.3968 34.2204 37.8981V48.2202C34.2204 48.7215 33.8141 49.1278 33.3129 49.1278ZM24.0916 38.8056C23.2784 38.8056 22.7472 38.8056 22.7472 38.8056V47.3127H24.0916V38.8056ZM25.9067 47.3127H32.4053V38.8056C32.4053 38.8056 28.7238 38.8056 25.9067 38.8056V47.3127ZM48.4266 49.1278H37.3948C36.8936 49.1278 36.4872 48.7215 36.4872 48.2202V37.8981C36.4872 37.3968 36.8936 36.9905 37.3948 36.9905H48.4266C48.9279 36.9905 49.3342 37.3968 49.3342 37.8981V48.2202C49.3342 48.7215 48.9279 49.1278 48.4266 49.1278ZM39.7814 38.8056C38.8957 38.8056 38.3023 38.8056 38.3023 38.8056V47.3127H39.7814V38.8056ZM41.5965 47.3127H47.5191V38.8056C47.5191 38.8056 44.2423 38.8056 41.5965 38.8056V47.3127ZM45.1101 0.907546C45.1101 0.40658 45.5168 0 46.0176 0C46.5186 0 46.9252 0.40658 46.9252 0.907546V4.7921C46.9252 5.29307 46.5186 5.69965 46.0176 5.69965C45.5168 5.69965 45.1101 5.29307 45.1101 4.7921V0.907546ZM56.5243 4.88363C56.8785 4.52943 57.4536 4.52943 57.8078 4.88363C58.162 5.23783 58.162 5.81283 57.8078 6.16703L55.0609 8.91391C54.7067 9.26812 54.1316 9.26812 53.7775 8.91391C53.4233 8.55971 53.4233 7.98459 53.7775 7.63052L56.5243 4.88363ZM61.7839 15.7663C62.2847 15.7663 62.6915 16.1729 62.6915 16.6738C62.6915 17.1747 62.2847 17.5814 61.7839 17.5814H57.8992C57.3984 17.5814 56.9917 17.1747 56.9917 16.6738C56.9917 16.1729 57.3984 15.7663 57.8992 15.7663H61.7839ZM57.8078 27.1805C58.162 27.5347 58.162 28.1097 57.8078 28.4639C57.4536 28.8181 56.8785 28.8181 56.5243 28.4639L53.7775 25.717C53.4233 25.3629 53.4233 24.7878 53.7775 24.4336C54.1316 24.0794 54.7067 24.0794 55.0609 24.4336L57.8078 27.1805ZM34.2274 6.16703C33.8734 5.81283 33.8734 5.23783 34.2274 4.88363C34.5816 4.52943 35.1568 4.52943 35.511 4.88363L38.2579 7.63052C38.6121 7.98459 38.6121 8.55971 38.2579 8.91391C37.9037 9.26812 37.3285 9.26812 36.9743 8.91391L34.2274 6.16703Z" fill="#89EA5F"></path></svg>