<svg xmlns="http://www.w3.org/2000/svg" width="41" height="40" viewBox="0 0 41 40" fill="none"><path d="M6.97055 16.0957C6.89042 15.7351 7.1308 15.3746 7.47801 15.2945C7.83857 15.2277 8.19913 15.4547 8.27925 15.8153C8.35938 16.1758 8.119 16.523 7.75844 16.6032C7.71838 16.6165 7.67832 16.6165 7.6249 16.6165C7.31776 16.6165 7.03732 16.4028 6.97055 16.0957ZM32.3033 16.5764C31.9428 16.5097 31.7157 16.1491 31.7959 15.7886C31.8626 15.428 32.2232 15.201 32.5838 15.2677C32.9443 15.3479 33.1713 15.7084 33.0912 16.069C33.0245 16.3761 32.7574 16.5898 32.4369 16.5898C32.3968 16.5898 32.3567 16.5898 32.3033 16.5764ZM6.67676 13.318C6.67676 12.9441 6.97055 12.6503 7.34446 12.6503C7.71838 12.6503 8.01217 12.9441 8.01217 13.318C8.01217 13.6786 7.71838 13.9857 7.34446 13.9857C6.9839 13.9857 6.67676 13.692 6.67676 13.318ZM32.0496 13.2913C32.0496 13.278 32.0496 13.2646 32.0496 13.2379C32.0496 12.8774 32.3434 12.5702 32.7173 12.5702C33.0779 12.5702 33.385 12.864 33.385 13.2379V13.2646V13.2913C33.385 13.6652 33.0912 13.959 32.7173 13.959C32.3434 13.959 32.0496 13.6652 32.0496 13.2913ZM7.47801 11.3283C7.11744 11.2615 6.89042 10.9009 6.95719 10.5404C7.03732 10.1798 7.38453 9.9528 7.74509 10.0329C8.10565 10.0997 8.34602 10.4603 8.2659 10.8208C8.19913 11.128 7.91869 11.3416 7.61155 11.3416C7.57148 11.3416 7.51807 11.3416 7.47801 11.3283ZM31.7825 10.7407C31.7024 10.3801 31.9294 10.0329 32.29 9.9528C32.6505 9.87268 33.0111 10.0997 33.0912 10.4603C33.158 10.8208 32.931 11.1814 32.5704 11.2615C32.5303 11.2615 32.4769 11.2749 32.4369 11.2749C32.1164 11.2749 31.8493 11.0612 31.7825 10.7407ZM8.15907 8.76428C7.82521 8.61739 7.66496 8.21676 7.81186 7.88291C7.97211 7.54906 8.35938 7.40216 8.69323 7.54906C9.02708 7.69595 9.18733 8.08322 9.04044 8.43043C8.92025 8.6708 8.67988 8.83105 8.42615 8.83105C8.33267 8.83105 8.23919 8.80435 8.15907 8.76428ZM30.9946 8.36366C30.8477 8.02981 30.9946 7.62918 31.3285 7.48229C31.6623 7.32204 32.063 7.46893 32.2099 7.81614C32.3701 8.14999 32.2099 8.53726 31.876 8.69751C31.7825 8.73757 31.689 8.75093 31.6089 8.75093C31.3552 8.75093 31.1015 8.60403 30.9946 8.36366ZM9.36094 6.4006C9.05379 6.18694 8.98702 5.7596 9.21404 5.46581C9.42771 5.17202 9.84169 5.10525 10.1355 5.31892C10.4426 5.53259 10.5094 5.94656 10.2824 6.25371C10.1622 6.42731 9.94852 6.52079 9.74821 6.52079C9.61467 6.52079 9.48112 6.48073 9.36094 6.4006ZM29.726 6.18694C29.5123 5.89315 29.5791 5.47917 29.8729 5.25215C30.1667 5.03848 30.594 5.10525 30.8077 5.39904C31.0213 5.69283 30.9546 6.12017 30.6608 6.33383C30.5406 6.42731 30.407 6.46737 30.2735 6.46737C30.0598 6.46737 29.8595 6.37389 29.726 6.18694ZM11.0168 4.33071C10.7765 4.06363 10.7898 3.6363 11.0703 3.39592C11.3373 3.1422 11.7647 3.1689 12.0184 3.43599C12.2588 3.70307 12.2454 4.1304 11.965 4.38413C11.8315 4.49096 11.6712 4.55773 11.511 4.55773C11.3373 4.55773 11.1504 4.47761 11.0168 4.33071ZM28.0434 4.33071C27.7629 4.09034 27.7362 3.66301 27.9899 3.38257C28.2303 3.11549 28.6577 3.08878 28.9381 3.34251C29.2052 3.58288 29.2319 3.99686 28.9782 4.2773C28.858 4.42419 28.671 4.50432 28.484 4.50432C28.3238 4.50432 28.1635 4.4509 28.0434 4.33071ZM13.0734 2.66145C12.8998 2.34095 13.0066 1.92697 13.3271 1.74001C13.6343 1.55306 14.0482 1.65989 14.2352 1.98039C14.4222 2.30089 14.3153 2.71486 13.9948 2.90182C13.888 2.95524 13.7678 2.98195 13.661 2.98195C13.4206 2.98195 13.2069 2.87511 13.0734 2.66145ZM26.0002 2.86176C25.6797 2.6748 25.5728 2.27418 25.7598 1.95368C25.9468 1.63318 26.3474 1.51299 26.6679 1.69995C26.9884 1.88691 27.0952 2.28753 26.9216 2.60803C26.7881 2.83505 26.5611 2.94188 26.334 2.94188C26.2272 2.94188 26.107 2.91518 26.0002 2.86176ZM15.4371 1.44622C15.3302 1.08566 15.5172 0.711745 15.8644 0.604912C16.2116 0.484725 16.5989 0.671683 16.7057 1.01889C16.8259 1.37945 16.6389 1.75337 16.2784 1.87355C16.2116 1.88691 16.1448 1.90026 16.0781 1.90026C15.7976 1.90026 15.5305 1.72666 15.4371 1.44622ZM23.7033 1.84685C23.3561 1.72666 23.1691 1.35274 23.2759 1.00554C23.3828 0.658329 23.77 0.458017 24.1172 0.578204C24.4645 0.685037 24.6648 1.05895 24.5446 1.41951C24.4511 1.69995 24.1974 1.87355 23.9169 1.87355C23.8502 1.87355 23.77 1.8602 23.7033 1.84685ZM18.0011 0.751808C17.961 0.377892 18.2281 0.0573931 18.5886 0.0173307C18.9626 -0.0227317 19.2964 0.244351 19.3231 0.604912C19.3765 0.978828 19.1095 1.29933 18.7355 1.33939C18.7088 1.33939 18.6955 1.33939 18.6688 1.33939C18.3216 1.33939 18.0411 1.08566 18.0011 0.751808ZM21.2461 1.32604C20.8855 1.29933 20.6185 0.965474 20.6585 0.604912C20.6852 0.230997 21.0191 -0.0360858 21.3797 0.00397656C21.7536 0.0440389 22.0206 0.364538 21.9806 0.738454C21.9539 1.08566 21.6601 1.33939 21.3129 1.33939C21.2995 1.33939 21.2728 1.33939 21.2461 1.32604Z" fill="white"></path><path d="M18.0286 30.652C17.66 30.652 17.3608 30.3529 17.3608 29.9843V29.366C17.3608 26.5523 15.4178 24.0992 12.6348 23.3994C12.2769 23.3099 12.0606 22.9467 12.1501 22.5888C12.2395 22.2309 12.6014 22.0119 12.9607 22.1041C16.3379 22.9534 18.6963 25.9394 18.6963 29.366V29.9843C18.6963 30.3529 18.3971 30.652 18.0286 30.652Z" fill="white"></path><path d="M10.365 25.8673C10.1941 25.8673 10.0232 25.8019 9.89229 25.6723L4.03384 19.8232C3.90831 19.6977 3.83887 19.5281 3.83887 19.3505C3.83887 19.1742 3.90964 19.0033 4.03384 18.8777C5.87137 17.0402 8.13489 17.1965 10.2422 19.3051L13.2522 22.3098C13.5139 22.5702 13.5139 22.9935 13.2535 23.2539C12.9931 23.5156 12.5698 23.5143 12.3094 23.2552L9.29803 20.2505C7.9279 18.8791 6.64858 18.5906 5.48944 19.3905L10.8338 24.7269C11.0942 24.9873 11.0942 25.4106 10.8338 25.6723C10.7069 25.8019 10.536 25.8673 10.365 25.8673Z" fill="white"></path><path d="M6.67676 32.7659V35.9935H8.01217V33.3227H17.3601V35.9935H18.6955V32.7659C18.6955 32.3973 18.3683 31.9873 17.9997 31.9873H7.31642C6.94518 31.9873 6.67676 32.3986 6.67676 32.7659Z" fill="white"></path><path d="M5.3418 39.3321C5.3418 39.6994 5.64093 39.9999 6.0095 39.9999C6.37808 39.9999 6.67721 39.6994 6.67721 39.3321V35.9936H17.3605V39.3308C17.3605 39.6994 17.6596 39.9985 18.0282 39.9985C18.3968 39.9999 18.6959 39.6994 18.6959 39.3308V35.4367C18.6959 35.0682 18.3687 34.6582 18.0002 34.6582H5.98146C5.61155 34.6582 5.3418 35.0682 5.3418 35.4367V39.3321Z" fill="white"></path><path d="M22.0339 30.6521C21.6653 30.6521 21.3662 30.353 21.3662 29.9844V29.3661C21.3662 25.9395 23.7245 22.9535 27.1018 22.1042C27.4597 22.0147 27.8229 22.231 27.9124 22.5889C28.0019 22.9468 27.7855 23.31 27.4276 23.3995C24.6446 24.0993 22.7016 26.5524 22.7016 29.3661V29.9844C22.7016 30.353 22.4025 30.6521 22.0339 30.6521Z" fill="white"></path><path d="M29.6976 25.8668C29.5267 25.8668 29.3558 25.8013 29.2249 25.6718C28.9645 25.41 28.9645 24.9881 29.2249 24.7263L34.5692 19.39C33.4087 18.5901 32.1321 18.8785 30.762 20.25L27.7506 23.2547C27.4902 23.5138 27.0669 23.5151 26.8065 23.2534C26.5461 22.9929 26.5461 22.5696 26.8078 22.3092L29.8192 19.3045C31.9291 17.1959 34.1913 17.041 36.0275 18.8772C36.153 19.0027 36.2225 19.1723 36.2225 19.3499C36.2225 19.5276 36.1517 19.6972 36.0275 19.8227L30.169 25.6718C30.0395 25.8013 29.8686 25.8668 29.6976 25.8668Z" fill="white"></path><path d="M10.6833 31.2689C10.6833 31.0632 10.5885 30.8696 10.4282 30.7427L5.67417 27.0169C5.26153 26.6884 4.65658 25.9793 4.46161 25.5132L1.33541 18.2459L1.31672 12.0483C1.38749 11.9227 1.82952 11.6463 2.33297 11.7197C3.10216 11.8226 3.46406 12.6465 3.63232 13.3169C3.87937 14.3078 3.9368 15.1811 3.99155 16.0064C4.01559 16.3737 4.32807 16.6274 4.69932 16.6007C5.06789 16.5766 5.34432 16.2308 5.32028 15.8635C5.26553 15.0369 5.2041 14.1021 4.92901 12.9951C4.39484 10.8637 2.994 10.2508 1.85088 10.3937C0.941466 10.5059 0 11.1175 0 11.9481V18.3835C0 18.4743 0.0186958 18.5637 0.0547519 18.6479L3.23303 26.0367C3.52682 26.7365 4.28267 27.6165 4.84621 28.0652L9.34789 31.5934V33.3227H10.6833V31.2689Z" fill="white"></path><path d="M29.3789 31.2688C29.3789 31.0632 29.4737 30.8695 29.634 30.7427L34.388 27.0169C34.8007 26.6884 35.4056 25.9793 35.6006 25.5132L38.7268 18.2459L38.7455 12.0482C38.6747 11.9227 38.2314 11.6463 37.7279 11.7197C36.9587 11.8225 36.5968 12.6452 36.4285 13.3169C36.1815 14.3077 36.1241 15.1811 36.0693 16.0064C36.0453 16.3736 35.7328 16.6274 35.3616 16.6007C34.993 16.5766 34.7166 16.2307 34.7406 15.8635C34.7953 15.0369 34.8568 14.1021 35.1319 12.995C35.6647 10.8637 37.0655 10.2508 38.2087 10.395C39.1207 10.5058 40.0622 11.1174 40.0622 11.9481V18.3834C40.0622 18.4742 40.0435 18.5637 40.0075 18.6478L36.8292 26.0367C36.5354 26.7364 35.7795 27.6165 35.216 28.0652L30.7143 31.5933V33.3227H29.3789V31.2688Z" fill="white"></path><path d="M33.3849 32.7659V35.9935H32.0495V33.3227H22.7016V35.9935H21.3662V32.7659C21.3662 32.3973 21.6934 31.9873 22.062 31.9873H32.7453C33.1165 31.9873 33.3849 32.3986 33.3849 32.7659Z" fill="white"></path><path d="M34.7213 39.3321C34.7213 39.6994 34.4222 39.9999 34.0536 39.9999C33.685 39.9999 33.3859 39.6994 33.3859 39.3321V35.9936H22.7026V39.3308C22.7026 39.6994 22.4035 39.9985 22.0349 39.9985C21.6663 39.9999 21.3672 39.6994 21.3672 39.3308V35.4367C21.3672 35.0682 21.6944 34.6582 22.0629 34.6582H34.0817C34.4516 34.6582 34.7213 35.0682 34.7213 35.4367V39.3321Z" fill="white"></path><path d="M18.0278 22.6388C17.945 22.6388 17.8608 22.6241 17.7807 22.5934C17.4802 22.4732 17.308 22.1581 17.3721 21.8416L18.5486 15.9618H15.3569C15.1139 15.9618 14.8909 15.8295 14.772 15.6186C14.6545 15.4062 14.6612 15.1458 14.7907 14.9402L21.4678 4.25686C21.6387 3.9831 21.9832 3.87359 22.2797 3.99111C22.5802 4.10996 22.7511 4.42512 22.6883 4.74295L21.3529 11.42C21.2808 11.7819 20.9336 12.0196 20.5677 11.9435C20.2058 11.8714 19.9721 11.5215 20.0429 11.1583L20.6612 8.06679L16.5615 14.6263H19.3632C19.5621 14.6263 19.7518 14.7158 19.88 14.8721C20.0068 15.0256 20.0576 15.2313 20.0189 15.4263L19.4006 18.5164L24.1399 10.9339C24.3349 10.6214 24.7476 10.5253 25.0587 10.7229C25.3712 10.9179 25.4673 11.3292 25.271 11.6417L18.594 22.325C18.4698 22.5266 18.2521 22.6388 18.0278 22.6388Z" fill="white"></path></svg>