<svg xmlns="http://www.w3.org/2000/svg" width="40" height="40" viewBox="0 0 40 40" fill="none"><path d="M33.6273 24.7863V17.3709L39.916 6.86586C39.9697 6.77625 39.9986 6.67401 39.9999 6.56957C40.0011 6.46513 39.9747 6.36222 39.9232 6.27133C39.8717 6.18044 39.7971 6.10482 39.7069 6.05218C39.6167 5.99954 39.5141 5.97177 39.4097 5.97168H19.0915C18.9895 5.97183 18.8892 5.9984 18.8005 6.0488C18.7118 6.0992 18.6376 6.17171 18.5852 6.25928L6.96554 25.6687C6.91185 25.7583 6.8829 25.8605 6.88162 25.965C6.88034 26.0694 6.90679 26.1723 6.95827 26.2632C7.00974 26.354 7.0844 26.4296 7.17463 26.4822C7.26486 26.5348 7.36743 26.5625 7.47187 26.5626H27.79C27.892 26.5625 27.9923 26.536 28.081 26.4857C28.1698 26.4353 28.2439 26.3628 28.2963 26.2753L28.8442 25.3585C28.8627 25.3629 28.8813 25.3656 28.9002 25.3683V32.6986H20.0002C19.8436 32.6986 19.6933 32.7609 19.5825 32.8717C19.4717 32.9824 19.4095 33.1327 19.4095 33.2894V36.8337H16.807V36.3712C16.807 36.2146 16.7447 36.0643 16.6339 35.9535C16.5232 35.8428 16.3729 35.7805 16.2162 35.7805H14.781V31.3079C14.781 31.1512 14.7187 31.001 14.6079 30.8902C14.4972 30.7794 14.3469 30.7172 14.1902 30.7172H12.7664V29.2826C12.7664 29.1259 12.7042 28.9757 12.5934 28.8649C12.4826 28.7541 12.3324 28.6919 12.1757 28.6919H10.1504C9.9937 28.6919 9.84345 28.7541 9.73267 28.8649C9.62188 28.9757 9.55965 29.1259 9.55965 29.2826V30.7172H5.38409V29.2826C5.38413 29.205 5.36889 29.1282 5.33921 29.0565C5.30954 28.9848 5.26603 28.9196 5.21117 28.8648C5.15631 28.8099 5.09117 28.7664 5.01948 28.7367C4.94779 28.7071 4.87096 28.6918 4.79337 28.6919H2.76804C2.61137 28.6919 2.46111 28.7541 2.35033 28.8649C2.23955 28.9757 2.17731 29.1259 2.17731 29.2826V30.7172H0.752831C0.596162 30.7172 0.44591 30.7794 0.335128 30.8902C0.224346 31.001 0.162109 31.1512 0.162109 31.3079V39.4092C0.162109 39.5659 0.224346 39.7162 0.335128 39.8269C0.44591 39.9377 0.596162 40 0.752831 40H14.1902C14.3469 40 14.4972 39.9377 14.6079 39.8269C14.7187 39.7162 14.781 39.5659 14.781 39.4092V38.9873H16.2162C16.3729 38.9873 16.5232 38.9251 16.6339 38.8143C16.7447 38.7035 16.807 38.5532 16.807 38.3966V38.0151H20.0002C20.1569 38.0151 20.3072 37.9529 20.4179 37.8421C20.5287 37.7313 20.591 37.5811 20.591 37.4244V33.8801H28.9016V34.7679H26.8006C26.723 34.7678 26.6462 34.7831 26.5745 34.8127C26.5028 34.8424 26.4377 34.8859 26.3828 34.9408C26.328 34.9956 26.2844 35.0608 26.2548 35.1325C26.2251 35.2041 26.2099 35.281 26.2099 35.3586V36.7932H24.2912C24.1346 36.7932 23.9843 36.8554 23.8735 36.9662C23.7628 37.077 23.7005 37.2272 23.7005 37.3839V39.4092C23.7005 39.5659 23.7628 39.7162 23.8735 39.8269C23.9843 39.9377 24.1346 40 24.2912 40H37.7286C37.8853 40 38.0356 39.9377 38.1463 39.8269C38.2571 39.7162 38.3194 39.5659 38.3194 39.4092V37.3839C38.3194 37.2272 38.2571 37.077 38.1463 36.9662C38.0356 36.8554 37.8853 36.7932 37.7286 36.7932H35.8096V35.3586C35.8097 35.281 35.7944 35.2041 35.7648 35.1325C35.7351 35.0608 35.6916 34.9956 35.6367 34.9408C35.5819 34.8859 35.5167 34.8424 35.445 34.8127C35.3733 34.7831 35.2965 34.7678 35.2189 34.7679H33.121V25.3669C33.2611 25.3471 33.3893 25.2776 33.4823 25.171C33.5753 25.0643 33.6268 24.9278 33.6273 24.7863ZM10.7411 29.8733H11.585V30.7172H10.7411V29.8733ZM3.35876 29.8733H4.20265V30.7172H3.35876V29.8733ZM13.5995 38.8185H1.34355V31.8986H13.5995V38.8185ZM15.6248 37.8058H14.781V36.962H15.6248V37.8058ZM32.4452 24.1956H29.576V24.1372L32.4452 19.3439V24.1956ZM15.2326 25.3811L16.8492 22.6807H22.191L20.5744 25.3811H15.2326ZM17.5563 21.4992L19.1732 18.7988H24.515L22.8981 21.4992H17.5563ZM12.4545 18.7988H17.7963L16.1798 21.4992H10.8376L12.4545 18.7988ZM14.7783 14.9169H20.1204L18.5035 17.6173H13.1617L14.7783 14.9169ZM17.1023 11.035H22.4441L20.8276 13.7355H15.4858L17.1023 11.035ZM31.4869 7.15312L29.87 9.85357H24.5282L26.1451 7.15312H31.4869ZM29.1628 11.035L27.5463 13.7355H22.2045L23.821 11.035H29.1628ZM34.4287 13.7355H28.9228L30.5397 11.035H36.0436L34.4287 13.7355ZM32.1046 17.6173H26.6025L28.219 14.9169H33.7229L32.1046 17.6173ZM25.2239 17.6173H19.8804L21.497 14.9169H26.8388L25.2239 17.6173ZM25.8933 18.7988H31.3958L29.7789 21.4992H24.2767L25.8933 18.7988ZM36.7524 9.85357H31.2469L32.8635 7.15312H38.3676L36.7524 9.85357ZM19.4281 7.15312H24.7682L23.1516 9.85357H17.8095L19.4281 7.15312ZM10.1321 22.6807H15.4723L13.8557 25.3811H8.5139L10.1321 22.6807ZM27.4565 25.3811H21.951L23.5679 22.6807H29.07L27.4565 25.3811ZM37.1379 38.8185H24.882V37.9746H37.1379V38.8185ZM34.6282 36.7932H27.3927V35.9493H34.6295L34.6282 36.7932ZM30.083 34.7679V25.3771H31.9396V34.7679H30.083Z" fill="#89EA5F"></path><path d="M0.590722 6.75111H1.56086C1.66527 7.56785 1.98663 8.34169 2.4915 8.99214L1.80255 9.68109C1.6953 9.79286 1.63613 9.94222 1.63773 10.0971C1.63933 10.252 1.70158 10.4001 1.81111 10.5097C1.92065 10.6192 2.06875 10.6814 2.22365 10.683C2.37855 10.6846 2.5279 10.6255 2.63968 10.5182L3.32863 9.82927C3.97908 10.3341 4.75292 10.6555 5.56966 10.7599V11.73C5.56966 11.8867 5.6319 12.037 5.74268 12.1477C5.85346 12.2585 6.00372 12.3208 6.16038 12.3208C6.31705 12.3208 6.46731 12.2585 6.57809 12.1477C6.68887 12.037 6.75111 11.8867 6.75111 11.73V10.7599C7.56785 10.6555 8.34169 10.3341 8.99214 9.82927L9.68109 10.5182C9.73563 10.5751 9.80097 10.6205 9.87328 10.6517C9.94559 10.683 10.0234 10.6995 10.1022 10.7004C10.181 10.7012 10.2591 10.6863 10.3321 10.6565C10.405 10.6267 10.4713 10.5827 10.527 10.527C10.5827 10.4713 10.6267 10.405 10.6565 10.3321C10.6863 10.2591 10.7012 10.181 10.7004 10.1022C10.6995 10.0234 10.683 9.94559 10.6517 9.87328C10.6205 9.80097 10.5751 9.73563 10.5182 9.68109L9.82927 8.99214C10.3341 8.34169 10.6555 7.56785 10.7599 6.75111H11.73C11.8867 6.75111 12.037 6.68887 12.1477 6.57809C12.2585 6.46731 12.3208 6.31705 12.3208 6.16038C12.3208 6.00372 12.2585 5.85346 12.1477 5.74268C12.037 5.6319 11.8867 5.56966 11.73 5.56966H10.7599C10.6555 4.75292 10.3341 3.97908 9.82927 3.32863L10.5182 2.63968C10.5751 2.58514 10.6205 2.5198 10.6517 2.44749C10.683 2.37518 10.6995 2.29736 10.7004 2.21858C10.7012 2.1398 10.6863 2.06165 10.6565 1.98871C10.6267 1.91577 10.5827 1.8495 10.527 1.7938C10.4713 1.73809 10.405 1.69406 10.3321 1.66429C10.2591 1.63452 10.181 1.6196 10.1022 1.62041C10.0234 1.62123 9.94559 1.63776 9.87328 1.66903C9.80097 1.70031 9.73563 1.7457 9.68109 1.80255L8.99214 2.49116C8.34158 1.98654 7.56777 1.66532 6.75111 1.56086V0.590722C6.75111 0.434053 6.68887 0.2838 6.57809 0.173018C6.46731 0.0622366 6.31705 0 6.16038 0C6.00372 0 5.85346 0.0622366 5.74268 0.173018C5.6319 0.2838 5.56966 0.434053 5.56966 0.590722V1.56086C4.75299 1.66532 3.97919 1.98654 3.32863 2.49116L2.63968 1.80255C2.5279 1.6953 2.37855 1.63613 2.22365 1.63773C2.06875 1.63933 1.92065 1.70158 1.81111 1.81111C1.70158 1.92065 1.63933 2.06875 1.63773 2.22365C1.63613 2.37855 1.6953 2.5279 1.80255 2.63968L2.4915 3.32863C1.98663 3.97908 1.66527 4.75292 1.56086 5.56966H0.590722C0.434053 5.56966 0.2838 5.6319 0.173018 5.74268C0.0622366 5.85346 0 6.00372 0 6.16038C0 6.31705 0.0622366 6.46731 0.173018 6.57809C0.2838 6.68887 0.434053 6.75111 0.590722 6.75111ZM6.16038 2.70044C6.8447 2.70044 7.51364 2.90336 8.08262 3.28355C8.65161 3.66373 9.09508 4.2041 9.35695 4.83632C9.61883 5.46854 9.68735 6.16422 9.55384 6.83539C9.42034 7.50655 9.09081 8.12305 8.60693 8.60693C8.12305 9.09081 7.50655 9.42034 6.83539 9.55384C6.16422 9.68735 5.46854 9.61883 4.83632 9.35695C4.2041 9.09508 3.66373 8.65161 3.28355 8.08262C2.90336 7.51364 2.70044 6.8447 2.70044 6.16038C2.70143 5.24305 3.06627 4.36357 3.71492 3.71492C4.36357 3.06627 5.24305 2.70143 6.16038 2.70044Z" fill="#89EA5F"></path><path d="M2.77822 34.1777C2.62155 34.1777 2.4713 34.24 2.36052 34.3508C2.24974 34.4615 2.1875 34.6118 2.1875 34.7685V36.8782C2.1875 37.0348 2.24974 37.1851 2.36052 37.2959C2.4713 37.4067 2.62155 37.4689 2.77822 37.4689C2.93489 37.4689 3.08514 37.4067 3.19593 37.2959C3.30671 37.1851 3.36894 37.0348 3.36894 36.8782V34.7685C3.36899 34.6909 3.35374 34.614 3.32407 34.5423C3.2944 34.4707 3.25089 34.4055 3.19602 34.3507C3.14116 34.2958 3.07602 34.2523 3.00433 34.2226C2.93264 34.1929 2.85581 34.1777 2.77822 34.1777Z" fill="#89EA5F"></path><path d="M8.18834 34.7686H7.58479L8.02969 33.4859C8.07991 33.3381 8.06962 33.1765 8.00106 33.0363C7.93251 32.8961 7.81127 32.7887 7.66381 32.7376C7.51635 32.6865 7.35467 32.6959 7.21407 32.7636C7.07346 32.8313 6.96537 32.9519 6.91339 33.0991L6.19676 35.1666C6.16585 35.2556 6.15667 35.3507 6.17001 35.4439C6.18334 35.5372 6.2188 35.6259 6.27342 35.7026C6.32803 35.7794 6.40022 35.842 6.48396 35.8851C6.56769 35.9283 6.66054 35.9508 6.75474 35.9507H7.35829L6.91339 37.2334C6.88797 37.3067 6.87723 37.3843 6.8818 37.4617C6.88636 37.5391 6.90614 37.6149 6.93999 37.6847C6.97385 37.7544 7.02112 37.8169 7.07911 37.8684C7.1371 37.9199 7.20466 37.9594 7.27795 37.9848C7.34003 38.007 7.40545 38.0184 7.47137 38.0186C7.59418 38.0186 7.71392 37.9803 7.81398 37.9091C7.91404 37.8379 7.98943 37.7373 8.02969 37.6213L8.74632 35.5538C8.77723 35.4648 8.78641 35.3697 8.77307 35.2764C8.75974 35.1832 8.72428 35.0945 8.66966 35.0177C8.61505 34.941 8.54286 34.8784 8.45912 34.8352C8.37539 34.7921 8.28254 34.7696 8.18834 34.7696V34.7686Z" fill="#89EA5F"></path></svg>