<svg xmlns="http://www.w3.org/2000/svg" width="40" height="40" viewBox="0 0 40 40" fill="none"><path fill-rule="evenodd" clip-rule="evenodd" d="M30.7148 4.28613C27.9553 4.28613 25.7148 6.52659 25.7148 9.28609C25.7148 12.0456 27.9553 14.2861 30.7148 14.2861C33.4743 14.2861 35.7148 12.0456 35.7148 9.28609C35.7148 6.52659 33.4743 4.28613 30.7148 4.28613ZM30.7148 5.71469C32.6857 5.71469 34.2862 7.31516 34.2862 9.28609C34.2862 11.257 32.6857 12.8575 30.7148 12.8575C28.7439 12.8575 27.1434 11.257 27.1434 9.28609C27.1434 7.31516 28.7439 5.71469 30.7148 5.71469Z" fill="white"></path><path fill-rule="evenodd" clip-rule="evenodd" d="M31.4286 17.8567V16.4281C31.4286 16.0339 31.1085 15.7139 30.7143 15.7139C30.3201 15.7139 30 16.0339 30 16.4281V17.8567C30 18.251 30.3201 18.571 30.7143 18.571C31.1085 18.571 31.4286 18.251 31.4286 17.8567Z" fill="white"></path><path fill-rule="evenodd" clip-rule="evenodd" d="M37.6478 15.2098L36.2192 13.7812C35.9405 13.5026 35.4878 13.5026 35.209 13.7812C34.9303 14.0598 34.9303 14.5126 35.209 14.7912L36.6376 16.2197C36.9164 16.4983 37.369 16.4983 37.6478 16.2197C37.9265 15.9412 37.9265 15.4883 37.6478 15.2098Z" fill="white"></path><path fill-rule="evenodd" clip-rule="evenodd" d="M39.2854 8.57129H37.8569C37.4626 8.57129 37.1426 8.89129 37.1426 9.28557C37.1426 9.67985 37.4626 9.99985 37.8569 9.99985H39.2854C39.6796 9.99985 39.9997 9.67985 39.9997 9.28557C39.9997 8.89129 39.6796 8.57129 39.2854 8.57129Z" fill="white"></path><path fill-rule="evenodd" clip-rule="evenodd" d="M36.6376 2.35248L35.209 3.78104C34.9303 4.05961 34.9303 4.51246 35.209 4.79103C35.4878 5.0696 35.9405 5.0696 36.2192 4.79103L37.6478 3.36247C37.9265 3.0839 37.9265 2.63105 37.6478 2.35248C37.369 2.07391 36.9164 2.07391 36.6376 2.35248Z" fill="white"></path><path fill-rule="evenodd" clip-rule="evenodd" d="M26.2191 3.78104L24.7905 2.35248C24.5118 2.07391 24.0591 2.07391 23.7803 2.35248C23.5016 2.63105 23.5016 3.0839 23.7803 3.36247L25.2089 4.79103C25.4877 5.0696 25.9403 5.0696 26.2191 4.79103C26.4978 4.51246 26.4978 4.05961 26.2191 3.78104Z" fill="white"></path><path fill-rule="evenodd" clip-rule="evenodd" d="M30 0.714384V2.14292C30 2.53721 30.3201 2.8573 30.7143 2.8573C31.1085 2.8573 31.4286 2.53721 31.4286 2.14292V0.714384C31.4286 0.320087 31.1085 0 30.7143 0C30.3201 0 30 0.320087 30 0.714384Z" fill="white"></path><path fill-rule="evenodd" clip-rule="evenodd" d="M25.2089 13.7812L23.7803 15.2098C23.5016 15.4883 23.5016 15.9412 23.7803 16.2197C24.0591 16.4983 24.5118 16.4983 24.7905 16.2197L26.2191 14.7912C26.4978 14.5126 26.4978 14.0598 26.2191 13.7812C25.9403 13.5026 25.4877 13.5026 25.2089 13.7812Z" fill="white"></path><path fill-rule="evenodd" clip-rule="evenodd" d="M23.5716 8.57129H22.143C21.7488 8.57129 21.4287 8.89129 21.4287 9.28557C21.4287 9.67985 21.7488 9.99985 22.143 9.99985H23.5716C23.9658 9.99985 24.2858 9.67985 24.2858 9.28557C24.2858 8.89129 23.9658 8.57129 23.5716 8.57129Z" fill="white"></path><path fill-rule="evenodd" clip-rule="evenodd" d="M1.94218 21.4288L0.0214778 13.7453C-0.0320932 13.5317 0.0157633 13.3053 0.151476 13.1324C0.286475 12.9588 0.494331 12.8574 0.714329 12.8574H22.1427C22.537 12.8574 22.857 13.1774 22.857 13.5717C22.857 13.966 22.537 14.286 22.1427 14.286H16.6292L18.4149 21.4288H24.7998L24.1284 18.7452C24.0327 18.3624 24.2656 17.9745 24.6484 17.8788C25.0306 17.7831 25.4191 18.0159 25.5148 18.3981L26.272 21.4288H31.9419L31.8069 20.8881C31.7112 20.5052 31.9441 20.1174 32.3262 20.0216C32.7091 19.9259 33.0969 20.1588 33.1926 20.5409L33.4148 21.4288H34.2855C34.6798 21.4288 34.9998 21.7488 34.9998 22.1431C34.9998 22.5373 34.6798 22.8573 34.2855 22.8573H33.7719L35.6926 30.5408C35.7462 30.7544 35.6983 30.9808 35.5626 31.1537C35.4276 31.3273 35.2197 31.4287 34.9998 31.4287H20.7142V38.5715H39.2854C39.6797 38.5715 39.9997 38.8915 39.9997 39.2858C39.9997 39.6801 39.6797 40 39.2854 40H0.714329C0.320047 40 4.92146e-05 39.6801 4.92146e-05 39.2858C4.92146e-05 38.8915 0.320047 38.5715 0.714329 38.5715H14.9999V31.4287H5.00001C4.67215 31.4287 4.38644 31.2058 4.30716 30.888L2.29932 22.8573H1.42861C1.03433 22.8573 0.714329 22.5373 0.714329 22.1431C0.714329 21.7488 1.03433 21.4288 1.42861 21.4288H1.94218ZM16.4285 31.4287V38.5715H19.2856V31.4287H16.4285ZM11.2278 30.0001L9.44211 22.8573H3.77216L5.55786 30.0001H11.2278ZM10.915 22.8573L12.7007 30.0001H19.0849L17.2992 22.8573H10.915ZM18.772 22.8573L20.5577 30.0001H26.942L25.1563 22.8573H18.772ZM32.2991 22.8573H26.6291L28.4148 30.0001H34.0848L32.2991 22.8573ZM1.62932 14.286L3.41502 21.4288H9.08569L7.29999 14.286H1.62932ZM8.77212 14.286L10.5578 21.4288H16.9428L15.1571 14.286H8.77212Z" fill="white"></path></svg>