<svg xmlns="http://www.w3.org/2000/svg" width="40" height="40" viewBox="0 0 40 40" fill="none"><path d="M39.9727 29.0805L36.0664 16.5805C36.0287 16.4619 35.9543 16.3584 35.8539 16.2849C35.7535 16.2114 35.6322 16.1718 35.5078 16.1719H31.6797C32.0941 14.9247 32.3052 13.6189 32.3047 12.3047C32.3047 5.51953 26.7852 0 20 0C13.2148 0 7.69531 5.51953 7.69531 12.3047C7.69485 13.6189 7.90588 14.9247 8.32031 16.1719H4.49219C4.36733 16.1718 4.24573 16.2117 4.14511 16.2856C4.04448 16.3595 3.9701 16.4637 3.93281 16.5828L0.0265642 29.0828C0.00881591 29.1394 -0.000142379 29.1985 1.71085e-06 29.2578V33.1641C1.71085e-06 33.3195 0.0617342 33.4685 0.171619 33.5784C0.281503 33.6883 0.430539 33.75 0.585939 33.75H10.8203V36.4844H7.5C7.0338 36.4844 6.58669 36.6696 6.25704 36.9992C5.92739 37.3289 5.74219 37.776 5.74219 38.2422C5.74219 38.7084 5.92739 39.1555 6.25704 39.4851C6.58669 39.8148 7.0338 40 7.5 40H32.5C32.9662 40 33.4133 39.8148 33.743 39.4851C34.0726 39.1555 34.2578 38.7084 34.2578 38.2422C34.2578 37.776 34.0726 37.3289 33.743 36.9992C33.4133 36.6696 32.9662 36.4844 32.5 36.4844H29.1797V33.75H39.4141C39.5695 33.75 39.7185 33.6883 39.8284 33.5784C39.9383 33.4685 40 33.3195 40 33.1641V29.2578C40.0001 29.1976 39.9909 29.1378 39.9727 29.0805ZM1.38281 28.6719L2.96875 23.5938H9.20938L7.93985 28.6719H1.38281ZM10.4188 23.5938H15.1063C16.6502 24.2637 18.3154 24.6094 19.9984 24.6094C21.6815 24.6094 23.3466 24.2637 24.8906 23.5938H29.5781L30.8477 28.6719H9.14922L10.4188 23.5938ZM13.0055 22.4219H10.7117L11.1148 20.8086C11.6896 21.4081 12.323 21.9486 13.0055 22.4219ZM28.8852 20.8086L29.2883 22.4219H26.9945C27.677 21.9486 28.3104 21.4081 28.8852 20.8086ZM32.0594 28.6719L30.7898 23.5938H37.0313L38.618 28.6719H32.0594ZM35.0781 17.3438L36.6648 22.4219H30.4969L29.8188 19.7117C30.3744 18.9774 30.8461 18.1831 31.225 17.3438H35.0781ZM20 1.17188C26.1383 1.17188 31.1328 6.16641 31.1328 12.3047C31.1328 18.443 26.1383 23.4375 20 23.4375C13.8617 23.4375 8.86719 18.443 8.86719 12.3047C8.86719 6.16641 13.8617 1.17188 20 1.17188ZM4.92188 17.3438H8.77422C9.1531 18.1831 9.62479 18.9774 10.1805 19.7117L9.50313 22.4219H3.33594L4.92188 17.3438ZM11.9922 33.75H13.9453V36.4844H11.9922V33.75ZM15.1172 36.4844V33.75H24.8828V36.4844H15.1172ZM33.0859 38.2422C33.0859 38.3976 33.0242 38.5466 32.9143 38.6565C32.8044 38.7664 32.6554 38.8281 32.5 38.8281H7.5C7.3446 38.8281 7.19557 38.7664 7.08568 38.6565C6.9758 38.5466 6.91406 38.3976 6.91406 38.2422C6.91406 38.0868 6.9758 37.9378 7.08568 37.8279C7.19557 37.718 7.3446 37.6562 7.5 37.6562H32.5C32.6554 37.6562 32.8044 37.718 32.9143 37.8279C33.0242 37.9378 33.0859 38.0868 33.0859 38.2422ZM28.0078 36.4844H26.0547V33.75H28.0078V36.4844ZM38.8281 32.5781H1.17188V29.8438H38.8281V32.5781Z" fill="#89EA5F"></path><path d="M2.92969 31.7969H3.71094C3.86634 31.7969 4.01537 31.7351 4.12526 31.6253C4.23514 31.5154 4.29688 31.3663 4.29688 31.2109C4.29688 31.0555 4.23514 30.9065 4.12526 30.7966C4.01537 30.6867 3.86634 30.625 3.71094 30.625H2.92969C2.77429 30.625 2.62525 30.6867 2.51537 30.7966C2.40548 30.9065 2.34375 31.0555 2.34375 31.2109C2.34375 31.3663 2.40548 31.5154 2.51537 31.6253C2.62525 31.7351 2.77429 31.7969 2.92969 31.7969Z" fill="#89EA5F"></path><path d="M6.05469 31.7969H6.83594C6.99134 31.7969 7.14037 31.7351 7.25026 31.6253C7.36014 31.5154 7.42188 31.3663 7.42188 31.2109C7.42188 31.0555 7.36014 30.9065 7.25026 30.7966C7.14037 30.6867 6.99134 30.625 6.83594 30.625H6.05469C5.89929 30.625 5.75025 30.6867 5.64037 30.7966C5.53048 30.9065 5.46875 31.0555 5.46875 31.2109C5.46875 31.3663 5.53048 31.5154 5.64037 31.6253C5.75025 31.7351 5.89929 31.7969 6.05469 31.7969Z" fill="#89EA5F"></path><path d="M14.0625 20.2995C14.0785 20.3108 14.0952 20.3212 14.1125 20.3307C16.1376 21.8174 18.6494 22.4847 21.1454 22.199C23.6413 21.9133 25.9374 20.6958 27.5742 18.7899C29.2111 16.884 30.0679 14.4304 29.9734 11.92C29.8789 9.40947 28.84 7.02722 27.0646 5.24981C25.2891 3.4724 22.908 2.43089 20.3976 2.33365C17.8872 2.23641 15.4327 3.0906 13.525 4.72534C11.6174 6.36008 10.3973 8.65482 10.1089 11.1505C9.82049 13.6461 10.485 16.1587 11.9695 18.1854C11.9812 18.2057 11.9945 18.2261 12.0085 18.2456C12.5896 19.0265 13.2815 19.7185 14.0625 20.2995ZM16.8492 13.9456L15.9992 10.6745C15.9695 10.5614 15.9698 10.4426 16.0001 10.3297C16.0303 10.2168 16.0895 10.1138 16.1718 10.0307L19.4968 6.70574L21.132 7.13074L17.9289 10.3339C17.8567 10.4061 17.8046 10.4959 17.7779 10.5944C17.7512 10.693 17.7507 10.7968 17.7765 10.8956L18.4375 13.4479C18.4636 13.5489 18.5163 13.641 18.5901 13.7148C18.6639 13.7886 18.756 13.8413 18.857 13.8675L21.4062 14.5307C21.505 14.5566 21.6088 14.5561 21.7073 14.5294C21.8059 14.5026 21.8957 14.4506 21.9679 14.3784L25.171 11.1753L25.5984 12.812L22.2734 16.1339C22.1906 16.2166 22.0877 16.2762 21.9748 16.3069C21.8619 16.3376 21.7429 16.3383 21.6296 16.3089L18.3593 15.4589C18.2602 15.4336 18.1562 15.4348 18.0577 15.4622C17.9591 15.4896 17.8695 15.5423 17.7976 15.6151L14.3656 19.0472C13.9656 18.7121 13.596 18.3424 13.2609 17.9425L16.6929 14.5104C16.7657 14.438 16.8181 14.3476 16.8449 14.2484C16.8716 14.1493 16.8718 14.0448 16.8453 13.9456H16.8492ZM20 3.51512C21.3625 3.5143 22.7065 3.83028 23.926 4.43809C25.1454 5.0459 26.2068 5.92891 27.0264 7.01737C27.846 8.10583 28.4013 9.36994 28.6485 10.7099C28.8956 12.0498 28.8279 13.4288 28.4506 14.738C28.0733 16.0473 27.3967 17.2509 26.4744 18.2538C25.5521 19.2566 24.4092 20.0314 23.136 20.5167C21.8629 21.0021 20.4943 21.1848 19.1385 21.0504C17.7826 20.916 16.4765 20.4683 15.3234 19.7425L18.3882 16.6776L21.3343 17.4432C21.6454 17.5235 21.972 17.5214 22.2819 17.4371C22.5919 17.3529 22.8746 17.1894 23.1023 16.9628L26.664 13.4003C26.7368 13.3284 26.7896 13.2388 26.817 13.1402C26.8444 13.0417 26.8455 12.9377 26.8203 12.8386L26.0531 9.88856C26.0271 9.78866 25.9753 9.69739 25.9027 9.62399C25.8301 9.55058 25.7395 9.49764 25.6399 9.47052C25.5403 9.44341 25.4353 9.44308 25.3356 9.46956C25.2358 9.49605 25.1448 9.54842 25.0718 9.62137L21.3804 13.3128L19.4843 12.8198L18.9914 10.9268L22.6828 7.23543C22.7557 7.16242 22.8081 7.07143 22.8346 6.97168C22.8611 6.87192 22.8607 6.76694 22.8336 6.66736C22.8065 6.56777 22.7536 6.47711 22.6802 6.40456C22.6067 6.33201 22.5155 6.28013 22.4156 6.25418L19.4656 5.48699C19.3665 5.46174 19.2625 5.46288 19.1639 5.49029C19.0654 5.5177 18.9757 5.57044 18.9039 5.64324L15.3414 9.20496C15.1147 9.43262 14.9513 9.71534 14.867 10.0253C14.7828 10.3353 14.7807 10.6619 14.8609 10.9729L15.6265 13.919L12.5617 16.9839C11.7239 15.6544 11.2581 14.1245 11.2127 12.5537C11.1674 10.983 11.5442 9.42879 12.3039 8.05319C13.0636 6.6776 14.1783 5.53095 15.532 4.73277C16.8856 3.93459 18.4285 3.5141 20 3.51512Z" fill="#89EA5F"></path></svg>