<svg xmlns="http://www.w3.org/2000/svg" width="18" height="20" viewBox="0 0 18 20" fill="none"><path d="M17.5 7.5V17.5C17.5 18.8789 16.3789 20 15 20H2.5C1.12109 20 0 18.8789 0 17.5V7.5V5.625V5C0 3.62109 1.12109 2.5 2.5 2.5H4.0625V0.9375C4.0625 0.417969 4.48047 0 5 0C5.51953 0 5.9375 0.417969 5.9375 0.9375V2.5H11.5625V0.9375C11.5625 0.417969 11.9805 0 12.5 0C13.0195 0 13.4375 0.417969 13.4375 0.9375V2.5H15C16.3789 2.5 17.5 3.62109 17.5 5V5.625V7.5ZM15.625 17.5V15.9375H12.5V18.125H15C15.3438 18.125 15.625 17.8438 15.625 17.5ZM15.625 14.0625V11.5625H12.5V14.0625H15.625ZM15.625 9.6875V7.5H12.5V9.6875H15.625ZM10.625 18.125V15.9375H6.875V18.125H10.625ZM10.625 14.0625V11.5625H6.875V14.0625H10.625ZM10.625 9.6875V7.5H6.875V9.6875H10.625ZM5 18.125V15.9375H1.875V17.5C1.875 17.8438 2.15625 18.125 2.5 18.125H5ZM5 14.0625V11.5625H1.875V14.0625H5ZM5 9.6875V7.5H1.875V9.6875H5Z" fill="#89EA5F"></path></svg>