<svg xmlns="http://www.w3.org/2000/svg" width="61" height="61" viewBox="0 0 61 61" fill="none"><path d="M10.4614 24.1559C10.3412 23.6147 10.7019 23.0736 11.223 22.9534C11.7641 22.8532 12.3052 23.1939 12.4255 23.735C12.5457 24.2761 12.185 24.7972 11.6439 24.9174C11.5837 24.9375 11.5236 24.9375 11.4434 24.9375C10.9825 24.9375 10.5616 24.6168 10.4614 24.1559ZM48.48 24.8774C47.9389 24.7771 47.5981 24.236 47.7184 23.6949C47.8186 23.1538 48.3597 22.8131 48.9008 22.9133C49.442 23.0335 49.7827 23.5747 49.6624 24.1158C49.5622 24.5767 49.1614 24.8974 48.6804 24.8974C48.6203 24.8974 48.5601 24.8974 48.48 24.8774ZM10.0205 19.9873C10.0205 19.4261 10.4614 18.9852 11.0226 18.9852C11.5837 18.9852 12.0246 19.4261 12.0246 19.9873C12.0246 20.5284 11.5837 20.9893 11.0226 20.9893C10.4815 20.9893 10.0205 20.5484 10.0205 19.9873ZM48.0992 19.9472C48.0992 19.9271 48.0992 19.9071 48.0992 19.867C48.0992 19.3259 48.5401 18.8649 49.1012 18.8649C49.6424 18.8649 50.1033 19.3058 50.1033 19.867V19.9071V19.9472C50.1033 20.5083 49.6624 20.9492 49.1012 20.9492C48.5401 20.9492 48.0992 20.5083 48.0992 19.9472ZM11.223 17.0011C10.6819 16.9009 10.3412 16.3598 10.4414 15.8186C10.5616 15.2775 11.0827 14.9368 11.6238 15.0571C12.1649 15.1573 12.5257 15.6984 12.4054 16.2395C12.3052 16.7005 11.8844 17.0211 11.4234 17.0211C11.3633 17.0211 11.2831 17.0211 11.223 17.0011ZM47.6983 16.1193C47.5781 15.5781 47.9188 15.0571 48.4599 14.9368C49.001 14.8166 49.5422 15.1573 49.6624 15.6984C49.7626 16.2395 49.4219 16.7806 48.8808 16.9009C48.8207 16.9009 48.7405 16.9209 48.6804 16.9209C48.1994 16.9209 47.7986 16.6003 47.6983 16.1193ZM12.2451 13.1531C11.7441 12.9327 11.5036 12.3314 11.724 11.8304C11.9645 11.3294 12.5457 11.1089 13.0468 11.3294C13.5478 11.5498 13.7883 12.131 13.5678 12.6521C13.3875 13.0128 13.0267 13.2533 12.6459 13.2533C12.5056 13.2533 12.3654 13.2133 12.2451 13.1531ZM46.5159 12.5519C46.2955 12.0509 46.5159 11.4496 47.0169 11.2292C47.518 10.9887 48.1192 11.2091 48.3397 11.7302C48.5802 12.2312 48.3397 12.8124 47.8386 13.0529C47.6984 13.113 47.5581 13.1331 47.4378 13.1331C47.057 13.1331 46.6762 12.9126 46.5159 12.5519ZM14.0488 9.6058C13.5879 9.28514 13.4877 8.64381 13.8284 8.2029C14.149 7.76199 14.7703 7.66179 15.2112 7.98245C15.6722 8.30311 15.7724 8.92439 15.4317 9.38535C15.2513 9.64588 14.9307 9.78617 14.63 9.78617C14.4296 9.78617 14.2292 9.72605 14.0488 9.6058ZM44.612 9.28514C44.2913 8.84423 44.3915 8.22294 44.8324 7.88224C45.2733 7.56158 45.9147 7.66179 46.2353 8.1027C46.556 8.54361 46.4558 9.18493 46.0149 9.50559C45.8345 9.64588 45.6341 9.70601 45.4337 9.70601C45.113 9.70601 44.8124 9.56572 44.612 9.28514ZM16.534 6.49938C16.1732 6.09856 16.1933 5.45723 16.6141 5.09649C17.015 4.7157 17.6563 4.75578 18.0371 5.15661C18.3978 5.55744 18.3778 6.19876 17.9569 6.57955C17.7565 6.73988 17.516 6.84009 17.2755 6.84009C17.015 6.84009 16.7344 6.71984 16.534 6.49938ZM42.0868 6.49938C41.6659 6.13864 41.6258 5.49731 42.0066 5.07644C42.3673 4.67562 43.0087 4.63553 43.4295 5.01632C43.8304 5.37706 43.8704 5.99835 43.4897 6.41922C43.3093 6.63967 43.0287 6.75992 42.7481 6.75992C42.5076 6.75992 42.2671 6.67976 42.0868 6.49938ZM19.6203 3.99421C19.3598 3.51321 19.5201 2.89193 20.0011 2.61135C20.4621 2.33077 21.0834 2.4911 21.3639 2.9721C21.6445 3.45309 21.4842 4.07437 21.0032 4.35495C20.8429 4.43512 20.6625 4.4752 20.5022 4.4752C20.1414 4.4752 19.8208 4.31487 19.6203 3.99421ZM39.0204 4.29483C38.5394 4.01425 38.3791 3.41301 38.6597 2.93201C38.9403 2.45102 39.5415 2.27065 40.0225 2.55123C40.5035 2.83181 40.6638 3.43305 40.4033 3.91404C40.2029 4.25475 39.8622 4.41508 39.5215 4.41508C39.3611 4.41508 39.1808 4.37499 39.0204 4.29483ZM23.1677 2.17044C23.0073 1.62932 23.2879 1.06816 23.809 0.907831C24.3301 0.727459 24.9113 1.00804 25.0716 1.52911C25.252 2.07023 24.9714 2.63139 24.4303 2.81176C24.3301 2.83181 24.2299 2.85185 24.1297 2.85185C23.7088 2.85185 23.308 2.59131 23.1677 2.17044ZM35.5733 2.77168C35.0522 2.59131 34.7716 2.03015 34.932 1.50907C35.0923 0.987997 35.6735 0.687376 36.1946 0.867748C36.7157 1.02808 37.0163 1.58924 36.8359 2.13036C36.6956 2.55123 36.3148 2.81176 35.894 2.81176C35.7938 2.81176 35.6735 2.79172 35.5733 2.77168ZM27.0156 1.12829C26.9555 0.567127 27.3563 0.0861335 27.8974 0.0260093C28.4586 -0.0341149 28.9596 0.366713 28.9997 0.907831C29.0799 1.46899 28.6791 1.94998 28.1179 2.01011C28.0778 2.01011 28.0578 2.01011 28.0177 2.01011C27.4966 2.01011 27.0757 1.62932 27.0156 1.12829ZM31.8857 1.99007C31.3446 1.94998 30.9437 1.44895 31.0039 0.907831C31.0439 0.346672 31.545 -0.0541563 32.0861 0.00596788C32.6473 0.0660921 33.0481 0.547086 32.988 1.10825C32.9479 1.62932 32.507 2.01011 31.9859 2.01011C31.9658 2.01011 31.9258 2.01011 31.8857 1.99007Z" fill="#89EA5F"></path><path d="M27.0556 46.001C26.5025 46.001 26.0536 45.5521 26.0536 44.9989V44.071C26.0536 39.8483 23.1375 36.1667 18.9609 35.1165C18.4238 34.9822 18.0991 34.4371 18.2334 33.9C18.3677 33.3629 18.9108 33.0342 19.4499 33.1725C24.5184 34.4471 28.0577 38.9284 28.0577 44.071V44.9989C28.0577 45.5521 27.6088 46.001 27.0556 46.001Z" fill="#89EA5F"></path><path d="M15.556 38.8202C15.2994 38.8202 15.0429 38.722 14.8465 38.5276L6.05432 29.7495C5.86593 29.5611 5.76172 29.3065 5.76172 29.04C5.76172 28.7754 5.86794 28.5189 6.05432 28.3305C8.81202 25.5728 12.209 25.8073 15.3716 28.9719L19.8889 33.4812C20.2817 33.872 20.2817 34.5073 19.8909 34.8981C19.5001 35.2909 18.8648 35.2889 18.474 34.9001L13.9546 30.3908C11.8984 28.3325 9.97843 27.8996 8.23884 29.1001L16.2594 37.1087C16.6502 37.4995 16.6502 38.1348 16.2594 38.5276C16.069 38.722 15.8125 38.8202 15.556 38.8202Z" fill="#89EA5F"></path><path d="M10.0205 49.1735V54.0175H12.0246V50.0093H26.0536V54.0175H28.0578V49.1735C28.0578 48.6204 27.5668 48.0051 27.0136 48.0051H10.9805C10.4233 48.0051 10.0205 48.6224 10.0205 49.1735Z" fill="#89EA5F"></path><path d="M8.0166 59.0279C8.0166 59.5791 8.46553 60.03 9.01867 60.03C9.57181 60.03 10.0207 59.5791 10.0207 59.0279V54.0176H26.0539V59.0259C26.0539 59.5791 26.5028 60.028 27.0559 60.028C27.6091 60.03 28.058 59.5791 28.058 59.0259V53.1818C28.058 52.6287 27.567 52.0134 27.0139 52.0134H8.97659C8.42144 52.0134 8.0166 52.6287 8.0166 53.1818V59.0279Z" fill="#89EA5F"></path><path d="M33.0685 46.0011C32.5153 46.0011 32.0664 45.5522 32.0664 44.9991V44.0711C32.0664 38.9285 35.6057 34.4473 40.6742 33.1726C41.2113 33.0383 41.7564 33.363 41.8907 33.9001C42.025 34.4372 41.7003 34.9824 41.1632 35.1166C36.9866 36.1668 34.0705 39.8484 34.0705 44.0711V44.9991C34.0705 45.5522 33.6216 46.0011 33.0685 46.0011Z" fill="#89EA5F"></path><path d="M44.5683 38.8201C44.3118 38.8201 44.0553 38.7219 43.8589 38.5275C43.4681 38.1347 43.4681 37.5014 43.8589 37.1086L51.8794 29.1C50.1378 27.8996 48.2219 28.3325 46.1656 30.3907L41.6463 34.9C41.2555 35.2888 40.6202 35.2908 40.2294 34.898C39.8386 34.5072 39.8386 33.8719 40.2314 33.4811L44.7507 28.9718C47.9173 25.8072 51.3123 25.5748 54.068 28.3305C54.2564 28.5188 54.3606 28.7734 54.3606 29.0399C54.3606 29.3065 54.2544 29.561 54.068 29.7494L45.2758 38.5275C45.0814 38.7219 44.8249 38.8201 44.5683 38.8201Z" fill="#89EA5F"></path><path d="M16.0331 46.9268C16.0331 46.6182 15.8908 46.3276 15.6503 46.1372L8.51559 40.5456C7.89631 40.0526 6.98844 38.9884 6.69583 38.289L2.00414 27.3825L1.97608 18.0812C2.0823 17.8928 2.74567 17.478 3.50123 17.5882C4.65562 17.7425 5.19874 18.9791 5.45126 19.9852C5.82203 21.4722 5.90821 22.7829 5.99038 24.0215C6.02645 24.5726 6.49542 24.9534 7.05257 24.9134C7.60571 24.8773 8.02057 24.3582 7.9845 23.8071C7.90233 22.5665 7.81014 21.1636 7.39728 19.5022C6.59563 16.3036 4.49328 15.3837 2.77774 15.5981C1.41292 15.7665 0 16.6844 0 17.9309V27.5889C0 27.7252 0.028058 27.8594 0.0821698 27.9857L4.85202 39.0746C5.29294 40.1248 6.42728 41.4455 7.27303 42.1189L14.029 47.4138V50.0092H16.0331V46.9268Z" fill="#89EA5F"></path><path d="M44.0908 46.927C44.0908 46.6184 44.2331 46.3278 44.4736 46.1374L51.6084 40.5458C52.2276 40.0528 53.1355 38.9886 53.4281 38.2892L58.1198 27.3827L58.1479 18.0814C58.0416 17.893 57.3763 17.4782 56.6207 17.5884C55.4663 17.7427 54.9232 18.9773 54.6707 19.9854C54.2999 21.4724 54.2137 22.7832 54.1316 24.0217C54.0955 24.5728 53.6265 24.9536 53.0694 24.9136C52.5162 24.8775 52.1014 24.3584 52.1374 23.8073C52.2196 22.5667 52.3118 21.1638 52.7247 19.5024C53.5243 16.3038 55.6267 15.3839 57.3422 15.6003C58.711 15.7667 60.1239 16.6846 60.1239 17.9311V27.5891C60.1239 27.7254 60.0959 27.8596 60.0418 27.9859L55.2719 39.0748C54.831 40.125 53.6967 41.4457 52.8509 42.1191L46.095 47.414V50.0094H44.0908V46.927Z" fill="#89EA5F"></path><path d="M50.1037 49.1735V54.0175H48.0995V50.0093H34.0705V54.0175H32.0664V49.1735C32.0664 48.6204 32.5574 48.0051 33.1106 48.0051H49.1437C49.7008 48.0051 50.1037 48.6224 50.1037 49.1735Z" fill="#89EA5F"></path><path d="M52.1078 59.0279C52.1078 59.5791 51.6589 60.03 51.1057 60.03C50.5526 60.03 50.1037 59.5791 50.1037 59.0279V54.0176H34.0705V59.0259C34.0705 59.5791 33.6216 60.028 33.0685 60.028C32.5153 60.03 32.0664 59.5791 32.0664 59.0259V53.1818C32.0664 52.6287 32.5574 52.0134 33.1106 52.0134H51.1478C51.703 52.0134 52.1078 52.6287 52.1078 53.1818V59.0279Z" fill="#89EA5F"></path><path d="M27.0564 33.9762C26.9321 33.9762 26.8059 33.9541 26.6856 33.908C26.2347 33.7277 25.9762 33.2547 26.0724 32.7797L27.838 23.9555H23.0481C22.6834 23.9555 22.3487 23.7571 22.1703 23.4404C21.9939 23.1218 22.004 22.731 22.1984 22.4223L32.2191 6.38919C32.4756 5.97834 32.9927 5.814 33.4376 5.99036C33.8885 6.16873 34.145 6.64171 34.0508 7.1187L32.0467 17.1394C31.9385 17.6825 31.4174 18.0393 30.8683 17.925C30.3251 17.8168 29.9744 17.2917 30.0806 16.7466L31.0086 12.107L24.8558 21.9513H29.0605C29.3591 21.9513 29.6437 22.0856 29.8361 22.3201C30.0265 22.5506 30.1027 22.8592 30.0446 23.1518L29.1166 27.7894L36.2293 16.4099C36.5219 15.9409 37.1412 15.7966 37.6082 16.0932C38.0772 16.3858 38.2215 17.0031 37.9268 17.4721L27.9061 33.5052C27.7198 33.8078 27.3931 33.9762 27.0564 33.9762Z" fill="#89EA5F"></path></svg>