<svg xmlns="http://www.w3.org/2000/svg" width="31" height="30" viewBox="0 0 31 30" fill="none"><path d="M30.4639 19.9682C30.4432 19.8116 30.3631 19.6719 30.2382 19.5752L20.7827 12.2591C20.573 12.0971 20.3224 12.0113 20.0579 12.0113C19.7931 12.0113 19.5426 12.0971 19.3327 12.2594L17.9026 13.3659V12.0841C17.9026 11.8375 17.7029 11.6378 17.4563 11.6378C17.2097 11.6378 17.01 11.8375 17.01 12.0841V14.0565L9.87784 19.5749C9.75371 19.6707 9.67119 19.815 9.65166 19.9701C9.63144 20.127 9.67352 20.2827 9.76998 20.4085L10.4936 21.3497C10.6073 21.4968 10.7788 21.5812 10.9646 21.5812C11.0952 21.5812 11.2242 21.5373 11.3279 21.4571L20.0579 14.7025L26.6566 19.8081V29.1071H23.0619V28.2703C23.0619 28.0237 22.8622 27.824 22.6156 27.824C22.369 27.824 22.1693 28.0237 22.1693 28.2703V29.1071H17.9458V22.2698H22.1693V26.1727C22.1693 26.4193 22.369 26.619 22.6156 26.619C22.8622 26.619 23.0619 26.4193 23.0619 26.1727V22.121C23.0619 21.7109 22.7281 21.3771 22.3181 21.3771H17.7973C17.387 21.3771 17.0532 21.7109 17.0532 22.121V29.1071H13.6617V27.8898C13.6617 27.4795 13.3282 27.1459 12.9179 27.1459H12.4906C12.5262 26.9683 12.5455 26.7849 12.5455 26.5971C12.5455 25.0525 11.2886 23.7958 9.74395 23.7958C8.90549 23.7958 8.12096 24.1805 7.59631 24.8044C7.39779 24.7417 7.18673 24.7075 6.96775 24.7075C6.8069 24.7075 6.64883 24.7254 6.49518 24.7612C6.00912 23.9285 5.10208 23.393 4.12159 23.393C4.01722 23.393 3.91401 23.3995 3.8122 23.4113V8.47154L10.4111 3.36546L17.0102 8.47154V10.0011C17.0102 10.2477 17.2099 10.4474 17.4565 10.4474C17.7029 10.4474 17.9028 10.2477 17.9028 10.0011V9.16216L19.1414 10.1203C19.2448 10.2005 19.3738 10.2445 19.5044 10.2445C19.6906 10.2445 19.8624 10.1599 19.9756 10.0125C19.9773 10.0104 19.9789 10.0081 19.9805 10.006L20.6737 9.06964L20.6781 9.06406C20.7239 9.00665 20.8455 8.85439 20.8171 8.63147C20.7964 8.4741 20.716 8.33439 20.5914 8.23839L11.1361 0.922376C10.9264 0.760356 10.6759 0.674581 10.4111 0.674581C10.1463 0.674581 9.89574 0.760356 9.68583 0.922608L7.08979 2.93124V2.3687C7.4408 2.30919 7.70905 2.00375 7.70905 1.63624V0.743852C7.70905 0.333571 7.37525 0 6.9652 0H3.34845C2.9384 0 2.6046 0.333571 2.6046 0.743852V1.63601C2.6046 2.00375 2.87285 2.30896 3.22386 2.3687V5.92245L0.231713 8.23769C0.107118 8.33346 0.0245971 8.47805 0.00507106 8.63263C-0.0153848 8.78977 0.0264568 8.94551 0.123157 9.0715L0.846786 10.0127C0.960223 10.1601 1.13177 10.2445 1.31774 10.2445C1.44838 10.2445 1.57715 10.2005 1.68129 10.1203L2.91957 9.16216V23.6738C2.21106 24.0225 1.66549 24.6687 1.46279 25.4569C0.789835 25.7163 0.327484 26.37 0.327484 27.112C0.327484 27.1938 0.333296 27.2743 0.343988 27.3533C0.202424 27.4888 0.114092 27.679 0.114092 27.8898V29.2561C0.114092 29.6662 0.447663 30 0.857943 30H28.8428C29.0894 30 29.2891 29.8001 29.2891 29.5537C29.2891 29.3071 29.0894 29.1074 28.8428 29.1074H27.5492V20.4987L28.7879 21.4571C28.8914 21.5371 29.0204 21.5812 29.151 21.5812C29.3372 21.5812 29.509 21.4966 29.6222 21.349C29.6238 21.3469 29.6255 21.3448 29.6271 21.3427L30.3205 20.4062L30.3252 20.4004C30.3707 20.3432 30.4921 20.1909 30.4639 19.9682ZM9.74395 24.6884C10.7965 24.6884 11.6529 25.5448 11.6529 26.5971C11.6529 26.788 11.624 26.9721 11.5717 27.1459H9.0259C9.04519 27.0325 9.05589 26.9158 9.05589 26.7968C9.05589 26.1912 8.7967 25.6454 8.3841 25.2633C8.73696 24.9051 9.22511 24.6884 9.74395 24.6884ZM3.49722 0.892622H6.81643V1.48724H3.49722V0.892622ZM6.19717 2.37986V3.62186L4.11648 5.23183V2.37986H6.19717ZM1.3719 9.2312L1.01183 8.7628L10.2319 1.62857C10.2846 1.58789 10.3448 1.5672 10.4111 1.5672C10.4773 1.5672 10.5375 1.58789 10.5901 1.62834L19.7976 8.75281L19.4461 9.22771L10.6842 2.4482C10.5234 2.32384 10.2988 2.32384 10.138 2.4482L1.3719 9.2312ZM12.7691 29.1074H1.00671V28.0386H5.11789C5.36429 28.0386 5.5642 27.8389 5.5642 27.5922C5.5642 27.3456 5.36429 27.1459 5.11789 27.1459H1.22127C1.2208 27.1345 1.22011 27.1234 1.22011 27.112C1.22011 26.691 1.51927 26.3272 1.93188 26.2473C2.11854 26.211 2.26173 26.0606 2.2887 25.8726C2.41887 24.9681 3.20689 24.2858 4.12159 24.2858C4.88125 24.2858 5.57582 24.7626 5.84988 25.472C5.89452 25.5878 5.98517 25.6796 6.10047 25.7259C6.21577 25.7719 6.34478 25.7677 6.45705 25.7147C6.61745 25.6389 6.78946 25.6004 6.96775 25.6004C7.62699 25.6004 8.16326 26.1371 8.16326 26.797C8.16326 26.9186 8.1442 27.0355 8.11026 27.1459H7.26018C7.01355 27.1459 6.81387 27.3458 6.81387 27.5922C6.81387 27.8389 7.01355 28.0386 7.26018 28.0386H12.7691V29.1074ZM29.0929 20.5645L20.331 13.7852C20.1702 13.6606 19.9456 13.6606 19.7848 13.7852L11.0185 20.568L10.6584 20.0996L19.8787 12.9656C19.9315 12.9247 19.9917 12.904 20.0579 12.904C20.1239 12.904 20.1844 12.9247 20.2369 12.9653L29.4444 20.0896L29.0929 20.5645Z" fill="white"></path></svg>