<svg xmlns="http://www.w3.org/2000/svg" width="18" height="18" viewBox="0 0 18 18" fill="none"><path d="M9.69092 12.4433L6.93614 15.1981C6.93614 15.1981 6.93614 15.1982 6.93607 15.1982C6.93607 15.1982 6.93607 15.1983 6.93601 15.1983C5.79682 16.3375 3.94312 16.3376 2.80381 15.1983C2.25187 14.6463 1.94799 13.9125 1.94799 13.1321C1.94799 12.3517 2.25187 11.6181 2.80361 11.0661C2.80368 11.0661 2.80374 11.066 2.80381 11.0659L5.55859 8.3111C5.9389 7.93072 5.9389 7.31398 5.55852 6.93367C5.17821 6.55336 4.56148 6.55336 4.1811 6.93367L1.42632 9.68852C1.42612 9.68871 1.42593 9.68897 1.42573 9.68917C0.506347 10.6089 0 11.8316 0 13.1321C0 14.4329 0.506542 15.6559 1.42638 16.5757C2.37583 17.5251 3.62287 17.9998 4.86997 17.9998C6.11707 17.9998 7.36418 17.5251 8.3135 16.5757C8.31356 16.5757 8.31356 16.5756 8.31356 16.5756L11.0683 13.8207C11.4487 13.4404 11.4487 12.8237 11.0683 12.4433C10.688 12.063 10.0714 12.063 9.69092 12.4433Z" fill="#181818"></path><path d="M18.0042 4.86764C18.0042 3.56684 17.4976 2.34389 16.5778 1.42405C14.6789 -0.474717 11.5894 -0.474652 9.69065 1.42405C9.69058 1.42418 9.69045 1.42425 9.69039 1.42438L6.93567 4.17903C6.5553 4.55934 6.5553 5.17614 6.93567 5.55645C7.12593 5.74671 7.37514 5.84177 7.62442 5.84177C7.87363 5.84177 8.12297 5.74664 8.3131 5.55645L11.0678 2.8018C11.0679 2.80167 11.068 2.80161 11.0681 2.80148C12.2073 1.66229 14.061 1.66223 15.2003 2.80148C15.7522 3.35341 16.0562 4.08721 16.0562 4.86764C16.0562 5.64801 15.7523 6.38168 15.2005 6.93362L15.2003 6.93381L12.4456 9.68866C12.0652 10.069 12.0652 10.6857 12.4456 11.0661C12.6358 11.2563 12.8851 11.3514 13.1343 11.3514C13.3836 11.3514 13.6329 11.2563 13.823 11.0661L16.5778 8.31123C16.578 8.31104 16.5782 8.31078 16.5784 8.31058C17.4978 7.39087 18.0042 6.16812 18.0042 4.86764Z" fill="#181818"></path><path d="M5.55872 12.4433C5.74891 12.6335 5.99819 12.7287 6.2474 12.7287C6.49668 12.7287 6.74595 12.6335 6.93614 12.4433L12.4458 6.93365C12.8262 6.55334 12.8262 5.93661 12.4458 5.55623C12.0655 5.17592 11.4488 5.17592 11.0684 5.55623L5.55872 11.0659C5.17834 11.4463 5.17834 12.063 5.55872 12.4433Z" fill="#181818"></path></svg>