<svg xmlns="http://www.w3.org/2000/svg" width="37" height="38" viewBox="0 0 37 38" fill="none"><path d="M36.1979 28.5421C35.043 27.5735 28.2693 23.2842 27.1435 23.481C26.6149 23.5749 26.2105 24.0255 25.1283 25.3165C24.6278 25.952 24.0781 26.5471 23.4844 27.0965C22.3966 26.8337 21.3436 26.4434 20.3474 25.9336C16.4403 24.0314 13.2838 20.8741 11.3828 16.9664C10.873 15.9701 10.4827 14.9172 10.2199 13.8293C10.7693 13.2356 11.3644 12.686 11.9999 12.1855C13.2896 11.1032 13.7415 10.7015 13.8354 10.1703C14.0323 9.0418 9.73893 2.2708 8.77429 1.11587C8.36993 0.637513 8.00257 0.316406 7.53214 0.316406C6.16843 0.316406 0 7.94369 0 8.93212C0 9.01273 0.132143 16.9532 10.1605 27.1559C20.3632 37.1843 28.3037 37.3164 28.3843 37.3164C29.3727 37.3164 37 31.148 37 29.7843C37 29.3138 36.6789 28.9465 36.1979 28.5421Z" fill="white"></path><path d="M27.7499 17.4953H30.3927C30.3896 14.6925 29.2748 12.0054 27.2929 10.0236C25.3111 8.04176 22.624 6.92698 19.8213 6.92383V9.56669C21.9234 9.56878 23.9389 10.4048 25.4253 11.8912C26.9118 13.3777 27.7478 15.3931 27.7499 17.4953Z" fill="white"></path><path d="M34.357 17.495H36.9999C36.9946 12.9405 35.183 8.57416 31.9626 5.35369C28.7421 2.13322 24.3757 0.321652 19.8213 0.316406V2.95926C23.675 2.96381 27.3696 4.49671 30.0946 7.2217C32.8196 9.94669 34.3525 13.6413 34.357 17.495Z" fill="white"></path></svg>