<svg xmlns="http://www.w3.org/2000/svg" width="41" height="40" viewBox="0 0 41 40" fill="none"><path d="M34.0294 16.0959C34.1096 15.7353 33.8692 15.3747 33.522 15.2946C33.1614 15.2278 32.8009 15.4548 32.7207 15.8154C32.6406 16.176 32.881 16.5232 33.2415 16.6033C33.2816 16.6167 33.3217 16.6167 33.3751 16.6167C33.6822 16.6167 33.9627 16.403 34.0294 16.0959ZM8.69643 16.5766C9.057 16.5098 9.28402 16.1493 9.20389 15.7887C9.13712 15.4281 8.77656 15.2011 8.41599 15.2679C8.05543 15.348 7.8284 15.7086 7.90853 16.0691C7.9753 16.3763 8.24239 16.59 8.56289 16.59C8.60295 16.59 8.64301 16.59 8.69643 16.5766ZM34.3232 13.3182C34.3232 12.9442 34.0294 12.6505 33.6555 12.6505C33.2816 12.6505 32.9878 12.9442 32.9878 13.3182C32.9878 13.6787 33.2816 13.9859 33.6555 13.9859C34.0161 13.9859 34.3232 13.6921 34.3232 13.3182ZM8.95016 13.2915C8.95016 13.2781 8.95016 13.2648 8.95016 13.238C8.95016 12.8775 8.65637 12.5703 8.28245 12.5703C7.92188 12.5703 7.61474 12.8641 7.61474 13.238V13.2648V13.2915C7.61474 13.6654 7.90853 13.9592 8.28245 13.9592C8.65637 13.9592 8.95016 13.6654 8.95016 13.2915ZM33.522 11.3284C33.8826 11.2616 34.1096 10.901 34.0428 10.5405C33.9627 10.1799 33.6155 9.9529 33.2549 10.033C32.8943 10.0998 32.654 10.4604 32.7341 10.8209C32.8009 11.1281 33.0813 11.3417 33.3884 11.3417C33.4285 11.3417 33.4819 11.3417 33.522 11.3284ZM9.21725 10.7408C9.29737 10.3802 9.07035 10.033 8.70979 9.9529C8.34922 9.87277 7.98866 10.0998 7.90853 10.4604C7.84176 10.8209 8.06878 11.1815 8.42935 11.2616C8.46941 11.2616 8.52283 11.275 8.56289 11.275C8.88339 11.275 9.15048 11.0613 9.21725 10.7408ZM32.8409 8.76437C33.1748 8.61747 33.335 8.21684 33.1881 7.88299C33.0279 7.54913 32.6406 7.40223 32.3067 7.54913C31.9729 7.69603 31.8126 8.0833 31.9595 8.43051C32.0797 8.67089 32.3201 8.83114 32.5738 8.83114C32.6673 8.83114 32.7608 8.80443 32.8409 8.76437ZM10.0051 8.36374C10.152 8.02988 10.0051 7.62926 9.67129 7.48236C9.33744 7.32211 8.93681 7.469 8.78991 7.81622C8.62966 8.15007 8.78991 8.53734 9.12377 8.6976C9.21725 8.73766 9.31073 8.75101 9.39085 8.75101C9.64458 8.75101 9.89832 8.60412 10.0051 8.36374ZM31.639 6.40066C31.9462 6.187 32.013 5.75966 31.7859 5.46587C31.5723 5.17207 31.1583 5.1053 30.8645 5.31897C30.5573 5.53264 30.4906 5.94662 30.7176 6.25377C30.8378 6.42737 31.0515 6.52085 31.2518 6.52085C31.3853 6.52085 31.5188 6.48079 31.639 6.40066ZM11.2738 6.187C11.4875 5.8932 11.4207 5.47922 11.1269 5.2522C10.8331 5.03853 10.4058 5.1053 10.1921 5.3991C9.97844 5.69289 10.0452 6.12022 10.339 6.33389C10.4592 6.42737 10.5927 6.46743 10.7263 6.46743C10.9399 6.46743 11.1403 6.37396 11.2738 6.187ZM29.9831 4.33075C30.2235 4.06367 30.2101 3.63633 29.9297 3.39596C29.6626 3.14223 29.2353 3.16893 28.9815 3.43602C28.7412 3.7031 28.7545 4.13044 29.035 4.38417C29.1685 4.49101 29.3288 4.55778 29.489 4.55778C29.6626 4.55778 29.8496 4.47765 29.9831 4.33075ZM12.9564 4.33075C13.2369 4.09038 13.2636 3.66304 13.0099 3.3826C12.7695 3.11552 12.3421 3.08881 12.0617 3.34254C11.7946 3.58292 11.7679 3.9969 12.0216 4.27734C12.1418 4.42423 12.3288 4.50436 12.5157 4.50436C12.676 4.50436 12.8363 4.45094 12.9564 4.33075ZM27.9266 2.66147C28.1002 2.34097 27.9933 1.92699 27.6728 1.74003C27.3657 1.55307 26.9517 1.6599 26.7647 1.98041C26.5778 2.30091 26.6846 2.71489 27.0051 2.90185C27.1119 2.95527 27.2321 2.98198 27.339 2.98198C27.5793 2.98198 27.793 2.87514 27.9266 2.66147ZM14.9996 2.86179C15.3201 2.67483 15.427 2.2742 15.24 1.9537C15.0531 1.6332 14.6524 1.51301 14.3319 1.69997C14.0114 1.88693 13.9046 2.28755 14.0782 2.60806C14.2117 2.83508 14.4388 2.94191 14.6658 2.94191C14.7726 2.94191 14.8928 2.9152 14.9996 2.86179ZM25.5629 1.44624C25.6697 1.08567 25.4827 0.711752 25.1355 0.604918C24.7883 0.48473 24.401 0.671689 24.2942 1.0189C24.174 1.37946 24.361 1.75338 24.7215 1.87357C24.7883 1.88693 24.8551 1.90028 24.9218 1.90028C25.2023 1.90028 25.4694 1.72668 25.5629 1.44624ZM17.2966 1.84686C17.6438 1.72668 17.8307 1.35276 17.7239 1.00555C17.6171 0.658335 17.2298 0.458021 16.8826 0.57821C16.5354 0.685044 16.3351 1.05896 16.4553 1.41953C16.5487 1.69997 16.8025 1.87357 17.0829 1.87357C17.1497 1.87357 17.2298 1.86022 17.2966 1.84686ZM22.9988 0.751815C23.0389 0.377896 22.7718 0.0573936 22.4112 0.0173308C22.0373 -0.0227319 21.7035 0.244353 21.6768 0.604918C21.6233 0.978837 21.8904 1.29934 22.2644 1.3394C22.2911 1.3394 22.3044 1.3394 22.3311 1.3394C22.6783 1.3394 22.9588 1.08567 22.9988 0.751815ZM19.7538 1.32605C20.1143 1.29934 20.3814 0.965483 20.3413 0.604918C20.3146 0.230999 19.9808 -0.0360862 19.6202 0.0039766C19.2463 0.0440394 18.9792 0.364542 19.0193 0.738461C19.046 1.08567 19.3398 1.3394 19.687 1.3394C19.7003 1.3394 19.727 1.3394 19.7538 1.32605Z" fill="white"></path><path d="M22.9724 30.6521C23.3409 30.6521 23.6401 30.353 23.6401 29.9844V29.3661C23.6401 26.5524 25.5831 24.0992 28.3662 23.3994C28.724 23.31 28.9404 22.9467 28.8509 22.5888C28.7614 22.2309 28.3995 22.0119 28.0403 22.1041C24.663 22.9534 22.3047 25.9394 22.3047 29.3661V29.9844C22.3047 30.353 22.6038 30.6521 22.9724 30.6521Z" fill="white"></path><path d="M30.6339 25.8674C30.8049 25.8674 30.9758 25.8019 31.1067 25.6724L36.9652 19.8232C37.0907 19.6977 37.1602 19.5281 37.1602 19.3505C37.1602 19.1742 37.0894 19.0033 36.9652 18.8778C35.1276 17.0402 32.8641 17.1965 30.7568 19.3051L27.7467 22.3098C27.485 22.5702 27.485 22.9935 27.7454 23.2539C28.0058 23.5157 28.4291 23.5144 28.6896 23.2553L31.7009 20.2506C33.0711 18.8791 34.3504 18.5906 35.5096 19.3906L30.1652 24.7269C29.9048 24.9873 29.9048 25.4107 30.1652 25.6724C30.2921 25.8019 30.463 25.8674 30.6339 25.8674Z" fill="white"></path><path d="M34.3232 32.7659V35.9936H32.9878V33.3227H23.6398V35.9936H22.3044V32.7659C22.3044 32.3973 22.6316 31.9873 23.0002 31.9873H33.6836C34.0548 31.9873 34.3232 32.3986 34.3232 32.7659Z" fill="white"></path><path d="M35.6582 39.3322C35.6582 39.6994 35.3591 39.9999 34.9905 39.9999C34.6219 39.9999 34.3228 39.6994 34.3228 39.3322V35.9936H23.6394V39.3309C23.6394 39.6994 23.3402 39.9986 22.9717 39.9986C22.6031 39.9999 22.304 39.6994 22.304 39.3309V35.4368C22.304 35.0682 22.6311 34.6582 22.9997 34.6582H35.0185C35.3884 34.6582 35.6582 35.0682 35.6582 35.4368V39.3322Z" fill="white"></path><path d="M18.9651 30.6522C19.3337 30.6522 19.6328 30.3531 19.6328 29.9845V29.3662C19.6328 25.9395 17.2745 22.9535 13.8972 22.1042C13.5393 22.0147 13.176 22.231 13.0866 22.5889C12.9971 22.9468 13.2134 23.3101 13.5713 23.3995C16.3543 24.0993 18.2974 26.5525 18.2974 29.3662V29.9845C18.2974 30.3531 18.5965 30.6522 18.9651 30.6522Z" fill="white"></path><path d="M11.3023 25.8678C11.4733 25.8678 11.6442 25.8024 11.7751 25.6728C12.0355 25.4111 12.0355 24.9891 11.7751 24.7274L6.43071 19.391C7.59119 18.5911 8.86786 18.8795 10.238 20.251L13.2494 23.2557C13.5098 23.5148 13.9331 23.5161 14.1935 23.2544C14.4539 22.994 14.4539 22.5706 14.1922 22.3102L11.1808 19.3055C9.07084 17.1969 6.80863 17.042 4.97242 18.8782C4.84689 19.0037 4.77745 19.1733 4.77745 19.3509C4.77745 19.5285 4.84822 19.6981 4.97242 19.8237L10.8309 25.6728C10.9605 25.8024 11.1314 25.8678 11.3023 25.8678Z" fill="white"></path><path d="M30.3166 31.2691C30.3166 31.0634 30.4114 30.8698 30.5717 30.7429L35.3258 27.0171C35.7384 26.6885 36.3434 25.9794 36.5383 25.5134L39.6646 18.246L39.6833 12.0483C39.6125 11.9227 39.1705 11.6463 38.667 11.7198C37.8978 11.8226 37.5359 12.6465 37.3676 13.3169C37.1206 14.3078 37.0632 15.1812 37.0084 16.0065C36.9844 16.3737 36.6719 16.6274 36.3006 16.6007C35.9321 16.5767 35.6556 16.2308 35.6797 15.8636C35.7344 15.037 35.7958 14.1022 36.0709 12.9951C36.6051 10.8638 38.006 10.2508 39.1491 10.3937C40.0585 10.5059 41 11.1175 41 11.9481V18.3835C41 18.4743 40.9813 18.5638 40.9452 18.6479L37.7669 26.0369C37.4731 26.7366 36.7173 27.6167 36.1537 28.0654L31.652 31.5936V33.3229H30.3166V31.2691Z" fill="white"></path><path d="M11.6201 31.269C11.6201 31.0634 11.5253 30.8697 11.3651 30.7429L6.61094 27.017C6.19829 26.6885 5.59334 25.9794 5.39837 25.5133L2.27214 18.246L2.25344 12.0482C2.32422 11.9227 2.76758 11.6463 3.27104 11.7197C4.04024 11.8226 4.40214 12.6452 4.57041 13.3169C4.81746 14.3078 4.87488 15.1812 4.92964 16.0064C4.95367 16.3737 5.26616 16.6274 5.63741 16.6007C6.00599 16.5767 6.28242 16.2308 6.25839 15.8636C6.20363 15.0369 6.1422 14.1021 5.8671 12.9951C5.33427 10.8637 3.93341 10.2508 2.79029 10.395C1.87819 10.5058 0.936714 11.1175 0.936714 11.9481V18.3835C0.936714 18.4743 0.955411 18.5638 0.991467 18.6479L4.16978 26.0368C4.46357 26.7366 5.21942 27.6166 5.78297 28.0653L10.2847 31.5935V33.3229H11.6201V31.269Z" fill="white"></path><path d="M7.61398 32.7659V35.9936H8.94941V33.3227H18.2974V35.9936H19.6328V32.7659C19.6328 32.3973 19.3056 31.9873 18.9371 31.9873H8.25365C7.8824 31.9873 7.61398 32.3986 7.61398 32.7659Z" fill="white"></path><path d="M6.27856 39.3322C6.27856 39.6994 6.57769 39.9999 6.94627 39.9999C7.31485 39.9999 7.61399 39.6994 7.61399 39.3322V35.9936H18.2974V39.3309C18.2974 39.6994 18.5965 39.9986 18.9651 39.9986C19.3337 39.9999 19.6328 39.6994 19.6328 39.3309V35.4368C19.6328 35.0682 19.3056 34.6582 18.9371 34.6582H6.91823C6.54832 34.6582 6.27856 35.0682 6.27856 35.4368V39.3322Z" fill="white"></path><path d="M22.9712 22.639C23.054 22.639 23.1382 22.6243 23.2183 22.5936C23.5188 22.4734 23.691 22.1582 23.6269 21.8417L22.4504 15.9619H25.6421C25.8851 15.9619 26.1082 15.8297 26.227 15.6187C26.3445 15.4063 26.3378 15.1459 26.2083 14.9403L19.5312 4.25686C19.3602 3.9831 19.0157 3.87359 18.7192 3.99111C18.4188 4.10996 18.2478 4.42513 18.3106 4.74296L19.646 11.4201C19.7181 11.782 20.0654 12.0197 20.4313 11.9436C20.7932 11.8715 21.0269 11.5216 20.9561 11.1583L20.3378 8.06683L24.4375 14.6264H21.6358C21.4368 14.6264 21.2472 14.7159 21.119 14.8722C20.9921 15.0257 20.9414 15.2314 20.9801 15.4264L21.5984 18.5165L16.859 10.934C16.664 10.6215 16.2514 10.5253 15.9402 10.723C15.6277 10.918 15.5316 11.3293 15.7279 11.6418L22.405 22.3252C22.5292 22.5268 22.7469 22.639 22.9712 22.639Z" fill="white"></path></svg>