<svg xmlns="http://www.w3.org/2000/svg" width="61" height="61" viewBox="0 0 61 61" fill="none"><path d="M54.1342 15.5099L49.0828 18.4938C48.6647 18.7409 48.5259 19.2801 48.7729 19.6982C49.0224 20.1204 49.5653 20.2519 49.9773 20.0081L55.0241 17.0268L55.5254 17.8814C55.7735 18.3046 56.316 18.4372 56.7289 18.195C57.1478 17.9492 57.2881 17.4105 57.0424 16.9915L55.1547 13.7738C54.9088 13.3549 54.3701 13.2145 53.9513 13.4603C53.5323 13.706 53.392 14.2448 53.6377 14.6637L54.1342 15.5099ZM44.5238 11.5565C44.4746 12.6622 44.9204 13.7676 45.7467 14.5895C46.3537 15.1932 47.1326 15.5082 47.8856 15.5081C48.3965 15.5081 48.8957 15.3631 49.3209 15.0648C50.1166 14.5067 50.6903 13.3153 49.914 11.6454C49.5435 10.8485 49.2319 10.0722 49.1351 9.82699C49.1127 9.61032 49.2506 9.47947 49.3147 9.43116C49.4045 9.3634 49.6543 9.22762 50.0321 9.42905C50.8895 9.88609 51.0249 10.9836 51.0289 11.018C51.0758 11.4986 51.5018 11.8522 51.9836 11.8082C52.4673 11.7643 52.8238 11.3367 52.7798 10.853C52.7722 10.7693 52.574 8.79123 50.8596 7.87716C49.9904 7.41392 48.9927 7.47137 48.2557 8.02712C47.561 8.5511 47.2424 9.40267 47.4241 10.2496C47.5003 10.6045 47.7536 11.1707 48.319 12.3869C48.4205 12.6049 48.7194 13.3386 48.3111 13.625C48.0111 13.8353 47.4339 13.7871 46.987 13.3425C46.518 12.876 46.254 12.2376 46.2808 11.6347C46.3024 11.1495 45.9266 10.7387 45.4414 10.7171C44.9557 10.6959 44.5454 11.0712 44.5238 11.5565ZM37.2214 9.62158C37.6467 9.85619 38.1815 9.70154 38.4161 9.27628L40.3059 5.84972L40.8175 11.0248C40.8626 11.4746 41.162 11.8206 41.5802 11.9063C42.011 11.9945 42.4297 11.7821 42.6609 11.3636L45.7583 5.61687C45.9887 5.18938 45.829 4.65602 45.4016 4.42551C44.9742 4.19512 44.4407 4.35481 44.2102 4.7823L42.3151 8.29832L41.7774 2.86049C41.7396 2.47721 41.4566 2.16322 41.0795 2.08572C40.7026 2.0081 40.3184 2.18514 40.1323 2.52235L36.8761 8.42694C36.6415 8.8522 36.7962 9.38708 37.2214 9.62158ZM34.0439 8.87752C34.5097 8.96417 34.9811 8.65616 35.0693 8.17392L36.3061 1.52762C36.395 1.05019 36.0799 0.591045 35.6025 0.502172C35.1248 0.413532 34.6659 0.72846 34.577 1.20577L33.3403 7.85207C33.2513 8.32962 33.5663 8.78865 34.0439 8.87752ZM50.3576 22.3905C50.2575 22.8658 50.5614 23.3322 51.0367 23.4324L52.1764 23.6726L52.6224 26.5038L51.6125 27.0809C51.1909 27.3219 51.0443 27.859 51.2853 28.2807C51.5287 28.7068 52.07 28.8457 52.4851 28.608C52.5035 28.5974 58.6603 25.0795 58.6776 25.069C59.0361 24.8498 59.2248 24.44 59.1586 24.025C59.0915 23.6046 58.7737 23.266 58.3559 23.1782L51.3995 21.7114C50.9245 21.6112 50.4579 21.9153 50.3576 22.3905ZM56.1214 24.5045L54.2558 25.5707L54.0179 24.0611L56.1214 24.5045ZM51.5629 31.3319C51.5436 31.4252 51.532 31.4815 51.463 33.8503C51.4488 34.3357 51.831 34.7407 52.3164 34.7549C52.325 34.7551 52.3337 34.7552 52.3424 34.7552C52.8162 34.7552 53.2071 34.3782 53.2209 33.9015C53.2342 33.4485 53.2516 32.8799 53.267 32.4191L59.1213 32.6237C59.6107 32.6409 60.0139 32.2609 60.0309 31.7756C60.0479 31.2902 59.6681 30.883 59.1828 30.8661L52.4549 30.6309C52.028 30.6157 51.6496 30.9121 51.5629 31.3319ZM42.6906 42.8818C41.4542 41.6459 39.4351 41.7436 38.2918 43.0554L34.45 39.2137L38.853 34.8107C41.3848 35.2656 43.9853 34.4438 45.8288 32.6006C47.5806 30.8488 48.4248 28.3535 48.0869 25.9258C48.0213 25.4543 47.7003 25.0675 47.249 24.9162C46.7922 24.7631 46.2962 24.8804 45.9541 25.2224L41.6619 29.5146C41.5772 29.5994 41.4816 29.6129 41.4321 29.6135C41.3794 29.6148 41.2967 29.6006 41.229 29.5328L39.0151 27.3189C38.9473 27.2512 38.9338 27.1711 38.9344 27.1157C38.9349 27.0663 38.9485 26.9707 39.0333 26.8859L43.3255 22.5937C43.6675 22.2517 43.7848 21.7555 43.6317 21.299C43.4803 20.8478 43.0935 20.5268 42.6222 20.4611C40.1946 20.1233 37.6991 20.9674 35.9473 22.7192C34.1039 24.5626 33.2821 27.163 33.7372 29.6948L29.3342 34.0978L26.255 31.0187C25.9116 30.6753 25.3548 30.6753 25.0115 31.0187C24.6681 31.3621 24.6681 31.9188 25.0115 32.2622L28.0907 35.3414L26.8257 36.6064L18.1602 27.9409L19.4249 26.6756L22.1102 29.361C22.4535 29.7045 23.0103 29.7045 23.3537 29.361C23.6971 29.0176 23.6971 28.4609 23.3537 28.1175L20.6684 25.4322L20.9269 25.1737C21.2401 24.8605 21.3864 24.4122 21.3183 23.9747C21.2501 23.5371 20.9745 23.1545 20.5809 22.9515L15.9127 20.5421C15.372 20.263 14.7196 20.3646 14.2892 20.7949L12.2789 22.8053C11.8485 23.2355 11.7469 23.888 12.0261 24.4288L14.4355 29.0969C14.6387 29.4905 15.0213 29.766 15.4589 29.8341C15.8927 29.9017 16.3444 29.7565 16.6578 29.4429L16.9164 29.1843L25.5823 37.8502L17.8253 45.6072C15.2934 45.1522 12.6929 45.9741 10.8495 47.8175C9.09771 49.5693 8.25352 52.0645 8.59143 54.4924C8.65709 54.9637 8.97811 55.3505 9.42928 55.5019C9.88585 55.655 10.382 55.5376 10.724 55.1956L15.0163 50.9034C15.1408 50.779 15.335 50.7709 15.4492 50.8852L17.6631 53.0991C17.7776 53.2135 17.7693 53.4078 17.6449 53.5321L13.3526 57.8243C13.0106 58.1663 12.8932 58.6625 13.0465 59.1191C13.1979 59.5702 13.5845 59.8913 14.056 59.9569C16.4784 60.2941 18.9785 59.4512 20.7309 57.6989C22.5743 55.8556 23.3961 53.2551 22.941 50.7231L25.9319 47.7322C26.2753 47.3888 26.2753 46.8321 25.9319 46.4887C25.5885 46.1453 25.0317 46.1453 24.6884 46.4887L21.6219 49.5552C21.2558 49.9212 21.0962 50.4437 21.1948 50.9527C21.5807 52.9432 20.9424 55.0002 19.4874 56.4552C18.3883 57.5543 16.9157 58.1948 15.3991 58.2652L18.8887 54.7755C19.6988 53.9655 19.707 52.6554 18.9069 51.8553L16.693 49.6415C15.8928 48.8415 14.5829 48.8496 13.7728 49.6596L10.283 53.1489C10.3533 51.6323 10.9938 50.1597 12.0929 49.0606C13.548 47.6056 15.605 46.9672 17.5955 47.3532C18.1047 47.4518 18.627 47.2922 18.9929 46.9261L35.0562 30.8629C35.4224 30.4968 35.582 29.9744 35.4833 29.4653C35.0975 27.4749 35.7358 25.4178 37.1908 23.9627C38.2899 22.8636 39.7625 22.2231 41.2791 22.1528L37.7896 25.6423C37.3996 26.0321 37.1817 26.5487 37.1758 27.0966C37.1698 27.6518 37.3814 28.1724 37.7716 28.5625L39.9853 30.7763C40.3755 31.1665 40.8989 31.378 41.4511 31.3721C41.999 31.3661 42.5156 31.1481 42.9055 30.7583L46.3951 27.2687C46.3248 28.7853 45.6842 30.258 44.5852 31.3571C43.13 32.8121 41.0728 33.4504 39.0825 33.0645C38.5735 32.9659 38.051 33.1255 37.685 33.4916L27.5929 43.5835C27.2495 43.9269 27.2495 44.4836 27.5929 44.8271C27.9364 45.1705 28.4932 45.1705 28.8365 44.8271L30.6984 42.9652L34.5401 46.8068C33.2323 47.979 33.0917 49.934 34.3717 51.2053L42.3201 59.1555C43.485 60.3204 45.3802 60.3203 46.5452 59.1555L50.6387 55.0622C51.7892 53.9218 51.7845 51.9663 50.6387 50.8319L42.6906 42.8818ZM15.7684 27.8446L13.7115 23.8594L15.3436 22.2273L19.329 24.2841L15.7684 27.8446ZM31.9421 41.7216L33.2065 40.4572L37.048 44.2987L36.6053 44.7419L35.7839 45.5633L31.9421 41.7216ZM35.6155 49.9618C35.3828 49.7291 35.2546 49.4195 35.2546 49.0903C35.2546 48.7611 35.3828 48.4514 35.6155 48.2188L36.3917 47.4426C36.3965 47.438 36.4017 47.4339 36.4066 47.4291L37.8043 46.0301L39.7091 44.1254C39.9486 43.8859 40.2633 43.7661 40.578 43.7661C40.8927 43.7661 41.2074 43.8859 41.4469 44.1253L42.9382 45.617L37.1068 51.4534L35.6155 49.9618ZM38.3503 52.6972L44.1817 46.8607L46.6607 49.3403L40.8293 55.1767L38.3503 52.6972ZM49.3952 53.8187L45.3018 57.912C44.8227 58.3912 44.043 58.3912 43.5639 57.9121L42.0727 56.4205L47.9041 50.584L49.3954 52.0757C49.8692 52.5451 49.8713 53.3476 49.3952 53.8187ZM3.14762 24.0733C3.99802 24.2703 5.02007 23.9583 5.45412 23.1702C5.47476 23.1327 5.96614 22.2395 6.43994 21.2269C6.54112 21.0104 6.90881 20.3141 7.38402 20.4415C7.73963 20.5367 8.07507 21.0143 8.0209 21.6487C7.96451 22.3093 7.64536 22.9216 7.16758 23.2866C6.7816 23.5814 6.70773 24.1332 7.00261 24.5192C7.29925 24.9075 7.85219 24.9768 8.23523 24.6841C9.1133 24.0134 9.67398 22.9615 9.77329 21.7984C9.89616 20.3605 9.08258 19.0754 7.8387 18.7425C6.90318 18.4922 5.62565 18.8174 4.84701 20.4815C4.47475 21.2772 4.08056 22.0143 3.95487 22.2462C3.80609 22.399 3.6213 22.3776 3.54463 22.3598C3.43441 22.3343 3.16826 22.229 3.07939 21.8043C2.87948 20.849 3.6328 20.0413 3.65624 20.0164C3.9945 19.6718 3.99157 19.1183 3.64874 18.7771C3.3045 18.4346 2.74769 18.436 2.40521 18.7803C2.346 18.8398 0.959432 20.2599 1.35807 22.1645C1.56056 23.1331 2.24634 23.8645 3.14762 24.0733ZM8.89006 37.8053L8.21436 35.0651C8.09817 34.5936 7.62156 34.3058 7.14999 34.4219C6.67854 34.5382 6.39046 35.0147 6.50677 35.4863L6.97224 37.3741L5.43876 37.7549L5.0237 36.0719C4.90751 35.6004 4.43113 35.3123 3.95933 35.4287C3.48788 35.545 3.1998 36.0215 3.31611 36.493L3.73175 38.1788L2.19827 38.5596L1.73338 36.6746C1.61707 36.203 1.13999 35.9149 0.66901 36.0314C0.197557 36.1477 -0.0905205 36.6242 0.0257891 37.0957L0.701604 39.8359C0.813107 40.2998 1.30414 40.5965 1.76727 40.4788C3.08501 40.1437 6.85441 39.2156 8.2479 38.8695C8.719 38.7525 9.00625 38.2763 8.89006 37.8053ZM0.544258 29.7247L6.82263 33.0695C7.2432 33.2941 7.78102 33.1406 8.01223 32.7068C8.24063 32.2782 8.07824 31.7456 7.64958 31.5172L6.6198 30.9686L6.97353 28.1242L8.10169 27.8511C8.57373 27.7368 8.8638 27.2616 8.74948 26.7896C8.63517 26.3175 8.15984 26.0276 7.68792 26.1418L0.785554 27.8125C0.368504 27.9147 0.0611979 28.2623 0.00843648 28.688C-0.0442077 29.1122 0.167776 29.5227 0.544258 29.7247ZM5.14623 28.5666L4.95758 30.0832L3.05899 29.0718L5.14623 28.5666ZM24.0041 8.5198C26.3466 8.5198 28.2522 6.60878 28.2522 4.25984C28.2522 1.9109 26.3465 0 24.0041 0C21.6616 0 19.7559 1.91102 19.7559 4.25996C19.7559 6.6089 21.6616 8.5198 24.0041 8.5198ZM24.0041 1.75871C25.3768 1.75871 26.4935 2.88077 26.4935 4.25996C26.4935 5.63914 25.3767 6.7612 24.0041 6.7612C22.6314 6.7612 21.5146 5.63914 21.5146 4.25996C21.5146 2.88077 22.6314 1.75871 24.0041 1.75871ZM4.11163 15.6384L7.77656 15.8821L10.3125 17.805C10.6965 18.0965 11.2492 18.0249 11.5444 17.6356C11.8379 17.2485 11.762 16.697 11.375 16.4035L8.83589 14.4783L7.58627 11.0331C7.42071 10.5766 6.91643 10.3408 6.45975 10.5063C6.00319 10.672 5.76741 11.1763 5.93296 11.6328L6.81173 14.0554L4.22841 13.8835C3.74254 13.8515 3.32479 14.2179 3.29266 14.7026C3.26042 15.1872 3.62705 15.6061 4.11163 15.6384ZM59.3806 38.241L52.8788 36.4896C52.4647 36.3781 52.0304 36.5815 51.8511 36.9712C51.8113 37.0579 51.7872 37.1103 51.1876 39.4027C51.0647 39.8725 51.346 40.3531 51.8158 40.476C52.2736 40.5957 52.7648 40.3228 52.889 39.8478C53.0035 39.41 53.1481 38.8607 53.2665 38.4155L58.923 39.9392C59.3921 40.0656 59.8745 39.7878 60.0008 39.3189C60.1274 38.8499 59.8496 38.3673 59.3806 38.241ZM13.393 5.93988L14.2403 5.46257L17.1076 10.5886C17.347 11.0171 17.8869 11.1602 18.3043 10.9268C18.7282 10.6897 18.8797 10.1539 18.6425 9.73003L15.7726 4.59939L16.6377 4.11211C17.0608 3.87374 17.2107 3.33757 16.9723 2.91442C16.734 2.49116 16.1976 2.34155 15.7746 2.5798L12.5299 4.40734C12.1068 4.6457 11.9569 5.18188 12.1953 5.60502C12.436 6.03274 12.9766 6.17508 13.393 5.93988Z" fill="#89EA5F"></path></svg>