<svg xmlns="http://www.w3.org/2000/svg" width="40" height="40" viewBox="0 0 40 40" fill="none"><path d="M22.7676 0C22.3361 0 21.9863 0.349798 21.9863 0.781398C21.9863 1.213 22.3361 1.5628 22.7676 1.5628C31.4074 1.5628 38.4362 8.59324 38.4362 17.2344C38.4362 17.666 38.7862 18.0158 39.2174 18.0158C39.6489 18.0158 39.9987 17.666 39.9987 17.2344C39.9987 7.73157 32.2689 0 22.7676 0Z" fill="white"></path><path d="M34.5177 18.0162C34.9492 18.0162 35.299 17.6661 35.299 17.2348C35.299 10.3234 29.6773 4.70068 22.7676 4.70068C22.3361 4.70068 21.9863 5.05079 21.9863 5.48208C21.9863 5.91368 22.3361 6.26348 22.7676 6.26348C28.8158 6.26348 33.7365 11.1851 33.7365 17.2348C33.7365 17.6661 34.0862 18.0162 34.5177 18.0162Z" fill="white"></path><path d="M29.0359 17.2346C29.0359 17.6659 29.3856 18.016 29.8171 18.016C30.2486 18.016 30.5984 17.6659 30.5984 17.2346C30.5984 12.9159 27.0855 9.40234 22.7676 9.40234C22.3361 9.40234 21.9863 9.75214 21.9863 10.1834C21.9863 10.615 22.3361 10.9648 22.7676 10.9648C26.224 10.9648 29.0359 13.7773 29.0359 17.2346Z" fill="white"></path><path d="M21.9863 14.8844C21.9863 15.3157 22.3361 15.6655 22.7677 15.6655C23.6328 15.6655 24.3366 16.3694 24.3366 17.2347C24.3366 17.666 24.6864 18.0161 25.118 18.0161C25.5493 18.0161 25.8994 17.666 25.8994 17.2347C25.8994 15.5077 24.4944 14.103 22.7677 14.103C22.3361 14.103 21.9863 14.4528 21.9863 14.8844Z" fill="white"></path><path d="M14.6409 25.3703C14.6409 25.8019 14.2911 26.1517 13.8595 26.1517C13.4279 26.1517 13.0781 25.8019 13.0781 25.3703C13.0781 24.939 13.4279 24.5889 13.8595 24.5889C14.2911 24.5889 14.6409 24.939 14.6409 25.3703Z" fill="white"></path><path d="M21.4068 39.0588C24.9642 40.8026 29.244 40.077 32.0571 37.2634L33.6723 35.6478C34.5494 34.7714 34.5497 33.3518 33.6727 32.4749L27.4312 26.2328C26.5557 25.3559 25.136 25.3547 24.2595 26.2325L21.6076 28.8853C21.0882 29.4048 20.2865 29.5107 19.7017 29.1374C18.7484 28.5279 17.821 27.8558 16.9454 27.1397C16.6112 26.8665 16.1193 26.9159 15.8462 27.2499C15.573 27.5841 15.6225 28.0764 15.9563 28.3493C16.8789 29.1039 17.8557 29.812 18.8607 30.4542C20.0585 31.2194 21.6784 31.0244 22.7123 29.9903L25.3649 27.3372C25.6301 27.0716 26.0598 27.071 26.3262 27.3375L32.5679 33.5798C32.8337 33.846 32.8343 34.2764 32.5679 34.5422L30.9523 36.1584C28.6089 38.5023 25.0493 39.1039 22.0943 37.6556C11.2689 32.3461 5.37898 23.9271 2.34432 17.7992C0.892601 14.8687 1.49532 11.3219 3.84425 8.9731L5.42445 7.3929C5.68934 7.12735 6.11933 7.12644 6.38544 7.39321L12.6278 13.6365C12.8921 13.9005 12.8948 14.3309 12.6272 14.5979L9.97521 17.2507C8.94128 18.2849 8.74628 19.905 9.51135 21.1034C9.96209 21.8088 10.4479 22.5047 10.9557 23.1716C11.217 23.515 11.7071 23.5813 12.0504 23.32C12.3937 23.0587 12.4603 22.5685 12.1987 22.2248C11.7172 21.5921 11.2557 20.9315 10.8279 20.2622C10.4546 19.677 10.5605 18.8752 11.0799 18.3557L13.7316 15.7035C14.6084 14.8278 14.6093 13.4075 13.7322 12.5312L7.49048 6.28857C6.61524 5.41163 5.19526 5.41041 4.3191 6.28826L2.73952 7.86815C-0.0839584 10.6913 -0.805392 14.9612 0.944176 18.493C4.08656 24.8379 10.187 33.556 21.4068 39.0588Z" fill="white"></path></svg>