<svg xmlns="http://www.w3.org/2000/svg" width="59" height="61" viewBox="0 0 59 61" fill="none"><path d="M56.4909 40.8386C56.4867 40.7954 56.4803 40.7518 56.4708 40.7095L53.3103 25.9853C56.4097 23.2641 58.3698 19.2749 58.3698 14.836C58.3698 6.65547 51.7143 0 43.5338 0C35.3533 0 28.6979 6.65547 28.6979 14.836C28.6979 15.3067 28.721 15.7722 28.764 16.2319H6.22928C5.67659 16.2319 5.19893 16.6179 5.08297 17.1581L0.0261459 40.7094C0.00867622 40.7897 0 40.8733 0 40.9556V49.3094C0 49.9568 0.525028 50.4818 1.17246 50.4818H27.0775V57.6851H13.7813C13.1339 57.6851 12.6089 58.2101 12.6089 58.8575C12.6089 59.505 13.1339 60.03 13.7813 60.03H42.7153C43.3628 60.03 43.8878 59.505 43.8878 58.8575C43.8878 58.2101 43.3628 57.6851 42.7153 57.6851H29.4224V50.4817H55.3243C55.9718 50.4817 56.4968 49.9567 56.4968 49.3093V40.9555C56.4968 40.9167 56.4947 40.8771 56.4909 40.8386ZM53.8735 39.783H38.4935L37.9782 34.2764H52.6916L53.8735 39.783ZM43.5338 16.6938C45.5231 16.6938 47.1416 15.0754 47.1416 13.0861V9.59917C48.833 10.7644 49.8902 12.7074 49.8902 14.836C49.8902 17.4216 48.3454 19.7292 45.9547 20.7153C45.5158 20.8964 45.2292 21.3244 45.2292 21.7992V27.2116C44.6746 27.2873 44.1088 27.3271 43.5338 27.3271C42.9589 27.3271 42.393 27.2873 41.8384 27.2116V21.7992C41.8384 21.3241 41.5518 20.8961 41.1126 20.7152C38.7202 19.7297 37.1742 17.4219 37.1742 14.836C37.1742 12.7074 38.2315 10.7644 39.9228 9.59917V13.0861C39.9228 15.0754 41.5426 16.6938 43.5338 16.6938ZM43.5338 29.6721C46.3536 29.6721 48.992 28.8811 51.2392 27.5097L52.1883 31.9315H37.7589L37.4241 28.3543C39.2882 29.2003 41.3569 29.6721 43.5338 29.6721ZM43.5338 2.34492C50.4214 2.34492 56.0249 7.94835 56.0249 14.836C56.0249 20.3103 52.485 24.9729 47.5741 26.6562V22.5448C50.4299 21.0514 52.2351 18.1061 52.2351 14.836C52.2351 11.1113 49.8691 7.80167 46.3477 6.60025C45.9893 6.47796 45.5945 6.53612 45.2869 6.75631C44.9792 6.97638 44.7966 7.33152 44.7966 7.70987V13.0861C44.7966 13.7823 44.23 14.3489 43.5337 14.3489C42.8356 14.3489 42.2676 13.7824 42.2676 13.0861V7.70987C42.2676 7.33152 42.085 6.97638 41.7772 6.75631C41.4696 6.53624 41.0749 6.47808 40.7164 6.60025C37.195 7.80167 34.829 11.1114 34.829 14.836C34.829 18.1067 36.6355 21.0524 39.4933 22.5451V26.6562C34.5824 24.9731 31.0425 20.3103 31.0425 14.836C31.0428 7.94835 36.6462 2.34492 43.5338 2.34492ZM22.3415 18.5768H29.1759C29.7073 20.6151 30.6629 22.4837 31.9416 24.0834H21.8265L22.3415 18.5768ZM21.6073 26.4283H34.2863C34.4978 26.5974 34.714 26.7611 34.9346 26.9186L35.4037 31.9316H21.0926L21.6073 26.4283ZM20.8733 34.2765H35.6232L36.1385 39.7831H20.3584L20.8733 34.2765ZM7.17675 18.5768H19.9864L19.4714 24.0834H5.99444L7.17675 18.5768ZM5.49087 26.4283H19.252L18.7374 31.9316H4.30926L5.49087 26.4283ZM3.80581 34.2765H18.5182L18.0033 39.7831H2.62338L3.80581 34.2765ZM54.1519 48.1368H2.34492V42.1279H19.0701C19.0709 42.1279 19.0717 42.128 19.0725 42.128C19.0734 42.128 19.0742 42.1279 19.075 42.1279H37.4219C37.4227 42.1279 37.4235 42.128 37.4244 42.128C37.4252 42.128 37.426 42.1279 37.4268 42.1279H54.152V48.1368H54.1519Z" fill="#89EA5F"></path></svg>