<svg xmlns="http://www.w3.org/2000/svg" width="61" height="61" viewBox="0 0 61 61" fill="none"><path fill-rule="evenodd" clip-rule="evenodd" d="M33.7694 26.4029C33.345 22.598 32.1328 21.1601 31.2054 19.6684C30.4424 18.4411 29.8417 17.1837 29.8417 14.8961C29.8417 9.6046 34.1313 5.31268 39.4253 5.31268C44.7169 5.31268 49.0088 9.6046 49.0088 14.8961C49.0088 17.1837 48.4081 18.4411 47.645 19.6684C46.7176 21.1601 45.5055 22.5981 45.0811 26.4031C45.936 26.738 46.5451 27.5722 46.5451 28.54V31.656C46.5451 32.9189 45.5123 33.9517 44.2492 33.9517H43.6175V34.5484C43.6175 35.7627 42.6223 36.7592 41.4046 36.7592H37.446C36.2281 36.7592 35.233 35.7627 35.233 34.5484V33.9517H34.5991C33.3391 33.9517 32.3055 32.9193 32.3055 31.656V28.54C32.3055 27.5719 32.9153 26.7375 33.7694 26.4029ZM43.3863 26.2463C43.7694 22.733 44.7553 21.0259 45.6667 19.6033C46.5107 18.2859 47.3076 17.26 47.3076 14.8961C47.3076 10.5439 43.7775 7.01394 39.4253 7.01394C35.0711 7.01394 31.5429 10.5439 31.5429 14.8961C31.5429 17.26 32.3399 18.2859 33.1838 19.6033C34.0952 21.0259 35.081 22.733 35.4641 26.2463H43.3863ZM34.5991 27.9476C34.2736 27.9476 34.0067 28.2145 34.0067 28.54V31.656C34.0067 31.9828 34.2732 32.2505 34.5991 32.2505H36.0836C36.5534 32.2505 36.9342 32.6313 36.9342 33.1011V34.5484C36.9342 34.8287 37.1648 35.0579 37.446 35.0579H41.4046C41.6856 35.0579 41.9163 34.8287 41.9163 34.5484V33.1011C41.9163 32.6313 42.2971 32.2505 42.7669 32.2505H44.2492C44.5763 32.2505 44.8438 31.983 44.8438 31.656V28.54C44.8438 28.2142 44.576 27.9476 44.2492 27.9476H34.5991ZM39.4262 8.59976C42.9025 8.59976 45.7227 11.4175 45.7227 14.8961C45.7227 18.3749 42.9025 21.1926 39.4262 21.1926C35.9478 21.1926 33.1278 18.3747 33.1278 14.8961C33.1278 11.4177 35.9478 8.59976 39.4262 8.59976ZM39.4262 10.301C36.8875 10.301 34.8291 12.3574 34.8291 14.8961C34.8291 17.435 36.8875 19.4914 39.4262 19.4914C41.9633 19.4914 44.0215 17.4349 44.0215 14.8961C44.0215 12.3575 41.9633 10.301 39.4262 10.301ZM39.9603 18.4931C39.7619 18.9185 39.2553 19.1029 38.8298 18.9043C38.4044 18.7057 38.2202 18.1993 38.4186 17.7738L39.3644 15.7468H38.1505C37.8599 15.7468 37.5892 15.5984 37.4331 15.3532C37.2769 15.1079 37.2568 14.8 37.3797 14.5366L38.8901 11.2993C39.0887 10.8739 39.5953 10.6895 40.0207 10.8881C40.4461 11.0865 40.6304 11.5931 40.4318 12.0186L39.4861 14.0455H40.7C40.9907 14.0455 41.2613 14.194 41.4174 14.4392C41.5736 14.6844 41.5938 14.9924 41.4708 15.2558L39.9603 18.4931ZM15.9725 53.4668C16.1321 53.8499 16.2915 54.2331 16.4509 54.6162L16.4513 54.6171C16.7294 55.2897 16.7299 55.9674 16.4554 56.6435L16.4538 56.6472C16.1758 57.3144 15.6964 57.7957 15.0217 58.0796L15.0197 58.0806L10.8072 59.8268C9.46214 60.3886 7.90451 59.7442 7.34662 58.4001C4.9702 52.6897 2.59025 46.9793 0.213712 41.2687C-0.0699129 40.5977 -0.0708851 39.9166 0.20873 39.2405C0.487615 38.566 0.96968 38.0845 1.63961 37.8053L5.85619 36.0553C7.20055 35.4973 8.75308 36.1359 9.31644 37.4811L9.31693 37.482C9.45777 37.8204 9.59861 38.1588 9.73945 38.4973C11.8422 37.5034 13.9419 36.5033 16.0321 35.4809C18.7978 34.1278 20.9768 33.2246 23.5164 33.5677C25.1776 33.7923 27.0065 34.5516 29.2589 36.1308L37.0591 38.2203C38.3836 38.575 39.4196 39.4855 39.9833 40.6339L50.9635 37.4128C55.5806 36.0584 58.1365 37.0211 59.259 38.5382C59.9984 39.5376 60.1881 40.8325 59.9113 42.1117C59.5194 43.9237 58.1828 45.6835 56.359 46.3872L39.9105 52.7255C37.1684 53.7807 33.5065 55.2666 30.5638 54.4123L21.8007 51.8702L21.7993 51.8698C20.7357 51.5593 19.7152 51.6456 18.7176 52.1314L15.9725 53.4668ZM14.8793 55.2676C14.6182 54.6401 8.00088 38.7476 7.74678 38.1371C7.54506 37.656 6.9896 37.4268 6.50838 37.6266L2.29314 39.3761C2.05326 39.4761 1.88083 39.6489 1.78094 39.8906C1.68202 40.1296 1.68069 40.3705 1.78252 40.6105L1.78361 40.6131C4.1604 46.3243 6.54059 52.0353 8.91749 57.7468L8.91761 57.7472C9.11678 58.2271 9.67261 58.4577 10.1539 58.256L14.3652 56.5102L14.3669 56.5095C14.608 56.4072 14.7814 56.2355 14.8828 55.9943C14.9795 55.7526 14.9791 55.5092 14.8793 55.2676ZM15.3176 51.8935L17.9727 50.602C19.3657 49.9236 20.7907 49.8031 22.2747 50.2362L31.0378 52.7784C32.2871 53.1411 33.6852 52.9681 35.0627 52.6151C36.5603 52.2312 38.034 51.6247 39.2991 51.1379L55.7467 44.8C57.0404 44.3008 57.9705 43.0373 58.2485 41.752C58.4185 40.9664 58.3454 40.1638 57.8913 39.5501C57.5062 39.0295 56.8559 38.6671 55.9207 38.5233C54.8048 38.3516 53.333 38.4907 51.4424 39.0453L40.4385 42.2733C40.4815 42.7835 40.4387 43.3087 40.2992 43.8296C39.6476 46.2624 37.1215 47.7218 34.69 47.0663L24.129 44.2383C23.6755 44.1169 23.4059 43.6501 23.5273 43.1966C23.6487 42.7431 24.1156 42.4735 24.569 42.5949L35.1301 45.423L35.1315 45.4233C36.6599 45.8353 38.2465 44.9178 38.6559 43.3895C39.0654 41.8605 38.1479 40.2731 36.6189 39.8636L28.6723 37.735C28.5747 37.7087 28.4825 37.6655 28.4001 37.6069C26.3812 36.1741 24.7669 35.4535 23.2885 35.2537C21.0723 34.9543 19.1932 35.8283 16.7796 37.0091C14.6586 38.0466 12.5278 39.0612 10.3939 40.0696C12.0347 44.0107 13.6767 47.9519 15.3176 51.8935ZM38.5746 0.850631C38.5746 0.381204 38.9557 0 39.4253 0C39.8947 0 40.2759 0.381204 40.2759 0.850631V3.88994C40.2759 4.35949 39.8947 4.74057 39.4253 4.74057C38.9557 4.74057 38.5746 4.35949 38.5746 3.88994V0.850631ZM48.7557 4.36277C49.0878 4.0309 49.6269 4.03114 49.9586 4.36337C50.2905 4.69549 50.2903 5.23454 49.9581 5.56629L47.807 7.71535C47.4748 8.04722 46.9359 8.04697 46.604 7.71474C46.2722 7.38263 46.2725 6.84357 46.6046 6.51183L48.7557 4.36277ZM53.4708 14.0455C53.9402 14.0455 54.3214 14.4267 54.3214 14.8961C54.3214 15.3657 53.9402 15.7468 53.4708 15.7468H50.4294C49.9599 15.7468 49.5788 15.3657 49.5788 14.8961C49.5788 14.4267 49.9599 14.0455 50.4294 14.0455H53.4708ZM49.9581 24.2261C50.2903 24.5578 50.2905 25.0969 49.9586 25.429C49.6269 25.7611 49.0878 25.7615 48.7557 25.4296L46.6046 23.2806C46.2725 22.9487 46.2722 22.4098 46.604 22.0775C46.9359 21.7454 47.4748 21.7452 47.807 22.077L49.9581 24.2261ZM28.8921 5.56605C28.5602 5.23406 28.5602 4.695 28.8921 4.36301C29.224 4.03102 29.7631 4.03102 30.0951 4.36301L32.2441 6.51207C32.5761 6.84406 32.5761 7.38312 32.2441 7.7151C31.9121 8.04709 31.3731 8.04709 31.0412 7.7151L28.8921 5.56605ZM25.3798 15.7468C24.9102 15.7468 24.5291 15.3657 24.5291 14.8961C24.5291 14.4267 24.9102 14.0455 25.3798 14.0455H28.4191C28.8885 14.0455 29.2697 14.4267 29.2697 14.8961C29.2697 15.3657 28.8885 15.7468 28.4191 15.7468H25.3798ZM30.0951 25.4294C29.7631 25.7614 29.224 25.7614 28.8921 25.4294C28.5602 25.0974 28.5602 24.5583 28.8921 24.2263L31.0412 22.0773C31.3731 21.7453 31.9121 21.7453 32.2441 22.0773C32.5761 22.4093 32.5761 22.9483 32.2441 23.2803L30.0951 25.4294ZM13.8872 30.8658C9.25046 30.8658 5.47207 27.0874 5.47207 22.4506C5.47207 17.8176 9.25033 14.0388 13.8872 14.0388C18.5204 14.0388 22.2989 17.8174 22.2989 22.4506C22.2989 27.0875 18.5203 30.8658 13.8872 30.8658ZM13.8872 29.1645C17.5835 29.1645 20.5976 26.1499 20.5976 22.4506C20.5976 18.7545 17.5834 15.7401 13.8872 15.7401C10.188 15.7401 7.17334 18.7544 7.17334 22.4506C7.17334 26.15 10.1879 29.1645 13.8872 29.1645ZM9.37465 23.3012C8.90522 23.3012 8.52402 22.9201 8.52402 22.4506C8.52402 21.9812 8.90522 21.6 9.37465 21.6H18.3963C18.8657 21.6 19.247 21.9812 19.247 22.4506C19.247 22.9201 18.8657 23.3012 18.3963 23.3012H9.37465Z" fill="#89EA5F"></path></svg>