<svg xmlns="http://www.w3.org/2000/svg" width="51" height="55" viewBox="0 0 51 55" fill="none"><path d="M0.887096 19.5158C0.651823 19.5158 0.426187 19.6093 0.259824 19.7756C0.0934616 19.942 0 20.1676 0 20.4029V23.9513C0 24.1865 0.0934616 24.4122 0.259824 24.5785C0.426187 24.7449 0.651823 24.8384 0.887096 24.8384H2.8213C3.09948 26.0439 3.56081 27.1998 4.1892 28.2656L2.034 30.4208C1.95162 30.5031 1.88627 30.6009 1.84169 30.7086C1.79711 30.8162 1.77416 30.9315 1.77416 31.048C1.77416 31.1645 1.79711 31.2799 1.84169 31.3875C1.88627 31.4952 1.95162 31.593 2.034 31.6753L4.69529 34.3366C4.77766 34.419 4.87546 34.4843 4.98309 34.5289C5.09072 34.5735 5.20608 34.5965 5.32257 34.5965C5.43907 34.5965 5.55443 34.5735 5.66206 34.5289C5.76969 34.4843 5.86749 34.419 5.94986 34.3366L8.10506 32.1814C9.17086 32.8098 10.3267 33.2711 11.5322 33.5493V36.3706C11.5322 36.6059 11.6257 36.8315 11.7921 36.9979C11.9584 37.1642 12.1841 37.2577 12.4193 37.2577H15.5297C16.0979 39.4615 17.1879 41.4963 18.7078 43.1902C20.2277 44.8842 22.1328 46.1876 24.2623 46.9906C26.3918 47.7935 28.6833 48.0723 30.9432 47.8034C33.2031 47.5346 35.3652 46.726 37.2469 45.4459L46.0213 54.2202C46.2684 54.4673 46.5618 54.6634 46.8847 54.7971C47.2076 54.9309 47.5537 54.9997 47.9032 54.9997C48.2527 54.9997 48.5987 54.9309 48.9216 54.7971C49.2445 54.6634 49.5379 54.4673 49.785 54.2202C50.0322 53.9731 50.2282 53.6797 50.3619 53.3568C50.4957 53.0339 50.5645 52.6878 50.5645 52.3383C50.5645 51.9888 50.4957 51.6428 50.3619 51.3199C50.2282 50.997 50.0322 50.7036 49.785 50.4565L41.0107 41.6821C42.9559 38.8251 43.7898 35.3555 43.3552 31.9265C42.9207 28.4976 41.2478 25.3457 38.6513 23.0642H39.9193C40.1546 23.0642 40.3802 22.9707 40.5466 22.8044C40.7129 22.638 40.8064 22.4124 40.8064 22.1771V18.7906C40.9813 18.3271 43.4677 11.7231 43.4677 11.5319C43.4677 9.58121 42.9176 8.0421 41.8328 6.95718C40.748 5.87226 39.2087 5.32227 37.258 5.32227C35.3073 5.32227 33.7682 5.87238 32.6833 6.95718C31.5983 8.04199 31.0483 9.58121 31.0483 11.5319C31.0483 11.6383 33.7096 18.7895 33.7096 18.7895V20.2262C32.2785 19.7546 30.7811 19.5147 29.2742 19.5158H25.5658C25.2876 18.3102 24.8263 17.1544 24.1979 16.0886L26.3531 13.9334C26.4354 13.851 26.5008 13.7532 26.5454 13.6456C26.59 13.538 26.6129 13.4226 26.6129 13.3061C26.6129 13.1896 26.59 13.0743 26.5454 12.9666C26.5008 12.859 26.4354 12.7612 26.3531 12.6788L23.6918 10.0176C23.6094 9.93517 23.5116 9.86983 23.404 9.82524C23.2963 9.78066 23.181 9.75771 23.0645 9.75771C22.948 9.75771 22.8326 9.78066 22.725 9.82524C22.6174 9.86983 22.5196 9.93517 22.4372 10.0176L20.282 12.1728C19.2162 11.5444 18.0604 11.083 16.8548 10.8048V7.98355C16.8548 7.74828 16.7614 7.52264 16.595 7.35628C16.4286 7.18992 16.203 7.09646 15.9677 7.09646H12.4193C12.1841 7.09646 11.9584 7.18992 11.7921 7.35628C11.6257 7.52264 11.5322 7.74828 11.5322 7.98355V10.8048C10.3267 11.083 9.17086 11.5444 8.10506 12.1728L5.94986 10.0176C5.86749 9.93517 5.76969 9.86983 5.66206 9.82524C5.55443 9.78066 5.43907 9.75771 5.32257 9.75771C5.20608 9.75771 5.09072 9.78066 4.98309 9.82524C4.87546 9.86983 4.77766 9.93517 4.69529 10.0176L2.034 12.6788C1.95162 12.7612 1.88627 12.859 1.84169 12.9666C1.79711 13.0743 1.77416 13.1896 1.77416 13.3061C1.77416 13.4226 1.79711 13.538 1.84169 13.6456C1.88627 13.7532 1.95162 13.851 2.034 13.9334L4.1892 16.0886C3.56081 17.1544 3.09948 18.3102 2.8213 19.5158H0.887096ZM48.5305 51.7112C48.6148 51.7931 48.682 51.891 48.7282 51.9991C48.7744 52.1072 48.7986 52.2235 48.7995 52.3411C48.8003 52.4586 48.7778 52.5752 48.7332 52.684C48.6886 52.7928 48.6228 52.8917 48.5396 52.9748C48.4565 53.0579 48.3576 53.1237 48.2488 53.1683C48.14 53.2129 48.0234 53.2354 47.9059 53.2346C47.7883 53.2337 47.672 53.2095 47.5639 53.1633C47.4558 53.1171 47.3579 53.0499 47.276 52.9655L38.6583 44.348C39.102 43.9562 39.5209 43.5373 39.9128 43.0936L48.5305 51.7112ZM32.824 11.3749C32.8765 8.53566 34.3678 7.09646 37.258 7.09646C40.1522 7.09646 41.6432 8.5391 41.6922 11.3852C41.4428 12.0702 40.2305 15.2913 39.306 17.7416H35.2114L32.824 11.3749ZM35.4838 19.5158H39.0322V21.29H36.1389C35.924 21.1707 35.7056 21.0567 35.4838 20.9481V19.5158ZM41.6935 33.7093C41.6935 36.1653 40.9653 38.5661 39.6011 40.6083C38.2368 42.6504 36.2976 44.2422 34.0288 45.1825C31.76 46.1227 29.2633 46.3692 26.8544 45.8907C24.4455 45.4121 22.2326 44.2302 20.4954 42.4941C18.7582 40.7581 17.5747 38.546 17.0945 36.1375C16.6143 33.7289 16.8591 31.2321 17.7977 28.9626C18.7364 26.6931 20.3269 24.7529 22.3681 23.3872C24.4094 22.0215 26.8097 21.2917 29.2656 21.29H29.2742C32.5668 21.2937 35.7236 22.6034 38.0518 24.9316C40.3801 27.2599 41.6898 30.4167 41.6935 33.7093ZM14.1935 26.6126C13.3163 26.6126 12.4587 26.3524 11.7293 25.865C10.9999 25.3777 10.4314 24.6849 10.0957 23.8745C9.75997 23.064 9.67213 22.1722 9.84328 21.3118C10.0144 20.4514 10.4369 19.661 11.0572 19.0407C11.6775 18.4204 12.4678 17.998 13.3282 17.8268C14.1886 17.6557 15.0804 17.7435 15.8909 18.0792C16.7014 18.4149 17.3941 18.9835 17.8815 19.7129C18.3689 20.4423 18.629 21.2998 18.629 22.1771C18.6277 23.353 18.16 24.4805 17.3284 25.312C16.4969 26.1435 15.3695 26.6112 14.1935 26.6126ZM4.42339 20.5489C4.66715 19.0902 5.22182 17.701 6.04977 16.4755C6.16915 16.3047 6.22458 16.0973 6.20633 15.8897C6.18808 15.6821 6.09732 15.4875 5.94997 15.3401L3.91575 13.3061L5.32257 11.8993L7.35657 13.9334C7.50395 14.0808 7.69851 14.1715 7.90611 14.1898C8.11372 14.208 8.32112 14.1526 8.49195 14.0332C9.71743 13.2053 11.1067 12.6506 12.5654 12.4068C12.7725 12.3723 12.9606 12.2654 13.0962 12.1052C13.2319 11.945 13.3064 11.7419 13.3064 11.5319V8.87065H15.0806V11.5319C15.0806 11.7419 15.1551 11.945 15.2908 12.1053C15.4265 12.2655 15.6146 12.3724 15.8217 12.4069C17.2804 12.6507 18.6696 13.2054 19.8951 14.0333C20.0659 14.1527 20.2733 14.2081 20.4809 14.1899C20.6886 14.1716 20.8831 14.0809 21.0305 13.9335L23.0645 11.8993L24.4713 13.3061L22.4372 15.3401C22.2898 15.4875 22.1991 15.6821 22.1808 15.8897C22.1626 16.0973 22.218 16.3047 22.3374 16.4755C23.165 17.7004 23.7195 19.089 23.9634 20.547C22.6732 21.0701 21.4668 21.78 20.383 22.6539C20.3951 22.4961 20.4032 22.3373 20.4032 22.1765C20.4038 20.8574 19.9844 19.5723 19.2059 18.5074C18.4273 17.4425 17.33 16.6531 16.0729 16.2535C14.8157 15.8538 13.464 15.8648 12.2134 16.2847C10.9629 16.7046 9.87851 17.5116 9.11727 18.589C8.35604 19.6663 7.95751 20.958 7.97939 22.2769C8.00128 23.5959 8.44244 24.8737 9.239 25.9251C10.0356 26.9766 11.1461 27.7473 12.4099 28.1255C13.6737 28.5036 15.025 28.4697 16.2682 28.0286C15.483 29.8194 15.0786 31.7539 15.0806 33.7093C15.0807 34.3025 15.1178 34.895 15.1915 35.4835H13.3064V32.8222C13.3064 32.6123 13.232 32.4091 13.0963 32.2489C12.9606 32.0887 12.7725 31.9818 12.5654 31.9472C11.1067 31.7035 9.71743 31.1488 8.49195 30.3208C8.32112 30.2015 8.11372 30.146 7.90611 30.1643C7.69851 30.1825 7.50395 30.2733 7.35657 30.4206L5.32257 32.4549L3.91575 31.048L5.94986 29.014C6.09721 28.8667 6.18797 28.6721 6.20622 28.4645C6.22447 28.2569 6.16904 28.0495 6.04966 27.8787C5.22171 26.6532 4.66704 25.264 4.42328 23.8052C4.38872 23.5982 4.28184 23.4101 4.12164 23.2744C3.96145 23.1387 3.75832 23.0642 3.54838 23.0642H1.77419V21.29H3.54838C3.75834 21.29 3.96149 21.2155 4.12171 21.0798C4.28193 20.9441 4.38883 20.756 4.42339 20.5489Z" fill="white"></path><path d="M27.5937 4.92585C27.4884 5.13628 27.4711 5.37988 27.5455 5.60307C27.6199 5.82627 27.7799 6.01077 27.9903 6.116L29.7645 7.0031C29.8688 7.05628 29.9826 7.08829 30.0993 7.09727C30.2161 7.10626 30.3334 7.09206 30.4446 7.05547C30.5558 7.01889 30.6587 6.96065 30.7473 6.88412C30.8359 6.80759 30.9085 6.71428 30.9609 6.60956C31.0132 6.50485 31.0443 6.3908 31.0524 6.27401C31.0605 6.15721 31.0454 6.03997 31.0079 5.92904C30.9705 5.81811 30.9114 5.7157 30.8342 5.6277C30.757 5.5397 30.6631 5.46785 30.558 5.41631L28.7838 4.52921C28.5734 4.42399 28.3298 4.40667 28.1066 4.48105C27.8834 4.55544 27.6989 4.71544 27.5937 4.92585Z" fill="white"></path><path d="M36.3711 0.887096V2.66129C36.3711 2.89656 36.4646 3.1222 36.6309 3.28856C36.7973 3.45492 37.0229 3.54838 37.2582 3.54838C37.4935 3.54838 37.7191 3.45492 37.8855 3.28856C38.0518 3.1222 38.1453 2.89656 38.1453 2.66129V0.887096C38.1453 0.651823 38.0518 0.426187 37.8855 0.259824C37.7191 0.0934616 37.4935 0 37.2582 0C37.0229 0 36.7973 0.0934616 36.6309 0.259824C36.4646 0.426187 36.3711 0.651823 36.3711 0.887096Z" fill="white"></path><path d="M31.5391 0.980383C31.3287 1.08561 31.1687 1.27012 31.0943 1.49331C31.02 1.71651 31.0373 1.96011 31.1425 2.17053L32.0296 3.94472C32.0811 4.04984 32.153 4.14372 32.241 4.22094C32.329 4.29816 32.4314 4.3572 32.5423 4.39465C32.6532 4.43209 32.7705 4.44722 32.8873 4.43914C33.0041 4.43106 33.1181 4.39994 33.2228 4.34758C33.3276 4.29521 33.4209 4.22264 33.4974 4.13404C33.5739 4.04544 33.6322 3.94257 33.6688 3.83135C33.7053 3.72014 33.7195 3.60278 33.7106 3.48605C33.7016 3.36932 33.6696 3.25552 33.6164 3.15122L32.7293 1.37703C32.6241 1.16661 32.4395 1.00661 32.2164 0.932227C31.9932 0.857842 31.7496 0.875165 31.5391 0.980383Z" fill="white"></path><path d="M41.7876 1.37739L40.9005 3.15158C40.8473 3.25588 40.8153 3.36968 40.8063 3.48641C40.7973 3.60314 40.8115 3.7205 40.8481 3.83171C40.8847 3.94293 40.9429 4.0458 41.0195 4.1344C41.096 4.223 41.1893 4.29558 41.294 4.34794C41.3988 4.4003 41.5128 4.43142 41.6296 4.4395C41.7464 4.44758 41.8636 4.43246 41.9746 4.39501C42.0855 4.35756 42.1879 4.29852 42.2759 4.2213C42.3639 4.14408 42.4357 4.05021 42.4873 3.94509L43.3744 2.1709C43.4276 2.06659 43.4596 1.9528 43.4686 1.83606C43.4776 1.71933 43.4633 1.60198 43.4268 1.49076C43.3902 1.37955 43.3319 1.27667 43.2554 1.18807C43.1789 1.09947 43.0856 1.0269 42.9809 0.974535C42.8761 0.922171 42.7621 0.891052 42.6453 0.882974C42.5285 0.874895 42.4113 0.890017 42.3003 0.927466C42.1894 0.964916 42.087 1.02395 41.999 1.10117C41.911 1.17839 41.8391 1.27227 41.7876 1.37739Z" fill="white"></path><path d="M45.7326 4.52917L43.9584 5.41626C43.8533 5.46781 43.7594 5.53965 43.6822 5.62765C43.605 5.71565 43.546 5.81807 43.5085 5.929C43.4711 6.03992 43.456 6.15716 43.464 6.27396C43.4721 6.39076 43.5032 6.5048 43.5556 6.60952C43.608 6.71423 43.6805 6.80754 43.7691 6.88408C43.8577 6.96061 43.9606 7.01884 44.0718 7.05543C44.183 7.09201 44.3004 7.10622 44.4171 7.09723C44.5338 7.08824 44.6476 7.05623 44.7519 7.00305L46.5261 6.11596C46.6313 6.06441 46.7251 5.99257 46.8024 5.90457C46.8796 5.81657 46.9386 5.71415 46.9761 5.60322C47.0135 5.4923 47.0286 5.37506 47.0206 5.25826C47.0125 5.14146 46.9814 5.02742 46.929 4.9227C46.8766 4.81799 46.8041 4.72468 46.7155 4.64814C46.6269 4.57161 46.524 4.51338 46.4128 4.47679C46.3016 4.44021 46.1842 4.426 46.0675 4.43499C45.9507 4.44398 45.8369 4.47599 45.7326 4.52917Z" fill="white"></path><path d="M18.6289 33.7096C18.6289 35.815 19.2532 37.8731 20.4229 39.6237C21.5926 41.3743 23.2552 42.7387 25.2003 43.5444C27.1455 44.3501 29.2859 44.561 31.3508 44.1502C33.4158 43.7395 35.3126 42.7256 36.8013 41.2369C38.2901 39.7481 39.3039 37.8513 39.7147 35.7864C40.1254 33.7214 39.9146 31.581 39.1089 29.6359C38.3032 27.6907 36.9388 26.0282 35.1882 24.8585C33.4376 23.6888 31.3795 23.0645 29.2741 23.0645C26.4518 23.0676 23.746 24.1902 21.7503 26.1858C19.7546 28.1815 18.6321 30.8873 18.6289 33.7096ZM38.145 33.7096C38.145 35.4641 37.6247 37.1792 36.65 38.638C35.6752 40.0969 34.2898 41.2339 32.6688 41.9053C31.0479 42.5767 29.2642 42.7524 27.5434 42.4101C25.8226 42.0678 24.242 41.2229 23.0013 39.9823C21.7607 38.7417 20.9158 37.161 20.5735 35.4402C20.2313 33.7194 20.4069 31.9358 21.0784 30.3148C21.7498 28.6939 22.8868 27.3084 24.3456 26.3337C25.8044 25.3589 27.5195 24.8386 29.2741 24.8386C31.626 24.8413 33.8808 25.7768 35.5438 27.4398C37.2069 29.1029 38.1423 31.3577 38.145 33.7096Z" fill="white"></path><path d="M23.9519 33.7094C23.9519 33.4741 23.8585 33.2485 23.6921 33.0821C23.5257 32.9157 23.3001 32.8223 23.0648 32.8223C22.8296 32.8223 22.6039 32.9157 22.4376 33.0821C22.2712 33.2485 22.1777 33.4741 22.1777 33.7094C22.1798 35.5909 22.9282 37.3948 24.2587 38.7252C25.5891 40.0556 27.393 40.804 29.2745 40.8061C29.5098 40.8061 29.7354 40.7127 29.9018 40.5463C30.0681 40.3799 30.1616 40.1543 30.1616 39.919C30.1616 39.6838 30.0681 39.4581 29.9018 39.2918C29.7354 39.1254 29.5098 39.0319 29.2745 39.0319C27.8633 39.0304 26.5104 38.4691 25.5126 37.4713C24.5148 36.4734 23.9535 35.1205 23.9519 33.7094Z" fill="white"></path></svg>