<svg xmlns="http://www.w3.org/2000/svg" width="28" height="28" viewBox="0 0 28 28" fill="none"><path d="M14.5774 15.8629C13.5314 15.858 12.4922 15.6941 11.4955 15.3769C9.90292 14.8441 8.72005 13.4959 8.39898 11.8475C8.04765 10.1553 8.68792 8.36598 10.1553 6.93855C10.3127 6.78521 10.4763 6.63833 10.6461 6.49791C12.1484 5.24011 14.1739 4.803 16.0613 5.32927C17.8886 5.91247 19.1511 7.58234 19.2143 9.49934C19.2827 10.6028 18.923 11.6902 18.2101 12.5352C17.6603 13.2278 16.7694 13.555 15.902 13.3828C15.5473 13.3092 15.2378 13.0944 15.0448 12.7878C14.8716 12.4899 14.8272 12.1344 14.9218 11.8032C15.3298 10.2607 15.7447 7.91652 15.7488 7.89277C15.7778 7.72856 15.8922 7.59228 16.0489 7.53528C16.2056 7.47827 16.3808 7.50919 16.5085 7.6164C16.6363 7.72361 16.6971 7.89081 16.6681 8.05502C16.6508 8.15254 16.2423 10.4615 15.8241 12.0417C15.7943 12.1293 15.8018 12.2253 15.8449 12.3071C15.9094 12.3964 16.0068 12.4564 16.1155 12.4739C16.6465 12.5625 17.1829 12.3495 17.5084 11.9207C18.062 11.2584 18.3394 10.4084 18.283 9.54699C18.2374 8.02108 17.2367 6.68888 15.784 6.21989C14.1982 5.78372 12.4994 6.15633 11.2417 7.21615C11.0918 7.3406 10.946 7.47088 10.8061 7.60714C10.0806 8.31279 8.92222 9.77699 9.31256 11.6575C9.57482 12.9713 10.5131 14.048 11.7788 14.4874C13.9673 15.1856 17.112 15.2696 18.7689 13.2094C18.9317 13.0134 19.2217 12.9842 19.4203 13.1438C19.6189 13.3035 19.6527 13.5929 19.4962 13.7941C18.271 15.3178 16.4065 15.8629 14.5774 15.8629Z" fill="white"></path><path d="M12.9792 13.4435C12.4859 13.4519 12.0048 13.2902 11.6169 12.9855C10.7212 12.2687 10.6966 11.0234 10.9477 10.1754C11.0322 9.89302 11.1458 9.62011 11.2865 9.36106C11.6366 8.65463 12.1965 8.07363 12.8894 7.69756C13.7524 7.24977 14.8068 7.41958 15.4855 8.11566C15.8222 8.48469 16.0759 8.92166 16.2293 9.39709C16.3106 9.63835 16.1835 9.90021 15.9437 9.98562C15.7038 10.071 15.4398 9.94846 15.3503 9.71015C15.2396 9.35891 15.0558 9.03514 14.8108 8.76022C14.415 8.35554 13.7984 8.26347 13.3018 8.53489C12.7821 8.82797 12.3644 9.27295 12.1048 9.81015C11.9958 10.0114 11.9076 10.2234 11.8419 10.4427C11.6606 11.0561 11.7004 11.8566 12.2008 12.2573C12.7478 12.6966 13.6707 12.5108 14.1899 12.0629C14.5769 11.7146 14.9093 11.3101 15.1762 10.8631C15.2627 10.7182 15.4205 10.6313 15.5891 10.6357C15.7577 10.6401 15.9108 10.7352 15.9896 10.8843C16.0683 11.0334 16.0605 11.2135 15.969 11.3552C15.6529 11.8819 15.2593 12.3581 14.8015 12.7678C14.2913 13.1983 13.6468 13.4373 12.9792 13.4435Z" fill="white"></path><path d="M26.5981 28H1.3999C0.627109 27.9992 0.000848671 27.3729 0 26.6001V9.33467C7.33548e-06 9.15372 0.104627 8.98908 0.268447 8.91223C0.432266 8.83538 0.625748 8.86016 0.764906 8.97583L12.2147 18.4917C13.2508 19.3473 14.7483 19.347 15.784 18.491L27.2327 8.97583C27.3719 8.85993 27.5655 8.835 27.7295 8.91188C27.8935 8.98877 27.9981 9.15357 27.998 9.33467V26.6001C27.9972 27.3729 27.3709 27.9992 26.5981 28ZM0.933267 10.3292V26.6001C0.933602 26.8577 1.14232 27.0664 1.3999 27.0667H26.5981C26.8557 27.0665 27.0645 26.8577 27.0648 26.6001V10.3292L16.3798 19.2092C14.9983 20.351 13.0008 20.3513 11.6189 19.2099L0.933267 10.3292Z" fill="white"></path><path d="M0.46709 9.80131C0.263839 9.80149 0.0838465 9.67009 0.0220927 9.47645C-0.0396612 9.28281 0.0310296 9.07147 0.196863 8.95395L4.39657 5.97682C4.60683 5.8311 4.89522 5.88183 5.04313 6.09057C5.19103 6.29931 5.14328 6.58822 4.93609 6.73828L0.736385 9.7154C0.657746 9.77136 0.563607 9.80139 0.46709 9.80131Z" fill="white"></path><path d="M27.5311 9.80131C27.4346 9.80139 27.3404 9.77136 27.2618 9.7154L23.0621 6.73828C22.8549 6.58822 22.8072 6.29931 22.9551 6.09057C23.103 5.88183 23.3914 5.8311 23.6016 5.97682L27.8013 8.95395C27.9672 9.07147 28.0378 9.28281 27.9761 9.47645C27.9143 9.67009 27.7343 9.80149 27.5311 9.80131Z" fill="white"></path><path d="M18.3103 3.26841C18.2137 3.26846 18.1195 3.23844 18.0408 3.1825L15.8102 1.60061C14.7748 0.725669 13.2618 0.716555 12.216 1.57896L9.95745 3.18255C9.82143 3.27901 9.64428 3.29557 9.49273 3.22601C9.34118 3.15644 9.23826 3.01131 9.22274 2.84528C9.20721 2.67925 9.28144 2.51756 9.41746 2.4211L11.648 0.839208C13.0262 -0.287729 15.0101 -0.278765 16.3781 0.860579L18.5807 2.42091C18.7466 2.5384 18.8174 2.74984 18.7556 2.94358C18.6938 3.13731 18.5137 3.26872 18.3103 3.26841Z" fill="white"></path><path d="M0.769799 27.748C0.573145 27.7482 0.39749 27.6251 0.33059 27.4401C0.26369 27.2552 0.319907 27.0482 0.471154 26.9225L11.1197 18.0751C11.2477 17.9663 11.4242 17.9347 11.582 17.9923C11.7398 18.0499 11.8545 18.1878 11.8822 18.3535C11.91 18.5191 11.8466 18.6869 11.7162 18.7928L1.06765 27.6402C0.984046 27.7099 0.878644 27.7481 0.769799 27.748Z" fill="white"></path><path d="M27.228 27.748C27.1192 27.7481 27.0139 27.7099 26.9304 27.6402L16.2818 18.7928C16.1514 18.6869 16.088 18.5191 16.1158 18.3535C16.1436 18.1878 16.2582 18.0499 16.416 17.9923C16.5738 17.9347 16.7503 17.9663 16.8783 18.0751L27.5266 26.9225C27.6778 27.0482 27.7341 27.2552 27.6672 27.4401C27.6003 27.6251 27.4246 27.7482 27.228 27.748Z" fill="white"></path><path d="M23.3312 13.2917C23.0735 13.2917 22.8646 13.0828 22.8646 12.8251V3.27205C22.8632 3.28185 22.8445 3.26865 22.8132 3.26841H5.18382C5.16319 3.26715 5.14295 3.2744 5.12782 3.28848L5.13249 12.8251C5.13249 13.0828 4.92357 13.2917 4.66585 13.2917C4.40814 13.2917 4.19922 13.0828 4.19922 12.8251V3.26841C4.21427 2.7392 4.65456 2.32187 5.18382 2.33515H22.8132C23.3425 2.32192 23.7827 2.73923 23.7978 3.26841V12.8251C23.7978 13.0828 23.5889 13.2917 23.3312 13.2917Z" fill="white"></path></svg>