<svg xmlns="http://www.w3.org/2000/svg" width="51" height="61" viewBox="0 0 51 61" fill="none"><path d="M25 7.5C21.5388 7.5 18.1554 8.52636 15.2775 10.4493C12.3997 12.3722 10.1566 15.1053 8.83212 18.303C7.50758 21.5007 7.16102 25.0194 7.83627 28.4141C8.51151 31.8087 10.1782 34.9269 12.6256 37.3744C15.0731 39.8218 18.1913 41.4885 21.5859 42.1637C24.9806 42.839 28.4993 42.4924 31.697 41.1679C34.8947 39.8434 37.6278 37.6003 39.5507 34.7225C41.4737 31.8446 42.5 28.4612 42.5 25C42.5 20.3587 40.6563 15.9075 37.3744 12.6256C34.0925 9.34374 29.6413 7.5 25 7.5ZM25 40C22.0333 40 19.1332 39.1203 16.6665 37.472C14.1997 35.8238 12.2771 33.4811 11.1418 30.7402C10.0065 27.9994 9.70945 24.9834 10.2882 22.0736C10.867 19.1639 12.2956 16.4912 14.3934 14.3934C16.4912 12.2956 19.1639 10.867 22.0737 10.2882C24.9834 9.70944 27.9994 10.0065 30.7403 11.1418C33.4811 12.2771 35.8238 14.1997 37.472 16.6664C39.1203 19.1332 40 22.0333 40 25C40 28.9782 38.4197 32.7936 35.6066 35.6066C32.7936 38.4196 28.9783 40 25 40Z" fill="#89EA5F"></path><path d="M48.4622 21.5875C48.1318 21.2888 47.907 20.8911 47.8214 20.454C47.7357 20.0169 47.7939 19.5638 47.9872 19.1625C48.2618 18.5861 48.4121 17.9584 48.4282 17.3201C48.4442 16.6819 48.3258 16.0473 48.0806 15.4579C47.8354 14.8684 47.4688 14.3371 47.0048 13.8985C46.5408 13.46 45.9896 13.1241 45.3872 12.9125C44.9641 12.7701 44.5999 12.492 44.3513 12.1212C44.1026 11.7505 43.9834 11.308 44.0122 10.8625C44.0491 10.2041 43.9436 9.54541 43.703 8.93143C43.4623 8.31746 43.092 7.76259 42.6175 7.30465C42.1429 6.84672 41.5752 6.49648 40.9531 6.2778C40.3309 6.05913 39.6689 5.97717 39.0122 6.0375C38.5877 6.039 38.1735 5.90706 37.8281 5.66032C37.4826 5.41359 37.2235 5.06454 37.0872 4.6625C36.8757 4.0601 36.5397 3.50897 36.1012 3.04493C35.6626 2.5809 35.1314 2.21435 34.5419 1.96913C33.9524 1.7239 33.3179 1.60548 32.6796 1.62156C32.0413 1.63765 31.4136 1.78789 30.8372 2.0625C28.4872 3.1375 28.3997 0 24.9997 0C24.3551 0.00356655 23.7183 0.142234 23.1305 0.407057C22.5427 0.671879 22.017 1.05697 21.5872 1.5375C21.284 1.86122 20.8867 2.0813 20.4514 2.16656C20.0162 2.25181 19.5651 2.19791 19.1622 2.0125C18.5861 1.73586 17.9581 1.58403 17.3193 1.56694C16.6805 1.54986 16.0452 1.66791 15.4552 1.91337C14.8651 2.15882 14.3336 2.52615 13.8954 2.99129C13.4571 3.45643 13.1221 4.00889 12.9122 4.6125C12.7657 5.03542 12.4848 5.39877 12.1123 5.64705C11.7399 5.89533 11.2965 6.0149 10.8497 5.9875C10.1913 5.95059 9.53263 6.05608 8.91866 6.29677C8.30468 6.53746 7.74981 6.9077 7.29188 7.38224C6.83394 7.85679 6.4837 8.42449 6.26503 9.04665C6.04635 9.66881 5.96439 10.3308 6.02472 10.9875C6.02622 11.412 5.89428 11.8262 5.64754 12.1717C5.40081 12.5171 5.05176 12.7762 4.64972 12.9125C4.04852 13.1257 3.49871 13.4626 3.03577 13.9014C2.57283 14.3402 2.20705 14.8713 1.96205 15.4602C1.71704 16.0492 1.59826 16.683 1.61336 17.3207C1.62846 17.9584 1.77711 18.5858 2.04972 19.1625C2.26009 19.5736 2.32638 20.0435 2.23799 20.4967C2.1496 20.95 1.91164 21.3605 1.56222 21.6625C1.08192 22.0905 0.697569 22.6153 0.43439 23.2023C0.171211 23.7893 0.0351563 24.4254 0.0351562 25.0688C0.0351562 25.7121 0.171211 26.3482 0.43439 26.9352C0.697569 27.5222 1.08192 28.047 1.56222 28.475C1.89264 28.7737 2.11747 29.1714 2.20309 29.6085C2.28871 30.0456 2.23052 30.4987 2.03722 30.9C1.76058 31.4761 1.60875 32.1041 1.59166 32.7429C1.57458 33.3818 1.69263 34.017 1.93809 34.607C2.18355 35.1971 2.55087 35.7286 3.01601 36.1668C3.48115 36.6051 4.03361 36.9401 4.63722 37.15C5.06015 37.2965 5.42349 37.5775 5.67177 37.9499C5.92005 38.3223 6.03962 38.7657 6.01222 39.2125C5.95128 40.2444 6.24548 41.266 6.84586 42.1075C7.44625 42.9489 8.31663 43.5595 9.31222 43.8375C3.42472 54.05 3.41222 53.6 3.98722 54.4625C4.56222 55.325 4.94972 55.0375 10.4497 54.375C12.5997 59.45 12.5622 60 13.5872 60C14.6122 60 14.3997 60 21.2122 48.1625C21.352 48.2527 21.4819 48.3575 21.5997 48.475C22.0277 48.9553 22.5525 49.3397 23.1395 49.6028C23.7266 49.866 24.3626 50.0021 25.006 50.0021C25.6493 50.0021 26.2854 49.866 26.8724 49.6028C27.4595 49.3397 27.9842 48.9553 28.4122 48.475C28.5265 48.3623 28.6522 48.2618 28.7872 48.175C35.7747 60.2875 35.3622 60.0875 36.4122 60.0125C37.4622 59.9375 37.3997 59.475 39.5747 54.3625C45.0372 55.025 45.4747 55.3125 46.0372 54.45C46.5997 53.5875 46.3122 53.5375 40.7122 43.8375C41.7274 43.5465 42.6107 42.9133 43.2122 42.0452C43.8137 41.1772 44.0964 40.1277 44.0122 39.075C44.0107 38.6505 44.1427 38.2363 44.3894 37.8908C44.6361 37.5454 44.9852 37.2863 45.3872 37.15C45.9884 36.9368 46.5382 36.5999 47.0012 36.1611C47.4641 35.7223 47.8299 35.1912 48.0749 34.6023C48.3199 34.0133 48.4387 33.3795 48.4236 32.7418C48.4085 32.1041 48.2598 31.4767 47.9872 30.9C47.7979 30.4979 47.7419 30.0458 47.8274 29.6097C47.9128 29.1735 48.1352 28.776 48.4622 28.475C48.9569 28.0479 49.3537 27.5192 49.6257 26.9249C49.8977 26.3307 50.0385 25.6848 50.0385 25.0312C50.0385 24.3777 49.8977 23.7318 49.6257 23.1376C49.3537 22.5433 48.9569 22.0146 48.4622 21.5875ZM13.8247 55.9625C11.6247 50.825 12.7997 51.55 7.33722 52.2125C12.4122 43.4625 11.8622 44.25 12.0122 44.3375C12.4081 44.5791 12.7083 44.95 12.8622 45.3875C13.2341 46.4567 13.9901 47.3495 14.9835 47.8923C15.9768 48.4352 17.1365 48.5894 18.2372 48.325L13.8247 55.9625ZM36.1747 55.9625L31.7622 48.325C32.8612 48.5889 34.0191 48.4343 35.0104 47.8912C36.0017 47.3482 36.7554 46.4557 37.1247 45.3875C37.3093 44.9177 37.6489 44.5252 38.0872 44.275L42.6622 52.2125C37.1497 51.5375 38.3372 50.8875 36.1747 55.9625ZM46.8122 26.5375C46.0711 27.1989 45.5654 28.0835 45.3714 29.0577C45.1775 30.0319 45.3059 31.0427 45.7372 31.9375C45.8645 32.1975 45.9349 32.4817 45.9437 32.7711C45.9525 33.0604 45.8996 33.3483 45.7884 33.6157C45.6772 33.8829 45.5104 34.1235 45.2989 34.3212C45.0875 34.519 44.8364 34.6694 44.5622 34.7625C43.6094 35.1002 42.7944 35.7422 42.2431 36.5895C41.6918 37.4368 41.4349 38.4421 41.5122 39.45C41.5115 39.7368 41.4514 40.0204 41.3355 40.2828C41.2197 40.5451 41.0508 40.7807 40.8394 40.9745C40.6279 41.1683 40.3786 41.3162 40.1072 41.4088C39.8357 41.5014 39.548 41.5367 39.2622 41.5125C38.2846 41.4729 37.32 41.7477 36.5101 42.2966C35.7002 42.8456 35.0876 43.6397 34.7622 44.5625C34.6658 44.8342 34.5135 45.0827 34.3151 45.2919C34.1168 45.5011 33.8767 45.6664 33.6105 45.7771C33.3444 45.8878 33.0579 45.9415 32.7697 45.9347C32.4815 45.9279 32.1979 45.8607 31.9372 45.7375C31.0439 45.3138 30.0381 45.1884 29.0681 45.3797C28.0981 45.571 27.2153 46.0689 26.5497 46.8C26.3502 47.0083 26.1106 47.1741 25.8452 47.2874C25.5799 47.4007 25.2944 47.4591 25.006 47.4591C24.7175 47.4591 24.432 47.4007 24.1667 47.2874C23.9014 47.1741 23.6618 47.0083 23.4622 46.8C22.8008 46.0589 21.9162 45.5532 20.942 45.3592C19.9678 45.1653 18.957 45.2937 18.0622 45.725C17.801 45.8503 17.5162 45.9192 17.2266 45.9271C16.9369 45.935 16.6489 45.8818 16.3812 45.7709C16.1135 45.6601 15.8721 45.494 15.6729 45.2837C15.4736 45.0733 15.3209 44.8233 15.2247 44.55C14.8931 43.5958 14.2541 42.7786 13.4081 42.2267C12.562 41.6747 11.5567 41.4191 10.5497 41.5C10.2629 41.4993 9.97936 41.4391 9.71696 41.3233C9.45457 41.2075 9.21904 41.0386 9.02523 40.8271C8.83143 40.6157 8.68355 40.3664 8.59095 40.0949C8.49835 39.8235 8.46303 39.5358 8.48722 39.25C8.52886 38.272 8.25482 37.3065 7.7056 36.4962C7.15638 35.6858 6.36109 35.0736 5.43722 34.75C5.16185 34.6587 4.90931 34.5092 4.69672 34.3118C4.48413 34.1143 4.31645 33.8735 4.20503 33.6056C4.09361 33.3378 4.04105 33.0491 4.05092 32.7591C4.06079 32.4691 4.13285 32.1847 4.26222 31.925C4.68994 31.0325 4.81758 30.0257 4.62609 29.0547C4.4346 28.0838 3.93425 27.2008 3.19972 26.5375C2.9813 26.344 2.80643 26.1063 2.68666 25.8402C2.5669 25.5741 2.50497 25.2856 2.50497 24.9938C2.50497 24.7019 2.5669 24.4134 2.68666 24.1473C2.80643 23.8812 2.9813 23.6435 3.19972 23.45C3.93737 22.7863 4.44062 21.9018 4.63436 20.9286C4.8281 19.9554 4.70195 18.9456 4.27472 18.05C4.14535 17.7903 4.07329 17.5059 4.06342 17.2159C4.05355 16.9259 4.10611 16.6372 4.21753 16.3694C4.32895 16.1015 4.49663 15.8607 4.70922 15.6632C4.92181 15.4658 5.17435 15.3163 5.44972 15.225C6.40251 14.8873 7.21755 14.2452 7.76885 13.398C8.32015 12.5507 8.57701 11.5454 8.49972 10.5375C8.49853 10.2501 8.55741 9.96567 8.67258 9.70238C8.78775 9.43908 8.95668 9.20277 9.16852 9.00858C9.38036 8.81439 9.63045 8.66661 9.90275 8.57473C10.175 8.48284 10.4635 8.44887 10.7497 8.475C11.7278 8.51663 12.6932 8.2426 13.5036 7.69338C14.3139 7.14416 14.9261 6.34887 15.2497 5.425C15.3461 5.1533 15.4984 4.90483 15.6968 4.69562C15.8952 4.48642 16.1352 4.32112 16.4014 4.21041C16.6676 4.09969 16.954 4.04601 17.2423 4.05283C17.5305 4.05965 17.8141 4.12682 18.0747 4.25C18.9672 4.67772 19.974 4.80536 20.945 4.61387C21.916 4.42238 22.799 3.92203 23.4622 3.1875C23.6618 2.97916 23.9014 2.81336 24.1667 2.70009C24.432 2.58682 24.7175 2.52843 25.006 2.52843C25.2944 2.52843 25.5799 2.58682 25.8452 2.70009C26.1106 2.81336 26.3502 2.97916 26.5497 3.1875C27.2134 3.92515 28.0979 4.4284 29.0711 4.62214C30.0443 4.81588 31.0541 4.68973 31.9497 4.2625C32.2101 4.1373 32.4939 4.06854 32.7827 4.06073C33.0715 4.05292 33.3587 4.10623 33.6254 4.21718C33.8922 4.32812 34.1324 4.49419 34.3305 4.70449C34.5286 4.9148 34.68 5.16459 34.7747 5.4375C35.1124 6.39029 35.7545 7.20533 36.6018 7.75663C37.449 8.30793 38.4543 8.56479 39.4622 8.4875C39.749 8.48821 40.0326 8.54836 40.295 8.66418C40.5574 8.77999 40.7929 8.94894 40.9867 9.16037C41.1805 9.37179 41.3284 9.6211 41.421 9.89255C41.5136 10.164 41.5489 10.4517 41.5247 10.7375C41.4831 11.7155 41.7571 12.681 42.3063 13.4913C42.8556 14.3017 43.6509 14.9139 44.5747 15.2375C44.8501 15.3288 45.1026 15.4783 45.3152 15.6757C45.5278 15.8732 45.6955 16.114 45.8069 16.3819C45.9183 16.6497 45.9709 16.9384 45.961 17.2284C45.9512 17.5184 45.8791 17.8028 45.7497 18.0625C45.322 18.955 45.1944 19.9618 45.3858 20.9328C45.5773 21.9037 46.0777 22.7867 46.8122 23.45C47.0306 23.6435 47.2055 23.8812 47.3253 24.1473C47.445 24.4134 47.507 24.7019 47.507 24.9938C47.507 25.2856 47.445 25.5741 47.3253 25.8402C47.2055 26.1063 47.0306 26.344 46.8122 26.5375Z" fill="#89EA5F"></path><path d="M28.9246 20.125C25.9496 14.1125 26.0371 13.75 24.9996 13.75C23.9621 13.75 24.0496 14.1 21.0746 20.125C14.4496 21.0875 14.1371 20.8875 13.8121 21.875C13.4871 22.8625 13.8121 22.9 18.6621 27.575C17.5246 34.175 17.2496 34.425 18.0871 35.075C18.9246 35.725 19.0621 35.35 24.9996 32.225C31.0371 35.4 30.7496 35.3125 31.1746 35.3125C31.3582 35.3152 31.5402 35.2773 31.7076 35.2017C31.875 35.126 32.0237 35.0144 32.143 34.8748C32.2624 34.7352 32.3495 34.5709 32.3981 34.3938C32.4468 34.2167 32.4558 34.031 32.4246 33.85L31.3496 27.6L35.8871 23.1875C36.0558 23.0244 36.1753 22.8172 36.2317 22.5894C36.2882 22.3616 36.2794 22.1226 36.2064 21.8996C36.1334 21.6765 35.999 21.4786 35.8188 21.3284C35.6385 21.1781 35.4196 21.0816 35.1871 21.05L28.9246 20.125ZM29.1246 26.25C28.4996 26.8625 28.7371 27.1375 29.5246 31.7375C25.1621 29.45 25.4121 29.525 24.9996 29.525C24.5871 29.525 24.8371 29.45 20.4746 31.7375C21.2746 27.1125 21.4996 26.85 20.8746 26.25L17.6871 23.1375L22.0871 22.5C22.9621 22.375 22.9371 22.0125 24.9996 17.825C27.0871 22.05 27.0496 22.375 27.9121 22.5L32.3121 23.1375L29.1246 26.25Z" fill="#89EA5F"></path></svg>