<svg xmlns="http://www.w3.org/2000/svg" width="41" height="40" viewBox="0 0 41 40" fill="none"><path d="M16.6637 9.52576C16.8405 9.52576 17.0101 9.45552 17.1351 9.33051C17.2601 9.20549 17.3303 9.03593 17.3303 8.85913C17.3303 8.15193 17.6113 7.47369 18.1113 6.97363C18.6114 6.47356 19.2896 6.19263 19.9968 6.19263C20.704 6.19263 21.3823 6.47356 21.8823 6.97363C22.3824 7.47369 22.6633 8.15193 22.6633 8.85913C22.6633 9.03593 22.7336 9.20549 22.8586 9.33051C22.9836 9.45552 23.1532 9.52576 23.33 9.52576C23.5068 9.52576 23.6763 9.45552 23.8013 9.33051C23.9263 9.20549 23.9966 9.03593 23.9966 8.85913C23.9966 7.79833 23.5752 6.78098 22.8251 6.03088C22.075 5.28078 21.0576 4.85938 19.9968 4.85938C18.936 4.85938 17.9187 5.28078 17.1686 6.03088C16.4185 6.78098 15.9971 7.79833 15.9971 8.85913C15.9971 9.03593 16.0673 9.20549 16.1923 9.33051C16.3173 9.45552 16.4869 9.52576 16.6637 9.52576Z" fill="white"></path><path d="M19.9967 3.85976C20.1735 3.85976 20.3431 3.78953 20.4681 3.66451C20.5931 3.5395 20.6633 3.36994 20.6633 3.19314V0.666626C20.6633 0.489826 20.5931 0.320267 20.4681 0.19525C20.3431 0.0702336 20.1735 0 19.9967 0C19.8199 0 19.6503 0.0702336 19.5253 0.19525C19.4003 0.320267 19.3301 0.489826 19.3301 0.666626V3.19314C19.3301 3.36994 19.4003 3.5395 19.5253 3.66451C19.6503 3.78953 19.8199 3.85976 19.9967 3.85976Z" fill="white"></path><path d="M26.1248 2.53885C25.9998 2.41392 25.8303 2.34375 25.6536 2.34375C25.4769 2.34375 25.3074 2.41392 25.1824 2.53885L23.3967 4.32457C23.3347 4.38645 23.2856 4.45993 23.252 4.5408C23.2185 4.62167 23.2012 4.70836 23.2012 4.79591C23.2011 4.88347 23.2183 4.97017 23.2518 5.05107C23.2853 5.13197 23.3344 5.20549 23.3962 5.26743C23.4581 5.32937 23.5316 5.37851 23.6125 5.41205C23.6933 5.44559 23.78 5.46287 23.8676 5.46291C23.9551 5.46295 24.0418 5.44574 24.1227 5.41227C24.2036 5.3788 24.2772 5.32973 24.3391 5.26785L26.1248 3.48129C26.2497 3.35628 26.3199 3.18679 26.3199 3.01007C26.3199 2.83334 26.2497 2.66385 26.1248 2.53885Z" fill="white"></path><path d="M24.8037 8.66663C24.8037 8.84343 24.8739 9.01298 24.999 9.138C25.124 9.26302 25.2935 9.33325 25.4703 9.33325H27.996C28.1728 9.33325 28.3424 9.26302 28.4674 9.138C28.5924 9.01298 28.6626 8.84343 28.6626 8.66663C28.6626 8.48983 28.5924 8.32027 28.4674 8.19525C28.3424 8.07023 28.1728 8 27.996 8H25.4703C25.2935 8 25.124 8.07023 24.999 8.19525C24.8739 8.32027 24.8037 8.48983 24.8037 8.66663Z" fill="white"></path><path d="M11.9977 9.33325H14.5242C14.701 9.33325 14.8706 9.26302 14.9956 9.138C15.1206 9.01298 15.1908 8.84343 15.1908 8.66663C15.1908 8.48983 15.1206 8.32027 14.9956 8.19525C14.8706 8.07023 14.701 8 14.5242 8H11.9977C11.8209 8 11.6513 8.07023 11.5263 8.19525C11.4013 8.32027 11.3311 8.48983 11.3311 8.66663C11.3311 8.84343 11.4013 9.01298 11.5263 9.138C11.6513 9.26302 11.8209 9.33325 11.9977 9.33325Z" fill="white"></path><path d="M15.6549 5.26781C15.7168 5.32969 15.7904 5.37876 15.8713 5.41223C15.9522 5.4457 16.0389 5.46291 16.1264 5.46287C16.214 5.46283 16.3007 5.44555 16.3815 5.41201C16.4624 5.37847 16.5359 5.32932 16.5978 5.26739C16.6596 5.20545 16.7087 5.13193 16.7422 5.05103C16.7757 4.97013 16.7929 4.88343 16.7928 4.79587C16.7928 4.70832 16.7755 4.62163 16.742 4.54076C16.7084 4.45989 16.6593 4.38641 16.5973 4.32453L14.8133 2.53881C14.6872 2.41907 14.5194 2.3533 14.3456 2.35552C14.1718 2.35775 14.0057 2.42779 13.8828 2.55072C13.7598 2.67365 13.6898 2.83973 13.6876 3.01356C13.6853 3.18739 13.7511 3.35521 13.8708 3.48125L15.6549 5.26781Z" fill="white"></path><path d="M4.38086 30.6647V33.9978C4.38086 34.1746 4.45109 34.3442 4.57611 34.4692C4.70113 34.5942 4.87069 34.6644 5.04749 34.6644H20.3799C20.5567 34.6644 20.7262 34.5942 20.8513 34.4692C20.9763 34.3442 21.0465 34.1746 21.0465 33.9978V30.6647C21.0465 30.4879 20.9763 30.3183 20.8513 30.1933C20.7262 30.0683 20.5567 29.998 20.3799 29.998H5.04749C4.87069 29.998 4.70113 30.0683 4.57611 30.1933C4.45109 30.3183 4.38086 30.4879 4.38086 30.6647ZM13.7136 31.3313H19.7133V33.3312H13.7136V31.3313ZM5.71411 31.3313H12.3804V33.3312H5.71411V31.3313Z" fill="white"></path><path d="M13.0475 25.9983C13.4157 25.9983 13.7141 25.6998 13.7141 25.3317C13.7141 24.9635 13.4157 24.665 13.0475 24.665C12.6793 24.665 12.3809 24.9635 12.3809 25.3317C12.3809 25.6998 12.6793 25.9983 13.0475 25.9983Z" fill="white"></path><path d="M40.3072 25.0329L33.2343 11.0338C33.1786 10.9237 33.0936 10.8313 32.9885 10.7667C32.8835 10.7021 32.7626 10.668 32.6393 10.668H8.66743C8.55011 10.6677 8.43478 10.6983 8.33309 10.7568C8.23141 10.8154 8.14697 10.8997 8.0883 11.0013L0.0887915 25.0004C-0.170359 25.4229 0.17212 26.0129 0.672089 26.0004H1.33872V39.3329C1.33872 39.5097 1.40895 39.6792 1.53397 39.8043C1.65898 39.9293 1.82854 39.9995 2.00534 39.9995H37.0457C37.2225 39.9995 37.3921 39.9293 37.5171 39.8043C37.6421 39.6792 37.7123 39.5097 37.7123 39.3329V26.0004H39.7122C40.1947 26.012 40.5372 25.4546 40.3072 25.0329ZM15.7137 25.9979H23.9732V38.6638H2.6678V25.9979H10.3807C10.5575 25.9979 10.727 25.9276 10.852 25.8026C10.9771 25.6776 11.0473 25.508 11.0473 25.3312C11.0473 25.1544 10.9771 24.9849 10.852 24.8599C10.727 24.7349 10.5575 24.6646 10.3807 24.6646H1.81452L9.05158 11.9987H31.4902L24.2532 24.6646H15.7137C15.5369 24.6646 15.3673 24.7349 15.2423 24.8599C15.1173 24.9849 15.047 25.1544 15.047 25.3312C15.047 25.508 15.1173 25.6776 15.2423 25.8026C15.3673 25.9276 15.5369 25.9979 15.7137 25.9979ZM32.3793 38.6638H29.0462V27.9977H32.3793V38.6638ZM36.3791 38.6638H33.7126V27.3311C33.7126 27.1543 33.6423 26.9848 33.5173 26.8597C33.3923 26.7347 33.2227 26.6645 33.0459 26.6645H28.3796C28.2028 26.6645 28.0332 26.7347 27.9082 26.8597C27.7832 26.9848 27.7129 27.1543 27.7129 27.3311V38.6638H25.3064V25.5087L31.2636 15.0835L36.3791 25.4862V38.6638ZM37.4623 24.6646L32.0627 13.6861L32.6035 12.7395L38.6281 24.6646H37.4623Z" fill="white"></path><path d="M23.6705 22.9963L28.6227 14.3302C28.8827 13.9069 28.5394 13.3178 28.0444 13.3303H9.95466C9.83747 13.3301 9.72232 13.3608 9.62079 13.4193C9.51926 13.4779 9.43495 13.5621 9.37636 13.6636L4.42416 22.3297C4.16418 22.7522 4.50749 23.3422 5.00246 23.3297H23.0922C23.2094 23.3298 23.3245 23.2991 23.4261 23.2406C23.5276 23.1821 23.6119 23.0978 23.6705 22.9963ZM26.8953 14.6635L25.1812 17.6633H21.9914L23.753 14.6635H26.8953ZM22.2072 14.6635L20.4457 17.6633H17.6884L19.4499 14.6635H22.2072ZM17.9033 14.6635L16.1418 17.6633H13.147L14.9085 14.6635H17.9033ZM10.3413 14.6635H13.3595L11.5979 17.6633H8.62724L10.3413 14.6635ZM6.15156 21.9964L7.86562 18.9966H10.8138L9.05221 21.9964H6.15156ZM10.5996 21.9964L12.3612 18.9966H15.361L13.5994 21.9964H10.5996ZM15.1435 21.9964L16.9051 18.9966H19.6624L17.9008 21.9964H15.1435ZM19.4474 21.9964L21.209 18.9966H24.4196L22.7055 21.9964H19.4474Z" fill="white"></path></svg>