<svg xmlns="http://www.w3.org/2000/svg" width="51" height="50" viewBox="0 0 51 50" fill="none"><path d="M34.1761 48.8H32.2961L31.2321 28.96C31.2161 28.632 30.9121 28.376 30.6001 28.392C30.2721 28.408 30.0161 28.696 30.0321 29.024L31.0961 48.8H26.8561L28.3521 21C28.5521 21.04 28.7601 21.064 28.9761 21.064C29.1921 21.064 29.4001 21.04 29.6001 21L29.8961 26.448C29.9121 26.768 30.1761 27.016 30.4961 27.016H30.5281C30.8561 27 31.1121 26.712 31.0961 26.384L30.8081 21.072L31.2961 21.968C31.3601 22.088 31.4641 22.184 31.5921 22.232L43.0561 26.928C43.2081 26.992 43.3601 27.016 43.5041 27.016C43.8961 27.016 44.2641 26.816 44.4801 26.448C44.7761 25.944 44.6641 25.336 44.2081 24.976L34.5601 17.216C34.4561 17.128 34.3201 17.08 34.1841 17.08H31.8241C31.6241 16.488 31.2481 15.976 30.7521 15.616L31.8161 13.816C31.8881 13.696 31.9121 13.56 31.8961 13.424L30.1121 1.16796C30.0321 0.59196 29.5601 0.18396 28.9761 0.18396C28.3921 0.18396 27.9281 0.58396 27.8401 1.16796L26.0561 13.424C26.0401 13.56 26.0641 13.696 26.1361 13.816L27.2001 15.616C26.7041 15.976 26.3281 16.488 26.1281 17.08H23.7681C23.6321 17.08 23.4961 17.128 23.3921 17.216L13.7361 24.976C13.2801 25.344 13.1681 25.952 13.4721 26.448C13.6881 26.816 14.0561 27.016 14.4481 27.016C14.6001 27.016 14.7521 26.984 14.8961 26.928L26.3601 22.232C26.4881 22.184 26.5921 22.088 26.6561 21.968L27.1521 21.072L25.6561 48.8H23.7681C23.4401 48.8 23.1681 49.072 23.1681 49.4C23.1681 49.728 23.4401 50 23.7681 50H34.1761C34.5041 50 34.7761 49.728 34.7761 49.4C34.7761 49.072 34.5121 48.8 34.1761 48.8ZM28.0561 19.608C27.9201 19.528 27.8001 19.44 27.6881 19.336C27.6801 19.328 27.6801 19.328 27.6721 19.32C27.3521 18.992 27.1521 18.544 27.1521 18.048C27.1521 17.928 27.1681 17.808 27.1921 17.688C27.3601 16.856 28.0961 16.232 28.9761 16.232C29.8561 16.232 30.5921 16.856 30.7601 17.688C30.7841 17.808 30.8001 17.928 30.8001 18.048C30.8001 18.544 30.6001 18.992 30.2801 19.32C30.2721 19.328 30.2721 19.328 30.2641 19.336C29.9361 19.664 29.4801 19.872 28.9761 19.872C28.6401 19.864 28.3281 19.768 28.0561 19.608ZM43.1681 25.68L32.2481 21.208L31.4561 19.768C31.7521 19.344 31.9281 18.84 31.9681 18.296H33.9761L43.1681 25.68ZM27.2801 13.384L28.9761 1.70396L30.6721 13.384L29.6481 15.104C29.4321 15.056 29.2081 15.024 28.9681 15.024C28.7281 15.024 28.5121 15.056 28.2881 15.104L27.2801 13.384ZM25.7041 21.2L14.7761 25.68L23.9761 18.28H25.9841C26.0241 18.824 26.2001 19.328 26.4961 19.752L25.7041 21.2Z" fill="white"></path><path d="M14.1684 30.792C14.0644 30.704 13.9284 30.656 13.7924 30.656H12.4244C12.2964 30.352 12.0964 30.088 11.8484 29.872L12.4404 28.864C12.5124 28.744 12.5364 28.608 12.5204 28.472L11.3684 20.552C11.2964 20.08 10.9044 19.736 10.4244 19.736C9.94437 19.736 9.55237 20.08 9.48037 20.552L8.32837 28.472C8.31237 28.608 8.33637 28.744 8.40837 28.864L9.00037 29.872C8.75237 30.088 8.55237 30.352 8.42437 30.656H7.05637C6.92037 30.656 6.78437 30.704 6.68037 30.792L0.456368 35.808C0.0803676 36.104 -0.00763249 36.624 0.232367 37.032C0.408367 37.336 0.720367 37.504 1.04837 37.504C1.16837 37.504 1.29637 37.48 1.41637 37.432L8.81637 34.4C8.87237 34.376 8.92837 34.344 8.97637 34.296L8.76037 37.768C8.73637 38.096 8.99237 38.384 9.32037 38.4C9.64037 38.424 9.93637 38.168 9.95237 37.84L10.2084 33.648C10.2484 33.656 10.2884 33.648 10.3284 33.648C10.3604 33.648 10.3844 33.656 10.4164 33.656C10.4484 33.656 10.4804 33.648 10.5044 33.648C10.5444 33.648 10.5844 33.656 10.6244 33.648L11.5524 48.8H9.27237L9.83237 39.616C9.85637 39.288 9.60037 39 9.27237 38.984C8.93637 38.96 8.65637 39.216 8.64037 39.544L8.07237 48.8H7.04837C6.72037 48.8 6.44837 49.072 6.44837 49.4C6.44837 49.728 6.72037 50 7.04837 50H13.7764C14.1044 50 14.3764 49.728 14.3764 49.4C14.3764 49.072 14.1044 48.8 13.7764 48.8H12.7764L11.8884 34.304C11.9364 34.344 11.9924 34.376 12.0484 34.4L19.4564 37.432C19.5764 37.48 19.6964 37.504 19.8244 37.504C20.1524 37.504 20.4644 37.336 20.6404 37.032C20.8804 36.624 20.7924 36.104 20.4164 35.808L14.1684 30.792ZM10.7444 32.392C10.6484 32.424 10.5444 32.456 10.4324 32.456C10.3204 32.456 10.2164 32.424 10.1204 32.392C10.0804 32.376 10.0404 32.36 10.0004 32.344C9.68837 32.184 9.46437 31.872 9.46437 31.496C9.46437 30.968 9.89637 30.536 10.4244 30.536C10.9524 30.536 11.3844 30.968 11.3844 31.496C11.3844 31.872 11.1604 32.192 10.8484 32.344C10.8164 32.368 10.7844 32.384 10.7444 32.392ZM9.55237 28.448L10.4244 22.424L11.2964 28.448L10.7524 29.368C10.6484 29.352 10.5364 29.336 10.4244 29.336C10.3124 29.336 10.2004 29.352 10.0964 29.368L9.55237 28.448ZM2.52837 35.68L7.27237 31.864H8.30437C8.35237 32.136 8.44837 32.384 8.58437 32.608L8.16837 33.368L2.52837 35.68ZM12.6964 33.368L12.2804 32.608C12.4164 32.384 12.5124 32.136 12.5604 31.864H13.5924L18.3364 35.68L12.6964 33.368Z" fill="white"></path><path d="M13.312 11.336C13.632 10.704 13.8 9.99999 13.8 9.29599C13.8 6.80799 11.776 4.79199 9.29599 4.79199C6.80799 4.79199 4.79199 6.81599 4.79199 9.29599C4.79199 11.784 6.81599 13.8 9.29599 13.8C10.248 13.8 11.152 13.504 11.92 12.952C12.192 12.76 12.248 12.384 12.056 12.112C11.864 11.84 11.488 11.784 11.216 11.976C10.648 12.384 9.98399 12.6 9.28799 12.6C7.46399 12.6 5.98399 11.12 5.98399 9.29599C5.98399 7.47199 7.46399 5.99199 9.28799 5.99199C11.112 5.99199 12.592 7.47199 12.592 9.29599C12.592 9.82399 12.472 10.328 12.232 10.792C12.08 11.088 12.2 11.448 12.496 11.6C12.8 11.752 13.16 11.632 13.312 11.336Z" fill="white"></path><path d="M9.30391 3.744C9.63191 3.744 9.89591 3.48 9.89591 3.152V0.592C9.89591 0.264 9.63191 0 9.30391 0C8.97591 0 8.71191 0.264 8.71191 0.592V3.152C8.71191 3.48 8.97591 3.744 9.30391 3.744Z" fill="white"></path><path d="M6.39972 3.83997C6.49572 4.07197 6.71172 4.20797 6.95172 4.20797C7.02372 4.20797 7.10372 4.19197 7.17572 4.15997C7.47972 4.03197 7.62372 3.68797 7.49572 3.38397L6.93572 2.03997C6.80772 1.73597 6.46372 1.59197 6.15972 1.71997C5.85572 1.84797 5.71172 2.19197 5.83972 2.49597L6.39972 3.83997Z" fill="white"></path><path d="M2.0396 6.92803L3.3916 7.48803C3.4636 7.52003 3.5436 7.53603 3.6156 7.53603C3.8476 7.53603 4.0716 7.40003 4.1676 7.16803C4.2956 6.86403 4.1516 6.52003 3.8476 6.39203L2.4956 5.83203C2.1916 5.70403 1.8476 5.84803 1.7196 6.15203C1.5916 6.45603 1.7356 6.80003 2.0396 6.92803Z" fill="white"></path><path d="M4.15979 11.4159C4.03179 11.1119 3.68779 10.9679 3.38379 11.0959L2.03179 11.6559C1.72779 11.7839 1.58379 12.1279 1.71179 12.4319C1.80779 12.6639 2.02379 12.7999 2.25579 12.7999C2.32779 12.7999 2.40779 12.7839 2.47979 12.7519L3.83179 12.1919C4.14379 12.0639 4.28779 11.7199 4.15979 11.4159Z" fill="white"></path><path d="M6.3841 14.7521L5.8241 16.1041C5.6961 16.4081 5.8401 16.7521 6.1441 16.8801C6.2241 16.9041 6.2961 16.9201 6.3761 16.9201C6.6081 16.9201 6.8321 16.7841 6.9201 16.5521L7.4801 15.2001C7.6081 14.8961 7.4641 14.5521 7.1601 14.4241C6.8561 14.3041 6.5121 14.4481 6.3841 14.7521Z" fill="white"></path><path d="M11.4078 14.432C11.1038 14.56 10.9598 14.904 11.0878 15.208L11.6478 16.56C11.7438 16.792 11.9598 16.928 12.1998 16.928C12.2718 16.928 12.3518 16.912 12.4238 16.88C12.7278 16.752 12.8718 16.408 12.7438 16.104L12.1838 14.752C12.0638 14.456 11.7118 14.312 11.4078 14.432Z" fill="white"></path><path d="M16.3199 12.808C16.5519 12.808 16.7759 12.672 16.8639 12.44C16.9919 12.136 16.8479 11.792 16.5439 11.664L15.1919 11.104C14.8879 10.976 14.5439 11.12 14.4159 11.424C14.2879 11.728 14.4319 12.072 14.7359 12.2L16.0879 12.76C16.1679 12.8 16.2479 12.808 16.3199 12.808Z" fill="white"></path><path d="M14.4325 7.18402C14.5285 7.41602 14.7445 7.55202 14.9845 7.55202C15.0565 7.55202 15.1365 7.53602 15.2085 7.50402L16.5605 6.94402C16.8645 6.81602 17.0085 6.47202 16.8805 6.16802C16.7525 5.86402 16.4085 5.72002 16.1045 5.84802L14.7525 6.40802C14.4485 6.52802 14.3045 6.88002 14.4325 7.18402Z" fill="white"></path><path d="M11.4239 4.16797C11.5039 4.19997 11.5759 4.21597 11.6559 4.21597C11.8879 4.21597 12.1119 4.07997 12.1999 3.84797L12.7599 2.49597C12.8879 2.19197 12.7439 1.84797 12.4399 1.71997C12.1359 1.59197 11.7919 1.73597 11.6639 2.03997L11.1039 3.39197C10.9839 3.69597 11.1199 4.04797 11.4239 4.16797Z" fill="white"></path><path d="M4.5359 5.36802C4.6479 5.48002 4.7999 5.53602 4.9519 5.53602C5.1039 5.53602 5.2559 5.48002 5.3679 5.36002C5.5999 5.12802 5.5999 4.75202 5.3679 4.52002L3.5599 2.72002C3.3279 2.48802 2.9519 2.48802 2.7199 2.72002C2.4879 2.95202 2.4879 3.32802 2.7199 3.56002L4.5359 5.36802Z" fill="white"></path><path d="M0.592 9.88005H3.152C3.48 9.88005 3.744 9.61604 3.744 9.28804C3.744 8.96004 3.48 8.69604 3.152 8.69604H0.592C0.264 8.69604 0 8.96004 0 9.28804C0 9.61604 0.264 9.88005 0.592 9.88005Z" fill="white"></path><path d="M3.13609 16.04C3.28809 16.04 3.44009 15.984 3.55209 15.864L5.36009 14.056C5.59209 13.824 5.59209 13.448 5.36009 13.216C5.12809 12.984 4.75209 12.984 4.52009 13.216L2.71209 15.024C2.48009 15.256 2.48009 15.632 2.71209 15.864C2.83209 15.984 2.98409 16.04 3.13609 16.04Z" fill="white"></path><path d="M8.69629 15.448V18.008C8.69629 18.336 8.96029 18.6 9.28829 18.6C9.61629 18.6 9.88029 18.336 9.88029 18.008V15.448C9.88029 15.12 9.61629 14.856 9.28829 14.856C8.96029 14.856 8.69629 15.12 8.69629 15.448Z" fill="white"></path><path d="M15.0242 15.88C15.1362 15.992 15.2882 16.056 15.4402 16.056C15.5922 16.056 15.7442 16 15.8562 15.88C16.0882 15.648 16.0882 15.272 15.8562 15.04L14.0482 13.232C13.8162 13 13.4402 13 13.2082 13.232C12.9762 13.464 12.9762 13.84 13.2082 14.072L15.0242 15.88Z" fill="white"></path><path d="M14.8477 9.30404C14.8477 9.63204 15.1117 9.89604 15.4397 9.89604H17.9997C18.3277 9.89604 18.5917 9.63204 18.5917 9.30404C18.5917 8.97604 18.3277 8.71204 17.9997 8.71204H15.4397C15.1117 8.71204 14.8477 8.97604 14.8477 9.30404Z" fill="white"></path><path d="M13.6478 5.55195C13.7998 5.55195 13.9518 5.49595 14.0638 5.37596L15.8718 3.56796C16.1038 3.33596 16.1038 2.95996 15.8718 2.72796C15.6398 2.49596 15.2638 2.49596 15.0318 2.72796L13.2238 4.53595C12.9918 4.76795 12.9918 5.14395 13.2238 5.37596C13.3438 5.49595 13.4958 5.55195 13.6478 5.55195Z" fill="white"></path><path d="M50.1844 45.584L48.6084 34.72C48.5124 34.04 47.9204 33.536 47.2404 33.536H36.2564C35.5764 33.536 34.9844 34.048 34.8884 34.72L33.3124 45.584C33.2564 45.984 33.3764 46.384 33.6324 46.688C33.8884 46.992 34.2804 47.168 34.6804 47.168H38.1204H39.4804V48.8H37.5844C37.2564 48.8 36.9844 49.072 36.9844 49.4C36.9844 49.728 37.2564 50 37.5844 50H45.8964C46.2244 50 46.4964 49.728 46.4964 49.4C46.4964 49.072 46.2244 48.8 45.8964 48.8H44.0084V47.168H45.3684H46.2804C46.6084 47.168 46.8804 46.896 46.8804 46.568C46.8804 46.24 46.6084 45.968 46.2804 45.968H45.9764V44.152H48.7684L49.0004 45.76C49.0084 45.832 48.9764 45.88 48.9604 45.904C48.9364 45.928 48.8964 45.968 48.8164 45.968H48.1364C47.8084 45.968 47.5364 46.24 47.5364 46.568C47.5364 46.896 47.8084 47.168 48.1364 47.168H48.8084C49.2084 47.168 49.5924 46.992 49.8564 46.688C50.1204 46.384 50.2404 45.976 50.1844 45.584ZM38.7204 45.968V44.152H41.1444V45.968H38.7204ZM38.7204 42.944V40.944H41.1444V42.944H38.7204ZM41.1444 36.552H38.7204V34.728H41.1444V36.552ZM42.3444 34.728H44.7764V36.552H42.3444V34.728ZM41.1444 37.752V39.752H38.7204V37.752H41.1444ZM37.5204 39.744H35.3604L35.6484 37.744H37.5124V39.744H37.5204ZM35.1924 40.944H37.5204V42.944H34.9044L35.1924 40.944ZM42.3444 40.944H44.7764V42.944H42.3444V40.944ZM42.3444 39.744V37.744H44.7764V39.744H42.3444ZM45.9764 37.752H47.8404L48.1284 39.752H45.9764V37.752ZM47.4164 34.888L47.6564 36.552H45.9764V34.728H47.2404C47.3284 34.728 47.4084 34.8 47.4164 34.888ZM36.2564 34.728H37.5204V36.552H35.8244L36.0644 34.888C36.0804 34.8 36.1604 34.728 36.2564 34.728ZM34.5364 45.904C34.5124 45.88 34.4804 45.832 34.4964 45.752L34.7284 44.144H37.5204V45.96H34.6804C34.6084 45.968 34.5604 45.928 34.5364 45.904ZM40.6804 48.8V47.168H42.8084V48.8H40.6804ZM44.7764 45.968H42.3444V44.152H44.7764V45.968ZM45.9764 42.944V40.944H48.2964L48.5844 42.944H45.9764Z" fill="white"></path><path d="M37.9998 5.40802H47.3838C47.7118 5.40802 47.9838 5.13602 47.9838 4.80802C47.9838 4.48002 47.7118 4.20802 47.3838 4.20802H37.9998C37.2238 4.20802 36.5838 3.57602 36.5838 2.79202C36.5838 2.01602 37.2158 1.37603 37.9998 1.37603C38.3278 1.37603 38.5998 1.10403 38.5998 0.776025C38.5998 0.448025 38.3278 0.176025 37.9998 0.176025C36.5598 0.176025 35.3838 1.34403 35.3838 2.79202C35.3838 4.24002 36.5598 5.40802 37.9998 5.40802Z" fill="white"></path><path d="M38.3838 9.79996C38.3838 11.24 39.5518 12.416 40.9918 12.416C41.3198 12.416 41.5918 12.144 41.5918 11.816C41.5918 11.488 41.3198 11.216 40.9918 11.216C40.2158 11.216 39.5838 10.584 39.5838 9.79996C39.5838 9.02396 40.2158 8.38396 40.9918 8.38396H48.7758C49.1038 8.38396 49.3758 8.11196 49.3758 7.78396C49.3758 7.45596 49.1038 7.18396 48.7758 7.18396H40.9918C39.5518 7.18396 38.3838 8.35996 38.3838 9.79996Z" fill="white"></path></svg>