<svg xmlns="http://www.w3.org/2000/svg" width="54" height="60" viewBox="0 0 54 60" fill="none"><path d="M53.0603 38.8883C52.5396 38.0188 50.4059 35.4347 44.8159 38.6902L35.108 44.3446C34.7079 44.5776 34.302 44.7532 33.8825 44.8729C34.0186 44.6151 34.1289 44.333 34.2104 44.0285C34.7213 42.1215 33.5896 40.1313 31.6341 39.4973C31.5928 39.4839 31.5504 39.4732 31.5075 39.4655C28.7262 38.9638 25.9771 37.9699 23.7681 37.1714C22.9985 36.8932 22.2716 36.6304 21.6526 36.4297C19.1276 35.6105 16.8545 36.6188 14.9642 37.7133L7.8346 41.8412L7.20652 40.7314C6.89188 40.1756 6.37823 39.775 5.76007 39.6037C5.14228 39.4324 4.49545 39.5114 3.93959 39.826L1.21593 41.3675C0.0656213 42.0186 -0.340477 43.484 0.310466 44.6343L8.31836 58.7838C8.63301 59.3396 9.14665 59.7402 9.76481 59.9114C9.97856 59.9707 10.1957 60 10.4113 60C10.8192 60 11.2217 59.8951 11.5853 59.6893L14.3092 58.1477C15.4595 57.4966 15.8657 56.0312 15.2147 54.8809L14.4409 53.5138L15.9579 52.6381L28.3492 55.9583C29.0446 56.1447 29.7363 56.2373 30.4169 56.2372C31.7933 56.2372 33.1232 55.8582 34.3387 55.1099L51.9562 44.2617C53.6088 43.2441 54.1352 40.6829 53.0603 38.8883ZM13.3557 56.4632L10.6318 58.0048C10.4889 58.0858 10.3512 58.0654 10.2816 58.0463C10.2122 58.0271 10.0836 57.9734 10.0028 57.8305L1.99486 43.6811C1.87159 43.4633 1.95155 43.1752 2.16918 43.052L4.89296 41.5105C4.97243 41.4655 5.05046 41.4518 5.11591 41.4518C5.16804 41.4518 5.21232 41.4605 5.24317 41.4691C5.3126 41.4883 5.44107 41.5419 5.522 41.6848L13.53 55.8341C13.6533 56.052 13.5733 56.34 13.3557 56.4632ZM29.907 46.694L31.1144 46.8903C32.9452 47.183 34.5701 46.8974 36.082 46.0171L45.79 40.3627C48.5276 38.7682 50.6247 38.5887 51.3998 39.8827C51.9305 40.7688 51.6991 42.1469 50.941 42.6135L33.3236 53.4617C31.9524 54.3058 30.4474 54.5169 28.85 54.0886L16.0714 50.6647C15.8235 50.5985 15.5594 50.6331 15.3371 50.7613L13.4874 51.8292L8.78797 43.5256L15.9339 39.3882C17.5317 38.4631 19.258 37.6872 21.0554 38.2705C21.6439 38.4614 22.3233 38.707 23.1099 38.9914C25.3691 39.8082 28.1761 40.823 31.093 41.3572C32.0494 41.6953 32.5842 42.6183 32.3406 43.5273C32.0198 44.7246 31.0154 44.8729 30.2147 44.7815C28.7913 44.4884 27.4366 44.1019 26.0032 43.6926C25.321 43.4978 24.6157 43.2962 23.8902 43.1019C23.3741 42.9638 22.8433 43.27 22.7049 43.7862C22.5665 44.3025 22.8729 44.8331 23.3892 44.9715C24.0993 45.1617 24.797 45.361 25.4716 45.5536C26.9556 45.9773 28.3572 46.3776 29.8683 46.6866M5.631 44.1507C5.70866 44.6821 5.34091 45.1759 4.80937 45.2536C4.27794 45.3312 3.78414 44.9635 3.70648 44.4319C3.62881 43.9005 3.99656 43.4067 4.52811 43.329C5.05953 43.2514 5.55333 43.6192 5.631 44.1507ZM19.9053 15.1152C20.353 15.9883 20.5778 16.4265 20.642 16.7908C20.7062 17.1551 20.6449 17.6437 20.523 18.6173C20.4922 18.8622 20.458 19.135 20.4214 19.4416C20.2198 21.1275 21.1331 22.7095 22.694 23.3781C22.9778 23.4996 23.2311 23.6063 23.4586 23.7023C23.4999 23.7197 23.5394 23.7364 23.5789 23.7531L19.982 31.4787C19.8298 31.8056 19.8719 32.1898 20.0912 32.476C20.3105 32.7621 20.6706 32.9028 21.0258 32.8405L24.9795 32.1498L26.996 35.6199C27.1697 35.9189 27.4891 36.1014 27.8326 36.1014C27.8473 36.1014 27.862 36.101 27.8767 36.1004C28.2368 36.0841 28.558 35.8689 28.7101 35.5422L32.2808 27.8727L32.2103 27.8399C32.8217 27.655 33.1824 27.562 33.4782 27.562C33.8481 27.562 34.3187 27.7071 35.2562 27.9965C35.3546 28.0268 35.4587 28.0589 35.5669 28.0922L38.1438 34.0749C38.2864 34.406 38.6012 34.6304 38.9607 34.6571C38.9848 34.6589 39.0089 34.6598 39.0328 34.6598C39.3657 34.6598 39.6776 34.4881 39.8549 34.2023L41.9712 30.7921L45.903 31.5974C46.2562 31.6698 46.6203 31.5397 46.8478 31.2602C47.0753 30.9805 47.1285 30.5976 46.986 30.2665L44.0571 23.466C44.1237 23.4377 44.1922 23.4084 44.2625 23.3783C45.8234 22.7098 46.7367 21.1278 46.5352 19.4418C46.4985 19.1353 46.4644 18.8625 46.4337 18.6176C46.3115 17.6441 46.2503 17.1555 46.3145 16.7911C46.3788 16.4268 46.6035 15.9886 47.0511 15.1155C47.1637 14.8958 47.2892 14.6512 47.4285 14.3758C48.1946 12.8604 47.8773 11.0614 46.6393 9.89951C46.4142 9.68818 46.2128 9.50128 46.0318 9.33337C45.3125 8.66598 44.9514 8.33113 44.7665 8.01068C44.5815 7.69035 44.4719 7.21021 44.2538 6.2537C44.1989 6.01297 44.1378 5.7449 44.0673 5.44428C43.68 3.79098 42.2806 2.61684 40.5852 2.5226C40.277 2.50542 40.0025 2.49187 39.756 2.47954C38.776 2.43078 38.2841 2.40623 37.9365 2.27969C37.5888 2.15316 37.1962 1.85581 36.4143 1.2633C36.2175 1.11426 35.9984 0.948289 35.7512 0.763204C34.3919 -0.254401 32.5652 -0.254401 31.2059 0.763204C30.9587 0.948289 30.7397 1.11426 30.5429 1.2633C29.7608 1.85581 29.3683 2.15316 29.0207 2.27969C28.673 2.40623 28.1813 2.43078 27.2012 2.47954C26.9546 2.49187 26.68 2.50542 26.3719 2.5226C24.6765 2.61696 23.2771 3.7911 22.8899 5.44428C22.8195 5.7449 22.7584 6.01285 22.7033 6.25358C22.4851 7.21021 22.3756 7.69023 22.1906 8.01068C22.0056 8.33101 21.6445 8.66598 20.9253 9.33325C20.7443 9.50116 20.5428 9.68818 20.3177 9.89939C19.0795 11.0614 18.7624 12.8603 19.5284 14.3757C19.6672 14.651 19.7927 14.8956 19.9053 15.1152ZM27.738 33.0442L26.3142 30.594C26.1106 30.2436 25.7106 30.0573 25.3109 30.1269L22.5192 30.6147L25.2787 24.6877C25.5071 24.9421 25.762 25.3365 26.1826 25.9879C26.3165 26.1954 26.4657 26.4263 26.6347 26.6848C27.3526 27.7826 28.5402 28.4051 29.7928 28.4051C29.8283 28.4051 29.8641 28.4022 29.8996 28.4013L27.738 33.0442ZM41.6986 28.7604C41.3016 28.6791 40.8959 28.8538 40.6822 29.1982L39.188 31.6061L37.786 28.3509C38.8008 28.1806 39.7242 27.5985 40.3216 26.6848C40.4906 26.4264 40.6397 26.1956 40.7736 25.9881C41.3059 25.1638 41.573 24.7501 41.8564 24.5123C41.967 24.4195 42.1041 24.3336 42.2834 24.2409L44.4748 29.329L41.6986 28.7604ZM21.6418 11.3105C21.8639 11.1021 22.0627 10.9176 22.2414 10.752C23.9591 9.15845 24.0689 8.96828 24.5901 6.68387C24.6443 6.44641 24.7046 6.18209 24.7741 5.88547C24.9667 5.06335 25.636 4.5018 26.4791 4.45487C26.7832 4.43793 27.0539 4.4245 27.2972 4.41228C29.6375 4.29579 29.8438 4.22067 31.7114 2.80567C31.9055 2.65857 32.1218 2.49478 32.3656 2.31223C32.7036 2.05916 33.091 1.93275 33.4784 1.93275C33.8658 1.93275 34.2531 2.05916 34.5913 2.31223C34.8351 2.49466 35.0513 2.65845 35.2453 2.80555C37.113 4.22055 37.3193 4.29555 39.6596 4.41216C39.9028 4.42426 40.1736 4.43769 40.4777 4.45474C41.3209 4.50168 41.9901 5.06323 42.1826 5.88534C42.2521 6.18196 42.3125 6.44641 42.3666 6.68387C42.8878 8.96816 42.9975 9.15833 44.7154 10.7519C44.894 10.9175 45.0927 11.102 45.3148 11.3104C45.9306 11.8883 46.0823 12.7486 45.7012 13.5023C45.5638 13.7741 45.44 14.0154 45.329 14.2321C44.2598 16.3171 44.2217 16.5333 44.5133 18.8582C44.5435 19.0998 44.5773 19.3689 44.6134 19.6713C44.7137 20.5097 44.2769 21.2663 43.5006 21.5987C43.2207 21.7186 42.9708 21.824 42.7463 21.9186C40.587 22.8285 40.4189 22.9695 39.1477 24.938C39.0156 25.1425 38.8685 25.3703 38.7018 25.6252C38.2397 26.3318 37.4189 26.6306 36.6104 26.3865C36.3188 26.2983 36.0597 26.2185 35.8271 26.1466C33.5883 25.4559 33.3687 25.4557 31.1294 26.1466C30.8968 26.2185 30.6377 26.2983 30.3462 26.3865C29.5381 26.6307 28.7168 26.3319 28.2547 25.6252C28.088 25.3703 27.9408 25.1424 27.8087 24.9379C26.5376 22.9695 26.3695 22.8284 24.2102 21.9186C23.9858 21.824 23.736 21.7187 23.4559 21.5987C22.6796 21.2663 22.2428 20.5097 22.3431 19.6712C22.3793 19.3687 22.413 19.0996 22.4434 18.858C22.7349 16.5331 22.6968 16.317 21.6276 14.2318C21.5165 14.0152 21.3927 13.774 21.2553 13.5021C20.8744 12.7487 21.0261 11.8884 21.6418 11.3105ZM33.4781 23.0756C38.3711 23.0756 42.3519 19.0949 42.3519 14.2018C42.3519 9.30881 38.3711 5.32815 33.4781 5.32815C28.5851 5.32815 24.6044 9.30893 24.6044 14.2018C24.6044 19.0949 28.5852 23.0756 33.4781 23.0756ZM33.4781 7.26356C37.3038 7.26356 40.4164 10.376 40.4164 14.2017C40.4164 18.0274 37.3039 21.14 33.4781 21.14C29.6523 21.14 26.5399 18.0275 26.5399 14.2017C26.5399 10.3759 29.6524 7.26356 33.4781 7.26356ZM31.0145 17.6311L28.524 15.1404C28.1459 14.7625 28.1461 14.1498 28.524 13.7719C28.902 13.3939 29.5148 13.394 29.8925 13.7719L31.7311 15.6107L37.0976 10.7404C37.4935 10.3811 38.1055 10.4109 38.4647 10.8067C38.8239 11.2025 38.7943 11.8146 38.3984 12.1738L32.3492 17.6635C32.1642 17.8313 31.9314 17.9147 31.699 17.9147C31.4507 17.9145 31.203 17.8196 31.0145 17.6311Z" fill="white"></path></svg>