<svg xmlns="http://www.w3.org/2000/svg" width="50" height="50" viewBox="0 0 50 50" fill="none"><path d="M49.9658 36.3506L45.083 20.7256C45.0359 20.5773 44.9429 20.4479 44.8173 20.3561C44.6918 20.2643 44.5403 20.2148 44.3848 20.2148H39.5996C40.1176 18.6559 40.3814 17.0237 40.3809 15.3809C40.3809 6.89941 33.4814 0 25 0C16.5186 0 9.61914 6.89941 9.61914 15.3809C9.61857 17.0237 9.88235 18.6559 10.4004 20.2148H5.61524C5.45917 20.2148 5.30716 20.2646 5.18138 20.357C5.0556 20.4494 4.96263 20.5796 4.91602 20.7285L0.0332053 36.3535C0.0110199 36.4243 -0.000177974 36.4981 2.13857e-06 36.5723V41.4551C2.13857e-06 41.6493 0.0771678 41.8356 0.214524 41.973C0.351879 42.1103 0.538174 42.1875 0.732424 42.1875H13.5254V45.6055H9.375C8.79225 45.6055 8.23337 45.837 7.8213 46.249C7.40923 46.6611 7.17774 47.22 7.17774 47.8027C7.17774 48.3855 7.40923 48.9444 7.8213 49.3564C8.23337 49.7685 8.79225 50 9.375 50H40.625C41.2078 50 41.7666 49.7685 42.1787 49.3564C42.5908 48.9444 42.8223 48.3855 42.8223 47.8027C42.8223 47.22 42.5908 46.6611 42.1787 46.249C41.7666 45.837 41.2078 45.6055 40.625 45.6055H36.4746V42.1875H49.2676C49.4618 42.1875 49.6481 42.1103 49.7855 41.973C49.9228 41.8356 50 41.6493 50 41.4551V36.5723C50.0002 36.497 49.9886 36.4223 49.9658 36.3506ZM1.72852 35.8398L3.71094 29.4922H11.5117L9.92481 35.8398H1.72852ZM13.0234 29.4922H18.8828C20.8128 30.3296 22.8942 30.7617 24.998 30.7617C27.1019 30.7617 29.1833 30.3296 31.1133 29.4922H36.9727L38.5596 35.8398H11.4365L13.0234 29.4922ZM16.2568 28.0273H13.3896L13.8936 26.0107C14.612 26.7602 15.4037 27.4358 16.2568 28.0273ZM36.1064 26.0107L36.6104 28.0273H33.7432C34.5963 27.4358 35.388 26.7602 36.1064 26.0107ZM40.0742 35.8398L38.4873 29.4922H46.2891L48.2725 35.8398H40.0742ZM43.8477 21.6797L45.8311 28.0273H38.1211L37.2734 24.6396C37.968 23.7217 38.5576 22.7289 39.0312 21.6797H43.8477ZM25 1.46484C32.6729 1.46484 38.916 7.70801 38.916 15.3809C38.916 23.0537 32.6729 29.2969 25 29.2969C17.3272 29.2969 11.084 23.0537 11.084 15.3809C11.084 7.70801 17.3272 1.46484 25 1.46484ZM6.15235 21.6797H10.9678C11.4414 22.7289 12.031 23.7217 12.7256 24.6396L11.8789 28.0273H4.16992L6.15235 21.6797ZM14.9902 42.1875H17.4316V45.6055H14.9902V42.1875ZM18.8965 45.6055V42.1875H31.1035V45.6055H18.8965ZM41.3574 47.8027C41.3574 47.997 41.2803 48.1833 41.1429 48.3206C41.0055 48.458 40.8193 48.5352 40.625 48.5352H9.375C9.18075 48.5352 8.99446 48.458 8.8571 48.3206C8.71975 48.1833 8.64258 47.997 8.64258 47.8027C8.64258 47.6085 8.71975 47.4222 8.8571 47.2848C8.99446 47.1475 9.18075 47.0703 9.375 47.0703H40.625C40.8193 47.0703 41.0055 47.1475 41.1429 47.2848C41.2803 47.4222 41.3574 47.6085 41.3574 47.8027ZM35.0098 45.6055H32.5684V42.1875H35.0098V45.6055ZM48.5352 40.7227H1.46485V37.3047H48.5352V40.7227Z" fill="white"></path><path d="M3.66211 39.7461H4.63867C4.83292 39.7461 5.01922 39.6689 5.15657 39.5316C5.29393 39.3942 5.37109 39.2079 5.37109 39.0137C5.37109 38.8194 5.29393 38.6331 5.15657 38.4958C5.01922 38.3584 4.83292 38.2812 4.63867 38.2812H3.66211C3.46786 38.2812 3.28156 38.3584 3.14421 38.4958C3.00685 38.6331 2.92969 38.8194 2.92969 39.0137C2.92969 39.2079 3.00685 39.3942 3.14421 39.5316C3.28156 39.6689 3.46786 39.7461 3.66211 39.7461Z" fill="white"></path><path d="M7.56836 39.7461H8.54492C8.73917 39.7461 8.92547 39.6689 9.06282 39.5316C9.20018 39.3942 9.27734 39.2079 9.27734 39.0137C9.27734 38.8194 9.20018 38.6331 9.06282 38.4958C8.92547 38.3584 8.73917 38.2812 8.54492 38.2812H7.56836C7.37411 38.2812 7.18781 38.3584 7.05046 38.4958C6.9131 38.6331 6.83594 38.8194 6.83594 39.0137C6.83594 39.2079 6.9131 39.3942 7.05046 39.5316C7.18781 39.6689 7.37411 39.7461 7.56836 39.7461Z" fill="white"></path><path d="M17.5781 25.375C17.5982 25.3891 17.619 25.4022 17.6406 25.414C20.172 27.2724 23.3118 28.1065 26.4317 27.7494C29.5517 27.3923 32.4218 25.8703 34.4678 23.488C36.5138 21.1057 37.5849 18.0387 37.4668 14.9006C37.3487 11.7624 36.05 8.78464 33.8307 6.56287C31.6114 4.34111 28.635 3.03923 25.497 2.91767C22.359 2.79612 19.2909 3.86386 16.9063 5.90729C14.5217 7.95071 12.9967 10.8191 12.6361 13.9387C12.2756 17.0583 13.1062 20.1989 14.9619 22.7324C14.9765 22.7578 14.9931 22.7832 15.0107 22.8076C15.737 23.7838 16.6019 24.6487 17.5781 25.375ZM21.0615 17.4326L19.999 13.3437C19.9618 13.2024 19.9622 13.0539 20.0001 12.9127C20.0379 12.7716 20.1119 12.6428 20.2148 12.539L24.371 8.38279L26.415 8.91404L22.4111 12.9179C22.3208 13.0082 22.2558 13.1205 22.2224 13.2437C22.189 13.3668 22.1884 13.4966 22.2206 13.6201L23.0468 16.8105C23.0796 16.9367 23.1454 17.0519 23.2376 17.1441C23.3298 17.2363 23.445 17.3022 23.5712 17.3349L26.7578 18.164C26.8812 18.1963 27.011 18.1957 27.1342 18.1623C27.2574 18.1289 27.3697 18.0639 27.4599 17.9736L31.4638 13.9697L31.998 16.0156L27.8417 20.1679C27.7383 20.2713 27.6096 20.3459 27.4685 20.3842C27.3273 20.4226 27.1786 20.4235 27.0371 20.3867L22.9492 19.3242C22.8253 19.2926 22.6953 19.2941 22.5721 19.3283C22.4489 19.3626 22.3368 19.4285 22.247 19.5195L17.957 23.8095C17.4571 23.3907 16.995 22.9286 16.5761 22.4287L20.8662 18.1386C20.9571 18.0481 21.0227 17.9351 21.0561 17.8112C21.0895 17.6872 21.0897 17.5566 21.0566 17.4326H21.0615ZM24.9999 4.39451C26.7031 4.39349 28.3832 4.78846 29.9075 5.54822C31.4318 6.30799 32.7585 7.41175 33.783 8.77232C34.8075 10.1329 35.5016 11.713 35.8106 13.3879C36.1195 15.0628 36.0349 16.7866 35.5632 18.4232C35.0916 20.0597 34.2459 21.5642 33.093 22.8178C31.9401 24.0714 30.5115 25.0398 28.9201 25.6465C27.3286 26.2532 25.6179 26.4816 23.9231 26.3136C22.2282 26.1456 20.5956 25.5859 19.1542 24.6787L22.9853 20.8476L26.6679 21.8047C27.0567 21.9049 27.4649 21.9023 27.8524 21.797C28.2399 21.6917 28.5933 21.4874 28.8779 21.2041L33.33 16.751C33.421 16.6611 33.4869 16.5491 33.5212 16.4259C33.5555 16.3027 33.5569 16.1727 33.5253 16.0488L32.5664 12.3613C32.5339 12.2364 32.4691 12.1223 32.3784 12.0306C32.2877 11.9388 32.1744 11.8727 32.0499 11.8388C31.9254 11.8049 31.7942 11.8045 31.6695 11.8376C31.5448 11.8707 31.4311 11.9361 31.3398 12.0273L26.7255 16.6416L24.3554 16.0254L23.7392 13.6592L28.3535 9.0449C28.4446 8.95363 28.5101 8.8399 28.5432 8.71521C28.5763 8.59051 28.5759 8.45929 28.542 8.3348C28.5081 8.21032 28.4419 8.097 28.3502 8.00631C28.2584 7.91562 28.1443 7.85077 28.0195 7.81834L24.332 6.85935C24.2081 6.82779 24.0781 6.82921 23.9549 6.86347C23.8317 6.89774 23.7196 6.96365 23.6298 7.05467L19.1767 11.5068C18.8934 11.7914 18.6891 12.1448 18.5838 12.5323C18.4785 12.9197 18.4758 13.328 18.5761 13.7168L19.5331 17.3994L15.7021 21.2304C14.6549 19.5686 14.0726 17.6563 14.0159 15.6928C13.9592 13.7293 14.4303 11.7866 15.3799 10.0671C16.3295 8.34761 17.7229 6.9143 19.415 5.91657C21.107 4.91885 23.0357 4.39323 24.9999 4.39451Z" fill="white"></path></svg>