<svg xmlns="http://www.w3.org/2000/svg" width="38" height="50" viewBox="0 0 38 50" fill="none"><path d="M3.90625 18.5547C3.90625 26.6319 10.4774 33.2031 18.5547 33.2031C26.6319 33.2031 33.2031 26.6319 33.2031 18.5547C33.2031 10.4774 26.6319 3.90625 18.5547 3.90625C10.4774 3.90625 3.90625 10.4774 3.90625 18.5547ZM18.5547 5.85937C25.555 5.85937 31.25 11.5543 31.25 18.5547C31.25 25.555 25.555 31.25 18.5547 31.25C11.5543 31.25 5.85937 25.555 5.85937 18.5547C5.85937 11.5543 11.5543 5.85937 18.5547 5.85937Z" fill="#89EA5F"></path><path d="M9.51096 16.8137L13.2963 20.5433L12.4254 25.7851C12.3647 26.1502 12.5154 26.5179 12.8149 26.7353C13.1139 26.9528 13.5103 26.9822 13.8387 26.812L18.5548 24.363L23.2706 26.812C23.5963 26.981 23.9927 26.9547 24.2944 26.7353C24.5939 26.5179 24.7446 26.1502 24.6839 25.7851L23.813 20.5433L27.5983 16.8137C27.8619 16.5543 27.9561 16.1683 27.8417 15.8162C27.7273 15.4645 27.424 15.2077 27.0582 15.1524L21.8049 14.3616L19.428 9.60814C19.2628 9.2774 18.9245 9.06836 18.5548 9.06836C18.1848 9.06836 17.8468 9.2774 17.6813 9.60814L15.3043 14.3616L10.0511 15.1524C9.68529 15.2073 9.38202 15.4645 9.26758 15.8162C9.15314 16.1683 9.24774 16.5543 9.51096 16.8137ZM16.0966 16.2175C16.411 16.1702 16.6826 15.973 16.8249 15.6888L18.5548 12.2285L20.2848 15.6888C20.4271 15.973 20.6987 16.1702 21.013 16.2175L24.8365 16.7931L22.0811 19.5073C21.8549 19.7304 21.7512 20.0497 21.803 20.3633L22.437 24.1784L19.0046 22.3961C18.8638 22.3229 18.7093 22.2863 18.5548 22.2863C18.4003 22.2863 18.2458 22.3229 18.1047 22.3961L14.6722 24.1784L15.3062 20.3633C15.3585 20.0497 15.2547 19.7304 15.0281 19.5073L12.2732 16.7931L16.0966 16.2175Z" fill="#89EA5F"></path><path d="M19.5312 0.976561C19.5312 1.51596 19.0941 1.95312 18.5547 1.95312C18.0153 1.95312 17.5781 1.51596 17.5781 0.976561C17.5781 0.437164 18.0153 0 18.5547 0C19.0941 0 19.5312 0.437164 19.5312 0.976561Z" fill="#89EA5F"></path><path d="M13.9522 0.575546C5.7373 2.67248 0 10.0657 0 18.5546C0 23.8269 2.21672 28.7947 6.10809 32.313L0.224685 42.6817C0.0354766 43.0155 0.0591278 43.429 0.284958 43.7388C0.510787 44.0489 0.896834 44.1981 1.27258 44.1199L7.95402 42.7325L10.3023 49.3498C10.4298 49.7099 10.7559 49.9621 11.1366 49.996C11.5173 50.03 11.8824 49.8381 12.0712 49.5059L18.5547 38.1076L25.0377 49.5059C25.2125 49.8129 25.5375 49.9995 25.8861 49.9995C25.9147 49.9995 25.9437 49.9983 25.9723 49.996C26.353 49.9621 26.6792 49.7096 26.807 49.3498L29.1549 42.7325L35.8364 44.1199C36.2117 44.1977 36.5982 44.0486 36.824 43.7388C37.0502 43.429 37.0735 43.0155 36.8843 42.6817L31.0009 32.313C34.8922 28.7947 37.109 23.8269 37.109 18.5546C37.109 10.0657 31.3717 2.67248 23.1571 0.575546C22.6341 0.442032 22.1027 0.757507 21.9692 1.28012C21.8357 1.80273 22.1512 2.3345 22.6738 2.46802C30.0232 4.34408 35.1562 10.9591 35.1562 18.5546C35.1562 27.7987 27.6485 35.1561 18.5547 35.1561C9.45434 35.1561 1.95312 27.7926 1.95312 18.5546C1.95312 10.9591 7.08579 4.34408 14.4352 2.46802C14.9578 2.3345 15.2733 1.80273 15.1401 1.28012C15.0066 0.757507 14.4752 0.442032 13.9522 0.575546ZM11.4292 46.6849L9.51003 41.2768C9.34676 40.8167 8.86916 40.5478 8.39118 40.647L2.98843 41.7689L7.64465 33.5627C10.3596 35.5364 13.5742 36.7388 16.917 37.0364L11.4292 46.6849ZM28.7178 40.647C28.2402 40.5478 27.7622 40.8167 27.5989 41.2768L25.6801 46.6849L20.1919 37.0364C23.5351 36.7388 26.7494 35.5364 29.4647 33.5627L34.1209 41.7689L28.7178 40.647Z" fill="#89EA5F"></path></svg>