<svg xmlns="http://www.w3.org/2000/svg" width="36" height="40" viewBox="0 0 36 40" fill="none"><path d="M26.5625 30.9375C26.1313 30.9375 25.7812 31.2875 25.7812 31.7188C25.7812 32.15 26.1313 32.5 26.5625 32.5C26.9937 32.5 27.3438 32.15 27.3438 31.7188C27.3438 31.2875 26.9937 30.9375 26.5625 30.9375Z" fill="white"></path><path d="M28.4861 28.4112L24.7728 27.1737L23.4398 24.5075C24.6407 23.2852 25.4745 21.6678 25.7557 19.9809L25.922 18.9844H27.3438C28.6361 18.9844 29.6875 17.933 29.6875 16.6406V11.7188C29.6875 5.25703 24.4305 0 17.9688 0C11.4905 0 6.25 5.24195 6.25 11.7188V16.6406C6.25 17.6591 6.9032 18.5275 7.8125 18.85V19.7656C7.8125 21.058 8.86391 22.1094 10.1562 22.1094H10.8423C11.181 22.8451 11.6194 23.5265 12.1528 24.1386C12.2634 24.2658 12.3788 24.3891 12.497 24.509L11.1647 27.1737L7.45133 28.4113C3.13375 29.8509 0 34.3962 0 39.2188C0 39.6502 0.349766 40 0.78125 40H35.1562C35.5877 40 35.9375 39.6502 35.9375 39.2188C35.9375 34.3962 32.8038 29.8509 28.4861 28.4112ZM28.125 16.6406C28.125 17.0714 27.7745 17.4219 27.3438 17.4219H26.1514C26.35 15.8836 26.4823 14.2466 26.5355 12.6344C26.5371 12.5889 26.5384 12.5447 26.5398 12.5H28.125V16.6406ZM8.59375 17.4219C8.16297 17.4219 7.8125 17.0714 7.8125 16.6406V12.5H9.39828C9.40086 12.5815 9.40359 12.6634 9.40664 12.7458C9.40672 12.7486 9.40687 12.7513 9.40695 12.7541C9.40695 12.7544 9.40695 12.7546 9.40695 12.7548C9.46164 14.323 9.59227 15.9174 9.78633 17.4218H8.59375V17.4219ZM10.1562 20.5469C9.72547 20.5469 9.375 20.1964 9.375 19.7656V18.9844H10.0155L10.1817 19.9812C10.2134 20.1706 10.2524 20.3594 10.2975 20.5469H10.1562ZM9.37633 10.9375H7.84219C8.23789 5.70148 12.6076 1.5625 17.9688 1.5625C23.3061 1.5625 27.695 5.70094 28.0952 10.9375H26.5613C26.505 6.62289 22.9915 3.125 18.668 3.125H17.2696C12.9462 3.125 9.4325 6.62289 9.37633 10.9375ZM17.2695 4.6875H18.668C22.1687 4.6875 25.002 7.55086 25 11.0477C25 11.2935 24.998 11.5076 24.9939 11.7023C24.9939 11.7048 24.9938 11.7074 24.9938 11.71L24.0166 11.5704C21.362 11.1913 18.8554 9.93805 16.9587 8.04133C16.8121 7.89484 16.6134 7.8125 16.4062 7.8125C14.3081 7.8125 12.2997 8.76844 10.972 10.3834C11.2992 7.20227 13.9885 4.6875 17.2695 4.6875ZM11.9172 20.5469C11.5261 19.2459 11.0786 15.4177 10.9797 12.9646L12.0312 11.5626C12.9969 10.2754 14.4993 9.47562 16.0975 9.38383C18.2004 11.3851 20.9209 12.7066 23.7957 13.1171L24.9459 13.2815C24.869 14.9131 24.7119 16.5505 24.4868 18.0563C24.4867 18.0568 24.4866 18.0573 24.4866 18.0579C24.415 18.542 24.3586 18.8536 24.2145 19.7238C23.8008 22.2055 21.9491 24.4496 19.5046 25.0608C18.4986 25.312 17.4387 25.3119 16.4333 25.0608C14.907 24.6792 13.5074 23.6231 12.6042 22.1094H14.1969C14.5194 23.0187 15.3877 23.6719 16.4062 23.6719H17.9688C19.2637 23.6719 20.3125 22.6231 20.3125 21.3281C20.3125 20.0358 19.2611 18.9844 17.9688 18.9844H16.4062C15.3651 18.9844 14.5095 19.6569 14.1955 20.5469H11.9172ZM16.3405 26.6419C16.8764 26.7548 17.4227 26.8125 17.9688 26.8125C18.3962 26.8125 18.8237 26.7767 19.2463 26.7073L17.8659 28.1673L16.3405 26.6419ZM16.7918 29.303L14.3138 31.9235C13.6316 30.6177 13.0455 29.2588 12.5647 27.8675L13.4952 26.0064L16.7918 29.303ZM22.3098 25.7417L23.3727 27.8674C22.8911 29.261 22.3048 30.6205 21.6233 31.9247L18.9711 29.2725L22.3098 25.7417ZM15.625 21.3281C15.625 20.8968 15.9748 20.5469 16.4062 20.5469H17.9688C18.3995 20.5469 18.75 20.8973 18.75 21.3281C18.75 21.7595 18.4001 22.1094 17.9688 22.1094H16.4062C15.9755 22.1094 15.625 21.7589 15.625 21.3281ZM1.59375 38.4375C1.90336 34.5673 4.47906 31.0495 7.94547 29.8935L11.2341 28.7976C11.8366 30.4636 12.583 32.0829 13.4577 33.621C13.4592 33.6237 13.4606 33.6263 13.4621 33.6289L13.4622 33.6291C14.1013 34.7532 14.8207 35.8517 15.6006 36.8946L16.5617 38.4375H1.59375ZM17.9688 37.7411L16.9092 36.0401C16.8973 36.021 16.8847 36.0025 16.8712 35.9845C16.2386 35.1406 15.6484 34.258 15.1109 33.3547L17.8971 30.4083L20.8329 33.3441C20.2918 34.254 19.6996 35.1402 19.0664 35.9844C19.0281 36.0354 19.0824 35.955 17.9688 37.7411ZM19.3758 38.4375L20.3368 36.8947C21.1202 35.8478 21.8447 34.7405 22.4902 33.6031C22.4941 33.5962 22.4978 33.5892 22.5017 33.5823C22.5022 33.5815 22.5027 33.5807 22.5031 33.5798C23.3668 32.0564 24.1054 30.4512 24.7034 28.7976L27.992 29.8935C31.4584 31.0495 34.0341 34.5673 34.3438 38.4375H19.3758Z" fill="white"></path><path d="M31.9956 35.2758C31.4735 34.2307 30.7088 33.3023 29.784 32.5909C29.442 32.3277 28.9515 32.3916 28.6885 32.7337C28.4253 33.0757 28.4893 33.5662 28.8313 33.8293C29.5699 34.3975 30.1807 35.1391 30.5978 35.9741C30.791 36.3607 31.2605 36.5163 31.6458 36.3238C32.0317 36.131 32.1884 35.6618 31.9956 35.2758Z" fill="white"></path></svg>