<svg xmlns="http://www.w3.org/2000/svg" width="24" height="22" viewBox="0 0 24 22" fill="none"><path d="M17.9349 7.383H15.0671L14.8906 5.21912H17.6414L17.9349 7.383Z" fill="white"></path><path d="M18.3385 10.3634H15.3088L15.1113 7.94324H18.0097L18.3385 10.3634Z" fill="white"></path><path d="M18.7824 13.6374H15.5745L15.3535 10.9236H18.4141L18.7824 13.6374Z" fill="white"></path><path d="M19.2741 17.2509H15.8698L15.6211 14.1976H18.8595L19.2741 17.2509Z" fill="white"></path><path d="M15.308 17.2509H11.901L11.8184 14.1976H15.059L15.308 17.2509Z" fill="white"></path><path d="M15.0126 13.6374H11.8022L11.7285 10.9236H14.7913L15.0126 13.6374Z" fill="white"></path><path d="M14.7462 10.3634H11.714L11.6484 7.94324H14.5493L14.7462 10.3634Z" fill="white"></path><path d="M14.5034 7.383H11.6328L11.5742 5.21912H14.3266L14.5034 7.383Z" fill="white"></path><path d="M11.0723 7.383H8.20117L8.26028 5.21912H11.0132L11.0723 7.383Z" fill="white"></path><path d="M11.1542 10.3634H8.12109L8.18664 7.94324H11.0886L11.1542 10.3634Z" fill="white"></path><path d="M11.2419 13.6374H8.03125L8.10464 10.9236H11.1685L11.2419 13.6374Z" fill="white"></path><path d="M11.3409 17.2509H7.93359L8.01623 14.1976H11.2583L11.3409 17.2509Z" fill="white"></path><path d="M7.45675 14.1976L7.37384 17.2509H3.9668L4.2161 14.1976H7.45675Z" fill="white"></path><path d="M7.54607 10.9236L7.4724 13.6374H4.26172L4.48329 10.9236H7.54607Z" fill="white"></path><path d="M7.62542 7.94324L7.55987 10.3634H4.52734L4.72454 7.94324H7.62542Z" fill="white"></path><path d="M7.69869 5.21912L7.64015 7.383H4.76953L4.946 5.21912H7.69869Z" fill="white"></path><path d="M4.38637 5.21912L4.20961 7.383H1.3418L1.63592 5.21912H4.38637Z" fill="white"></path><path d="M4.16247 7.94324L3.96555 10.3634H0.935547L1.26412 7.94324H4.16247Z" fill="white"></path><path d="M3.91968 10.9236L3.69839 13.6374H0.490234L0.859146 10.9236H3.91968Z" fill="white"></path><path d="M3.65326 14.1976L3.40452 17.2509H0L0.41513 14.1976H3.65326Z" fill="white"></path><path d="M10.6126 20.1573V17.8111H8.65991V20.1573H5.51758V21.84H13.7546V20.1573H10.6126Z" fill="white"></path><path d="M17.7763 3.1496C17.3063 3.1497 16.8478 3.29465 16.4632 3.56472C16.0786 3.83479 15.7866 4.21685 15.627 4.65886H18.1303L18.5289 7.59278C19.0386 7.41483 19.4688 7.06222 19.7434 6.5974C20.018 6.13259 20.1191 5.5856 20.0289 5.05334C19.9388 4.52108 19.6631 4.03792 19.2508 3.68946C18.8385 3.34101 18.3161 3.14976 17.7763 3.1496Z" fill="white"></path><path d="M17.7754 2.09414C17.711 2.09418 17.6472 2.08152 17.5877 2.0569C17.5282 2.03228 17.4742 1.99617 17.4287 1.95064C17.3831 1.90512 17.347 1.85106 17.3224 1.79157C17.2978 1.73208 17.2851 1.66832 17.2852 1.60394V0.490201C17.2852 0.360192 17.3368 0.235507 17.4287 0.143576C17.5207 0.0516459 17.6453 0 17.7754 0C17.9054 0 18.0301 0.0516459 18.122 0.143576C18.2139 0.235507 18.2656 0.360192 18.2656 0.490201V1.60394C18.2656 1.73395 18.2139 1.85863 18.122 1.95056C18.0301 2.04249 17.9054 2.09414 17.7754 2.09414Z" fill="white"></path><path d="M15.067 3.21684C15.0026 3.21692 14.9388 3.20427 14.8792 3.17961C14.8197 3.15495 14.7657 3.11876 14.7202 3.07314L13.9328 2.28574C13.8408 2.19384 13.7891 2.06917 13.7891 1.93915C13.789 1.80914 13.8406 1.68443 13.9325 1.59245C14.0244 1.50048 14.1491 1.44878 14.2791 1.44873C14.4091 1.44868 14.5338 1.50028 14.6258 1.59217L15.4149 2.3793C15.4836 2.44794 15.5304 2.53546 15.5494 2.63075C15.5683 2.72603 15.5585 2.8248 15.5213 2.91451C15.484 3.00423 15.4209 3.08086 15.34 3.13468C15.2592 3.18851 15.1641 3.2171 15.067 3.21684Z" fill="white"></path><path d="M21.2719 9.42139C21.2075 9.42146 21.1438 9.4088 21.0843 9.38414C21.0248 9.35948 20.9708 9.3233 20.9254 9.27769L20.1377 8.49001C20.0458 8.39807 19.9941 8.27338 19.9941 8.14336C19.9941 8.01335 20.0458 7.88866 20.1377 7.79672C20.2297 7.70479 20.3543 7.65314 20.4844 7.65314C20.6144 7.65314 20.7391 7.70479 20.831 7.79672L21.6187 8.5844C21.6872 8.65301 21.7338 8.74038 21.7527 8.83546C21.7715 8.93055 21.7618 9.02909 21.7247 9.11865C21.6876 9.2082 21.6248 9.28476 21.5442 9.33864C21.4636 9.39252 21.3688 9.42132 21.2719 9.42139Z" fill="white"></path><path d="M22.72 5.92498H21.6054C21.4754 5.92498 21.3507 5.87334 21.2588 5.78141C21.1669 5.68948 21.1152 5.56479 21.1152 5.43478C21.1152 5.30477 21.1669 5.18009 21.2588 5.08816C21.3507 4.99623 21.4754 4.94458 21.6054 4.94458H22.7192C22.8492 4.94458 22.9739 4.99623 23.0658 5.08816C23.1577 5.18009 23.2094 5.30477 23.2094 5.43478C23.2094 5.56479 23.1577 5.68948 23.0658 5.78141C22.9739 5.87334 22.8492 5.92498 22.7192 5.92498H22.72Z" fill="white"></path><path d="M20.4854 3.21686C20.3883 3.21701 20.2933 3.18833 20.2125 3.13447C20.1317 3.0806 20.0688 3.00397 20.0316 2.91427C19.9944 2.82458 19.9846 2.72586 20.0036 2.63063C20.0225 2.53539 20.0693 2.44793 20.138 2.37932L20.9257 1.59219C21.0177 1.50026 21.1423 1.44861 21.2724 1.44861C21.4024 1.44861 21.5271 1.50026 21.619 1.59219C21.7109 1.68413 21.7626 1.80882 21.7626 1.93883C21.7626 2.06885 21.7109 2.19354 21.619 2.28548L20.8313 3.07288C20.786 3.1185 20.7321 3.15471 20.6727 3.17942C20.6134 3.20413 20.5497 3.21685 20.4854 3.21686Z" fill="white"></path></svg>