<svg xmlns="http://www.w3.org/2000/svg" width="41" height="40" viewBox="0 0 41 40" fill="none"><path d="M27.3411 39.0403H25.8371L24.9859 23.1683C24.9731 22.9059 24.7299 22.7011 24.4803 22.7139C24.2179 22.7267 24.0131 22.9571 24.0259 23.2195L24.8771 39.0403H21.4851L22.6819 16.8003C22.8419 16.8323 23.0083 16.8515 23.1811 16.8515C23.3539 16.8515 23.5203 16.8323 23.6803 16.8003L23.9171 21.1587C23.9299 21.4147 24.1411 21.6131 24.3971 21.6131H24.4227C24.6851 21.6003 24.8899 21.3699 24.8771 21.1075L24.6467 16.8579L25.0371 17.5747C25.0883 17.6707 25.1715 17.7475 25.2739 17.7859L34.4451 21.5427C34.5667 21.5939 34.6883 21.6131 34.8035 21.6131C35.1171 21.6131 35.4115 21.4531 35.5843 21.1587C35.8211 20.7555 35.7315 20.2691 35.3667 19.9811L27.6483 13.7731C27.5651 13.7027 27.4563 13.6643 27.3475 13.6643H25.4595C25.2995 13.1907 24.9987 12.7811 24.6019 12.4931L25.4531 11.0531C25.5107 10.9571 25.5299 10.8483 25.5171 10.7395L24.0899 0.934661C24.0259 0.473861 23.6483 0.147461 23.1811 0.147461C22.7139 0.147461 22.3427 0.467461 22.2723 0.934661L20.8451 10.7395C20.8323 10.8483 20.8515 10.9571 20.9091 11.0531L21.7603 12.4931C21.3635 12.7811 21.0627 13.1907 20.9027 13.6643H19.0147C18.9059 13.6643 18.7971 13.7027 18.7139 13.7731L10.989 19.9811C10.6242 20.2755 10.5346 20.7619 10.7778 21.1587C10.9506 21.4531 11.245 21.6131 11.5586 21.6131C11.6802 21.6131 11.8018 21.5875 11.917 21.5427L21.0883 17.7859C21.1907 17.7475 21.2739 17.6707 21.3251 17.5747L21.7219 16.8579L20.5251 39.0403H19.0147C18.7523 39.0403 18.5347 39.2579 18.5347 39.5203C18.5347 39.7827 18.7523 40.0003 19.0147 40.0003H27.3411C27.6035 40.0003 27.8211 39.7827 27.8211 39.5203C27.8211 39.2579 27.6099 39.0403 27.3411 39.0403ZM22.4451 15.6867C22.3363 15.6227 22.2403 15.5523 22.1507 15.4691C22.1443 15.4627 22.1443 15.4627 22.1379 15.4563C21.8819 15.1939 21.7219 14.8355 21.7219 14.4387C21.7219 14.3427 21.7347 14.2467 21.7539 14.1507C21.8883 13.4851 22.4771 12.9859 23.1811 12.9859C23.8851 12.9859 24.4739 13.4851 24.6083 14.1507C24.6275 14.2467 24.6403 14.3427 24.6403 14.4387C24.6403 14.8355 24.4803 15.1939 24.2243 15.4563C24.2179 15.4627 24.2179 15.4627 24.2115 15.4691C23.9491 15.7315 23.5843 15.8979 23.1811 15.8979C22.9123 15.8915 22.6627 15.8147 22.4451 15.6867ZM34.5347 20.5443L25.7987 16.9667L25.1651 15.8147C25.4019 15.4755 25.5427 15.0723 25.5747 14.6371H27.1811L34.5347 20.5443ZM21.8243 10.7075L23.1811 1.36346L24.5379 10.7075L23.7187 12.0835C23.5459 12.0451 23.3667 12.0195 23.1747 12.0195C22.9827 12.0195 22.8099 12.0451 22.6307 12.0835L21.8243 10.7075ZM20.5635 16.9603L11.821 20.5443L19.1811 14.6243H20.7875C20.8195 15.0595 20.9603 15.4627 21.1971 15.8019L20.5635 16.9603Z" fill="white"></path><path d="M11.3349 24.6339C11.2517 24.5635 11.1429 24.5251 11.0341 24.5251H9.9397C9.8373 24.2819 9.6773 24.0707 9.4789 23.8979L9.9525 23.0915C10.0101 22.9955 10.0293 22.8867 10.0165 22.7779L9.0949 16.4419C9.0373 16.0643 8.72369 15.7891 8.33969 15.7891C7.95569 15.7891 7.64209 16.0643 7.58449 16.4419L6.66289 22.7779C6.65009 22.8867 6.66929 22.9955 6.72689 23.0915L7.20049 23.8979C7.00209 24.0707 6.84209 24.2819 6.73969 24.5251H5.64529C5.53649 24.5251 5.42769 24.5635 5.34449 24.6339L0.36529 28.6467C0.0644894 28.8835 -0.00591075 29.2995 0.186089 29.6259C0.326889 29.8691 0.57649 30.0035 0.83889 30.0035C0.93489 30.0035 1.03729 29.9843 1.13329 29.9459L7.05329 27.5203C7.09809 27.5011 7.14289 27.4755 7.18129 27.4371L7.00849 30.2147C6.98929 30.4771 7.19409 30.7075 7.45649 30.7203C7.71249 30.7395 7.94929 30.5347 7.96209 30.2723L8.16689 26.9187C8.19889 26.9251 8.23089 26.9187 8.26289 26.9187C8.28849 26.9187 8.30769 26.9251 8.33329 26.9251C8.35889 26.9251 8.38449 26.9187 8.4037 26.9187C8.43569 26.9187 8.46769 26.9251 8.49969 26.9187L9.24209 39.0403H7.41809L7.86609 31.6931C7.88529 31.4307 7.68049 31.2003 7.41809 31.1875C7.14929 31.1683 6.92529 31.3731 6.91249 31.6355L6.45809 39.0403H5.63889C5.37649 39.0403 5.15889 39.2579 5.15889 39.5203C5.15889 39.7827 5.37649 40.0003 5.63889 40.0003H11.0213C11.2837 40.0003 11.5013 39.7827 11.5013 39.5203C11.5013 39.2579 11.2837 39.0403 11.0213 39.0403H10.2213L9.51089 27.4435C9.5493 27.4755 9.5941 27.5011 9.6389 27.5203L15.5653 29.9459C15.6613 29.9843 15.7573 30.0035 15.8597 30.0035C16.1221 30.0035 16.3717 29.8691 16.5125 29.6259C16.7045 29.2995 16.6341 28.8835 16.3333 28.6467L11.3349 24.6339ZM8.5957 25.9139C8.5189 25.9395 8.43569 25.9651 8.3461 25.9651C8.25649 25.9651 8.17329 25.9395 8.09649 25.9139C8.06449 25.9011 8.03249 25.8883 8.00049 25.8755C7.75089 25.7475 7.57169 25.4979 7.57169 25.1971C7.57169 24.7747 7.91729 24.4291 8.33969 24.4291C8.76209 24.4291 9.10769 24.7747 9.10769 25.1971C9.10769 25.4979 8.92849 25.7539 8.67889 25.8755C8.65329 25.8947 8.6277 25.9075 8.5957 25.9139ZM7.64209 22.7587L8.33969 17.9395L9.0373 22.7587L8.60209 23.4947C8.51889 23.4819 8.42929 23.4691 8.33969 23.4691C8.25009 23.4691 8.16049 23.4819 8.07729 23.4947L7.64209 22.7587ZM2.02289 28.5443L5.81809 25.4915H6.64369C6.68209 25.7091 6.75889 25.9075 6.86769 26.0867L6.53489 26.6947L2.02289 28.5443ZM10.1573 26.6947L9.8245 26.0867C9.9333 25.9075 10.0101 25.7091 10.0485 25.4915H10.8741L14.6693 28.5443L10.1573 26.6947Z" fill="white"></path><path d="M10.65 9.06919C10.906 8.56359 11.0404 8.00039 11.0404 7.43719C11.0404 5.44679 9.42119 3.83398 7.43719 3.83398C5.44679 3.83398 3.83398 5.45319 3.83398 7.43719C3.83398 9.42759 5.45319 11.0404 7.43719 11.0404C8.19879 11.0404 8.92199 10.8036 9.53639 10.362C9.75399 10.2084 9.79879 9.90759 9.64519 9.68999C9.49159 9.47239 9.19079 9.42759 8.97319 9.58119C8.51879 9.90759 7.98759 10.0804 7.43079 10.0804C5.97159 10.0804 4.78758 8.89639 4.78758 7.43719C4.78758 5.97799 5.97159 4.79398 7.43079 4.79398C8.88999 4.79398 10.074 5.97799 10.074 7.43719C10.074 7.85959 9.97799 8.26279 9.78599 8.63399C9.66439 8.87079 9.76039 9.15879 9.99719 9.28039C10.2404 9.40199 10.5284 9.30599 10.65 9.06919Z" fill="white"></path><path d="M7.44333 2.9952C7.70573 2.9952 7.91693 2.784 7.91693 2.5216V0.4736C7.91693 0.2112 7.70573 0 7.44333 0C7.18093 0 6.96973 0.2112 6.96973 0.4736V2.5216C6.96973 2.784 7.18093 2.9952 7.44333 2.9952Z" fill="white"></path><path d="M5.12017 3.07227C5.19697 3.25787 5.36977 3.36667 5.56177 3.36667C5.61937 3.36667 5.68337 3.35387 5.74097 3.32827C5.98417 3.22587 6.09937 2.95067 5.99697 2.70747L5.54897 1.63227C5.44657 1.38907 5.17137 1.27387 4.92817 1.37627C4.68497 1.47867 4.56977 1.75387 4.67217 1.99707L5.12017 3.07227Z" fill="white"></path><path d="M1.63227 5.54213L2.71387 5.99013C2.77147 6.01573 2.83547 6.02853 2.89307 6.02853C3.07867 6.02853 3.25787 5.91973 3.33467 5.73413C3.43707 5.49093 3.32187 5.21573 3.07867 5.11333L1.99707 4.66533C1.75387 4.56293 1.47867 4.67813 1.37627 4.92133C1.27387 5.16453 1.38907 5.43973 1.63227 5.54213Z" fill="white"></path><path d="M3.32783 9.13227C3.22543 8.88907 2.95023 8.77387 2.70703 8.87627L1.62543 9.32427C1.38223 9.42667 1.26703 9.70187 1.36943 9.94507C1.44623 10.1307 1.61903 10.2395 1.80463 10.2395C1.86223 10.2395 1.92623 10.2267 1.98383 10.2011L3.06543 9.75307C3.31504 9.65067 3.43024 9.37547 3.32783 9.13227Z" fill="white"></path><path d="M5.10747 11.802L4.65947 12.8836C4.55707 13.1268 4.67227 13.402 4.91547 13.5044C4.97947 13.5236 5.03707 13.5364 5.10107 13.5364C5.28667 13.5364 5.46587 13.4276 5.53627 13.242L5.98427 12.1604C6.08667 11.9172 5.97147 11.642 5.72827 11.5396C5.48507 11.4436 5.20987 11.5588 5.10747 11.802Z" fill="white"></path><path d="M9.12641 11.5456C8.88321 11.648 8.76801 11.9232 8.87041 12.1664L9.31841 13.248C9.39521 13.4336 9.56801 13.5424 9.76001 13.5424C9.81761 13.5424 9.88161 13.5296 9.93921 13.504C10.1824 13.4016 10.2976 13.1264 10.1952 12.8832L9.74721 11.8016C9.65121 11.5648 9.36961 11.4496 9.12641 11.5456Z" fill="white"></path><path d="M13.0557 10.2463C13.2413 10.2463 13.4205 10.1375 13.4909 9.95191C13.5933 9.70871 13.4781 9.43351 13.2349 9.33111L12.1533 8.88311C11.9101 8.78071 11.6349 8.89591 11.5325 9.13911C11.4301 9.38231 11.5453 9.65751 11.7885 9.75991L12.8701 10.2079C12.9341 10.2399 12.9981 10.2463 13.0557 10.2463Z" fill="white"></path><path d="M11.5452 5.74683C11.622 5.93243 11.7948 6.04123 11.9868 6.04123C12.0444 6.04123 12.1084 6.02843 12.166 6.00283L13.2476 5.55483C13.4908 5.45243 13.606 5.17723 13.5036 4.93403C13.4012 4.69083 13.126 4.57563 12.8828 4.67803L11.8012 5.12603C11.558 5.22203 11.4428 5.50363 11.5452 5.74683Z" fill="white"></path><path d="M9.13935 3.33467C9.20335 3.36027 9.26095 3.37307 9.32495 3.37307C9.51055 3.37307 9.68975 3.26427 9.76015 3.07867L10.2081 1.99707C10.3105 1.75387 10.1953 1.47867 9.95215 1.37627C9.70895 1.27387 9.43375 1.38907 9.33135 1.63227L8.88335 2.71387C8.78735 2.95707 8.89615 3.23867 9.13935 3.33467Z" fill="white"></path><path d="M3.62911 4.29471C3.71871 4.38431 3.84031 4.42911 3.96191 4.42911C4.08351 4.42911 4.20511 4.38431 4.29471 4.28831C4.48031 4.10271 4.48031 3.80191 4.29471 3.61631L2.84831 2.17631C2.66271 1.99071 2.36191 1.99071 2.17631 2.17631C1.99071 2.36191 1.99071 2.66271 2.17631 2.84831L3.62911 4.29471Z" fill="white"></path><path d="M0.4736 7.90423H2.5216C2.784 7.90423 2.9952 7.69303 2.9952 7.43063C2.9952 7.16823 2.784 6.95703 2.5216 6.95703H0.4736C0.2112 6.95703 0 7.16823 0 7.43063C0 7.69303 0.2112 7.90423 0.4736 7.90423Z" fill="white"></path><path d="M2.50867 12.832C2.63027 12.832 2.75187 12.7872 2.84147 12.6912L4.28787 11.2448C4.47347 11.0592 4.47347 10.7584 4.28787 10.5728C4.10227 10.3872 3.80147 10.3872 3.61587 10.5728L2.16947 12.0192C1.98387 12.2048 1.98387 12.5056 2.16947 12.6912C2.26547 12.7872 2.38707 12.832 2.50867 12.832Z" fill="white"></path><path d="M6.95703 12.3584V14.4064C6.95703 14.6688 7.16823 14.88 7.43063 14.88C7.69303 14.88 7.90423 14.6688 7.90423 14.4064V12.3584C7.90423 12.096 7.69303 11.8848 7.43063 11.8848C7.16823 11.8848 6.95703 12.096 6.95703 12.3584Z" fill="white"></path><path d="M12.0188 12.7039C12.1084 12.7935 12.23 12.8447 12.3516 12.8447C12.4732 12.8447 12.5948 12.7999 12.6844 12.7039C12.87 12.5183 12.87 12.2175 12.6844 12.0319L11.238 10.5855C11.0524 10.3999 10.7516 10.3999 10.566 10.5855C10.3804 10.7711 10.3804 11.0719 10.566 11.2575L12.0188 12.7039Z" fill="white"></path><path d="M11.8779 7.44333C11.8779 7.70573 12.0891 7.91693 12.3515 7.91693H14.3995C14.6619 7.91693 14.8731 7.70573 14.8731 7.44333C14.8731 7.18093 14.6619 6.96973 14.3995 6.96973H12.3515C12.0891 6.96973 11.8779 7.18093 11.8779 7.44333Z" fill="white"></path><path d="M10.9188 4.44137C11.0404 4.44137 11.162 4.39657 11.2516 4.30057L12.698 2.85417C12.8836 2.66857 12.8836 2.36777 12.698 2.18217C12.5124 1.99657 12.2116 1.99657 12.026 2.18217L10.5796 3.62857C10.394 3.81417 10.394 4.11497 10.5796 4.30057C10.6756 4.39657 10.7972 4.44137 10.9188 4.44137Z" fill="white"></path><path d="M40.1471 36.4675L38.8863 27.7763C38.8095 27.2323 38.3359 26.8291 37.7919 26.8291H29.0047C28.4607 26.8291 27.9871 27.2387 27.9103 27.7763L26.6495 36.4675C26.6047 36.7875 26.7007 37.1075 26.9055 37.3507C27.1103 37.5939 27.4239 37.7347 27.7439 37.7347H30.4959H31.5839V39.0403H30.0671C29.8047 39.0403 29.5871 39.2579 29.5871 39.5203C29.5871 39.7827 29.8047 40.0003 30.0671 40.0003H36.7167C36.9791 40.0003 37.1967 39.7827 37.1967 39.5203C37.1967 39.2579 36.9791 39.0403 36.7167 39.0403H35.2063V37.7347H36.2943H37.0239C37.2863 37.7347 37.5039 37.5171 37.5039 37.2547C37.5039 36.9923 37.2863 36.7747 37.0239 36.7747H36.7807V35.3219H39.0143L39.1999 36.6083C39.2063 36.6659 39.1807 36.7043 39.1679 36.7235C39.1487 36.7427 39.1167 36.7747 39.0527 36.7747H38.5087C38.2463 36.7747 38.0287 36.9923 38.0287 37.2547C38.0287 37.5171 38.2463 37.7347 38.5087 37.7347H39.0463C39.3663 37.7347 39.6735 37.5939 39.8847 37.3507C40.0959 37.1075 40.1919 36.7811 40.1471 36.4675ZM30.9759 36.7747V35.3219H32.9151V36.7747H30.9759ZM30.9759 34.3555V32.7555H32.9151V34.3555H30.9759ZM32.9151 29.2419H30.9759V27.7827H32.9151V29.2419ZM33.8751 27.7827H35.8207V29.2419H33.8751V27.7827ZM32.9151 30.2019V31.8019H30.9759V30.2019H32.9151ZM30.0159 31.7955H28.2879L28.5183 30.1955H30.0095V31.7955H30.0159ZM28.1535 32.7555H30.0159V34.3555H27.9231L28.1535 32.7555ZM33.8751 32.7555H35.8207V34.3555H33.8751V32.7555ZM33.8751 31.7955V30.1955H35.8207V31.7955H33.8751ZM36.7807 30.2019H38.2719L38.5023 31.8019H36.7807V30.2019ZM37.9327 27.9107L38.1247 29.2419H36.7807V27.7827H37.7919C37.8623 27.7827 37.9263 27.8403 37.9327 27.9107ZM29.0047 27.7827H30.0159V29.2419H28.6591L28.8511 27.9107C28.8639 27.8403 28.9279 27.7827 29.0047 27.7827ZM27.6287 36.7235C27.6095 36.7043 27.5839 36.6659 27.5967 36.6019L27.7823 35.3155H30.0159V36.7683H27.7439C27.6863 36.7747 27.6479 36.7427 27.6287 36.7235ZM32.5439 39.0403V37.7347H34.2463V39.0403H32.5439ZM35.8207 36.7747H33.8751V35.3219H35.8207V36.7747ZM36.7807 34.3555V32.7555H38.6367L38.8671 34.3555H36.7807Z" fill="white"></path><path d="M30.4004 4.32623H37.9076C38.17 4.32623 38.3876 4.10863 38.3876 3.84623C38.3876 3.58383 38.17 3.36623 37.9076 3.36623H30.4004C29.7796 3.36623 29.2676 2.86063 29.2676 2.23343C29.2676 1.61263 29.7732 1.10063 30.4004 1.10063C30.6628 1.10063 30.8804 0.883025 30.8804 0.620625C30.8804 0.358225 30.6628 0.140625 30.4004 0.140625C29.2484 0.140625 28.3076 1.07503 28.3076 2.23343C28.3076 3.39183 29.2484 4.32623 30.4004 4.32623Z" fill="white"></path><path d="M30.707 7.83987C30.707 8.99187 31.6414 9.93267 32.7934 9.93267C33.0558 9.93267 33.2734 9.71507 33.2734 9.45267C33.2734 9.19027 33.0558 8.97267 32.7934 8.97267C32.1726 8.97267 31.667 8.46707 31.667 7.83987C31.667 7.21907 32.1726 6.70707 32.7934 6.70707H39.0206C39.283 6.70707 39.5006 6.48947 39.5006 6.22707C39.5006 5.96467 39.283 5.74707 39.0206 5.74707H32.7934C31.6414 5.74707 30.707 6.68787 30.707 7.83987Z" fill="white"></path></svg>