<svg xmlns="http://www.w3.org/2000/svg" width="50" height="50" viewBox="0 0 50 50" fill="none"><path d="M42.0334 30.9831V21.7139L49.8941 8.58269C49.9612 8.47067 49.9974 8.34288 49.999 8.21232C50.0005 8.08177 49.9675 7.95314 49.9031 7.83953C49.8388 7.72591 49.7455 7.63139 49.6327 7.56559C49.52 7.4998 49.3918 7.46507 49.2612 7.46497H23.8637C23.7362 7.46516 23.6109 7.49837 23.5 7.56136C23.389 7.62436 23.2963 7.715 23.2308 7.82446L8.70637 32.0861C8.63926 32.198 8.60307 32.3258 8.60147 32.4564C8.59988 32.5869 8.63294 32.7155 8.69728 32.8291C8.76163 32.9427 8.85495 33.0372 8.96774 33.1029C9.08052 33.1687 9.20873 33.2033 9.33928 33.2034H34.7367C34.8643 33.2033 34.9896 33.1702 35.1005 33.1073C35.2115 33.0443 35.3042 32.9537 35.3697 32.8443L36.0545 31.6983C36.0777 31.7038 36.1009 31.7072 36.1245 31.7105V40.8734H24.9996C24.8038 40.8734 24.616 40.9512 24.4775 41.0897C24.339 41.2281 24.2612 41.416 24.2612 41.6118V46.0422H21.0081V45.4641C21.0081 45.2683 20.9303 45.0805 20.7918 44.942C20.6533 44.8035 20.4655 44.7257 20.2697 44.7257H18.4756V39.135C18.4756 38.9392 18.3978 38.7514 18.2593 38.6129C18.1208 38.4744 17.933 38.3966 17.7372 38.3966H15.9574V36.6034C15.9574 36.4075 15.8796 36.2197 15.7412 36.0812C15.6027 35.9428 15.4149 35.865 15.219 35.865H12.6874C12.4915 35.865 12.3037 35.9428 12.1653 36.0812C12.0268 36.2197 11.949 36.4075 11.949 36.6034V38.3966H6.72957V36.6034C6.72963 36.5064 6.71057 36.4103 6.67348 36.3207C6.63639 36.2311 6.582 36.1497 6.51343 36.0811C6.44485 36.0125 6.36343 35.9581 6.27382 35.9211C6.1842 35.884 6.08816 35.8649 5.99118 35.865H3.45953C3.2637 35.865 3.07588 35.9428 2.93741 36.0812C2.79893 36.2197 2.72114 36.4075 2.72114 36.6034V38.3966H0.940545C0.74471 38.3966 0.556896 38.4744 0.41842 38.6129C0.279944 38.7514 0.202148 38.9392 0.202148 39.135V49.2616C0.202148 49.4574 0.279944 49.6452 0.41842 49.7837C0.556896 49.9222 0.74471 50 0.940545 50H17.7372C17.933 50 18.1208 49.9222 18.2593 49.7837C18.3978 49.6452 18.4756 49.4574 18.4756 49.2616V48.7342H20.2697C20.4655 48.7342 20.6533 48.6564 20.7918 48.5179C20.9303 48.3794 21.0081 48.1916 21.0081 47.9958V47.519H24.9996C25.1954 47.519 25.3833 47.4412 25.5217 47.3027C25.6602 47.1642 25.738 46.9764 25.738 46.7806V42.3502H36.1262V43.4599H33.5C33.4031 43.4598 33.307 43.4789 33.2174 43.516C33.1278 43.5531 33.0464 43.6075 32.9778 43.676C32.9092 43.7446 32.8548 43.826 32.8177 43.9157C32.7806 44.0053 32.7616 44.1013 32.7616 44.1983V45.9915H30.3633C30.1675 45.9915 29.9797 46.0693 29.8412 46.2078C29.7027 46.3463 29.6249 46.5341 29.6249 46.7299V49.2616C29.6249 49.4574 29.7027 49.6452 29.8412 49.7837C29.9797 49.9222 30.1675 50 30.3633 50H47.1599C47.3558 50 47.5436 49.9222 47.6821 49.7837C47.8206 49.6452 47.8983 49.4574 47.8983 49.2616V46.7299C47.8983 46.5341 47.8206 46.3463 47.6821 46.2078C47.5436 46.0693 47.3558 45.9915 47.1599 45.9915H44.7612V44.1983C44.7613 44.1013 44.7422 44.0053 44.7051 43.9157C44.668 43.826 44.6136 43.7446 44.5451 43.676C44.4765 43.6075 44.3951 43.5531 44.3055 43.516C44.2158 43.4789 44.1198 43.4598 44.0228 43.4599H41.4005V31.7088C41.5756 31.6841 41.7359 31.5971 41.8521 31.4639C41.9683 31.3306 42.0327 31.1599 42.0334 30.9831ZM13.4258 37.3418H14.4806V38.3966H13.4258V37.3418ZM4.19793 37.3418H5.25278V38.3966H4.19793V37.3418ZM16.9988 48.5232H1.67894V39.8734H16.9988V48.5232ZM19.5304 47.2574H18.4756V46.2025H19.5304V47.2574ZM40.5557 30.2447H36.9692V30.1717L40.5557 24.1802V30.2447ZM19.0401 31.7266L21.0608 28.351H27.738L25.7173 31.7266H19.0401ZM21.9448 26.8742L23.9659 23.4987H30.6431L28.622 26.8742H21.9448ZM15.5675 23.4987H22.2448L20.2241 26.8742H13.5465L15.5675 23.4987ZM18.4722 18.6464H25.1498L23.1287 22.0219H16.4515L18.4722 18.6464ZM21.3773 13.7941H28.0545L26.0338 17.1696H19.3566L21.3773 13.7941ZM39.3578 8.94176L37.3367 12.3173H30.6595L32.6806 8.94176H39.3578ZM36.4528 13.7941L34.4321 17.1696H27.7549L29.7756 13.7941H36.4528ZM43.0351 17.1696H36.1528L38.1739 13.7941H45.0536L43.0351 17.1696ZM40.13 22.0219H33.2524L35.273 18.6464H42.1528L40.13 22.0219ZM31.5291 22.0219H24.8498L26.8705 18.6464H33.5477L31.5291 22.0219ZM32.3659 23.4987H39.2439L37.2228 26.8742H30.3452L32.3659 23.4987ZM45.9397 12.3173H39.0578L41.0785 8.94176H47.9587L45.9397 12.3173ZM24.2844 8.94176H30.9595L28.9389 12.3173H22.2612L24.2844 8.94176ZM12.6646 28.351H19.3397L17.319 31.7266H10.6418L12.6646 28.351ZM34.3199 31.7266H27.438L29.4591 28.351H36.3367L34.3199 31.7266ZM46.4216 48.5232H31.1017V47.4683H46.4216V48.5232ZM43.2844 45.9915H34.2401V44.9367H43.2861L43.2844 45.9915ZM37.603 43.4599V31.7215H39.9237V43.4599H37.603Z" fill="white"></path><path d="M0.738397 8.43882H1.95105C2.08158 9.45973 2.48327 10.427 3.11435 11.2401L2.25316 12.1013C2.11911 12.241 2.04515 12.4277 2.04715 12.6213C2.04915 12.8149 2.12696 13 2.26388 13.137C2.40079 13.2739 2.58592 13.3517 2.77954 13.3537C2.97316 13.3557 3.15986 13.2817 3.29958 13.1477L4.16076 12.2865C4.97381 12.9176 5.94111 13.3193 6.96202 13.4498V14.6624C6.96202 14.8583 7.03982 15.0461 7.1783 15.1846C7.31677 15.323 7.50459 15.4008 7.70042 15.4008C7.89626 15.4008 8.08407 15.323 8.22255 15.1846C8.36102 15.0461 8.43882 14.8583 8.43882 14.6624V13.4498C9.45973 13.3193 10.427 12.9176 11.2401 12.2865L12.1013 13.1477C12.1694 13.2187 12.2511 13.2755 12.3415 13.3146C12.4319 13.3537 12.5292 13.3743 12.6276 13.3753C12.7261 13.3764 12.8238 13.3577 12.915 13.3205C13.0061 13.2833 13.089 13.2282 13.1586 13.1586C13.2282 13.089 13.2833 13.0061 13.3205 12.915C13.3577 12.8238 13.3764 12.7261 13.3753 12.6276C13.3743 12.5292 13.3537 12.4319 13.3146 12.3415C13.2755 12.2511 13.2187 12.1694 13.1477 12.1013L12.2865 11.2401C12.9176 10.427 13.3193 9.45973 13.4498 8.43882H14.6624C14.8583 8.43882 15.0461 8.36102 15.1846 8.22255C15.323 8.08407 15.4008 7.89626 15.4008 7.70042C15.4008 7.50459 15.323 7.31677 15.1846 7.1783C15.0461 7.03982 14.8583 6.96202 14.6624 6.96202H13.4498C13.3193 5.94111 12.9176 4.97381 12.2865 4.16076L13.1477 3.29958C13.2187 3.2314 13.2755 3.14972 13.3146 3.05934C13.3537 2.96895 13.3743 2.87167 13.3753 2.7732C13.3764 2.67473 13.3577 2.57704 13.3205 2.48587C13.2833 2.39469 13.2282 2.31186 13.1586 2.24223C13.089 2.17259 13.0061 2.11756 12.915 2.08034C12.8238 2.04313 12.7261 2.02448 12.6276 2.0255C12.5292 2.02652 12.4319 2.04718 12.3415 2.08627C12.2511 2.12537 12.1694 2.1821 12.1013 2.25316L11.2401 3.11392C10.4269 2.48316 9.45965 2.08163 8.43882 1.95105V0.738397C8.43882 0.542562 8.36102 0.354748 8.22255 0.216271C8.08407 0.0777952 7.89626 0 7.70042 0C7.50459 0 7.31677 0.0777952 7.1783 0.216271C7.03982 0.354748 6.96202 0.542562 6.96202 0.738397V1.95105C5.9412 2.08163 4.97395 2.48316 4.16076 3.11392L3.29958 2.25316C3.15986 2.11911 2.97316 2.04515 2.77954 2.04715C2.58592 2.04915 2.40079 2.12696 2.26388 2.26388C2.12696 2.40079 2.04915 2.58592 2.04715 2.77954C2.04515 2.97316 2.11911 3.15986 2.25316 3.29958L3.11435 4.16076C2.48327 4.97381 2.08158 5.94111 1.95105 6.96202H0.738397C0.542562 6.96202 0.354748 7.03982 0.216271 7.1783C0.0777952 7.31677 0 7.50459 0 7.70042C0 7.89626 0.0777952 8.08407 0.216271 8.22255C0.354748 8.36102 0.542562 8.43882 0.738397 8.43882ZM7.70042 3.37553C8.5558 3.37553 9.39198 3.62918 10.1032 4.1044C10.8144 4.57963 11.3688 5.25508 11.6961 6.04536C12.0234 6.83563 12.1091 7.70522 11.9422 8.54417C11.7753 9.38311 11.3634 10.1537 10.7586 10.7586C10.1537 11.3634 9.38311 11.7753 8.54417 11.9422C7.70522 12.1091 6.83563 12.0234 6.04536 11.6961C5.25508 11.3688 4.57963 10.8144 4.1044 10.1032C3.62918 9.39198 3.37553 8.5558 3.37553 7.70042C3.37676 6.55376 3.83281 5.45442 4.64362 4.64362C5.45442 3.83281 6.55376 3.37676 7.70042 3.37553Z" fill="white"></path><path d="M3.47277 42.7216C3.27694 42.7216 3.08912 42.7994 2.95065 42.9378C2.81217 43.0763 2.73437 43.2641 2.73438 43.46V46.0971C2.73438 46.2929 2.81217 46.4807 2.95065 46.6192C3.08912 46.7577 3.27694 46.8355 3.47277 46.8355C3.66861 46.8355 3.85642 46.7577 3.9949 46.6192C4.13337 46.4807 4.21117 46.2929 4.21117 46.0971V43.46C4.21122 43.363 4.19216 43.2669 4.15507 43.1773C4.11799 43.0877 4.0636 43.0063 3.99502 42.9377C3.92644 42.8691 3.84502 42.8147 3.75541 42.7777C3.6658 42.7406 3.56975 42.7215 3.47277 42.7216Z" fill="white"></path><path d="M10.2354 43.4602H9.48097L10.0371 41.8569C10.0999 41.6722 10.087 41.4701 10.0013 41.2949C9.91562 41.1197 9.76407 40.9854 9.57975 40.9216C9.39543 40.8577 9.19332 40.8693 9.01757 40.954C8.84182 41.0386 8.7067 41.1894 8.64173 41.3733L7.74595 43.9577C7.70731 44.0689 7.69584 44.1878 7.71251 44.3044C7.72918 44.4209 7.7735 44.5318 7.84177 44.6278C7.91004 44.7237 8.00028 44.8019 8.10494 44.8559C8.20961 44.9098 8.32567 44.9379 8.44342 44.9379H9.19785L8.64173 46.5413C8.60996 46.6329 8.59653 46.7298 8.60224 46.8266C8.60794 46.9234 8.63266 47.0181 8.67498 47.1053C8.7173 47.1925 8.77639 47.2706 8.84887 47.3349C8.92136 47.3993 9.00582 47.4488 9.09743 47.4805C9.17503 47.5082 9.2568 47.5225 9.3392 47.5227C9.49271 47.5227 9.64239 47.4748 9.76746 47.3858C9.89253 47.2968 9.98677 47.1711 10.0371 47.0261L10.9329 44.4417C10.9715 44.3304 10.983 44.2116 10.9663 44.095C10.9496 43.9785 10.9053 43.8676 10.8371 43.7716C10.7688 43.6757 10.6785 43.5975 10.5739 43.5435C10.4692 43.4896 10.3532 43.4615 10.2354 43.4615V43.4602Z" fill="white"></path></svg>