<svg xmlns="http://www.w3.org/2000/svg" width="51" height="50" viewBox="0 0 51 50" fill="none"><path d="M49.2922 48.4375H46.8098C46.6481 47.4911 46.2004 46.6169 45.5267 45.9327C44.8531 45.2484 43.9861 44.787 43.0422 44.6106V41.9329C44.1946 42.3008 45.3417 42.2229 46.3835 41.6643C48.5612 40.4968 49.952 37.2998 50.0102 37.1644C50.0565 37.0565 50.0779 36.9396 50.0728 36.8224C50.0677 36.7051 50.0363 36.5905 49.9808 36.487C49.9253 36.3836 49.8473 36.294 49.7524 36.2249C49.6576 36.1557 49.5483 36.1089 49.4329 36.0877C49.2877 36.0612 45.855 35.4512 43.6779 36.6185C43.1144 36.9168 42.629 37.3435 42.261 37.8642C41.893 37.3435 41.4076 36.9168 40.8441 36.6185C38.6671 35.4511 35.2341 36.0612 35.0891 36.0877C34.9737 36.1089 34.8644 36.1557 34.7696 36.2249C34.6747 36.294 34.5967 36.3836 34.5412 36.487C34.4857 36.5905 34.4543 36.7051 34.4492 36.8224C34.4441 36.9396 34.4655 37.0565 34.5118 37.1644C34.5704 37.2998 35.9613 40.4968 38.1385 41.6643C39.1753 42.2202 40.3217 42.3027 41.4797 41.9328V44.5849C40.506 44.7357 39.6043 45.1889 38.9023 45.8802C38.2002 46.5716 37.7333 47.4662 37.5675 48.4375H29.6223C29.4593 47.4828 29.0051 46.6018 28.322 45.9152C27.6389 45.2286 26.7603 44.7699 25.8064 44.6019V41.9164C26.9566 42.2964 28.1237 42.2386 29.196 41.6638C31.3737 40.4963 32.7645 37.2994 32.8227 37.1639C32.869 37.0561 32.8904 36.9391 32.8853 36.8219C32.8802 36.7046 32.8488 36.59 32.7933 36.4866C32.7378 36.3831 32.6598 36.2935 32.5649 36.2244C32.4701 36.1552 32.3608 36.1084 32.2454 36.0873C32.1002 36.0607 28.6674 35.4507 26.4904 36.618C25.9081 36.926 25.4094 37.371 25.0373 37.9146C24.6652 37.371 24.1665 36.9261 23.5842 36.618C21.4071 35.4506 17.9744 36.0607 17.8293 36.0873C17.7138 36.1084 17.6046 36.1553 17.5098 36.2244C17.4149 36.2935 17.3368 36.3831 17.2814 36.4866C17.2259 36.59 17.1945 36.7046 17.1894 36.8219C17.1843 36.9392 17.2057 37.0561 17.252 37.1639C17.3106 37.2994 18.7014 40.4963 20.8788 41.6638C21.9565 42.2417 23.1171 42.2905 24.2439 41.9244V44.5928C23.2801 44.7524 22.3899 45.2084 21.6974 45.8975C21.0049 46.5866 20.5444 47.4745 20.38 48.4375H12.5072C12.3434 47.4787 11.8861 46.5944 11.1982 45.9066C10.5104 45.2187 9.62608 44.7614 8.66726 44.5976V41.9089C9.80983 42.2926 10.9883 42.25 12.0807 41.6648C14.2585 40.4973 15.6493 37.3003 15.7075 37.1649C15.7538 37.057 15.7752 36.9401 15.7701 36.8229C15.765 36.7056 15.7336 36.591 15.6781 36.4876C15.6227 36.3841 15.5446 36.2945 15.4498 36.2254C15.3549 36.1562 15.2457 36.1094 15.1302 36.0882C14.9851 36.0617 11.5525 35.4516 9.37526 36.619C8.77318 36.9375 8.26082 37.4022 7.88532 37.9705C7.50982 37.4022 6.99747 36.9375 6.39538 36.619C4.21823 35.4516 0.785422 36.0617 0.640403 36.0882C0.525011 36.1094 0.415865 36.1562 0.321063 36.2253C0.226261 36.2944 0.148239 36.384 0.0927871 36.4874C0.037335 36.5908 0.00587677 36.7053 0.000747244 36.8225C-0.00438229 36.9397 0.0169486 37.0566 0.0631567 37.1644C0.12175 37.2998 1.51257 40.4968 3.68982 41.6643C4.7865 42.2524 5.96657 42.2911 7.10476 41.9084V44.5976C6.14593 44.7614 5.26158 45.2187 4.57377 45.9066C3.88596 46.5944 3.4286 47.4787 3.26482 48.4375H0.854758C0.647558 48.4375 0.448844 48.5199 0.302331 48.6664C0.155818 48.8129 0.0735082 49.0116 0.0735082 49.2188C0.0735082 49.426 0.155818 49.6247 0.302331 49.7712C0.448844 49.9177 0.647558 50 0.854758 50H49.2922C49.4994 50 49.6982 49.9177 49.8447 49.7712C49.9912 49.6247 50.0735 49.426 50.0735 49.2188C50.0735 49.0116 49.9912 48.8129 49.8447 48.6664C49.6982 48.5199 49.4994 48.4375 49.2922 48.4375ZM48.0911 37.5005C46.8947 39.6306 45.3286 41.3141 43.1018 40.2859C43.093 40.1699 43.0781 40.0332 43.0546 39.8821C43.5577 37.627 45.7777 37.3279 48.0911 37.5005ZM41.4212 40.286C39.1896 41.3157 37.625 39.6244 36.4319 37.5005C38.7413 37.3279 40.9644 37.6254 41.4684 39.8821C41.4444 40.0332 41.4295 40.17 41.4212 40.286ZM30.9036 37.5005C29.6678 39.7005 28.0715 41.3453 25.8389 40.2497C25.8351 40.2036 25.8304 40.1551 25.8247 40.1032C26.2063 37.6902 28.4669 37.3187 30.9036 37.5005ZM13.7906 37.5005C12.5504 39.6923 10.9488 41.369 8.69099 40.2337C8.99382 37.7265 11.281 37.313 13.7901 37.5007L13.7906 37.5005ZM1.98318 37.5005C4.50583 37.312 6.7781 37.7349 7.08083 40.2339C4.82614 41.3666 3.21726 39.6982 1.98269 37.5005H1.98318ZM4.85993 48.4375C5.66335 45.3275 10.1068 45.3202 10.9121 48.4375H4.85993ZM24.2362 40.2498C21.999 41.3466 20.4067 39.6997 19.1716 37.5005C21.6093 37.3183 23.8688 37.6913 24.2506 40.1036C24.2447 40.1551 24.2401 40.2037 24.2362 40.2498ZM21.9751 48.4375C22.7786 45.3275 27.222 45.3202 28.0273 48.4375H21.9751ZM39.1626 48.4375C39.9661 45.3275 44.4094 45.3202 45.2148 48.4375H39.1626Z" fill="white"></path><path d="M0.363169 4.51312L6.32391 9.34574V9.37504H6.35955L14.1364 15.6806V22.6563C14.1364 22.8635 14.2187 23.0622 14.3652 23.2087C14.5117 23.3552 14.7105 23.4375 14.9177 23.4375C15.1249 23.4375 15.3236 23.3552 15.4701 23.2087C15.6166 23.0622 15.6989 22.8635 15.6989 22.6563V16.9475L17.2614 18.2144V33.5938C17.2614 33.801 17.3437 33.9997 17.4902 34.1462C17.6367 34.2927 17.8355 34.375 18.0427 34.375C18.2499 34.375 18.4486 34.2927 18.5951 34.1462C18.7416 33.9997 18.8239 33.801 18.8239 33.5938V19.4813C29.7005 28.2201 29.2376 28.125 29.7614 28.125H39.9177C40.0789 28.1246 40.2361 28.0744 40.3677 27.9812C40.4993 27.8879 40.5988 27.7563 40.6527 27.6043C40.7066 27.4523 40.7121 27.2874 40.6686 27.1321C40.6251 26.9768 40.5347 26.8388 40.4096 26.7369L34.4489 21.9043V21.875H34.4133C10.1213 2.26166 11.5378 3.12504 11.0114 3.12504H0.855161C0.693903 3.12544 0.536714 3.1757 0.405127 3.26891C0.273541 3.36213 0.173993 3.49375 0.12012 3.64574C0.0662478 3.79774 0.0606857 3.96267 0.104196 4.11795C0.147707 4.27323 0.238161 4.41125 0.363169 4.51312ZM37.7136 26.5625H30.0384L26.1842 23.4375H33.8594L37.7136 26.5625ZM31.9324 21.875H24.2927V21.9038L20.4029 18.75H28.0787L31.9324 21.875ZM26.1512 17.1875H18.4759L14.6217 14.0625H22.2974L26.1512 17.1875ZM16.4802 9.34623L20.3699 12.5H12.6946L8.84041 9.37504H16.4802V9.34623ZM10.7345 4.68754L14.5887 7.81254H6.91336L3.05916 4.68754H10.7345Z" fill="white"></path><path d="M41.4795 14.0625C42.5611 14.0625 43.6184 13.7418 44.5178 13.1409C45.4171 12.5399 46.118 11.6858 46.532 10.6866C46.9459 9.68727 47.0542 8.58769 46.8432 7.52685C46.6321 6.46602 46.1113 5.49158 45.3465 4.72676C44.5817 3.96194 43.6072 3.4411 42.5464 3.23008C41.4856 3.01907 40.386 3.12737 39.3867 3.54129C38.3874 3.9552 37.5333 4.65615 36.9324 5.55548C36.3315 6.45481 36.0107 7.51214 36.0107 8.59375C36.0124 10.0437 36.5891 11.4337 37.6143 12.4589C38.6395 13.4842 40.0296 14.0609 41.4795 14.0625ZM41.4795 4.6875C42.2521 4.6875 43.0073 4.9166 43.6497 5.34582C44.2921 5.77505 44.7927 6.38512 45.0884 7.09889C45.384 7.81267 45.4614 8.59808 45.3107 9.35582C45.16 10.1136 44.7879 10.8096 44.2416 11.3559C43.6953 11.9022 42.9993 12.2742 42.2416 12.4249C41.4838 12.5757 40.6984 12.4983 39.9846 12.2027C39.2709 11.907 38.6608 11.4063 38.2316 10.7639C37.8023 10.1216 37.5732 9.36633 37.5732 8.59375C37.5744 7.55811 37.9863 6.56521 38.7186 5.8329C39.451 5.10059 40.4438 4.68867 41.4795 4.6875Z" fill="white"></path><path d="M41.4795 1.5625C41.911 1.5625 42.2607 1.21272 42.2607 0.78125C42.2607 0.349777 41.911 0 41.4795 0C41.048 0 40.6982 0.349777 40.6982 0.78125C40.6982 1.21272 41.048 1.5625 41.4795 1.5625Z" fill="white"></path><path d="M41.4795 17.1875C41.911 17.1875 42.2607 16.8377 42.2607 16.4062C42.2607 15.9748 41.911 15.625 41.4795 15.625C41.048 15.625 40.6982 15.9748 40.6982 16.4062C40.6982 16.8377 41.048 17.1875 41.4795 17.1875Z" fill="white"></path><path d="M49.292 9.375C49.7235 9.375 50.0732 9.02522 50.0732 8.59375C50.0732 8.16228 49.7235 7.8125 49.292 7.8125C48.8605 7.8125 48.5107 8.16228 48.5107 8.59375C48.5107 9.02522 48.8605 9.375 49.292 9.375Z" fill="white"></path><path d="M33.667 9.375C34.0985 9.375 34.4482 9.02522 34.4482 8.59375C34.4482 8.16228 34.0985 7.8125 33.667 7.8125C33.2355 7.8125 32.8857 8.16228 32.8857 8.59375C32.8857 9.02522 33.2355 9.375 33.667 9.375Z" fill="white"></path><path d="M35.9551 3.85071C36.3866 3.85071 36.7363 3.50093 36.7363 3.06946C36.7363 2.63799 36.3866 2.28821 35.9551 2.28821C35.5236 2.28821 35.1738 2.63799 35.1738 3.06946C35.1738 3.50093 35.5236 3.85071 35.9551 3.85071Z" fill="white"></path><path d="M14.917 26.5625C15.3485 26.5625 15.6982 26.2127 15.6982 25.7812C15.6982 25.3498 15.3485 25 14.917 25C14.4855 25 14.1357 25.3498 14.1357 25.7812C14.1357 26.2127 14.4855 26.5625 14.917 26.5625Z" fill="white"></path><path d="M47.0039 14.8993C47.4354 14.8993 47.7852 14.5495 47.7852 14.118C47.7852 13.6866 47.4354 13.3368 47.0039 13.3368C46.5724 13.3368 46.2227 13.6866 46.2227 14.118C46.2227 14.5495 46.5724 14.8993 47.0039 14.8993Z" fill="white"></path><path d="M47.0039 3.85071C47.4354 3.85071 47.7852 3.50093 47.7852 3.06946C47.7852 2.63799 47.4354 2.28821 47.0039 2.28821C46.5724 2.28821 46.2227 2.63799 46.2227 3.06946C46.2227 3.50093 46.5724 3.85071 47.0039 3.85071Z" fill="white"></path><path d="M35.9551 14.8993C36.3866 14.8993 36.7363 14.5495 36.7363 14.118C36.7363 13.6866 36.3866 13.3368 35.9551 13.3368C35.5236 13.3368 35.1738 13.6866 35.1738 14.118C35.1738 14.5495 35.5236 14.8993 35.9551 14.8993Z" fill="white"></path><path d="M14.917 27.3438C14.7098 27.3438 14.5111 27.4261 14.3646 27.5726C14.2181 27.7191 14.1357 27.9178 14.1357 28.125V33.5937C14.1357 33.8009 14.2181 33.9997 14.3646 34.1462C14.5111 34.2927 14.7098 34.375 14.917 34.375C15.1242 34.375 15.3229 34.2927 15.4694 34.1462C15.6159 33.9997 15.6982 33.8009 15.6982 33.5937V28.125C15.6982 27.9178 15.6159 27.7191 15.4694 27.5726C15.3229 27.4261 15.1242 27.3438 14.917 27.3438Z" fill="white"></path></svg>