<svg xmlns="http://www.w3.org/2000/svg" width="50" height="50" viewBox="0 0 50 50" fill="none"><path d="M19.6496 43.2561C19.7627 43.3081 19.8819 43.3334 20 43.3334C20.2612 43.3334 20.5159 43.2106 20.6767 42.9871L35.6767 22.1538C35.8594 21.8999 35.8846 21.5651 35.7422 21.2867C35.5994 21.0084 35.3133 20.8334 35.0004 20.8334H27.5338L30.8089 7.70188C30.9058 7.31409 30.7137 6.91214 30.3511 6.74407C29.9865 6.5764 29.5568 6.68831 29.324 7.01302L14.324 27.8463C14.1413 28.1002 14.1161 28.4351 14.2585 28.7134C14.4013 28.9917 14.6874 29.1667 15.0003 29.1667H22.4669L19.1917 42.2983C19.095 42.686 19.2871 43.088 19.6496 43.2561ZM24.3425 28.5352C24.4048 28.2862 24.3485 28.0225 24.1907 27.8202C24.0329 27.618 23.7903 27.5 23.534 27.5H16.6273L28.1421 11.5072L25.6583 21.4649C25.596 21.7139 25.6523 21.9776 25.8101 22.1798C25.9679 22.3821 26.2105 22.5 26.4668 22.5H33.3735L21.8587 38.4929L24.3425 28.5352Z" fill="white"></path><path d="M49.167 24.1667C48.7067 24.1667 48.3337 24.5399 48.3337 25C48.3337 37.8663 37.8666 48.3333 25.0004 48.3333C18.111 48.3333 11.5565 45.2433 7.14228 40H11.667C12.1272 40 12.5003 39.6269 12.5003 39.1667C12.5003 38.7065 12.1271 38.3334 11.667 38.3334H5.00029C4.54004 38.3334 4.16699 38.7066 4.16699 39.1667V45.8334C4.16699 46.2937 4.54014 46.6667 5.00029 46.6667C5.46045 46.6667 5.83359 46.2936 5.83359 45.8334V41.034C10.5629 46.6748 17.6014 50 25.0003 50C38.7853 50 50.0003 38.785 50.0003 25C50.0003 24.5398 49.6271 24.1667 49.167 24.1667Z" fill="white"></path><path d="M25 1.6667C31.8894 1.6667 38.4438 4.75674 42.8581 10H38.3334C37.8731 10 37.5001 10.3731 37.5001 10.8333C37.5001 11.2935 37.8732 11.6666 38.3334 11.6666H45C45.4602 11.6666 45.8333 11.2935 45.8333 10.8333V4.1667C45.8333 3.70644 45.4601 3.3334 45 3.3334C44.5397 3.3334 44.1667 3.70654 44.1667 4.1667V8.96611C39.4374 3.3252 32.3989 0 25 0C11.215 0 0 11.215 0 25C0 25.4603 0.373144 25.8333 0.833301 25.8333C1.29346 25.8333 1.6666 25.4602 1.6666 25C1.6667 12.1338 12.1338 1.6667 25 1.6667Z" fill="white"></path></svg>