<svg xmlns="http://www.w3.org/2000/svg" width="61" height="61" viewBox="0 0 61 61" fill="none"><path d="M55.2813 4.33618H47.5992C47.1129 4.33618 46.7188 4.73038 46.7188 5.2166C46.7188 5.70283 47.1129 6.09703 47.5992 6.09703H55.2813C55.7675 6.09703 56.1617 5.70283 56.1617 5.2166C56.1617 4.73038 55.7676 4.33618 55.2813 4.33618Z" fill="#89EA5F"></path><path d="M43.2369 6.09703H44.1733C44.6595 6.09703 45.0537 5.70283 45.0537 5.2166C45.0537 4.73038 44.6595 4.33618 44.1733 4.33618H43.2369C42.7506 4.33618 42.3564 4.73038 42.3564 5.2166C42.3564 5.70283 42.7506 6.09703 43.2369 6.09703Z" fill="#89EA5F"></path><path d="M43.2369 10.233H55.2815C55.7677 10.233 56.1619 9.83882 56.1619 9.35259C56.1619 8.86636 55.7677 8.47217 55.2815 8.47217H43.2369C42.7506 8.47217 42.3564 8.86636 42.3564 9.35259C42.3564 9.83882 42.7506 10.233 43.2369 10.233Z" fill="#89EA5F"></path><path d="M46.4209 52.0961C46.4209 48.5792 45.2468 45.129 43.1082 42.3413L43.2713 39.3356C43.3824 37.2895 41.7587 35.5584 39.6935 35.5584H30.0561C29.6127 35.2451 29.3438 34.7362 29.3438 34.1866V31.7284C30.838 30.762 31.8871 29.66 32.6578 28.3485H34.3616C36.3327 28.3485 37.9362 26.7449 37.9362 24.7739V18.1986C37.9362 17.0896 37.2947 16.1093 36.3353 15.6455V11.0309C36.3353 8.93013 34.6262 7.22094 32.5254 7.22094H32.4267C32.3666 7.22094 32.3177 7.17199 32.3177 7.112C32.3177 5.0112 30.6085 3.302 28.5077 3.302H19.1836C14.5553 3.302 10.7898 7.06751 10.7898 11.6958V15.6454C9.83044 16.1092 9.18879 17.0895 9.18879 18.1985V21.5425C9.18879 23.107 10.4616 24.3799 12.0262 24.3799H13.1628C13.457 26.8681 14.6242 29.1405 16.4524 30.7203C16.8813 31.0911 17.325 31.4222 17.7812 31.718V34.1865C17.7812 34.7345 17.5112 35.2435 17.0659 35.5583H7.43182C5.38267 35.5583 3.74215 37.2734 3.85414 39.3355L4.01731 42.3412C1.87859 45.129 0.704455 48.5792 0.704455 52.0961V55.4122C0.266709 55.9028 0 56.549 0 57.2566C0 58.786 1.24421 60.0301 2.77357 60.0301H44.3518C45.8812 60.0301 47.1254 58.7859 47.1254 57.2566C47.1254 56.549 46.8587 55.9028 46.4209 55.4123V52.0961ZM44.6601 52.0961V54.5006C44.5588 54.4893 44.456 54.4831 44.3518 54.4831H42.4492L42.9461 45.3278C44.0604 47.3975 44.6601 49.7292 44.6601 52.0961ZM36.0851 17.7687C36.143 17.9012 36.1756 18.0465 36.1756 18.1987V21.5427C36.1756 22.1363 35.6927 22.6193 35.099 22.6193H34.052V19.3003L34.5946 19.1113C35.2658 18.8775 35.7937 18.3845 36.0851 17.7687ZM30.2071 27.9697H27.9975C27.6414 27.9697 27.3516 27.68 27.3516 27.3238C27.3516 26.9676 27.6414 26.6779 27.9975 26.6779H30.2071C30.5632 26.6779 30.8529 26.9676 30.8529 27.3238C30.8529 27.68 30.5632 27.9697 30.2071 27.9697ZM34.3618 26.5878H33.4719C33.7198 25.8808 33.891 25.1403 33.9813 24.3801H35.099C35.48 24.3801 35.8434 24.3042 36.1756 24.1674V24.7741C36.1756 25.7741 35.3619 26.5878 34.3618 26.5878ZM12.5508 11.6961C12.5508 8.03867 15.5264 5.06308 19.1838 5.06308H28.508C29.6378 5.06308 30.5571 5.98236 30.5571 7.11223C30.5571 8.14327 31.396 8.98202 32.4269 8.98202H32.5256C33.6555 8.98202 34.5747 9.90129 34.5747 11.0312V16.6615C34.5747 17.0158 34.3499 17.3321 34.0153 17.4486L32.1651 18.093C32.0906 18.1188 32.0137 18.065 32.0137 17.9849L32.0171 14.4862C32.0278 11.9328 29.6369 9.70596 26.2871 10.782C24.6023 11.3234 22.5173 11.3215 20.8382 10.782C17.5231 9.71652 15.0975 11.9038 15.1082 14.4835L15.1123 17.9851C15.1123 18.0659 15.0336 18.119 14.9608 18.093L13.1101 17.4485C12.7755 17.3321 12.5507 17.0157 12.5507 16.6614L12.5508 11.6961ZM10.9499 21.5427V18.1986C10.9499 18.0465 10.9825 17.901 11.0404 17.7686C11.3319 18.3845 11.8598 18.8775 12.5312 19.1113L13.0737 19.3002V22.6192H12.0266C11.4328 22.6193 10.9499 22.1362 10.9499 21.5427ZM14.8506 23.3632C14.8214 22.2057 14.8393 20.9771 14.8344 19.8523C14.8886 19.857 14.943 19.8597 14.9973 19.8597C16.0441 19.8597 16.8749 19.0089 16.8731 17.9825L16.869 14.4787C16.863 13.0491 18.1454 11.7659 20.2995 12.4583C22.3411 13.1142 24.7908 13.1123 26.8258 12.4583C28.8781 11.7989 30.2626 12.9598 30.2562 14.4816L30.2528 17.9827C30.2514 19.074 31.1842 19.9483 32.291 19.8523V23.4344C32.2654 24.1954 32.1401 24.938 31.9276 25.6442C31.4904 25.1962 30.881 24.917 30.2071 24.917H27.9975C26.6705 24.917 25.5907 25.9966 25.5907 27.3237C25.5907 28.6508 26.6705 29.7304 27.9975 29.7304H29.1162C27.49 30.9997 25.6407 31.6616 23.6088 31.6953C19.164 31.6597 14.9777 28.376 14.8506 23.3632ZM19.5424 34.1867V32.6462C20.8151 33.1732 22.1727 33.4463 23.6065 33.4563H23.6127C23.6173 33.4563 23.6218 33.4563 23.6264 33.4562C25.0223 33.4345 26.3439 33.164 27.5833 32.6534V34.1866C27.5833 34.6673 27.6839 35.1327 27.8691 35.5584H19.2555C19.4414 35.1326 19.5424 34.6671 19.5424 34.1867ZM4.17931 45.3278L4.3183 47.8894C4.34471 48.375 4.76062 48.7485 5.24509 48.7209C5.73061 48.6946 6.10285 48.2796 6.07656 47.7941L5.61228 39.2402C5.55582 38.1997 6.38154 37.3194 7.43182 37.3194H39.6937C40.7362 37.3194 41.57 38.1918 41.5132 39.2402L40.6858 54.4832H26.8799C27.0481 53.4775 27.501 52.5316 28.1986 51.7566L28.2239 51.7284C30.8889 48.7469 30.0912 44.0847 26.6465 42.1273C25.7626 41.6251 24.64 42.2514 24.64 43.2925V47.2873C24.64 47.4704 24.491 47.6193 24.3079 47.6193H22.8175C22.6344 47.6193 22.4854 47.4703 22.4854 47.2873V43.2925C22.4854 42.2534 21.3646 41.6241 20.4789 42.1273C17.0243 44.0901 16.2429 48.7541 18.9042 51.7313L18.9267 51.7566C19.6244 52.5315 20.0773 53.4774 20.2455 54.4831H6.43964L6.29842 51.8802C6.27213 51.3947 5.85716 51.0219 5.37163 51.0487C4.88611 51.075 4.51387 51.49 4.54016 51.9755L4.67622 54.4831H2.77357C2.66932 54.4831 2.56661 54.4894 2.4653 54.5006V52.0961C2.4653 49.7294 3.06504 47.3975 4.17931 45.3278ZM22.0245 54.4831C21.8443 53.0405 21.2259 51.6786 20.2356 50.5786L20.2144 50.5547C18.5133 48.6518 18.7411 45.7092 20.7247 44.0863V47.2872C20.7247 48.4412 21.6636 49.38 22.8176 49.38H24.308C25.462 49.38 26.4009 48.4411 26.4009 47.2872V44.0863C28.3713 45.6984 28.6237 48.6389 26.909 50.5572L26.89 50.5784C25.8996 51.6786 25.2812 53.0405 25.101 54.4831H22.0245ZM44.3518 58.2693H2.77357C2.21514 58.2693 1.76084 57.815 1.76084 57.2567C1.76084 56.6984 2.21514 56.244 2.77357 56.244H44.3518C44.9102 56.244 45.3645 56.6983 45.3645 57.2567C45.3645 57.8152 44.9102 58.2693 44.3518 58.2693Z" fill="#89EA5F"></path><path d="M59.2231 6.02526C59.7094 6.02526 60.1036 5.63106 60.1036 5.14484V3.44081C60.1036 1.54356 58.56 0 56.6626 0H41.855C39.9576 0 38.4141 1.54356 38.4141 3.44081V10.8467C38.4141 12.7441 39.9576 14.2876 41.855 14.2876C42.194 14.2876 42.4699 14.5635 42.4699 14.9025V19.4825C42.4699 20.1439 42.8981 20.7069 43.5357 20.8834C44.177 21.0609 44.832 20.7939 45.1702 20.23L48.5545 14.5862C48.665 14.4021 48.8671 14.2876 49.082 14.2876H56.6628C58.5601 14.2876 60.1037 12.7441 60.1037 10.8467V9.26099C60.1037 8.77476 59.7095 8.38056 59.2233 8.38056C58.737 8.38056 58.3428 8.77476 58.3428 9.26099V10.8467C58.3428 11.7731 57.5892 12.5268 56.6628 12.5268H49.0818C48.2519 12.5268 47.4711 12.969 47.0443 13.6807L44.2306 18.3728V14.9025C44.2306 13.5925 43.1648 12.5268 41.8549 12.5268C40.9284 12.5268 40.1748 11.7731 40.1748 10.8467V3.44081C40.1748 2.51449 40.9284 1.76084 41.8549 1.76084H56.6626C57.5891 1.76084 58.3427 2.51449 58.3427 3.44081V5.14484C58.3427 5.63106 58.7369 6.02526 59.2231 6.02526Z" fill="#89EA5F"></path></svg>