<svg xmlns="http://www.w3.org/2000/svg" width="21" height="22" viewBox="0 0 21 22" fill="none"><path d="M5.72258 1.04C5.72258 0.465624 5.25695 0 4.68258 0C4.1082 0 3.64258 0.465624 3.64258 1.04V2.08C3.64258 2.65438 4.1082 3.12 4.68258 3.12C5.25695 3.12 5.72258 2.65438 5.72258 2.08V1.04Z" fill="white"></path><path d="M17.1601 1.04C17.1601 0.465624 16.6945 0 16.1201 0C15.5457 0 15.0801 0.465624 15.0801 1.04V2.08C15.0801 2.65438 15.5457 3.12 16.1201 3.12C16.6945 3.12 17.1601 2.65438 17.1601 2.08V1.04Z" fill="white"></path><path d="M0 7.80005V19.76C0 20.9087 0.93132 21.84 2.08 21.84H18.72C19.8687 21.84 20.8 20.9087 20.8 19.76V7.80005H0ZM6.24 18.2C6.24 18.7746 5.7746 19.24 5.2 19.24H4.16C3.5854 19.24 3.12 18.7746 3.12 18.2V17.16C3.12 16.5854 3.5854 16.12 4.16 16.12H5.2C5.7746 16.12 6.24 16.5854 6.24 17.16V18.2ZM6.24 12.48C6.24 13.0546 5.7746 13.52 5.2 13.52H4.16C3.5854 13.52 3.12 13.0546 3.12 12.48V11.44C3.12 10.8654 3.5854 10.4 4.16 10.4H5.2C5.7746 10.4 6.24 10.8654 6.24 11.44V12.48ZM11.96 18.2C11.96 18.7746 11.4946 19.24 10.92 19.24H9.88C9.3054 19.24 8.84 18.7746 8.84 18.2V17.16C8.84 16.5854 9.3054 16.12 9.88 16.12H10.92C11.4946 16.12 11.96 16.5854 11.96 17.16V18.2ZM11.96 12.48C11.96 13.0546 11.4946 13.52 10.92 13.52H9.88C9.3054 13.52 8.84 13.0546 8.84 12.48V11.44C8.84 10.8654 9.3054 10.4 9.88 10.4H10.92C11.4946 10.4 11.96 10.8654 11.96 11.44V12.48ZM17.68 18.2C17.68 18.7746 17.2146 19.24 16.64 19.24H15.6C15.0254 19.24 14.56 18.7746 14.56 18.2V17.16C14.56 16.5854 15.0254 16.12 15.6 16.12H16.64C17.2146 16.12 17.68 16.5854 17.68 17.16V18.2ZM17.68 12.48C17.68 13.0546 17.2146 13.52 16.64 13.52H15.6C15.0254 13.52 14.56 13.0546 14.56 12.48V11.44C14.56 10.8654 15.0254 10.4 15.6 10.4H16.64C17.2146 10.4 17.68 10.8654 17.68 11.44V12.48Z" fill="white"></path><path d="M20.8 6.76006V3.64006C20.8 2.49138 19.8687 1.56006 18.72 1.56006H18.2V2.08006C18.2 3.22718 17.2671 4.16006 16.12 4.16006C14.9729 4.16006 14.04 3.22718 14.04 2.08006V1.56006H6.76V2.08006C6.76 3.22718 5.82712 4.16006 4.68 4.16006C3.53288 4.16006 2.6 3.22718 2.6 2.08006V1.56006H2.08C0.93132 1.56006 0 2.49138 0 3.64006V6.76006H20.8Z" fill="white"></path></svg>