<svg xmlns="http://www.w3.org/2000/svg" width="40" height="40" viewBox="0 0 40 40" fill="none"><path d="M33.1207 25.3671C33.261 25.3473 33.3894 25.2775 33.4824 25.1706C33.5754 25.0637 33.6268 24.9268 33.627 24.7851V17.3711L39.9156 6.86616C39.9693 6.77655 39.9982 6.67431 39.9995 6.56987C40.0007 6.46543 39.9743 6.36252 39.9228 6.27163C39.8714 6.18074 39.7967 6.10512 39.7065 6.05249C39.6163 5.99985 39.5137 5.97207 39.4093 5.97198H23.5443C23.3876 5.97198 23.2374 6.03422 23.1266 6.145C23.0158 6.25578 22.9536 6.40603 22.9536 6.5627C22.9536 6.71937 23.0158 6.86962 23.1266 6.9804C23.2374 7.09118 23.3876 7.15342 23.5443 7.15342H24.7679L23.1514 9.85384H17.8093L19.4262 7.15342H20.7875C20.9442 7.15342 21.0944 7.09118 21.2052 6.9804C21.316 6.86962 21.3782 6.71937 21.3782 6.5627C21.3782 6.40603 21.316 6.25578 21.2052 6.145C21.0944 6.03422 20.9442 5.97198 20.7875 5.97198H19.0913C18.9893 5.97213 18.889 5.9987 18.8003 6.0491C18.7115 6.0995 18.6374 6.17201 18.585 6.25958L6.9654 25.6689C6.91172 25.7584 6.88276 25.8607 6.88148 25.9651C6.88021 26.0695 6.90666 26.1724 6.95813 26.2633C7.00961 26.3542 7.08427 26.4298 7.1745 26.4824C7.26472 26.535 7.36729 26.5627 7.47173 26.5627H27.7897C27.8917 26.5627 27.992 26.5362 28.0807 26.4858C28.1695 26.4355 28.2437 26.363 28.296 26.2754L28.8439 25.3587C28.8624 25.363 28.881 25.3657 28.8999 25.3684V32.6987H20C19.8433 32.6987 19.6931 32.761 19.5823 32.8717C19.4715 32.9825 19.4093 33.1328 19.4093 33.2895V36.8338H16.8068V36.3713C16.8068 36.2146 16.7445 36.0644 16.6337 35.9536C16.523 35.8428 16.3727 35.7806 16.216 35.7806H14.7808V31.308C14.7808 31.1514 14.7185 31.0011 14.6077 30.8903C14.497 30.7795 14.3467 30.7173 14.19 30.7173H12.7662V29.2827C12.7662 29.126 12.704 28.9758 12.5932 28.865C12.4824 28.7542 12.3322 28.692 12.1755 28.692H10.1502C9.99354 28.692 9.84329 28.7542 9.73251 28.865C9.62173 28.9758 9.55949 29.126 9.55949 29.2827V30.7173H5.38397V29.2827C5.38401 29.2051 5.36876 29.1283 5.33909 29.0566C5.30942 28.9849 5.26591 28.9198 5.21105 28.8649C5.15619 28.81 5.09105 28.7665 5.01936 28.7369C4.94767 28.7072 4.87084 28.6919 4.79325 28.692H2.76793C2.61126 28.692 2.46101 28.7542 2.35023 28.865C2.23945 28.9758 2.17722 29.126 2.17722 29.2827V30.7173H0.752743C0.596075 30.7173 0.445823 30.7795 0.335042 30.8903C0.224261 31.0011 0.162025 31.1514 0.162025 31.308V39.4093C0.162025 39.566 0.224261 39.7162 0.335042 39.827C0.445823 39.9378 0.596075 40 0.752743 40H14.19C14.3467 40 14.497 39.9378 14.6077 39.827C14.7185 39.7162 14.7808 39.566 14.7808 39.4093V38.9873H16.216C16.3727 38.9873 16.523 38.9251 16.6337 38.8143C16.7445 38.7035 16.8068 38.5533 16.8068 38.3966V38.0152H20C20.1567 38.0152 20.3069 37.953 20.4177 37.8422C20.5285 37.7314 20.5907 37.5811 20.5907 37.4245V33.8802H28.9013V34.7679H26.8003C26.7228 34.7679 26.6459 34.7831 26.5742 34.8128C26.5025 34.8425 26.4374 34.886 26.3825 34.9409C26.3277 34.9957 26.2842 35.0609 26.2545 35.1325C26.2248 35.2042 26.2096 35.2811 26.2096 35.3587V36.7933H24.291C24.1343 36.7933 23.9841 36.8555 23.8733 36.9663C23.7625 37.077 23.7003 37.2273 23.7003 37.384V39.4093C23.7003 39.566 23.7625 39.7162 23.8733 39.827C23.9841 39.9378 24.1343 40 24.291 40H26.8003C26.957 40 27.1073 39.9378 27.218 39.827C27.3288 39.7162 27.3911 39.566 27.3911 39.4093C27.3911 39.2526 27.3288 39.1024 27.218 38.9916C27.1073 38.8808 26.957 38.8186 26.8003 38.8186H24.8817V37.9747H37.1376V38.8186H29.789C29.6324 38.8186 29.4821 38.8808 29.3713 38.9916C29.2605 39.1024 29.1983 39.2526 29.1983 39.4093C29.1983 39.566 29.2605 39.7162 29.3713 39.827C29.4821 39.9378 29.6324 40 29.789 40H37.7283C37.8849 40 38.0352 39.9378 38.146 39.827C38.2567 39.7162 38.319 39.566 38.319 39.4093V37.384C38.319 37.2273 38.2567 37.077 38.146 36.9663C38.0352 36.8555 37.8849 36.7933 37.7283 36.7933H35.8093V35.3587C35.8093 35.2811 35.7941 35.2042 35.7644 35.1325C35.7347 35.0609 35.6912 34.9957 35.6364 34.9409C35.5815 34.886 35.5164 34.8425 35.4447 34.8128C35.373 34.7831 35.2962 34.7679 35.2186 34.7679H33.1207V32.616C33.1207 32.4594 33.0584 32.3091 32.9477 32.1983C32.8369 32.0876 32.6866 32.0253 32.53 32.0253C32.3733 32.0253 32.223 32.0876 32.1123 32.1983C32.0015 32.3091 31.9392 32.4594 31.9392 32.616V34.7679H30.0827V25.3772H31.9392V26.7173C31.9392 26.874 32.0015 27.0242 32.1123 27.135C32.223 27.2458 32.3733 27.308 32.53 27.308C32.6866 27.308 32.8369 27.2458 32.9477 27.135C33.0584 27.0242 33.1207 26.874 33.1207 26.7173V25.3671ZM10.7409 29.8734H11.5848V30.7173H10.7409V29.8734ZM3.35865 29.8734H4.20253V30.7173H3.35865V29.8734ZM13.5993 38.8186H1.34346V31.8987H13.5993V38.8186ZM15.6246 37.8059H14.7808V36.962H15.6246V37.8059ZM34.6272 36.7933H27.3924V35.9494H34.6292L34.6272 36.7933ZM32.4456 24.1958H29.5764V24.1374L32.4456 19.3441V24.1958ZM15.2324 25.3813L16.8489 22.6808H22.1907L20.5742 25.3813H15.2324ZM12.4543 18.799H17.7961L16.1796 21.4994H10.8375L12.4543 18.799ZM14.7781 14.9171H20.1202L18.5033 17.6176H13.1615L14.7781 14.9171ZM34.4267 13.7357H28.9225L30.5394 11.0353H36.0432L34.4267 13.7357ZM33.7178 14.9171L32.1013 17.6176H26.5992L28.2157 14.9171H33.7178ZM25.2206 17.6176H19.8802L21.4967 14.9171H26.8385L25.2206 17.6176ZM17.5548 21.4994L19.1716 18.799H24.5148L22.8979 21.4994H17.5548ZM25.89 18.799H31.3954L29.7786 21.4994H24.2765L25.89 18.799ZM36.749 9.85384H31.2466L32.8631 7.15342H38.3673L36.749 9.85384ZM26.1435 7.15342H31.4866L29.8697 9.85384H24.5279L26.1435 7.15342ZM23.8194 11.0353H29.1625L27.546 13.7357H22.2042L23.8194 11.0353ZM22.4425 11.0353L20.826 13.7357H15.4856L17.1021 11.0353H22.4425ZM10.1289 22.6808H15.4721L13.8555 25.3813H8.51375L10.1289 22.6808ZM27.4532 25.3813H21.9507L23.5676 22.6808H29.0697L27.4532 25.3813ZM33.1193 28.7342V30.211C33.1193 30.3676 33.0571 30.5179 32.9463 30.6287C32.8355 30.7395 32.6853 30.8017 32.5286 30.8017C32.3719 30.8017 32.2217 30.7395 32.1109 30.6287C32.0001 30.5179 31.9379 30.3676 31.9379 30.211V28.7342C31.9379 28.5775 32.0001 28.4273 32.1109 28.3165C32.2217 28.2057 32.3719 28.1435 32.5286 28.1435C32.6853 28.1435 32.8355 28.2057 32.9463 28.3165C33.0571 28.4273 33.1193 28.5775 33.1193 28.7342ZM0.590717 6.75106H1.56084C1.66526 7.56779 1.98662 8.34163 2.49148 8.99207L1.80253 9.68101C1.69529 9.79279 1.63612 9.94215 1.63772 10.097C1.63932 10.2519 1.70157 10.4 1.8111 10.5096C1.92064 10.6191 2.06874 10.6814 2.22363 10.683C2.37853 10.6846 2.52789 10.6254 2.63966 10.5181L3.32861 9.8292C3.97905 10.3341 4.75289 10.6554 5.56962 10.7598V11.73C5.56962 11.8866 5.63186 12.0369 5.74264 12.1477C5.85342 12.2584 6.00367 12.3207 6.16034 12.3207C6.31701 12.3207 6.46726 12.2584 6.57804 12.1477C6.68882 12.0369 6.75105 11.8866 6.75105 11.73V10.7598C7.56779 10.6554 8.34163 10.3341 8.99207 9.8292L9.68101 10.5181C9.73556 10.575 9.80089 10.6204 9.8732 10.6517C9.94551 10.6829 10.0233 10.6995 10.1021 10.7003C10.1809 10.7011 10.259 10.6862 10.332 10.6564C10.4049 10.6266 10.4712 10.5826 10.5269 10.5269C10.5826 10.4712 10.6266 10.4049 10.6564 10.332C10.6862 10.259 10.7011 10.1809 10.7003 10.1021C10.6995 10.0233 10.6829 9.94551 10.6517 9.8732C10.6204 9.8009 10.575 9.73556 10.5181 9.68101L9.8292 8.99207C10.3341 8.34163 10.6554 7.56779 10.7598 6.75106H11.73C11.8866 6.75106 12.0369 6.68882 12.1477 6.57804C12.2584 6.46726 12.3207 6.31701 12.3207 6.16034C12.3207 6.00367 12.2584 5.85342 12.1477 5.74264C12.0369 5.63186 11.8866 5.56962 11.73 5.56962H10.7598C10.6554 4.75289 10.3341 3.97905 9.8292 3.32861L10.5181 2.63966C10.575 2.58512 10.6204 2.51978 10.6517 2.44747C10.6829 2.37516 10.6995 2.29734 10.7003 2.21856C10.7011 2.13978 10.6862 2.06164 10.6564 1.9887C10.6266 1.91576 10.5826 1.84949 10.5269 1.79378C10.4712 1.73808 10.4049 1.69405 10.332 1.66427C10.259 1.6345 10.1809 1.61959 10.1021 1.6204C10.0233 1.62122 9.94551 1.63775 9.8732 1.66902C9.80089 1.70029 9.73556 1.74568 9.68101 1.80253L8.99207 2.49114C8.34151 1.98653 7.56772 1.66531 6.75105 1.56084V0.590717C6.75105 0.434049 6.68882 0.283798 6.57804 0.173017C6.46726 0.0622361 6.31701 0 6.16034 0C6.00367 0 5.85342 0.0622361 5.74264 0.173017C5.63186 0.283798 5.56962 0.434049 5.56962 0.590717V1.56084C4.75296 1.66531 3.97916 1.98653 3.32861 2.49114L2.63966 1.80253C2.52789 1.69529 2.37853 1.63612 2.22363 1.63772C2.06874 1.63932 1.92064 1.70157 1.8111 1.8111C1.70157 1.92064 1.63932 2.06874 1.63772 2.22363C1.63612 2.37853 1.69529 2.52789 1.80253 2.63966L2.49148 3.32861C1.98662 3.97905 1.66526 4.75289 1.56084 5.56962H0.590717C0.434049 5.56962 0.283798 5.63186 0.173017 5.74264C0.0622361 5.85342 0 6.00367 0 6.16034C0 6.31701 0.0622361 6.46726 0.173017 6.57804C0.283798 6.68882 0.434049 6.75106 0.590717 6.75106ZM6.16034 2.70042C6.84464 2.70042 7.51358 2.90334 8.08256 3.28352C8.65154 3.6637 9.09501 4.20407 9.35688 4.83629C9.61876 5.4685 9.68727 6.16418 9.55377 6.83533C9.42027 7.50649 9.09074 8.12299 8.60687 8.60687C8.12299 9.09075 7.50649 9.42027 6.83533 9.55377C6.16418 9.68727 5.4685 9.61876 4.83629 9.35688C4.20407 9.09501 3.6637 8.65154 3.28352 8.08256C2.90334 7.51358 2.70042 6.84464 2.70042 6.16034C2.7014 5.24301 3.06625 4.36354 3.71489 3.71489C4.36354 3.06625 5.24301 2.7014 6.16034 2.70042ZM3.36878 34.7679V36.8776C3.36878 37.0343 3.30654 37.1846 3.19576 37.2953C3.08498 37.4061 2.93473 37.4684 2.77806 37.4684C2.62139 37.4684 2.47114 37.4061 2.36036 37.2953C2.24958 37.1846 2.18734 37.0343 2.18734 36.8776V34.7679C2.18734 34.6113 2.24958 34.461 2.36036 34.3502C2.47114 34.2395 2.62139 34.1772 2.77806 34.1772C2.93473 34.1772 3.08498 34.2395 3.19576 34.3502C3.30654 34.461 3.36878 34.6113 3.36878 34.7679ZM8.66835 35.016C8.72296 35.0928 8.75841 35.1815 8.77174 35.2747C8.78507 35.368 8.7759 35.4631 8.74498 35.5521L8.0297 37.6203C7.98945 37.7363 7.91405 37.8369 7.814 37.9081C7.71394 37.9793 7.5942 38.0175 7.47139 38.0176C7.40547 38.0174 7.34006 38.006 7.27797 37.9838C7.20469 37.9584 7.13712 37.9188 7.07913 37.8673C7.02114 37.8158 6.97387 37.7534 6.94001 37.6836C6.90616 37.6139 6.88639 37.5381 6.88182 37.4607C6.87726 37.3832 6.88799 37.3057 6.91342 37.2324L7.35831 35.9497H6.75477C6.66057 35.9498 6.56772 35.9273 6.48399 35.8841C6.40025 35.8409 6.32806 35.7784 6.27345 35.7016C6.21883 35.6249 6.18337 35.5362 6.17004 35.4429C6.1567 35.3496 6.16588 35.2546 6.19679 35.1656L6.91342 33.0981C6.96539 32.9509 7.07349 32.8303 7.21409 32.7626C7.35469 32.6949 7.51637 32.6856 7.66383 32.7366C7.81128 32.7878 7.93253 32.8951 8.00108 33.0353C8.06963 33.1755 8.07992 33.3371 8.0297 33.4849L7.58481 34.7676H8.18835C8.28258 34.7677 8.37542 34.7903 8.45915 34.8335C8.54287 34.8767 8.61506 34.9393 8.6697 35.016H8.66835Z" fill="white"></path></svg>