<svg xmlns="http://www.w3.org/2000/svg" width="41" height="40" viewBox="0 0 41 40" fill="none"><path d="M9.36468 0.889054C9.36468 0.889054 9.77674 2.02156 11.0182 2.68495C11.7596 3.08112 12.5502 2.99852 13.1427 2.87086C13.1326 3.41668 13.189 4.09326 13.6124 4.69647C14.0155 5.27072 14.5958 5.51928 15.1032 5.67118C14.8059 6.09245 14.5035 6.6152 14.5087 7.27988C14.5034 7.94478 14.8071 8.4671 15.1045 8.88859C14.5968 9.04049 14.0158 9.28862 13.6124 9.8634C13.189 10.4666 13.1336 11.1431 13.1427 11.689C12.5502 11.5614 11.7597 11.4789 11.0182 11.8749C10.5255 12.1381 10.2507 12.4742 9.99303 12.7852C9.73544 12.4743 9.46056 12.1382 8.96786 11.8749C8.22688 11.479 7.43703 11.5616 6.84467 11.689C6.85472 11.1432 6.79862 10.4666 6.375 9.8634C5.97191 9.28916 5.39026 9.04049 4.88286 8.88859C5.18023 8.46721 5.48257 7.94478 5.47738 7.27988C5.48268 6.6152 5.18012 6.09256 4.88286 5.67118C5.39026 5.51928 5.97191 5.27072 6.375 4.69647C6.80835 4.0791 6.8598 3.38149 6.84726 2.82956C7.24873 2.91774 7.68597 3.01289 8.1885 2.93673C9.09661 2.82677 8.88809 1.46705 7.9882 1.63011C7.33758 1.72859 6.36073 1.33317 6.36073 1.33317C5.85409 1.09706 5.29784 1.5488 5.43058 2.0885C5.43058 2.0885 5.50646 2.40132 5.519 2.8154C5.53154 3.22948 5.45284 3.69624 5.28097 3.94126C5.11861 4.17254 4.73066 4.36864 4.34433 4.46798C3.958 4.56742 3.64183 4.57643 3.64183 4.57643C3.04168 4.59145 2.76529 5.32372 3.20858 5.72557C3.20858 5.72557 3.45536 5.95042 3.7042 6.2833C3.95314 6.61607 4.1489 7.0412 4.14652 7.27356V7.28858C4.14922 7.52018 3.95444 7.94478 3.70549 8.27755C3.45655 8.61032 3.20847 8.83527 3.20847 8.83527C2.76518 9.23702 3.04158 9.97004 3.64172 9.98441C3.64172 9.98441 3.95789 9.99439 4.34422 10.0929C4.73056 10.1923 5.11851 10.3883 5.28086 10.6197C5.45284 10.8648 5.53154 11.3315 5.51889 11.7456C5.50635 12.1596 5.43047 12.4725 5.43047 12.4725C5.29773 13.012 5.85398 13.4637 6.36062 13.2278C6.36062 13.2278 6.68383 13.0781 7.12042 12.9837C7.55701 12.8892 8.05057 12.8882 8.33551 13.0405C9.15163 13.4765 9.36457 14.1108 9.36457 14.1108C9.57341 14.6995 10.4124 14.6995 10.6213 14.1108C10.6213 14.1108 10.8342 13.4765 11.6503 13.0405C11.9353 12.8882 12.4288 12.8893 12.8654 12.9837C13.302 13.0782 13.6252 13.2278 13.6252 13.2278C14.1319 13.4639 14.6881 13.0122 14.5554 12.4725C14.5554 12.4725 14.4795 12.1597 14.467 11.7456C14.4544 11.3315 14.5331 10.8647 14.705 10.6197C14.8673 10.3884 15.2553 10.1923 15.6416 10.0929C16.028 9.99342 16.3441 9.98441 16.3441 9.98441C16.9443 9.96939 17.2207 9.23713 16.7774 8.83527C16.7774 8.83527 16.5307 8.61042 16.2818 8.27755C16.0328 7.94467 15.8371 7.51964 15.8394 7.28729C15.8394 7.28224 15.8394 7.27731 15.8394 7.27227C15.8367 7.04045 16.0328 6.61607 16.2818 6.2833C16.5307 5.95053 16.7774 5.72557 16.7774 5.72557C17.2207 5.32382 16.9443 4.59081 16.3441 4.57643C16.3441 4.57643 16.028 4.56646 15.6416 4.46798C15.2553 4.36854 14.8673 4.17265 14.705 3.94126C14.533 3.69613 14.4543 3.22948 14.467 2.8154C14.4795 2.40132 14.5554 2.0885 14.5554 2.0885C14.6881 1.54891 14.1319 1.09727 13.6252 1.33317C13.6252 1.33317 13.302 1.48282 12.8654 1.57722C12.4288 1.67173 11.9353 1.6727 11.6503 1.52048C10.8342 1.0844 10.6213 0.450189 10.6213 0.450189C10.5259 0.16902 10.2537 -0.0146379 9.9552 0.000917067C9.50726 0.0233377 9.20989 0.471215 9.36468 0.889054ZM9.99433 3.97344C8.16288 3.97344 6.66004 5.4636 6.66004 7.28117C6.66004 9.09874 8.16288 10.585 9.99433 10.585C11.8258 10.585 13.3234 9.09874 13.3234 7.28117C13.3234 5.4636 11.8259 3.97344 9.99433 3.97344ZM9.99433 5.2955C11.1059 5.2955 11.99 6.17817 11.99 7.28117C11.99 8.38418 11.1059 9.26298 9.99433 9.26298C8.88279 9.26298 7.9922 8.38429 7.9922 7.28117C7.9922 6.17817 8.88279 5.2955 9.99433 5.2955ZM30.6066 11.9071C30.4505 11.9146 30.3022 11.9774 30.1877 12.0828L20.8651 20.6762C20.2128 21.2753 21.1184 22.2462 21.7705 21.6472L30.6403 13.4695L37.3024 19.6086V30.4163C32.8502 30.4063 28.4332 30.4163 23.9833 30.4163V22.4814C23.9833 21.5991 22.6498 21.5991 22.6498 22.4814V31.0748C22.6485 31.4404 22.9462 31.7376 23.3146 31.7384H29.9767V36.6961C29.9767 37.8062 29.093 38.6779 27.9746 38.6779H12.6586C11.5401 38.6779 10.6578 37.8062 10.6578 36.6961V33.7202C10.6774 32.8196 9.30609 32.8196 9.32566 33.7202V36.6961C9.32566 38.5158 10.8251 40 12.6586 40H27.9747C29.8082 40 31.309 38.5157 31.309 36.6961V31.7384H37.9659C38.3358 31.7397 38.636 31.4419 38.6345 31.0748V20.8352L39.5153 21.6473C40.1686 22.2805 41.107 21.2729 40.4195 20.6763L38.6347 19.0315V12.5684C38.6347 12.2033 38.3364 11.9074 37.9686 11.9073H34.6382C34.2703 11.9074 33.9721 12.2033 33.9721 12.5684V13.2294C33.9592 14.1233 35.317 14.1233 35.3043 13.2294H37.3025V17.8037L31.0931 12.0829C30.9613 11.9616 30.7859 11.8981 30.6066 11.9071ZM7.32872 31.7383H12.6586C13.5666 31.7582 13.5666 30.3963 12.6586 30.4162H10.6578V27.7708H18.643C19.551 27.7908 19.551 26.4288 18.643 26.4487H15.2749L15.0381 23.1462H17.3981L17.6011 24.5612C17.6983 25.4716 19.0843 25.2765 18.9228 24.3753L17.9692 17.7636C17.922 17.4387 17.6417 17.1973 17.3109 17.1968L2.66616 17.1955C1.74152 17.1954 1.76822 18.5201 2.65838 18.5201H5.28097L5.04295 21.8227H2.75588L2.93283 20.5935C2.99877 20.1748 2.65633 19.8036 2.23033 19.8318C1.91296 19.8543 1.65526 20.0945 1.61494 20.4076L0.666521 27.0193C0.611392 27.4159 0.921408 27.7697 1.32482 27.7707H9.32566V30.4161H7.32872C6.42429 30.4161 6.45877 31.7382 7.32872 31.7383ZM31.3428 18.2166C31.1235 18.2241 30.9216 18.3368 30.8029 18.52L28.0396 22.6335C27.7493 23.0726 28.0659 23.6562 28.5951 23.6573H31.4963L29.4213 26.7469C28.9461 27.4785 30.0372 28.1974 30.5323 27.4789L33.2903 23.3654C33.5876 22.9272 33.2725 22.337 32.74 22.3351H29.839L31.9088 19.2508C32.2153 18.806 31.8857 18.2036 31.3429 18.2165L31.3428 18.2166ZM6.61583 18.52H9.32566V21.8226H6.379L6.61583 18.52ZM10.6578 18.52H13.3676L13.607 21.8226H10.6578V18.52ZM14.7064 18.52H16.7346L17.2081 21.8226H14.9432L14.7064 18.52ZM2.56596 23.146H4.94674L4.70872 26.4486H2.0924L2.56596 23.146ZM6.28409 23.146H9.32566V26.4486H6.04726L6.28409 23.146ZM10.6578 23.146H13.702L13.9413 26.4486H10.6578V23.146Z" fill="#89EA5F"></path></svg>