<svg xmlns="http://www.w3.org/2000/svg" width="21" height="21" viewBox="0 0 21 21" fill="none"><path d="M19.4201 9.00512C20.5631 10.1481 20.5631 11.9997 19.4201 13.1427L13.3165 19.2463C12.1736 20.3893 10.3219 20.3893 9.17893 19.2463L1.1323 11.1997C0.583664 10.651 0.277344 9.90579 0.277344 9.12856V2.2935C0.277344 1.08193 1.26031 0.0989596 2.47188 0.103532H9.30237C10.0796 0.103532 10.8248 0.409852 11.3735 0.958486L19.4201 9.00512ZM6.86095 5.21954C6.86095 4.41031 6.20716 3.75652 5.39793 3.75652C4.58869 3.75652 3.9349 4.41031 3.9349 5.21954C3.9349 6.02878 4.58869 6.68257 5.39793 6.68257C6.20716 6.68257 6.86095 6.02878 6.86095 5.21954Z" fill="#89EA5F"></path></svg>