<svg xmlns="http://www.w3.org/2000/svg" width="83" height="40" viewBox="0 0 83 40" fill="none"><path d="M80.3038 21.9391H22.5237C21.2941 21.9391 20.2881 20.933 20.2881 19.7034C20.2881 18.4738 21.2941 17.4678 22.5237 17.4678H80.3038C81.5334 17.4678 82.5395 18.4738 82.5395 19.7034C82.5395 20.933 81.5334 21.9391 80.3038 21.9391Z" fill="#89EA5F"></path><path fill-rule="evenodd" clip-rule="evenodd" d="M2.23564 17.4678C3.46524 17.4678 4.47128 18.4738 4.47128 19.7034C4.47128 20.933 3.46524 21.9391 2.23564 21.9391C1.00604 21.9391 0 20.933 0 19.7034C0 18.4738 0.994861 17.4678 2.23564 17.4678Z" fill="#89EA5F"></path><path d="M12.3743 21.9391C13.609 21.9391 14.61 20.9381 14.61 19.7034C14.61 18.4687 13.609 17.4678 12.3743 17.4678C11.1396 17.4678 10.1387 18.4687 10.1387 19.7034C10.1387 20.9381 11.1396 21.9391 12.3743 21.9391Z" fill="#89EA5F"></path><path d="M65.448 39.3997C64.9338 39.3997 64.4196 39.2209 64.006 38.8632C63.0671 38.0583 62.9553 36.6499 63.7489 35.7109L77.364 19.7037L63.7489 3.68537C62.9441 2.7464 63.0671 1.33795 64.006 0.533121C64.945 -0.271709 66.3535 -0.148745 67.1583 0.790224L82.0029 18.2506C82.7072 19.0889 82.7072 20.3074 82.0029 21.1457L67.1583 38.6172C66.7112 39.1426 66.0852 39.3997 65.448 39.3997Z" fill="#89EA5F"></path></svg>