<svg xmlns="http://www.w3.org/2000/svg" width="139" height="52" viewBox="0 0 139 52" fill="none"><path d="M32.5881 1.2293C28.6882 -1.25516 25.5515 0.118329 24.0496 4.51764L20.9352 14.5756C20.6338 15.5359 21.0805 16.3145 21.9333 16.3145H30.5256C33.2081 16.3145 35.265 19.5607 33.1298 22.198L18.8711 39.2291C18.2122 40.0432 17.2124 39.721 17.5051 38.7888L20.7925 25.873C21.0943 24.9125 20.6472 24.134 19.7946 24.134H13.8277C10.4423 24.134 9.56749 21.6599 10.2704 19.097L14.199 4.36036C14.8778 1.81454 12.3579 -0.578213 10.1014 0.79084C4.04497 4.46514 0 11.1095 0 18.6963C0 34.6044 13.082 37.5798 10.5574 52C21.8035 47.4224 42 35.0622 42 18.6963C41.9995 11.4019 38.3226 4.8826 32.5881 1.2293Z" fill="#89EA5F"></path><path d="M53.96 32.44V31.64C53.96 31.08 54.24 30.8 54.8 30.8H58.2C58.76 30.8 59.04 31.08 59.04 31.64V31.96C59.04 32.9733 59.24 33.6667 59.64 34.04C60.04 34.4133 60.7733 34.6 61.84 34.6H63.72C64.76 34.6 65.48 34.4 65.88 34C66.3067 33.6 66.52 32.8533 66.52 31.76V31.28C66.52 30.5067 66.2 29.92 65.56 29.52C64.9467 29.0933 64.1733 28.84 63.24 28.76C62.3067 28.68 61.2933 28.5333 60.2 28.32C59.1333 28.08 58.1333 27.7867 57.2 27.44C56.2667 27.0667 55.48 26.36 54.84 25.32C54.2267 24.2533 53.92 22.8933 53.92 21.24V19.84C53.92 17.76 54.5067 16.1467 55.68 15C56.8533 13.8533 58.48 13.28 60.56 13.28H64.56C66.6667 13.28 68.3067 13.8533 69.48 15C70.6533 16.1467 71.24 17.76 71.24 19.84V20.6C71.24 21.16 70.96 21.44 70.4 21.44H67C66.44 21.44 66.16 21.16 66.16 20.6V20.36C66.16 19.32 65.96 18.6133 65.56 18.24C65.16 17.8667 64.4267 17.68 63.36 17.68H61.8C60.7067 17.68 59.96 17.8933 59.56 18.32C59.1867 18.72 59 19.52 59 20.72V21.48C59 22.7333 60.0933 23.4533 62.28 23.64C64.5467 23.8267 66.56 24.28 68.32 25C69.2533 25.4 70.0267 26.12 70.64 27.16C71.28 28.1733 71.6 29.48 71.6 31.08V32.44C71.6 34.52 71.0133 36.1333 69.84 37.28C68.6667 38.4267 67.04 39 64.96 39H60.6C58.52 39 56.8933 38.4267 55.72 37.28C54.5467 36.1333 53.96 34.52 53.96 32.44ZM85.5225 39H81.9625C79.8558 39 78.2292 38.44 77.0825 37.32C75.9358 36.2 75.3625 34.5867 75.3625 32.48V25.12C75.3625 23.0133 75.9358 21.4 77.0825 20.28C78.2292 19.16 79.8558 18.6 81.9625 18.6H85.5225C87.6025 18.6 89.2158 19.1733 90.3625 20.32C91.5358 21.44 92.1225 23.04 92.1225 25.12V32.48C92.1225 34.56 91.5358 36.1733 90.3625 37.32C89.2158 38.44 87.6025 39 85.5225 39ZM82.7225 34.64H84.7625C85.6158 34.64 86.2158 34.4667 86.5625 34.12C86.9358 33.7733 87.1225 33.1733 87.1225 32.32V25.28C87.1225 24.4267 86.9358 23.8267 86.5625 23.48C86.2158 23.1333 85.6158 22.96 84.7625 22.96H82.7225C81.8692 22.96 81.2692 23.1333 80.9225 23.48C80.5758 23.8267 80.4025 24.4267 80.4025 25.28V32.32C80.4025 33.1733 80.5758 33.7733 80.9225 34.12C81.2692 34.4667 81.8692 34.64 82.7225 34.64ZM100.554 39H97.1541C96.5941 39 96.3141 38.72 96.3141 38.16V11.72C96.3141 11.16 96.5941 10.88 97.1541 10.88H100.554C101.114 10.88 101.394 11.16 101.394 11.72V38.16C101.394 38.72 101.114 39 100.554 39ZM115.757 39H112.197C110.09 39 108.464 38.44 107.317 37.32C106.17 36.2 105.597 34.5867 105.597 32.48V25.12C105.597 23.0133 106.17 21.4 107.317 20.28C108.464 19.16 110.09 18.6 112.197 18.6H115.757C117.837 18.6 119.45 19.1733 120.597 20.32C121.77 21.44 122.357 23.04 122.357 25.12V32.48C122.357 34.56 121.77 36.1733 120.597 37.32C119.45 38.44 117.837 39 115.757 39ZM112.957 34.64H114.997C115.85 34.64 116.45 34.4667 116.797 34.12C117.17 33.7733 117.357 33.1733 117.357 32.32V25.28C117.357 24.4267 117.17 23.8267 116.797 23.48C116.45 23.1333 115.85 22.96 114.997 22.96H112.957C112.104 22.96 111.504 23.1333 111.157 23.48C110.81 23.8267 110.637 24.4267 110.637 25.28V32.32C110.637 33.1733 110.81 33.7733 111.157 34.12C111.504 34.4667 112.104 34.64 112.957 34.64ZM130.588 39H127.188C126.628 39 126.348 38.72 126.348 38.16V19.44C126.348 18.88 126.628 18.6 127.188 18.6H130.588C131.148 18.6 131.428 18.88 131.428 19.44V20.8H131.588C131.882 20.08 132.402 19.5333 133.148 19.16C133.895 18.7867 134.682 18.6 135.508 18.6H136.948C137.482 18.6 137.748 18.88 137.748 19.44V22.2C137.748 22.52 137.682 22.7467 137.548 22.88C137.442 22.9867 137.242 23.0267 136.948 23H134.188C132.348 23 131.428 24.04 131.428 26.12V38.16C131.428 38.72 131.148 39 130.588 39Z" fill="#163300"></path></svg>