<svg xmlns="http://www.w3.org/2000/svg" xmlns:xlink="http://www.w3.org/1999/xlink" width="512" height="512" x="0" y="0" viewBox="0 0 512 512" style="enable-background:new 0 0 512 512" xml:space="preserve" class=""><g><path d="M437.02 74.981C388.667 26.629 324.38 0 256 0S123.333 26.629 74.98 74.981C26.629 123.333 0 187.62 0 256s26.629 132.667 74.98 181.019C123.333 485.371 187.62 512 256 512s132.667-26.629 181.02-74.981C485.371 388.667 512 324.38 512 256s-26.629-132.667-74.98-181.019zm-10.607 351.432C380.894 471.932 320.374 497 256 497s-124.894-25.068-170.413-70.587C40.068 380.894 15 320.374 15 256S40.068 131.106 85.587 85.587C131.106 40.068 191.626 15 256 15s124.894 25.068 170.413 70.587C471.932 131.106 497 191.626 497 256s-25.068 124.894-70.587 170.413z" fill="#ffffff" opacity="1" data-original="#000000"></path><path d="m373.63 241.336-17.618-9.61a7.499 7.499 0 0 0-10.175 2.993 7.5 7.5 0 0 0 2.993 10.176l17.618 9.61c.734.4.888 1.034.888 1.496s-.154 1.095-.888 1.496l-174.057 94.94c-.704.383-1.305.195-1.686-.031-.38-.226-.834-.663-.834-1.465V161.06c0-.802.454-1.239.834-1.465.381-.226.983-.414 1.686-.031l124.424 67.868a7.499 7.499 0 0 0 10.175-2.993 7.5 7.5 0 0 0-2.993-10.176l-124.424-67.868c-5.228-2.852-11.406-2.739-16.525.301-5.121 3.04-8.177 8.409-8.177 14.364v189.88c0 5.955 3.057 11.324 8.177 14.364a16.66 16.66 0 0 0 8.521 2.362c2.739 0 5.483-.686 8.004-2.062l174.057-94.94A16.695 16.695 0 0 0 382.336 256a16.695 16.695 0 0 0-8.706-14.664zM322.723 47.157a218.791 218.791 0 0 0-19.076-5.148c-4.044-.897-8.049 1.655-8.945 5.699s1.654 8.05 5.698 8.946a203.265 203.265 0 0 1 17.761 4.793 7.502 7.502 0 0 0 2.283.357 7.504 7.504 0 0 0 7.143-5.221 7.5 7.5 0 0 0-4.864-9.426zM176.102 443.963A204.522 204.522 0 0 1 72.08 344.796a7.501 7.501 0 0 0-13.503 6.532c23.142 47.842 62.793 85.642 111.65 106.437a7.473 7.473 0 0 0 2.934.601 7.501 7.501 0 0 0 6.904-4.565 7.5 7.5 0 0 0-3.963-9.838zM453.432 160.689c-19.785-40.91-52.669-75.438-92.597-97.223a7.499 7.499 0 0 0-10.176 2.991 7.5 7.5 0 0 0 2.992 10.176c37.203 20.298 67.844 52.469 86.277 90.586a7.5 7.5 0 1 0 13.504-6.53z" fill="#ffffff" opacity="1" data-original="#000000"></path></g></svg>